<svg width="183" height="200" viewBox="0 0 183 200" fill="none" xmlns="http://www.w3.org/2000/svg">
<g clip-path="url(#clip0)">
<path d="M160.606 98.5069C160.606 98.5069 156.231 102.489 156.779 103.066C157.802 104.145 163.71 101.493 164.354 100.918C164.688 100.62 164.632 98.5462 164.632 98.5462L160.606 98.5069Z" fill="url(#paint0_linear)"/>
<path d="M176.775 102.554C176.775 102.554 176.853 103.482 176.832 104.317C176.777 106.398 169.782 109.003 169.47 108.113C168.968 106.682 172.557 102.802 172.557 102.802L176.775 102.554Z" fill="url(#paint1_linear)"/>
<path d="M160.719 50.5399C160.719 50.5399 159.29 55.008 159.237 58.4585C159.184 61.9096 160.041 72.6288 159.978 75.4922C159.915 78.3556 159.896 98.997 159.896 98.997C159.896 98.997 163.163 99.7034 164.63 98.5564L166.2 81.9532L168.319 65.2067C168.319 65.2067 171.371 80.0548 171.517 84.0931C171.663 88.1313 171.868 102.291 171.942 102.658C172.015 103.025 176.964 102.645 176.964 102.645C176.964 102.645 178.533 86.6629 178.386 81.7433C178.24 76.8244 178.038 50.5399 178.038 50.5399H160.719Z" fill="url(#paint2_linear)"/>
<path d="M160.275 52.092C160.275 52.092 163.214 54.0005 169.698 53.7355C176.172 53.4705 178.155 52.6836 178.155 52.6836L178.057 54.0969C178.057 54.0969 173.693 56.0409 167.483 55.7309C161.643 55.4392 159.934 53.4806 159.934 53.4806L160.275 52.092Z" fill="url(#paint3_linear)"/>
<path d="M172.113 20.2394C170.813 20.1848 163.092 20.72 161.354 23.3925C159.666 25.9895 160.133 27.0478 161.035 45.1911C161.193 48.3721 160.275 52.0921 160.275 52.0921C160.275 52.0921 163.884 54.2193 167.977 54.1572C173.548 54.0728 178.408 53.0165 178.396 52.4979C178.234 45.8961 179.684 37.3999 180.748 33.4447C181.674 29.9993 182.135 27.0402 180.837 25.4918C177.005 20.9216 173.228 20.2863 172.113 20.2394Z" fill="url(#paint4_linear)"/>
<path fill-rule="evenodd" clip-rule="evenodd" d="M158.8 88.8368C158.8 88.634 158.162 88.9621 158.024 88.7991C158.106 88.7388 159.137 88.1519 159.223 88.1016C159.484 87.9494 159.807 87.9498 160.068 88.1015C162.623 89.5833 168.281 92.8656 169.871 93.7874C170.132 93.9391 170.294 94.2194 170.294 94.5233C170.294 96.1022 170.294 101.105 170.294 103.686C170.294 104.354 169.935 104.948 169.388 105.268C169.195 105.382 168.329 105.885 168.114 106.003C167.032 105.831 165.551 105.984 164.841 106.093C164.66 106.121 164.478 106.046 164.365 105.9C163.56 104.842 160.292 100.552 159.176 99.0869C158.932 98.7675 158.8 98.3758 158.8 97.973C158.8 96.2411 158.8 91.3196 158.8 88.8368Z" fill="url(#paint5_linear)"/>
<path fill-rule="evenodd" clip-rule="evenodd" d="M157.653 89.5082C157.653 89.2051 157.814 88.9244 158.076 88.773C158.337 88.6208 158.66 88.6212 158.921 88.7729C161.476 90.2547 167.134 93.537 168.724 94.4588C168.985 94.6105 169.147 94.8908 169.147 95.1947C169.147 96.7736 169.147 101.776 169.147 104.357C169.147 105.263 168.488 106.032 167.597 106.169C166.249 106.374 164.404 106.656 163.694 106.764C163.513 106.792 163.331 106.718 163.218 106.571C162.413 105.513 159.145 101.223 158.029 99.7583C157.785 99.4389 157.653 99.0472 157.653 98.6444C157.653 96.9125 157.653 91.991 157.653 89.5082Z" fill="url(#paint6_linear)"/>
<path fill-rule="evenodd" clip-rule="evenodd" d="M163.847 91.3138C163.833 89.8184 163.847 32.5877 163.847 32.5877H165.057C165.057 32.5877 165.058 88.2858 165.057 91.3377C164.849 91.6542 164.018 91.6717 163.847 91.3138Z" fill="url(#paint7_linear)"/>
<path d="M163.459 33.904C164.597 33.336 167.752 31.8742 167.116 30.9562C165.9 29.2058 160.202 32.6018 160.202 32.6018L160.288 34.367C160.288 34.367 162.503 34.3821 163.459 33.904Z" fill="#FEC197"/>
<path d="M167.466 34.212C167.466 34.212 162.756 32.4204 163.336 30.367C163.917 28.3142 168.846 32.0956 168.846 32.0956L167.466 34.212Z" fill="#FEC197"/>
<path d="M181.516 26.4784C180.411 23.414 176.299 25.1235 176.162 31.7111C176.144 32.5945 176.619 36.9982 176.607 39.3225C174.468 36.2878 171.692 33.187 169.366 31.6718C168.823 31.3179 167.077 33.8147 166.983 35.3484C169.326 38.1352 177.971 48.9199 179.189 47.1045C181.289 43.9754 182.29 36.0998 182.325 34.4956C182.388 31.6243 182.66 29.6472 181.516 26.4784Z" fill="url(#paint8_linear)"/>
<path d="M161.427 23.2867C160.047 26.2111 160.433 29.0714 160.497 33.805C160.1 34.6024 160.03 34.7394 159.295 36.6027C158.817 37.8167 156.435 46.714 155.55 44.523C153.919 40.4809 157.751 30.4749 157.918 30.0427C158.912 27.478 159.587 24.8629 161.427 23.2867Z" fill="url(#paint9_linear)"/>
<path d="M160.865 31.0408C162.165 32.411 162.72 33.1989 163.386 34.5132C162.848 36.1581 161.857 38.3008 160.709 40.1809C160.03 41.2943 156.233 46.5038 155.503 44.256C153.949 39.469 160.554 31.3835 160.865 31.0408Z" fill="url(#paint10_linear)"/>
<path d="M169.239 19.6691C169.239 19.6691 167.457 20.6227 166.725 19.8783C165.357 18.4885 163.379 11.3212 165.599 9.94469C167.818 8.56817 172.02 6.54111 175.879 7.72869C177.835 8.3304 175.582 14.676 174.798 17.1652C174.128 19.2937 173.945 19.3971 174.867 21.3785C173.081 24.0256 170.496 23.734 169.644 22.9896C168.953 21.4856 169.479 21.2301 169.239 19.6691Z" fill="#FEC197"/>
<path d="M172.232 13.0425C172.224 12.2369 171.747 12.5148 171.697 10.686C169.718 8.74007 167.355 11.3744 163.966 12.1575C164.466 1.92109 182.393 2.93099 175.665 16.712C175.238 17.0874 175.09 16.9274 174.8 17.1667C175.206 15.2979 175.484 11.5148 174.261 12.6369C173.93 12.9408 173.82 13.0102 173.504 13.0432C173.669 15.4902 173.686 19.446 173.117 21.2074C171.76 25.4109 163.575 30.6115 164.661 16.7169C164.684 16.432 164.697 16.0986 165.025 15.879C165.48 17.6355 166.234 19.7645 166.545 18.893C166.904 17.8902 167.447 19.0285 168.537 19.5772C169.341 19.9829 172.296 19.145 172.232 13.0425Z" fill="#292541"/>
<path fill-rule="evenodd" clip-rule="evenodd" d="M170.035 6.14092C173.372 5.49363 176.37 5.59315 177.194 6.76561C177.297 6.91275 177.336 7.40847 177.368 7.57728C177.661 9.09865 174.849 10.9248 171.094 11.6531C167.868 12.279 164.441 11.8509 163.508 10.7653C163.382 10.4825 163.252 9.98945 163.191 9.76838C162.774 8.27691 166.279 6.86937 170.035 6.14092Z" fill="url(#paint11_linear)"/>
<path fill-rule="evenodd" clip-rule="evenodd" d="M168.409 2.80178C173.648 1.38109 176.633 5.10092 176.926 6.62161C177.218 8.14298 174.406 9.96913 170.652 10.6975C166.896 11.4259 163.61 10.7826 163.317 9.26122C163.025 7.74054 164.716 3.80324 168.409 2.80178Z" fill="url(#paint12_linear)"/>
<path fill-rule="evenodd" clip-rule="evenodd" d="M164.469 10.4619C164.469 10.4619 164.8 6.39378 168.597 4.62983C172.973 2.5963 175.266 4.23383 175.472 4.36156C175.194 3.69018 174.121 3.20621 174.121 3.20621C174.121 3.20621 170.718 1.7678 166.94 4.07405C164.177 5.76081 163.444 9.07055 163.384 9.50966C163.666 10.1265 164.469 10.4619 164.469 10.4619Z" fill="url(#paint13_linear)"/>
<path d="M36.5071 53.1114C35.8297 54.1917 34.0634 57.1974 33.2187 56.4685C31.6082 55.0771 35.5468 49.7244 35.5468 49.7244L37.2861 49.9888C37.2861 49.9888 37.0772 52.2039 36.5071 53.1114Z" fill="#FEC197"/>
<path d="M34.5407 95.5846C34.5407 95.5846 38.9154 99.5671 38.3676 100.144C37.3446 101.223 31.4364 98.571 30.792 97.9952C30.4588 97.6972 30.515 95.6239 30.515 95.6239L34.5407 95.5846Z" fill="url(#paint14_linear)"/>
<path d="M18.3716 99.6318C18.3716 99.6318 18.2933 100.56 18.3148 101.394C18.3691 103.476 25.364 106.081 25.6764 105.191C26.1788 103.76 22.5891 99.8797 22.5891 99.8797L18.3716 99.6318Z" fill="url(#paint15_linear)"/>
<path d="M34.428 47.6176C34.428 47.6176 35.8574 52.0857 35.9097 55.5362C35.9628 58.9873 35.1064 69.7065 35.1689 72.5699C35.232 75.4333 35.2509 96.0747 35.2509 96.0747C35.2509 96.0747 31.9838 96.7811 30.5165 95.6341L28.947 79.0309L26.8278 62.2844C26.8278 62.2844 23.7759 77.1325 23.6295 81.1708C23.4837 85.209 23.2786 99.3686 23.2054 99.7357C23.1322 100.103 18.1826 99.723 18.1826 99.723C18.1826 99.723 16.6143 83.7406 16.7607 78.821C16.9065 73.9021 17.1085 47.6176 17.1085 47.6176H34.428Z" fill="url(#paint16_linear)"/>
<path d="M34.8715 49.1697C34.8715 49.1697 31.9325 51.0782 25.4481 50.8131C18.9744 50.5481 16.9916 49.7612 16.9916 49.7612L17.09 51.1745C17.09 51.1745 21.4533 53.1185 27.6632 52.8085C33.5039 52.5168 35.2129 50.5582 35.2129 50.5582L34.8715 49.1697Z" fill="url(#paint17_linear)"/>
<path d="M23.0334 17.317C24.3334 17.2625 32.0548 17.7976 33.7921 20.4701C35.4803 23.0672 35.0133 24.1254 34.1115 42.2687C33.9531 45.4497 34.8713 49.1697 34.8713 49.1697C34.8713 49.1697 31.2621 51.2969 27.1695 51.2348C21.5989 51.1505 16.7383 50.0941 16.751 49.5755C16.9125 42.9738 15.4623 34.4775 14.3989 30.5223C13.4725 27.0769 13.0118 24.1178 14.3099 22.5695C18.1412 17.9992 21.9189 17.3639 23.0334 17.317Z" fill="url(#paint18_linear)"/>
<path fill-rule="evenodd" clip-rule="evenodd" d="M29.1597 29.0493V38.4444L29.8448 38.8423V29.4465L29.1597 29.0493Z" fill="url(#paint19_linear)"/>
<path fill-rule="evenodd" clip-rule="evenodd" d="M33.4761 27.3441L32.7909 26.9468L29.1616 29.0521L29.8469 29.4493L33.4761 27.3441Z" fill="url(#paint20_linear)"/>
<path fill-rule="evenodd" clip-rule="evenodd" d="M29.8513 29.4494L33.4805 27.3441V36.7398L29.8513 38.8451V29.4494L29.166 29.0522L29.8513 29.4494Z" fill="url(#paint21_linear)"/>
<path d="M29.2144 37.5147C29.2144 37.5147 34.0093 35.9688 33.5351 33.8881C33.0603 31.808 27.9442 35.3299 27.9442 35.3299L29.2144 37.5147Z" fill="#FEC197"/>
<path d="M13.5575 23.904C15.0325 21.0009 18.9018 23.2092 18.2251 29.763C18.1341 30.6419 17.4858 36.3445 17.2116 38.6524C20.1751 36.7821 25.9708 35.379 28.466 34.1651C29.0487 33.8817 30.4734 36.576 30.377 38.1095C27.7085 40.5837 13.1892 46.1453 12.2043 44.1923C10.5062 40.8258 11.3522 32.1955 11.4084 31.7137C11.7429 28.8616 12.0321 26.9059 13.5575 23.904Z" fill="url(#paint22_linear)"/>
<path d="M33.7192 20.3643C35.0994 23.2887 34.6947 28.222 34.6296 32.9558C35.027 33.7531 35.0723 37.4071 35.2636 39.0531C35.3185 39.524 34.8351 48.824 35.0966 49.2107C35.5705 49.9092 36.765 50.1905 37.8078 50.1868C39.2791 47.8889 39.2746 37.7384 39.2468 37.0481C39.0838 32.9499 37.2088 26.3211 37.0124 25.9009C35.8507 23.4139 35.5597 21.9405 33.7192 20.3643Z" fill="url(#paint23_linear)"/>
<path d="M28.438 17.2885C28.438 17.2885 30.0144 18.5562 30.8706 17.9604C32.4707 16.8482 35.7314 10.1709 33.8029 8.40639C31.8744 6.64188 28.1173 3.87038 24.1063 4.32182C22.073 4.55036 23.1214 11.2047 23.435 13.7967C23.7026 16.0129 23.8629 16.1483 22.5927 17.9247C23.8616 20.8576 26.4563 21.0505 27.4304 20.4769C28.3859 19.1269 27.9155 18.7782 28.438 17.2885Z" fill="#FEC197"/>
<path d="M26.7142 10.2207C26.7326 9.41521 27.2883 9.79208 27.673 8.00394C29.976 6.45854 31.8136 9.4857 35.0011 10.8841C36.3904 0.730766 18.586 -1.60149 22.666 13.1904C23.0164 13.6386 23.1921 13.5089 23.433 13.7978C23.3775 11.8859 23.7994 8.11624 24.7952 9.44589C25.0641 9.8058 25.1598 9.89453 25.464 9.9855C25.1861 11.6124 25.1662 11.7193 25.1815 12.9753C26.7323 13.8114 26.6958 11.0227 26.7142 10.2207Z" fill="#292541"/>
<path fill-rule="evenodd" clip-rule="evenodd" d="M30.1424 3.84381C26.9817 2.58874 24.0165 2.13047 22.9917 3.13003C22.8627 3.25542 22.734 3.73552 22.6711 3.89541C22.1043 5.33641 24.5322 7.65268 28.0886 9.06485C31.1445 10.2783 34.5912 10.4931 35.7071 9.59915C35.8833 9.34462 36.101 8.88407 36.2021 8.67821C36.886 7.2897 33.6994 5.25623 30.1424 3.84381Z" fill="url(#paint24_linear)"/>
<path fill-rule="evenodd" clip-rule="evenodd" d="M32.3537 0.863651C27.4661 -1.5042 23.8482 1.59796 23.2816 3.03831C22.7148 4.47932 25.1426 6.79555 28.699 8.20772C32.256 9.62014 35.604 9.59737 36.1709 8.15637C36.7375 6.71601 35.799 2.53277 32.3537 0.863651Z" fill="url(#paint25_linear)"/>
<path fill-rule="evenodd" clip-rule="evenodd" d="M34.8188 9.12292C34.8188 9.12292 35.2406 5.0633 31.8331 2.6255C27.9055 -0.184756 25.3517 0.999497 25.1254 1.08675C25.5217 0.478406 26.6657 0.201846 26.6657 0.201846C26.6657 0.201846 30.2743 -0.580731 33.5637 2.38657C35.969 4.55672 36.0811 7.94549 36.0595 8.3882C35.6691 8.94211 34.8188 9.12292 34.8188 9.12292Z" fill="url(#paint26_linear)"/>
<path d="M97.7634 58.6806L73.0786 44.3442L97.7046 30.0873L122.435 44.3699L97.7634 58.6806Z" fill="url(#paint27_linear)"/>
<path fill-rule="evenodd" clip-rule="evenodd" d="M97.7632 122.199V58.6806L122.44 44.373L122.434 107.887L97.7632 122.199Z" fill="url(#paint28_linear)"/>
<path d="M73.0877 44.3487L73.0862 52.7485L73.0786 107.88L97.7634 122.199V58.6805L73.0877 44.3487Z" fill="url(#paint29_linear)"/>
<path d="M73.0877 44.3487L73.0862 52.7485L73.0786 107.88L97.7634 122.199V58.6805L73.0877 44.3487Z" fill="url(#paint30_linear)"/>
<path d="M73.0877 95.3598L73.0786 44.3541L97.7792 58.6715L97.7634 81.0461L73.0877 95.3598Z" fill="url(#paint31_linear)"/>
<path d="M73.0877 95.3598L73.0786 44.3541L97.7792 58.6715L97.7634 81.0461L73.0877 95.3598Z" fill="url(#paint32_linear)"/>
<path fill-rule="evenodd" clip-rule="evenodd" d="M97.7634 58.6805V122.199L73.0786 107.88L73.0877 44.3487L97.7634 58.6805ZM74.4762 107.069L96.3665 119.767V59.4908L74.4837 46.781L74.4762 107.069Z" fill="url(#paint33_linear)"/>
<path fill-rule="evenodd" clip-rule="evenodd" d="M97.7634 58.6805V122.199L73.0786 107.88L73.0877 44.3487L97.7634 58.6805ZM74.4762 107.069L96.3665 119.767V59.4908L74.4837 46.781L74.4762 107.069Z" fill="url(#paint34_linear)"/>
<path fill-rule="evenodd" clip-rule="evenodd" d="M117.634 63.3806V65.1698L103.292 73.4894V71.7002L117.634 63.3806Z" fill="url(#paint35_linear)"/>
<path fill-rule="evenodd" clip-rule="evenodd" d="M117.634 63.3806V65.1698L103.292 73.4894V71.7002L117.634 63.3806Z" fill="url(#paint36_linear)"/>
<path fill-rule="evenodd" clip-rule="evenodd" d="M117.634 71.432V73.2212L103.292 81.5409V79.7516L117.634 71.432Z" fill="url(#paint37_linear)"/>
<path fill-rule="evenodd" clip-rule="evenodd" d="M117.634 71.432V73.2212L103.292 81.5409V79.7516L117.634 71.432Z" fill="url(#paint38_linear)"/>
<path fill-rule="evenodd" clip-rule="evenodd" d="M117.634 79.4835V81.2727L103.292 89.5924V87.8032L117.634 79.4835Z" fill="url(#paint39_linear)"/>
<path fill-rule="evenodd" clip-rule="evenodd" d="M117.634 79.4835V81.2727L103.292 89.5924V87.8032L117.634 79.4835Z" fill="url(#paint40_linear)"/>
<path fill-rule="evenodd" clip-rule="evenodd" d="M117.634 87.5351V89.3243L103.292 97.644V95.8547L117.634 87.5351Z" fill="url(#paint41_linear)"/>
<path fill-rule="evenodd" clip-rule="evenodd" d="M117.634 87.5351V89.3243L103.292 97.644V95.8547L117.634 87.5351Z" fill="url(#paint42_linear)"/>
<path fill-rule="evenodd" clip-rule="evenodd" d="M117.634 95.5867V97.3759L103.292 105.696V103.906L117.634 95.5867Z" fill="url(#paint43_linear)"/>
<path fill-rule="evenodd" clip-rule="evenodd" d="M117.634 95.5867V97.3759L103.292 105.696V103.906L117.634 95.5867Z" fill="url(#paint44_linear)"/>
<path fill-rule="evenodd" clip-rule="evenodd" d="M116.33 43.4727V44.3669L97.8228 55.1022V54.208L116.33 43.4727Z" fill="url(#paint45_linear)"/>
<path fill-rule="evenodd" clip-rule="evenodd" d="M79.3154 43.4727V44.3669L97.8226 55.1022V54.208L79.3154 43.4727Z" fill="url(#paint46_linear)"/>
<path fill-rule="evenodd" clip-rule="evenodd" d="M97.8226 54.2079L79.3154 43.4727L97.7631 32.7366L116.33 43.4727L97.8226 54.2079Z" fill="url(#paint47_linear)"/>
<path fill-rule="evenodd" clip-rule="evenodd" d="M76.8987 106.023C76.8987 105.305 76.3965 104.432 75.7781 104.073C75.4665 103.892 75.1853 103.877 74.9818 103.997V103.996L74.188 104.463L74.679 104.479C74.6646 104.554 74.6574 104.636 74.6574 104.723C74.6574 105.441 75.1589 106.314 75.7781 106.673C75.8598 106.721 75.9407 106.756 76.0176 106.782L75.7893 107.211L76.5663 106.755L76.5655 106.754C76.7714 106.638 76.8987 106.384 76.8987 106.023Z" fill="url(#paint48_linear)"/>
<path fill-rule="evenodd" clip-rule="evenodd" d="M76.1 106.492C76.1 107.211 75.5978 107.502 74.9786 107.143C74.3602 106.784 73.8579 105.911 73.8579 105.193C73.8579 104.475 74.3602 104.183 74.9786 104.542C75.5978 104.901 76.1 105.775 76.1 106.492Z" fill="url(#paint49_linear)"/>
<path fill-rule="evenodd" clip-rule="evenodd" d="M75.6233 106.216C75.6233 106.63 75.335 106.797 74.9785 106.59C74.6228 106.384 74.3345 105.881 74.3345 105.469C74.3345 105.056 74.6228 104.888 74.9785 105.094C75.335 105.301 75.6233 105.803 75.6233 106.216Z" fill="#3B3751"/>
<path fill-rule="evenodd" clip-rule="evenodd" d="M75.6233 106.216C75.6233 106.63 75.335 106.797 74.9785 106.59C74.6228 106.384 74.3345 105.881 74.3345 105.469C74.3345 105.056 74.6228 104.888 74.9785 105.094C75.335 105.301 75.6233 105.803 75.6233 106.216Z" fill="#3B3751"/>
<path fill-rule="evenodd" clip-rule="evenodd" d="M76.9207 49.7805C76.9207 49.0626 76.4185 48.1894 75.8 47.8304C75.4884 47.6494 75.2073 47.6341 75.0038 47.754V47.7532L74.21 48.22L74.701 48.2369C74.6866 48.3117 74.6794 48.393 74.6794 48.4807C74.6794 49.1986 75.1808 50.0718 75.8 50.4308C75.8818 50.4783 75.9626 50.5137 76.0395 50.5394L75.8112 50.9684L76.5883 50.5121L76.5875 50.5113C76.7933 50.3954 76.9207 50.1419 76.9207 49.7805Z" fill="url(#paint50_linear)"/>
<path fill-rule="evenodd" clip-rule="evenodd" d="M76.122 50.2498C76.122 50.9685 75.6197 51.259 75.0005 50.9001C74.3821 50.5411 73.8799 49.6679 73.8799 48.95C73.8799 48.2321 74.3821 47.9408 75.0005 48.2997C75.6197 48.6587 76.122 49.5319 76.122 50.2498Z" fill="url(#paint51_linear)"/>
<path fill-rule="evenodd" clip-rule="evenodd" d="M75.6453 49.9736C75.6453 50.3873 75.357 50.5547 75.0005 50.3478C74.6448 50.141 74.3564 49.6388 74.3564 49.2259C74.3564 48.8131 74.6448 48.6457 75.0005 48.8517C75.357 49.0585 75.6453 49.5607 75.6453 49.9736Z" fill="#3B3751"/>
<path fill-rule="evenodd" clip-rule="evenodd" d="M75.6453 49.9736C75.6453 50.3873 75.357 50.5547 75.0005 50.3478C74.6448 50.141 74.3564 49.6388 74.3564 49.2259C74.3564 48.8131 74.6448 48.6457 75.0005 48.8517C75.357 49.0585 75.6453 49.5607 75.6453 49.9736Z" fill="#3B3751"/>
<path fill-rule="evenodd" clip-rule="evenodd" d="M96.1824 117.203C96.1824 116.485 95.6802 115.612 95.0618 115.253C94.7502 115.072 94.469 115.056 94.2655 115.176V115.175L93.4717 115.642L93.9627 115.659C93.9483 115.734 93.9411 115.815 93.9411 115.903C93.9411 116.621 94.4426 117.494 95.0618 117.853C95.1435 117.9 95.2244 117.936 95.3013 117.962L95.073 118.391L95.85 117.934L95.8492 117.933C96.0551 117.818 96.1824 117.564 96.1824 117.203Z" fill="url(#paint52_linear)"/>
<path fill-rule="evenodd" clip-rule="evenodd" d="M95.3837 117.672C95.3837 118.391 94.8815 118.681 94.2622 118.322C93.6438 117.963 93.1416 117.09 93.1416 116.372C93.1416 115.654 93.6438 115.363 94.2622 115.722C94.8815 116.081 95.3837 116.954 95.3837 117.672Z" fill="url(#paint53_linear)"/>
<path fill-rule="evenodd" clip-rule="evenodd" d="M94.907 117.396C94.907 117.81 94.6187 117.977 94.2622 117.77C93.9065 117.563 93.6182 117.061 93.6182 116.648C93.6182 116.235 93.9065 116.068 94.2622 116.274C94.6187 116.481 94.907 116.983 94.907 117.396Z" fill="#3B3751"/>
<path fill-rule="evenodd" clip-rule="evenodd" d="M94.907 117.396C94.907 117.81 94.6187 117.977 94.2622 117.77C93.9065 117.563 93.6182 117.061 93.6182 116.648C93.6182 116.235 93.9065 116.068 94.2622 116.274C94.6187 116.481 94.907 116.983 94.907 117.396Z" fill="#3B3751"/>
<path fill-rule="evenodd" clip-rule="evenodd" d="M96.1824 60.9536C96.1824 60.2357 95.6802 59.3625 95.0618 59.0035C94.7502 58.8224 94.469 58.8072 94.2655 58.9271V58.9263L93.4717 59.3931L93.9627 59.41C93.9483 59.4848 93.9411 59.5661 93.9411 59.6538C93.9411 60.3717 94.4426 61.2449 95.0618 61.6039C95.1435 61.6514 95.2244 61.6868 95.3013 61.7125L95.073 62.1415L95.85 61.6852L95.8492 61.6844C96.0551 61.5685 96.1824 61.315 96.1824 60.9536Z" fill="url(#paint54_linear)"/>
<path fill-rule="evenodd" clip-rule="evenodd" d="M95.3837 61.4229C95.3837 62.1416 94.8815 62.4321 94.2622 62.0732C93.6438 61.7142 93.1416 60.841 93.1416 60.1231C93.1416 59.4052 93.6438 59.1139 94.2622 59.4728C94.8815 59.8318 95.3837 60.705 95.3837 61.4229Z" fill="url(#paint55_linear)"/>
<path fill-rule="evenodd" clip-rule="evenodd" d="M94.907 61.1467C94.907 61.5604 94.6187 61.7278 94.2622 61.5209C93.9065 61.3141 93.6182 60.8119 93.6182 60.399C93.6182 59.9862 93.9065 59.8188 94.2622 60.0248C94.6187 60.2316 94.907 60.7338 94.907 61.1467Z" fill="#3B3751"/>
<path fill-rule="evenodd" clip-rule="evenodd" d="M94.907 61.1467C94.907 61.5604 94.6187 61.7278 94.2622 61.5209C93.9065 61.3141 93.6182 60.8119 93.6182 60.399C93.6182 59.9862 93.9065 59.8188 94.2622 60.0248C94.6187 60.2316 94.907 60.7338 94.907 61.1467Z" fill="#3B3751"/>
<path fill-rule="evenodd" clip-rule="evenodd" d="M83.83 65.5109C83.0467 64.9225 82.2462 64.4587 81.4629 64.1394C81.2441 64.596 81.0257 65.0529 80.8078 65.5102C80.1991 65.3759 79.6343 65.3737 79.1402 65.5037C78.5243 65.0432 77.9082 64.583 77.2919 64.1232C76.7834 64.4373 76.3831 64.8965 76.1084 65.4808C76.5058 66.1916 76.9035 66.9022 77.3017 67.6129C77.187 68.1811 77.187 68.8311 77.3017 69.5322C76.9035 69.7814 76.5058 70.031 76.1084 70.2814C76.3831 71.1839 76.7834 72.107 77.2919 73.0105C77.9082 73.2646 78.5243 73.5184 79.1402 73.7715C79.6343 74.4741 80.1991 75.1263 80.8078 75.6974C81.0257 76.4073 81.2441 77.1173 81.4629 77.8273C82.2462 78.4157 83.0467 78.8795 83.83 79.1988C84.0488 78.7422 84.2672 78.2853 84.4851 77.8279C85.0938 77.9623 85.6586 77.9645 86.1527 77.8344C86.7686 78.295 87.3849 78.7553 88.001 79.2151C88.5096 78.9009 88.9098 78.4417 89.1845 77.8574C88.7871 77.1466 88.3894 76.4361 87.9912 75.7255C88.1059 75.1573 88.1059 74.5073 87.9912 73.8061C88.3894 73.5569 88.7871 73.3071 89.1845 73.0568C88.9098 72.1542 88.5096 71.2313 88.001 70.3278C87.3849 70.0736 86.7686 69.8198 86.1527 69.5666C85.6586 68.864 85.0938 68.2118 84.4851 67.6408C84.2672 66.9309 84.0488 66.2209 83.83 65.5109ZM82.6465 69.0131C84.1171 69.8652 85.3113 71.7471 85.3113 73.2131C85.3113 74.6789 84.1171 75.1773 82.6465 74.3253C81.1758 73.4731 79.9818 71.5912 79.9818 70.1253C79.9818 68.6593 81.1758 68.161 82.6465 69.0131Z" fill="url(#paint56_linear)"/>
<path fill-rule="evenodd" clip-rule="evenodd" d="M90.765 80.1298C90.2137 79.7153 89.6503 79.3885 89.099 79.1634C88.9451 79.4846 88.7914 79.8061 88.638 80.1279C88.2096 80.033 87.8121 80.0312 87.4644 80.1225C87.0309 79.798 86.5972 79.4739 86.1635 79.15C85.8056 79.3708 85.5239 79.6938 85.3306 80.1049C85.6102 80.6053 85.8902 81.1057 86.1704 81.606C86.0897 82.0058 86.0897 82.4633 86.1704 82.9568C85.8902 83.132 85.6102 83.3075 85.3306 83.4835C85.5239 84.1189 85.8056 84.7687 86.1635 85.4048C86.5972 85.584 87.0309 85.7629 87.4644 85.9413C87.8121 86.436 88.2096 86.8953 88.638 87.2975C88.7914 87.7972 88.9451 88.297 89.099 88.7969C89.6503 89.2113 90.2137 89.5381 90.765 89.7632C90.919 89.442 91.0727 89.1205 91.226 88.7987C91.6545 88.8936 92.052 88.8954 92.3997 88.8041C92.8332 89.1286 93.2669 89.4528 93.7006 89.7768C94.0585 89.5559 94.3402 89.2329 94.5335 88.8218C94.2538 88.3213 93.9739 87.8211 93.6936 87.3207C93.7744 86.9209 93.7744 86.4634 93.6936 85.9699C93.9739 85.7947 94.2538 85.6191 94.5335 85.4431C94.3402 84.8078 94.0585 84.158 93.7006 83.5219C93.2669 83.3427 92.8332 83.1637 92.3997 82.9853C92.052 82.4906 91.6545 82.0313 91.226 81.6291C91.0727 81.1294 90.919 80.6296 90.765 80.1298ZM89.9321 82.5941C90.9671 83.1944 91.8075 84.5195 91.8075 85.5513C91.8075 86.5829 90.9671 86.9331 89.9321 86.3327C88.897 85.7323 88.0567 84.4072 88.0567 83.3755C88.0567 82.3438 88.897 81.9936 89.9321 82.5941Z" fill="url(#paint57_linear)"/>
<path fill-rule="evenodd" clip-rule="evenodd" d="M83.2375 79.6709C82.9256 79.4364 82.6068 79.2515 82.2949 79.1241C82.2078 79.3059 82.1208 79.4878 82.034 79.6699C81.7916 79.6162 81.5667 79.6152 81.3699 79.6668C81.1247 79.4832 80.8793 79.2998 80.6339 79.1165C80.4314 79.2415 80.272 79.4242 80.1626 79.6568C80.3208 79.94 80.4792 80.2231 80.6378 80.5062C80.5921 80.7325 80.5921 80.9913 80.6378 81.2705C80.4792 81.3697 80.3208 81.469 80.1626 81.5685C80.272 81.928 80.4314 82.2957 80.6339 82.6557C80.8793 82.757 81.1247 82.8582 81.3699 82.9592C81.5667 83.2391 81.7916 83.499 82.034 83.7266C82.1208 84.0093 82.2078 84.2921 82.2949 84.5749C82.6068 84.8095 82.9256 84.9944 83.2375 85.1217C83.3246 84.94 83.4116 84.7581 83.4984 84.576C83.7408 84.6297 83.9657 84.6307 84.1624 84.5791C84.4077 84.7626 84.6531 84.9461 84.8985 85.1294C85.101 85.0044 85.2604 84.8216 85.3698 84.589C85.2115 84.3059 85.0532 84.0228 84.8946 83.7397C84.9403 83.5135 84.9403 83.2546 84.8946 82.9754C85.0532 82.8763 85.2115 82.7769 85.3698 82.6773C85.2604 82.3178 85.101 81.9502 84.8985 81.5903C84.6531 81.4889 84.4077 81.3876 84.1624 81.2866C83.9657 81.0067 83.7408 80.7469 83.4984 80.5193C83.4116 80.2365 83.3246 79.9537 83.2375 79.6709ZM82.7662 81.0653C83.3518 81.405 83.8274 82.1547 83.8274 82.7385C83.8274 83.3223 83.3518 83.5204 82.7662 83.1807C82.1805 82.841 81.7051 82.0912 81.7051 81.5075C81.7051 80.9237 82.1805 80.7255 82.7662 81.0653Z" fill="url(#paint58_linear)"/>
<path fill-rule="evenodd" clip-rule="evenodd" d="M63.0547 184.444V185.255L75.6467 177.951V177.139L63.0547 184.444Z" fill="url(#paint59_linear)"/>
<path fill-rule="evenodd" clip-rule="evenodd" d="M50.813 177.342V178.154L63.0552 185.255V184.444L50.813 177.342Z" fill="url(#paint60_linear)"/>
<path fill-rule="evenodd" clip-rule="evenodd" d="M50.813 177.342L63.0552 184.444L75.6472 177.139L63.405 170.038L50.813 177.342Z" fill="url(#paint61_linear)"/>
<path fill-rule="evenodd" clip-rule="evenodd" d="M63.3686 159.122C63.9879 159.122 65.37 159.713 65.8996 160.522C67.3511 165.806 69.8889 174.929 69.8889 176.685C69.8889 178.805 66.9671 180.527 63.3686 180.527C59.7701 180.527 56.8486 178.805 56.8486 176.685C56.8486 174.989 59.526 165.435 60.8376 160.522C61.4858 159.514 62.6481 159.122 63.3686 159.122Z" fill="url(#paint62_linear)"/>
<path fill-rule="evenodd" clip-rule="evenodd" d="M58.4063 169.603C59.8442 172.284 66.8368 172.597 68.3311 169.505C68.6634 170.762 68.7479 171.095 68.9595 171.982C68.9595 173.776 66.4145 175.236 63.3701 175.236C60.3257 175.236 57.3891 173.76 57.7874 172.035C57.8904 171.588 58.2324 170.251 58.4063 169.603Z" fill="url(#paint63_linear)"/>
<path fill-rule="evenodd" clip-rule="evenodd" d="M60.0158 163.573C60.9915 165.392 65.7176 165.642 66.7316 163.544C66.9571 164.397 67.0333 164.574 67.1769 165.176C67.1769 166.393 65.4312 167.398 63.3653 167.398C61.2994 167.398 59.2944 166.413 59.5646 165.242C59.6345 164.939 59.8978 164.013 60.0158 163.573Z" fill="url(#paint64_linear)"/>
<path d="M63.3688 162.325C64.7779 162.325 65.9202 161.607 65.9202 160.722C65.9202 159.837 64.7779 159.12 63.3688 159.12C61.9597 159.12 60.8174 159.837 60.8174 160.722C60.8174 161.607 61.9597 162.325 63.3688 162.325Z" fill="url(#paint65_linear)"/>
<path fill-rule="evenodd" clip-rule="evenodd" d="M12.2437 154.969V155.781L24.8357 148.477V147.665L12.2437 154.969Z" fill="url(#paint66_linear)"/>
<path fill-rule="evenodd" clip-rule="evenodd" d="M0.00195312 147.868V148.68L12.2441 155.781V154.969L0.00195312 147.868Z" fill="url(#paint67_linear)"/>
<path fill-rule="evenodd" clip-rule="evenodd" d="M0.00195312 147.868L12.2441 154.969L24.8361 147.665L12.5939 140.564L0.00195312 147.868Z" fill="url(#paint68_linear)"/>
<path fill-rule="evenodd" clip-rule="evenodd" d="M12.5576 129.648C13.1769 129.648 14.559 130.239 15.0886 131.048C16.5401 136.332 19.0779 145.455 19.0779 147.21C19.0779 149.331 16.1561 151.053 12.5576 151.053C8.95912 151.053 6.0376 149.331 6.0376 147.21C6.0376 145.515 8.71494 135.961 10.0266 131.048C10.6747 130.04 11.8371 129.648 12.5576 129.648Z" fill="url(#paint69_linear)"/>
<path fill-rule="evenodd" clip-rule="evenodd" d="M7.59528 140.128C9.03313 142.809 16.0257 143.123 17.5201 140.031C17.8524 141.288 17.9369 141.621 18.1485 142.508C18.1485 144.302 15.6034 145.762 12.5591 145.762C9.51471 145.762 6.57809 144.285 6.97633 142.56C7.07935 142.114 7.42136 140.777 7.59528 140.128Z" fill="url(#paint70_linear)"/>
<path fill-rule="evenodd" clip-rule="evenodd" d="M9.20478 134.098C10.1805 135.918 14.9065 136.168 15.9206 134.07C16.1461 134.922 16.2222 135.099 16.3658 135.701C16.3658 136.919 14.6201 137.923 12.5542 137.923C10.4883 137.923 8.48332 136.939 8.75356 135.768C8.82347 135.465 9.08676 134.539 9.20478 134.098Z" fill="url(#paint71_linear)"/>
<path d="M12.5578 132.85C13.9669 132.85 15.1092 132.133 15.1092 131.248C15.1092 130.363 13.9669 129.645 12.5578 129.645C11.1487 129.645 10.0063 130.363 10.0063 131.248C10.0063 132.133 11.1487 132.85 12.5578 132.85Z" fill="url(#paint72_linear)"/>
<path fill-rule="evenodd" clip-rule="evenodd" d="M99.4546 137.213L105.504 140.722L111.553 137.213L105.504 133.704L99.4546 137.213Z" fill="url(#paint73_linear)"/>
<path fill-rule="evenodd" clip-rule="evenodd" d="M111.554 140.02V137.213L105.505 140.722V143.529" fill="url(#paint74_linear)"/>
<path fill-rule="evenodd" clip-rule="evenodd" d="M99.4531 137.213V140.02L105.502 143.529V140.722" fill="url(#paint75_linear)"/>
<path fill-rule="evenodd" clip-rule="evenodd" d="M104.294 137.213L105.504 137.915L106.203 137.51L106.233 99.5971L105.504 100.02L104.294 99.3185V137.213Z" fill="url(#paint76_linear)"/>
<path fill-rule="evenodd" clip-rule="evenodd" d="M106.711 137.213L105.501 137.915V100.02L106.711 99.3185V137.213Z" fill="url(#paint77_linear)"/>
<path fill-rule="evenodd" clip-rule="evenodd" d="M104.294 99.3185L105.504 98.6167L106.714 99.3185L105.504 100.02L104.294 99.3185Z" fill="url(#paint78_linear)"/>
<path fill-rule="evenodd" clip-rule="evenodd" d="M135.748 116.161L141.798 119.669L147.846 116.161L141.798 112.652L135.748 116.161Z" fill="url(#paint79_linear)"/>
<path fill-rule="evenodd" clip-rule="evenodd" d="M147.847 118.967V116.16L141.798 119.669V122.476L147.847 118.967Z" fill="url(#paint80_linear)"/>
<path fill-rule="evenodd" clip-rule="evenodd" d="M135.747 116.16V118.967L141.795 122.476V119.669L135.747 116.16Z" fill="url(#paint81_linear)"/>
<path fill-rule="evenodd" clip-rule="evenodd" d="M140.588 116.161L141.798 116.862L142.496 116.457L142.527 78.5444L141.798 78.9676L140.588 78.2659V116.161Z" fill="url(#paint82_linear)"/>
<path fill-rule="evenodd" clip-rule="evenodd" d="M143.005 116.161L141.795 116.862V78.9676L143.005 78.2659V116.161Z" fill="url(#paint83_linear)"/>
<path fill-rule="evenodd" clip-rule="evenodd" d="M140.588 78.2658L141.798 77.5641L143.007 78.2658L141.798 78.9676L140.588 78.2658Z" fill="url(#paint84_linear)"/>
<path fill-rule="evenodd" clip-rule="evenodd" d="M103.784 106.04L146.133 81.4786V88.4961L103.784 113.058V106.04Z" fill="url(#paint85_linear)"/>
<path fill-rule="evenodd" clip-rule="evenodd" d="M103.084 112.652L103.783 113.057V106.039L103.084 105.634V112.652Z" fill="#F49459"/>
<path fill-rule="evenodd" clip-rule="evenodd" d="M146.131 81.4798L145.433 81.0749L103.083 105.632L103.781 106.037L146.131 81.4798Z" fill="#F8A26C"/>
<path fill-rule="evenodd" clip-rule="evenodd" d="M106.715 104.344L104.295 112.765L109.135 109.958L111.554 101.536L106.715 104.344Z" fill="url(#paint86_linear)"/>
<path fill-rule="evenodd" clip-rule="evenodd" d="M111.555 101.536L106.715 104.343L106.017 103.938L110.863 101.127L111.555 101.536Z" fill="url(#paint87_linear)"/>
<path fill-rule="evenodd" clip-rule="evenodd" d="M116.393 98.7295L113.973 107.151L118.813 104.344L121.232 95.9225L116.393 98.7295Z" fill="url(#paint88_linear)"/>
<path fill-rule="evenodd" clip-rule="evenodd" d="M121.233 95.9225L116.393 98.7295L115.695 98.3239L120.541 95.5126L121.233 95.9225Z" fill="url(#paint89_linear)"/>
<path fill-rule="evenodd" clip-rule="evenodd" d="M126.071 93.1154L123.651 101.536L128.491 98.7295L130.911 90.3084L126.071 93.1154Z" fill="url(#paint90_linear)"/>
<path fill-rule="evenodd" clip-rule="evenodd" d="M130.911 90.3084L126.072 93.1154L125.373 92.7098L130.22 89.8985L130.911 90.3084Z" fill="url(#paint91_linear)"/>
<path fill-rule="evenodd" clip-rule="evenodd" d="M135.749 87.5014L133.33 95.9225L138.169 93.1154L140.589 84.6944L135.749 87.5014Z" fill="url(#paint92_linear)"/>
<path fill-rule="evenodd" clip-rule="evenodd" d="M140.589 84.6944L135.75 87.5014L135.051 87.0958L139.898 84.2845L140.589 84.6944Z" fill="url(#paint93_linear)"/>
<path fill-rule="evenodd" clip-rule="evenodd" d="M145.428 81.8873L143.008 90.3084L146.126 88.4992L146.134 81.4774L145.428 81.8873Z" fill="url(#paint94_linear)"/>
<path fill-rule="evenodd" clip-rule="evenodd" d="M146.126 81.4804L145.428 81.886L144.729 81.4804L145.436 81.0712L146.126 81.4804Z" fill="url(#paint95_linear)"/>
<path fill-rule="evenodd" clip-rule="evenodd" d="M92.1948 138.617L86.1454 142.125L80.0966 138.617L86.1454 135.108L92.1948 138.617Z" fill="url(#paint96_linear)"/>
<path fill-rule="evenodd" clip-rule="evenodd" d="M80.0958 141.423V138.616L86.1445 142.125V144.932" fill="url(#paint97_linear)"/>
<path fill-rule="evenodd" clip-rule="evenodd" d="M92.1963 138.616V141.423L86.1475 144.932V142.125" fill="url(#paint98_linear)"/>
<path fill-rule="evenodd" clip-rule="evenodd" d="M87.355 138.617L86.1452 139.318L85.4467 138.913L85.416 101.001L86.1452 101.424L87.355 100.722V138.617Z" fill="url(#paint99_linear)"/>
<path fill-rule="evenodd" clip-rule="evenodd" d="M84.9382 138.617L86.1479 139.318V101.424L84.9382 100.722V138.617Z" fill="url(#paint100_linear)"/>
<path fill-rule="evenodd" clip-rule="evenodd" d="M87.355 100.722L86.1452 100.02L84.9355 100.722L86.1452 101.424L87.355 100.722Z" fill="url(#paint101_linear)"/>
<path fill-rule="evenodd" clip-rule="evenodd" d="M55.9014 117.564L49.8519 121.073L43.8032 117.564L49.8519 114.055L55.9014 117.564Z" fill="url(#paint102_linear)"/>
<path fill-rule="evenodd" clip-rule="evenodd" d="M43.8023 120.371V117.564L49.8511 121.073V123.88L43.8023 120.371Z" fill="url(#paint103_linear)"/>
<path fill-rule="evenodd" clip-rule="evenodd" d="M55.9028 117.564V120.371L49.854 123.88V121.073L55.9028 117.564Z" fill="url(#paint104_linear)"/>
<path fill-rule="evenodd" clip-rule="evenodd" d="M51.0615 117.564L49.8517 118.266L49.1533 117.861L49.1226 79.9479L49.8517 80.3711L51.0615 79.6694V117.564Z" fill="url(#paint105_linear)"/>
<path fill-rule="evenodd" clip-rule="evenodd" d="M48.6447 117.564L49.8545 118.266V80.3711L48.6447 79.6694V117.564Z" fill="url(#paint106_linear)"/>
<path fill-rule="evenodd" clip-rule="evenodd" d="M51.0615 79.6693L49.8517 78.9676L48.642 79.6693L49.8517 80.3711L51.0615 79.6693Z" fill="url(#paint107_linear)"/>
<path fill-rule="evenodd" clip-rule="evenodd" d="M87.8657 107.443L45.516 82.8821V89.8996L87.8657 114.461V107.443Z" fill="url(#paint108_linear)"/>
<path fill-rule="evenodd" clip-rule="evenodd" d="M88.5649 114.055L87.8665 114.46V107.443L88.5649 107.038V114.055Z" fill="#F49459"/>
<path fill-rule="evenodd" clip-rule="evenodd" d="M45.5181 82.8833L46.2166 82.4783L88.5664 107.036L87.8679 107.44L45.5181 82.8833Z" fill="#F8A26C"/>
<path fill-rule="evenodd" clip-rule="evenodd" d="M84.9349 105.747L87.3545 114.168L82.5147 111.361L80.0952 102.94L84.9349 105.747Z" fill="url(#paint109_linear)"/>
<path fill-rule="evenodd" clip-rule="evenodd" d="M80.0947 102.94L84.9343 105.747L85.6328 105.341L80.7861 102.53L80.0947 102.94Z" fill="url(#paint110_linear)"/>
<path fill-rule="evenodd" clip-rule="evenodd" d="M75.2567 100.133L77.6763 108.554L72.8365 105.747L70.417 97.326L75.2567 100.133Z" fill="url(#paint111_linear)"/>
<path fill-rule="evenodd" clip-rule="evenodd" d="M70.4164 97.326L75.2561 100.133L75.9546 99.7274L71.1079 96.9161L70.4164 97.326Z" fill="url(#paint112_linear)"/>
<path fill-rule="evenodd" clip-rule="evenodd" d="M65.5785 94.5189L67.998 102.94L63.1583 100.133L60.7388 91.7119L65.5785 94.5189Z" fill="url(#paint113_linear)"/>
<path fill-rule="evenodd" clip-rule="evenodd" d="M60.7382 91.7119L65.5779 94.5189L66.2764 94.1133L61.4297 91.302L60.7382 91.7119Z" fill="url(#paint114_linear)"/>
<path fill-rule="evenodd" clip-rule="evenodd" d="M55.9002 88.9049L58.3198 97.3259L53.4801 94.5189L51.0606 86.0979L55.9002 88.9049Z" fill="url(#paint115_linear)"/>
<path fill-rule="evenodd" clip-rule="evenodd" d="M51.06 86.0978L55.8997 88.9048L56.5981 88.4992L51.7515 85.6879L51.06 86.0978Z" fill="url(#paint116_linear)"/>
<path fill-rule="evenodd" clip-rule="evenodd" d="M46.2215 83.2908L48.6411 91.7119L45.5231 89.9027L45.5154 82.8809L46.2215 83.2908Z" fill="url(#paint117_linear)"/>
<path fill-rule="evenodd" clip-rule="evenodd" d="M45.523 82.8839L46.2215 83.2895L46.9199 82.8839L46.2138 82.4747L45.523 82.8839Z" fill="url(#paint118_linear)"/>
<path d="M145.08 159.764C146.716 157.495 149.496 167.613 149.496 167.613C149.496 167.613 149.953 180.988 149.278 183.508C148.897 184.93 145.685 184.164 145.443 182.734C144.736 178.558 143.176 162.407 145.08 159.764Z" fill="#292541"/>
<path fill-rule="evenodd" clip-rule="evenodd" d="M180.462 167.212V168.616L153.847 184.054L141.749 177.037V175.633L168.364 160.195L180.462 167.212Z" fill="url(#paint119_linear)"/>
<path fill-rule="evenodd" clip-rule="evenodd" d="M141.746 175.634V192.476L153.844 199.493L155.054 197.388V183.353L153.844 182.651L141.746 175.634Z" fill="url(#paint120_linear)"/>
<path fill-rule="evenodd" clip-rule="evenodd" d="M180.462 167.213L153.847 182.651V199.493L180.462 184.055V167.213Z" fill="url(#paint121_linear)"/>
<path d="M141.746 180.546L153.844 187.564L180.459 172.125" stroke="#6A6A6A" stroke-width="0.35" stroke-miterlimit="1.5" stroke-linejoin="round"/>
<path d="M140.245 185.976C140.245 185.976 140.158 187.416 139.453 187.747C137.697 188.573 131.944 183.781 132.554 183.146C133.536 182.125 138.272 183.519 138.272 183.519L140.245 185.976Z" fill="url(#paint122_linear)"/>
<path d="M154.895 165.273C153.427 168.996 150.433 170.225 147.844 170.267C145.98 170.297 145.6 170.222 145.038 170.359C145.038 170.359 143.507 162.492 145.265 158.982C147.104 155.312 156.06 161.046 156.06 161.046C156.06 161.046 155.687 163.264 154.895 165.273Z" fill="url(#paint123_linear)"/>
<path d="M169.24 165.487C171.596 172.914 164.556 175.335 159.599 175.835C154.374 176.363 140.907 170.23 140.907 170.23C140.907 170.23 140.941 183.613 140.186 186.111C139.761 187.52 136.574 186.652 136.378 185.215C135.803 181.018 134.755 164.826 136.741 162.245C138.448 160.03 154.093 165.731 154.093 165.731C154.093 165.731 168.712 163.823 169.24 165.487Z" fill="url(#paint124_linear)"/>
<path d="M153.923 140.442C153.843 140.074 153.076 137.842 152.951 136.49C152.827 135.139 151.52 130.607 149.534 129.616C147.548 128.626 144.711 128.302 144.672 129.152C144.634 130.002 144.267 139.242 145.867 139.277C149.103 139.346 149.031 142.479 149.031 142.479L153.923 140.442Z" fill="#FEC197"/>
<path d="M153.419 138.28C153.419 138.28 154.29 135.543 154.486 132.846C154.682 130.148 155.026 128.8 151.822 127.547C148.619 126.294 143.802 124.791 142.7 126.797C141.599 128.803 144.158 129.928 144.82 131.018C145.483 132.108 146.188 133.81 146.188 133.81L146.826 133.868C146.826 133.868 146.971 132.734 147.664 132.939C148.522 133.194 148.305 135.65 148.36 136.256C148.416 136.862 153.419 138.28 153.419 138.28Z" fill="#272B44"/>
<path fill-rule="evenodd" clip-rule="evenodd" d="M149.461 126.617C146.124 125.97 143.125 126.069 142.302 127.242C142.198 127.389 142.16 127.885 142.127 128.054C141.835 129.575 144.647 131.401 148.402 132.129C151.628 132.755 155.055 132.327 155.987 131.242C156.114 130.959 156.243 130.466 156.305 130.245C156.722 128.753 153.216 127.346 149.461 126.617Z" fill="url(#paint125_linear)"/>
<path fill-rule="evenodd" clip-rule="evenodd" d="M151.087 123.278C145.848 121.857 142.862 125.577 142.57 127.098C142.278 128.619 145.089 130.445 148.844 131.174C152.599 131.902 155.886 131.259 156.178 129.738C156.47 128.217 154.779 124.28 151.087 123.278Z" fill="url(#paint126_linear)"/>
<path fill-rule="evenodd" clip-rule="evenodd" d="M155.027 130.938C155.027 130.938 154.696 126.87 150.899 125.106C146.522 123.073 144.23 124.71 144.024 124.838C144.301 124.166 145.375 123.682 145.375 123.682C145.375 123.682 148.778 122.244 152.556 124.55C155.318 126.237 156.051 129.547 156.111 129.986C155.829 130.603 155.027 130.938 155.027 130.938Z" fill="url(#paint127_linear)"/>
<path fill-rule="evenodd" clip-rule="evenodd" d="M135.434 143.478C135.436 144.147 135.433 147.591 135.433 147.9C135.433 148.208 136.502 148.459 137.819 148.459C139.137 148.459 140.206 148.208 140.206 147.9C140.206 147.779 140.205 143.788 140.206 143.487C139.736 143.401 136.236 143.478 135.434 143.478Z" fill="url(#paint128_linear)"/>
<path d="M137.82 144.047C136.502 144.047 135.434 143.797 135.434 143.488C135.434 143.179 136.502 142.928 137.82 142.928C139.138 142.928 140.206 143.179 140.206 143.488C140.206 143.797 139.138 144.047 137.82 144.047Z" fill="url(#paint129_linear)"/>
<path d="M138.103 134.487C137.124 136.558 138.708 138.912 137.685 139.86C137.133 140.371 137.04 140.753 137.034 140.88C137.013 141.354 137.217 141.762 137.567 142.32C137.503 142.135 137.458 141.562 137.5 141.331C137.727 140.099 138.63 140.555 138.886 139.662C139.228 138.467 138.636 137.831 138.241 136.775C138.041 136.242 137.936 135.351 138.107 134.487C138.108 134.484 138.105 134.483 138.103 134.487Z" fill="url(#paint130_linear)"/>
<path d="M168.486 163.843C168.486 163.843 167.06 166.628 162.063 167.68C156.476 168.857 153.241 167.513 153.241 167.513L153.508 168.789C153.508 168.789 158.944 171.025 163.846 169.041C168.456 167.174 169.286 165.124 169.286 165.124L168.486 163.843Z" fill="url(#paint131_linear)"/>
<path d="M154.23 138.506C154.23 138.506 155.006 139.308 155.34 139.324C155.674 139.339 157.841 139.11 159.807 141.002C161.774 142.893 164.28 147.304 165.405 152.857C166.018 155.883 166.552 158.666 167.096 159.863C167.49 160.729 169.102 162.287 169.016 163.493C168.989 163.873 168.628 164.104 168.628 164.104C168.628 164.104 166.318 166.821 163.014 167.914C158.516 169.403 154.099 167.96 154.099 167.96C154.099 167.96 153.204 167.854 152.936 167.505C151.217 165.265 149.024 157.878 147.64 154.686C144.754 148.029 148.694 143.085 148.694 143.085L147.844 142.554L154.23 138.506Z" fill="url(#paint132_linear)"/>
<path d="M133.851 150.266C133.851 150.266 133.146 145.655 134.776 144.875C136.407 144.096 136.1 150.444 136.1 150.444L133.851 150.266Z" fill="#FEC197"/>
<path d="M148.851 147.051C151.102 147.236 153.165 150.834 150.549 155.767C148.216 160.165 144.673 163.478 142.222 164.032C139.402 164.67 134.866 152.961 133.635 150.351C133.593 150.263 135.766 148.761 136.694 148.958C138.237 151.487 141.139 157.497 141.87 158.269C143.016 157.746 144.337 154.869 145.45 151.965C146.514 149.188 146.948 146.895 148.851 147.051Z" fill="url(#paint133_linear)"/>
<path fill-rule="evenodd" clip-rule="evenodd" d="M51.4125 166.745L52.6222 167.447L52.6224 168.257L44.4548 173.03L44.4549 172.184L43.2451 171.483L51.4125 166.745Z" fill="url(#paint134_linear)"/>
<path fill-rule="evenodd" clip-rule="evenodd" d="M52.6209 168.848L52.6209 167.444L44.4535 172.182L44.4535 173.585L52.6209 168.848Z" fill="url(#paint135_linear)"/>
<path fill-rule="evenodd" clip-rule="evenodd" d="M43.2465 171.482L43.2465 172.885L44.4562 173.587L44.4563 172.184L43.2465 171.482Z" fill="url(#paint136_linear)"/>
<path fill-rule="evenodd" clip-rule="evenodd" d="M29.7059 154.154L30.9157 154.855L30.9159 155.666L22.7483 160.439L22.7484 159.593L21.5386 158.891L29.7059 154.154Z" fill="url(#paint137_linear)"/>
<path fill-rule="evenodd" clip-rule="evenodd" d="M30.9143 156.257L30.9143 154.853L22.747 159.591L22.747 160.994L30.9143 156.257Z" fill="url(#paint138_linear)"/>
<path fill-rule="evenodd" clip-rule="evenodd" d="M21.54 158.891L21.54 160.294L22.7497 160.996L22.7497 159.592L21.54 158.891Z" fill="url(#paint139_linear)"/>
<path fill-rule="evenodd" clip-rule="evenodd" d="M38.7201 132.27C38.5687 131.819 38.1662 131.5 37.6938 131.457C37.2219 131.415 36.7111 131.768 36.0168 132.177C32.9674 137.712 26.0279 151.15 23.9087 154.997C23.5924 155.571 23.7928 156.293 24.3578 156.621C28.3999 158.962 43.3867 167.644 49.6195 171.254C49.8787 171.405 49.6183 171.846 49.8991 171.787C50.0738 171.684 50.8223 171.268 50.9761 171.143C51.3611 170.825 51.5102 170.302 51.3512 169.828C48.6385 161.762 41.2552 139.807 38.7201 132.27Z" fill="url(#paint140_linear)"/>
<path fill-rule="evenodd" clip-rule="evenodd" d="M37.7924 132.808C37.6409 132.357 37.2384 132.039 36.766 131.996C36.2942 131.954 35.841 132.195 35.6115 132.611C32.5621 138.146 25.1002 151.689 22.981 155.535C22.6647 156.109 22.8651 156.832 23.4301 157.159C27.4721 159.501 42.4589 168.182 48.6917 171.793C49.1228 172.043 49.6633 171.998 50.0483 171.681C50.4334 171.364 50.5825 170.84 50.4235 170.367C47.7108 162.301 40.3274 140.346 37.7924 132.808Z" fill="url(#paint141_linear)"/>
<path fill-rule="evenodd" clip-rule="evenodd" d="M36.7199 131.992L36.7641 131.995L36.8084 132L36.8522 132.006L36.8953 132.014L36.9378 132.024L36.9797 132.035L37.0217 132.047L37.0624 132.061L37.1026 132.077L37.1421 132.093L37.1812 132.112L37.2191 132.131L37.2563 132.152L37.293 132.174L37.3286 132.197L37.3636 132.222L37.398 132.249L37.4305 132.275L37.4625 132.303L37.494 132.333L37.5237 132.363L37.5529 132.395L37.5809 132.428L37.607 132.462L37.6326 132.496L37.6571 132.532L37.6804 132.569L37.702 132.607L37.7224 132.645L37.7416 132.684L37.7596 132.724L37.776 132.766L37.7905 132.807L50.4216 170.366L50.4355 170.41L50.4478 170.455L50.4583 170.5L50.467 170.545L50.4734 170.589L50.4786 170.635L50.4822 170.68L50.4839 170.726V170.771L50.4827 170.817L50.4792 170.861L50.4741 170.906L50.4675 170.95L50.4594 170.994L50.4496 171.038L50.438 171.082L50.425 171.124L50.4105 171.167L50.3942 171.208L50.3761 171.249L50.3569 171.29L50.336 171.33L50.3138 171.369L50.2899 171.407L50.2643 171.445L50.2376 171.481L50.2096 171.517L50.1793 171.552L50.1484 171.585L50.1158 171.618L50.082 171.65L50.0464 171.68L50.0097 171.709L49.9725 171.736L49.9341 171.762L49.895 171.786L49.8554 171.809L49.8152 171.829L49.7738 171.849L49.7324 171.867L49.6905 171.882L49.648 171.896L49.6049 171.909L49.5618 171.921L49.5181 171.93L49.4739 171.938L49.4295 171.944L49.3853 171.949L49.3411 171.952L49.2961 171.953L49.2513 171.952L49.2071 171.95L49.1622 171.946L49.1179 171.94L49.0737 171.933L49.0293 171.924L48.9857 171.914L48.942 171.902L48.8989 171.887L48.8558 171.871L48.8133 171.854L48.7719 171.835L48.7305 171.815L48.6899 171.792L23.4282 157.158L23.402 157.142L23.3765 157.126L23.3514 157.11L23.327 157.093L23.3031 157.075L23.2792 157.057L23.2564 157.038L23.2337 157.018L23.2122 156.998L23.1906 156.978L23.1702 156.957L23.1498 156.936L23.1306 156.915L23.1114 156.892L23.0933 156.87L23.0752 156.847L23.0578 156.824L23.0415 156.8L23.0252 156.776L23.01 156.752L22.9955 156.728L22.981 156.702L22.9674 156.677L22.9546 156.652L22.9418 156.626L22.9302 156.6L22.9191 156.574L22.9087 156.547L22.8988 156.52L22.8894 156.493L22.8813 156.466L22.8732 156.439L22.8662 156.411L22.8591 156.383L22.8534 156.355L22.8481 156.328L22.8434 156.299L22.8393 156.271L22.8359 156.243L22.8335 156.214L22.8312 156.185L22.8301 156.157L22.8295 156.128V156.099L22.8301 156.07L22.8318 156.042L22.8335 156.012L22.8365 155.984L22.8399 155.955L22.844 155.926L22.8493 155.898L22.8551 155.869L22.8609 155.841L22.8685 155.812L22.876 155.784L22.8848 155.756L22.8941 155.727L22.904 155.699L22.9145 155.671L22.9262 155.644L22.9384 155.616L22.9512 155.588L22.9646 155.561L22.9791 155.534L35.6096 132.61L35.6317 132.571L35.6556 132.534L35.68 132.497L35.7058 132.462L35.7331 132.428L35.7611 132.395L35.7903 132.363L35.8205 132.332L35.852 132.303L35.884 132.274L35.9173 132.247L35.9515 132.221L35.9865 132.197L36.0221 132.173L36.0588 132.151L36.096 132.13L36.1338 132.11L36.173 132.093L36.2119 132.076L36.2522 132.061L36.2923 132.047L36.3337 132.035L36.375 132.024L36.417 132.014L36.4595 132.007L36.502 132L36.5451 131.995L36.5888 131.992L36.6319 131.99L36.6762 131.99L36.7199 131.992ZM25.7117 155.646L47.0472 168.005L36.3797 136.284L25.7117 155.646Z" fill="url(#paint142_linear)"/>
<path fill-rule="evenodd" clip-rule="evenodd" d="M32.334 156.515L34.3454 154.782L34.1175 154.364L32.1092 156.064L32.334 156.515ZM32.811 157.47L34.8224 155.737L34.6219 155.336L32.5862 157.02L32.811 157.47ZM39.1428 160.602C39.5195 161.356 40.1211 161.705 40.4736 161.373C40.8503 161.055 40.8503 160.233 40.4736 159.478C40.1211 158.737 39.5195 158.389 39.1428 158.707C38.7904 159.039 38.7904 159.861 39.1428 160.602ZM31.5319 155.73L34.1448 153.524C34.1935 153.478 34.2451 153.474 34.318 153.516C34.394 153.56 34.4699 153.638 34.5186 153.74L34.7464 154.226C35.1748 153.835 35.4999 153.59 35.825 153.316L34.1175 149.93C33.5159 149.941 32.811 149.316 32.3614 148.411C31.933 147.558 31.7811 146.609 31.933 145.875L31.9846 145.654L33.0875 147.902L34.0172 147.117L32.9113 144.867L33.0632 144.92C33.6405 145.004 34.2451 145.605 34.6705 146.422C35.1475 147.378 35.2751 148.455 35.0229 149.166L36.7304 152.551C37.1831 152.173 37.7847 151.696 38.6901 150.897L39.1914 149.971L39.2188 149.953L40.0482 149.611C40.0968 149.605 40.1728 149.649 40.1971 149.732L40.5738 150.452C40.6255 150.551 40.6255 150.625 40.5738 150.668L40.0209 151.525C39.9966 151.55 39.9966 151.55 39.9722 151.57L39.1428 151.769L39.1185 151.755C38.2374 152.533 37.6358 153.007 37.1588 153.409L39.3676 157.873C39.872 157.914 40.4249 158.412 40.826 159.18C41.379 160.288 41.379 161.577 40.826 162.079C40.273 162.546 39.3676 162.021 38.8147 160.913C38.4136 160.11 38.289 159.212 38.4653 158.635L37.0069 155.718L36.2534 154.174C35.9283 154.449 35.6002 154.721 35.1748 155.085L35.3997 155.535C35.4483 155.637 35.4999 155.775 35.4999 155.844C35.4999 155.952 35.4483 156.031 35.3997 156.072L32.7867 158.278C32.7381 158.323 32.6865 158.328 32.6105 158.284C32.5346 158.24 32.4616 158.163 32.41 158.06L31.5319 156.266C31.4803 156.163 31.456 156.08 31.456 155.972C31.456 155.863 31.4803 155.769 31.5319 155.73Z" fill="url(#paint143_linear)"/>
</g>
<defs>
<linearGradient id="paint0_linear" x1="161.554" y1="99.134" x2="161.988" y2="103.779" gradientUnits="userSpaceOnUse">
<stop stop-color="#8C86AD"/>
<stop offset="1" stop-color="#E9E7F9"/>
</linearGradient>
<linearGradient id="paint1_linear" x1="173.946" y1="103.302" x2="174.599" y2="108.808" gradientUnits="userSpaceOnUse">
<stop stop-color="#8C86AD"/>
<stop offset="1" stop-color="#E9E7F9"/>
</linearGradient>
<linearGradient id="paint2_linear" x1="170.928" y1="57.3514" x2="189.037" y2="100.65" gradientUnits="userSpaceOnUse">
<stop stop-color="#564F81"/>
<stop offset="1" stop-color="#2C2847"/>
</linearGradient>
<linearGradient id="paint3_linear" x1="162.828" y1="52.9943" x2="163.544" y2="58.3482" gradientUnits="userSpaceOnUse">
<stop stop-color="#3F3960"/>
<stop offset="1" stop-color="#373157"/>
</linearGradient>
<linearGradient id="paint4_linear" x1="170.101" y1="14.0447" x2="170.101" y2="61.7638" gradientUnits="userSpaceOnUse">
<stop stop-color="#8C86AD"/>
<stop offset="1" stop-color="#E9E7F9"/>
</linearGradient>
<linearGradient id="paint5_linear" x1="158.8" y1="87.3632" x2="170.293" y2="87.3632" gradientUnits="userSpaceOnUse">
<stop stop-color="#898989"/>
<stop offset="1" stop-color="#515151"/>
</linearGradient>
<linearGradient id="paint6_linear" x1="156.348" y1="88.5618" x2="168.877" y2="107.528" gradientUnits="userSpaceOnUse">
<stop stop-color="#B9B9B9"/>
<stop offset="1" stop-color="#6A6A6A"/>
</linearGradient>
<linearGradient id="paint7_linear" x1="163.847" y1="67.6016" x2="165.057" y2="67.6016" gradientUnits="userSpaceOnUse">
<stop stop-color="#D28D51"/>
<stop offset="1" stop-color="#894A00"/>
</linearGradient>
<linearGradient id="paint8_linear" x1="185.252" y1="14.7549" x2="172.447" y2="42.2641" gradientUnits="userSpaceOnUse">
<stop stop-color="#8C86AD"/>
<stop offset="1" stop-color="#E9E7F9"/>
</linearGradient>
<linearGradient id="paint9_linear" x1="154.307" y1="10.2851" x2="158.655" y2="51.6219" gradientUnits="userSpaceOnUse">
<stop stop-color="#8C86AD"/>
<stop offset="1" stop-color="#E9E7F9"/>
</linearGradient>
<linearGradient id="paint10_linear" x1="125.541" y1="65.5732" x2="166.929" y2="31.3612" gradientUnits="userSpaceOnUse">
<stop stop-color="#8C86AD"/>
<stop offset="1" stop-color="#E9E7F9"/>
</linearGradient>
<linearGradient id="paint11_linear" x1="186.021" y1="12.8531" x2="163.146" y2="9.83068" gradientUnits="userSpaceOnUse">
<stop stop-color="#FFC620"/>
<stop offset="1" stop-color="#FFF37B"/>
</linearGradient>
<linearGradient id="paint12_linear" x1="172.071" y1="10.0891" x2="168.964" y2="4.35861" gradientUnits="userSpaceOnUse">
<stop stop-color="#FFC620"/>
<stop offset="1" stop-color="#FFF37B"/>
</linearGradient>
<linearGradient id="paint13_linear" x1="178.578" y1="6.24178" x2="157.266" y2="10.0714" gradientUnits="userSpaceOnUse">
<stop stop-color="#FFC620"/>
<stop offset="1" stop-color="#FFF37B"/>
</linearGradient>
<linearGradient id="paint14_linear" x1="33.5922" y1="96.2117" x2="33.1584" y2="100.857" gradientUnits="userSpaceOnUse">
<stop stop-color="#8C86AD"/>
<stop offset="1" stop-color="#E9E7F9"/>
</linearGradient>
<linearGradient id="paint15_linear" x1="21.2008" y1="100.379" x2="20.5474" y2="105.886" gradientUnits="userSpaceOnUse">
<stop stop-color="#8C86AD"/>
<stop offset="1" stop-color="#E9E7F9"/>
</linearGradient>
<linearGradient id="paint16_linear" x1="24.2189" y1="54.4291" x2="6.11018" y2="97.7274" gradientUnits="userSpaceOnUse">
<stop stop-color="#564F81"/>
<stop offset="1" stop-color="#2C2847"/>
</linearGradient>
<linearGradient id="paint17_linear" x1="32.3187" y1="50.0719" x2="31.6028" y2="55.4258" gradientUnits="userSpaceOnUse">
<stop stop-color="#3F3960"/>
<stop offset="1" stop-color="#373157"/>
</linearGradient>
<linearGradient id="paint18_linear" x1="25.0453" y1="11.1223" x2="25.0453" y2="58.8414" gradientUnits="userSpaceOnUse">
<stop stop-color="#8C86AD"/>
<stop offset="1" stop-color="#E9E7F9"/>
</linearGradient>
<linearGradient id="paint19_linear" x1="29.1597" y1="33.9476" x2="29.8447" y2="33.9476" gradientUnits="userSpaceOnUse">
<stop stop-color="#564F81"/>
<stop offset="1" stop-color="#2C2847"/>
</linearGradient>
<linearGradient id="paint20_linear" x1="32.7916" y1="27.0633" x2="27.1882" y2="30.6988" gradientUnits="userSpaceOnUse">
<stop stop-color="#564F81"/>
<stop offset="1" stop-color="#2C2847"/>
</linearGradient>
<linearGradient id="paint21_linear" x1="32.0933" y1="28.4669" x2="32.0933" y2="39.3745" gradientUnits="userSpaceOnUse">
<stop stop-color="#564F81"/>
<stop offset="1" stop-color="#2C2847"/>
</linearGradient>
<linearGradient id="paint22_linear" x1="11.297" y1="11.8057" x2="20.5854" y2="40.7052" gradientUnits="userSpaceOnUse">
<stop stop-color="#8C86AD"/>
<stop offset="1" stop-color="#E9E7F9"/>
</linearGradient>
<linearGradient id="paint23_linear" x1="40.8393" y1="7.36265" x2="36.4916" y2="48.6994" gradientUnits="userSpaceOnUse">
<stop stop-color="#8C86AD"/>
<stop offset="1" stop-color="#E9E7F9"/>
</linearGradient>
<linearGradient id="paint24_linear" x1="13.1981" y1="7.47583" x2="36.237" y2="8.70804" gradientUnits="userSpaceOnUse">
<stop stop-color="#FFC620"/>
<stop offset="1" stop-color="#FFF37B"/>
</linearGradient>
<linearGradient id="paint25_linear" x1="27.416" y1="7.34662" x2="31.5259" y2="2.29358" gradientUnits="userSpaceOnUse">
<stop stop-color="#FFC620"/>
<stop offset="1" stop-color="#FFF37B"/>
</linearGradient>
<linearGradient id="paint26_linear" x1="21.7273" y1="2.35859" x2="41.9809" y2="10.045" gradientUnits="userSpaceOnUse">
<stop stop-color="#FFC620"/>
<stop offset="1" stop-color="#FFF37B"/>
</linearGradient>
<linearGradient id="paint27_linear" x1="106.439" y1="62.2878" x2="88.6741" y2="31.6232" gradientUnits="userSpaceOnUse">
<stop stop-color="#FAFAFD"/>
<stop offset="1" stop-color="#E7E3FC"/>
</linearGradient>
<linearGradient id="paint28_linear" x1="124.181" y1="105.884" x2="97.5223" y2="62.3987" gradientUnits="userSpaceOnUse">
<stop stop-color="#A7A1C6"/>
<stop offset="1" stop-color="#E9E7F9"/>
</linearGradient>
<linearGradient id="paint29_linear" x1="71.2262" y1="8.55482" x2="126.301" y2="45.3681" gradientUnits="userSpaceOnUse">
<stop stop-color="#564F81"/>
<stop offset="1" stop-color="#2C2847"/>
</linearGradient>
<linearGradient id="paint30_linear" x1="71.2262" y1="8.55482" x2="126.301" y2="45.3681" gradientUnits="userSpaceOnUse">
<stop stop-color="#564F81"/>
<stop offset="1" stop-color="#2C2847"/>
</linearGradient>
<linearGradient id="paint31_linear" x1="73.0199" y1="50.8406" x2="108.812" y2="85.2574" gradientUnits="userSpaceOnUse">
<stop stop-color="#564F81"/>
<stop offset="1" stop-color="#2C2847"/>
</linearGradient>
<linearGradient id="paint32_linear" x1="73.0199" y1="50.8406" x2="108.812" y2="85.2574" gradientUnits="userSpaceOnUse">
<stop stop-color="#564F81"/>
<stop offset="1" stop-color="#2C2847"/>
</linearGradient>
<linearGradient id="paint33_linear" x1="71.2262" y1="8.55482" x2="126.301" y2="45.3681" gradientUnits="userSpaceOnUse">
<stop stop-color="#2C2847"/>
<stop offset="1" stop-color="#3B3751"/>
</linearGradient>
<linearGradient id="paint34_linear" x1="71.2262" y1="8.55482" x2="126.301" y2="45.3681" gradientUnits="userSpaceOnUse">
<stop stop-color="#2C2847"/>
<stop offset="1" stop-color="#3B3751"/>
</linearGradient>
<linearGradient id="paint35_linear" x1="1358.19" y1="201.543" x2="1360.23" y2="208.613" gradientUnits="userSpaceOnUse">
<stop stop-color="#564F81"/>
<stop offset="1" stop-color="#2C2847"/>
</linearGradient>
<linearGradient id="paint36_linear" x1="1358.19" y1="201.543" x2="1360.23" y2="208.613" gradientUnits="userSpaceOnUse">
<stop stop-color="#564F81"/>
<stop offset="1" stop-color="#2C2847"/>
</linearGradient>
<linearGradient id="paint37_linear" x1="1358.19" y1="209.595" x2="1360.23" y2="216.665" gradientUnits="userSpaceOnUse">
<stop stop-color="#564F81"/>
<stop offset="1" stop-color="#2C2847"/>
</linearGradient>
<linearGradient id="paint38_linear" x1="1358.19" y1="209.595" x2="1360.23" y2="216.665" gradientUnits="userSpaceOnUse">
<stop stop-color="#564F81"/>
<stop offset="1" stop-color="#2C2847"/>
</linearGradient>
<linearGradient id="paint39_linear" x1="1358.19" y1="217.646" x2="1360.23" y2="224.716" gradientUnits="userSpaceOnUse">
<stop stop-color="#564F81"/>
<stop offset="1" stop-color="#2C2847"/>
</linearGradient>
<linearGradient id="paint40_linear" x1="1358.19" y1="217.646" x2="1360.23" y2="224.716" gradientUnits="userSpaceOnUse">
<stop stop-color="#564F81"/>
<stop offset="1" stop-color="#2C2847"/>
</linearGradient>
<linearGradient id="paint41_linear" x1="1358.19" y1="225.698" x2="1360.23" y2="232.768" gradientUnits="userSpaceOnUse">
<stop stop-color="#564F81"/>
<stop offset="1" stop-color="#2C2847"/>
</linearGradient>
<linearGradient id="paint42_linear" x1="1358.19" y1="225.698" x2="1360.23" y2="232.768" gradientUnits="userSpaceOnUse">
<stop stop-color="#564F81"/>
<stop offset="1" stop-color="#2C2847"/>
</linearGradient>
<linearGradient id="paint43_linear" x1="1358.19" y1="233.749" x2="1360.23" y2="240.82" gradientUnits="userSpaceOnUse">
<stop stop-color="#564F81"/>
<stop offset="1" stop-color="#2C2847"/>
</linearGradient>
<linearGradient id="paint44_linear" x1="1358.19" y1="233.749" x2="1360.23" y2="240.82" gradientUnits="userSpaceOnUse">
<stop stop-color="#564F81"/>
<stop offset="1" stop-color="#2C2847"/>
</linearGradient>
<linearGradient id="paint45_linear" x1="124.965" y1="39.112" x2="100.969" y2="53.4557" gradientUnits="userSpaceOnUse">
<stop stop-color="#E9E7F9"/>
<stop offset="1" stop-color="#8C86AD"/>
</linearGradient>
<linearGradient id="paint46_linear" x1="71.1409" y1="40.8566" x2="106.615" y2="40.8566" gradientUnits="userSpaceOnUse">
<stop stop-color="#E9E7F9"/>
<stop offset="1" stop-color="#8C86AD"/>
</linearGradient>
<linearGradient id="paint47_linear" x1="118.941" y1="49.7065" x2="117.104" y2="33.4082" gradientUnits="userSpaceOnUse">
<stop stop-color="#F0EEFB"/>
<stop offset="1" stop-color="#D6D1EE"/>
</linearGradient>
<linearGradient id="paint48_linear" x1="76.8442" y1="107.145" x2="73.6176" y2="106.259" gradientUnits="userSpaceOnUse">
<stop stop-color="#8C86AD"/>
<stop offset="1" stop-color="#E9E7F9"/>
</linearGradient>
<linearGradient id="paint49_linear" x1="75.3807" y1="107.181" x2="74.0907" y2="106.894" gradientUnits="userSpaceOnUse">
<stop stop-color="#F3F2FA"/>
<stop offset="1" stop-color="#F1EFFD"/>
</linearGradient>
<linearGradient id="paint50_linear" x1="76.8662" y1="50.9024" x2="73.6396" y2="50.0167" gradientUnits="userSpaceOnUse">
<stop stop-color="#8C86AD"/>
<stop offset="1" stop-color="#E9E7F9"/>
</linearGradient>
<linearGradient id="paint51_linear" x1="75.4026" y1="50.9379" x2="74.1127" y2="50.6512" gradientUnits="userSpaceOnUse">
<stop stop-color="#F3F2FA"/>
<stop offset="1" stop-color="#F1EFFD"/>
</linearGradient>
<linearGradient id="paint52_linear" x1="96.1279" y1="118.325" x2="92.9013" y2="117.439" gradientUnits="userSpaceOnUse">
<stop stop-color="#8C86AD"/>
<stop offset="1" stop-color="#E9E7F9"/>
</linearGradient>
<linearGradient id="paint53_linear" x1="94.6644" y1="118.36" x2="93.3744" y2="118.073" gradientUnits="userSpaceOnUse">
<stop stop-color="#F3F2FA"/>
<stop offset="1" stop-color="#F1EFFD"/>
</linearGradient>
<linearGradient id="paint54_linear" x1="96.1279" y1="62.0755" x2="92.9013" y2="61.1898" gradientUnits="userSpaceOnUse">
<stop stop-color="#8C86AD"/>
<stop offset="1" stop-color="#E9E7F9"/>
</linearGradient>
<linearGradient id="paint55_linear" x1="94.6644" y1="62.111" x2="93.3744" y2="61.8243" gradientUnits="userSpaceOnUse">
<stop stop-color="#F3F2FA"/>
<stop offset="1" stop-color="#F1EFFD"/>
</linearGradient>
<linearGradient id="paint56_linear" x1="87.9915" y1="77.5838" x2="80.9055" y2="70.1221" gradientUnits="userSpaceOnUse">
<stop stop-color="#BCB7D5"/>
<stop offset="1" stop-color="#DBD7EE"/>
</linearGradient>
<linearGradient id="paint57_linear" x1="93.6939" y1="88.6287" x2="88.7069" y2="83.3735" gradientUnits="userSpaceOnUse">
<stop stop-color="#BCB7D5"/>
<stop offset="1" stop-color="#DBD7EE"/>
</linearGradient>
<linearGradient id="paint58_linear" x1="84.8947" y1="84.4798" x2="82.073" y2="81.5063" gradientUnits="userSpaceOnUse">
<stop stop-color="#BCB7D5"/>
<stop offset="1" stop-color="#DBD7EE"/>
</linearGradient>
<linearGradient id="paint59_linear" x1="72.8086" y1="180.365" x2="62.3468" y2="183.203" gradientUnits="userSpaceOnUse">
<stop stop-color="#EF3F3F"/>
<stop offset="1" stop-color="#F47623"/>
</linearGradient>
<linearGradient id="paint60_linear" x1="63.7535" y1="185.661" x2="51.1286" y2="177.842" gradientUnits="userSpaceOnUse">
<stop stop-color="#EF3F3F"/>
<stop offset="1" stop-color="#F47623"/>
</linearGradient>
<linearGradient id="paint61_linear" x1="90.3374" y1="191.342" x2="51.4687" y2="177.055" gradientUnits="userSpaceOnUse">
<stop stop-color="#EF3F3F"/>
<stop offset="1" stop-color="#F47623"/>
</linearGradient>
<linearGradient id="paint62_linear" x1="66.6649" y1="179.587" x2="56.9001" y2="169.248" gradientUnits="userSpaceOnUse">
<stop stop-color="#E03838"/>
<stop offset="1" stop-color="#F47623"/>
</linearGradient>
<linearGradient id="paint63_linear" x1="57.8524" y1="171.984" x2="68.8848" y2="171.984" gradientUnits="userSpaceOnUse">
<stop stop-color="#E3E0F3"/>
<stop offset="1" stop-color="#F1EFFD"/>
</linearGradient>
<linearGradient id="paint64_linear" x1="59.6212" y1="165.191" x2="67.1077" y2="165.191" gradientUnits="userSpaceOnUse">
<stop stop-color="#E3E0F3"/>
<stop offset="1" stop-color="#F1EFFD"/>
</linearGradient>
<linearGradient id="paint65_linear" x1="62.28" y1="162.495" x2="66.0886" y2="160.932" gradientUnits="userSpaceOnUse">
<stop stop-color="#B91616"/>
<stop offset="1" stop-color="#FF9650"/>
</linearGradient>
<linearGradient id="paint66_linear" x1="21.9976" y1="150.891" x2="11.5358" y2="153.729" gradientUnits="userSpaceOnUse">
<stop stop-color="#EF3F3F"/>
<stop offset="1" stop-color="#F47623"/>
</linearGradient>
<linearGradient id="paint67_linear" x1="12.9424" y1="156.187" x2="0.317616" y2="148.368" gradientUnits="userSpaceOnUse">
<stop stop-color="#EF3F3F"/>
<stop offset="1" stop-color="#F47623"/>
</linearGradient>
<linearGradient id="paint68_linear" x1="39.5263" y1="161.868" x2="0.657623" y2="147.581" gradientUnits="userSpaceOnUse">
<stop stop-color="#EF3F3F"/>
<stop offset="1" stop-color="#F47623"/>
</linearGradient>
<linearGradient id="paint69_linear" x1="15.8539" y1="150.112" x2="6.08907" y2="139.774" gradientUnits="userSpaceOnUse">
<stop stop-color="#E03838"/>
<stop offset="1" stop-color="#F47623"/>
</linearGradient>
<linearGradient id="paint70_linear" x1="7.04141" y1="142.51" x2="18.0737" y2="142.51" gradientUnits="userSpaceOnUse">
<stop stop-color="#E3E0F3"/>
<stop offset="1" stop-color="#F1EFFD"/>
</linearGradient>
<linearGradient id="paint71_linear" x1="8.81013" y1="135.717" x2="16.2967" y2="135.717" gradientUnits="userSpaceOnUse">
<stop stop-color="#E3E0F3"/>
<stop offset="1" stop-color="#F1EFFD"/>
</linearGradient>
<linearGradient id="paint72_linear" x1="11.469" y1="133.021" x2="15.2775" y2="131.457" gradientUnits="userSpaceOnUse">
<stop stop-color="#B91616"/>
<stop offset="1" stop-color="#FF9650"/>
</linearGradient>
<linearGradient id="paint73_linear" x1="107.543" y1="138.132" x2="103.074" y2="135.544" gradientUnits="userSpaceOnUse">
<stop stop-color="#564F81"/>
<stop offset="1" stop-color="#837DA9"/>
</linearGradient>
<linearGradient id="paint74_linear" x1="109.451" y1="139.838" x2="107.349" y2="138.255" gradientUnits="userSpaceOnUse">
<stop stop-color="#564F81"/>
<stop offset="1" stop-color="#837DA9"/>
</linearGradient>
<linearGradient id="paint75_linear" x1="104.238" y1="141.388" x2="99.442" y2="138.354" gradientUnits="userSpaceOnUse">
<stop stop-color="#564F81"/>
<stop offset="1" stop-color="#837DA9"/>
</linearGradient>
<linearGradient id="paint76_linear" x1="105.503" y1="124.301" x2="104.293" y2="124.301" gradientUnits="userSpaceOnUse">
<stop stop-color="#DDDAF1"/>
<stop offset="1" stop-color="#F1EFFD"/>
</linearGradient>
<linearGradient id="paint77_linear" x1="106.711" y1="125.003" x2="105.501" y2="125.003" gradientUnits="userSpaceOnUse">
<stop stop-color="#DDDAF1"/>
<stop offset="1" stop-color="#F1EFFD"/>
</linearGradient>
<linearGradient id="paint78_linear" x1="106.145" y1="109.473" x2="104.746" y2="108.885" gradientUnits="userSpaceOnUse">
<stop stop-color="#DDDAF1"/>
<stop offset="1" stop-color="#F1EFFD"/>
</linearGradient>
<linearGradient id="paint79_linear" x1="143.836" y1="117.08" x2="139.367" y2="114.491" gradientUnits="userSpaceOnUse">
<stop stop-color="#564F81"/>
<stop offset="1" stop-color="#837DA9"/>
</linearGradient>
<linearGradient id="paint80_linear" x1="145.745" y1="118.785" x2="143.642" y2="117.203" gradientUnits="userSpaceOnUse">
<stop stop-color="#564F81"/>
<stop offset="1" stop-color="#837DA9"/>
</linearGradient>
<linearGradient id="paint81_linear" x1="140.531" y1="120.336" x2="135.735" y2="117.301" gradientUnits="userSpaceOnUse">
<stop stop-color="#564F81"/>
<stop offset="1" stop-color="#837DA9"/>
</linearGradient>
<linearGradient id="paint82_linear" x1="141.796" y1="103.248" x2="140.586" y2="103.248" gradientUnits="userSpaceOnUse">
<stop stop-color="#DDDAF1"/>
<stop offset="1" stop-color="#F1EFFD"/>
</linearGradient>
<linearGradient id="paint83_linear" x1="143.005" y1="103.95" x2="141.795" y2="103.95" gradientUnits="userSpaceOnUse">
<stop stop-color="#DDDAF1"/>
<stop offset="1" stop-color="#F1EFFD"/>
</linearGradient>
<linearGradient id="paint84_linear" x1="142.439" y1="88.4201" x2="141.04" y2="87.8316" gradientUnits="userSpaceOnUse">
<stop stop-color="#DDDAF1"/>
<stop offset="1" stop-color="#F1EFFD"/>
</linearGradient>
<linearGradient id="paint85_linear" x1="126.072" y1="109.142" x2="119.976" y2="95.8333" gradientUnits="userSpaceOnUse">
<stop stop-color="#EF3F3F"/>
<stop offset="1" stop-color="#F47623"/>
</linearGradient>
<linearGradient id="paint86_linear" x1="104.298" y1="107.144" x2="111.556" y2="107.144" gradientUnits="userSpaceOnUse">
<stop stop-color="#F3F2FA"/>
<stop offset="1" stop-color="#F1EFFD"/>
</linearGradient>
<linearGradient id="paint87_linear" x1="106.016" y1="102.729" x2="111.553" y2="102.729" gradientUnits="userSpaceOnUse">
<stop stop-color="#F3F2FA"/>
<stop offset="1" stop-color="#F1EFFD"/>
</linearGradient>
<linearGradient id="paint88_linear" x1="113.976" y1="101.529" x2="121.235" y2="101.529" gradientUnits="userSpaceOnUse">
<stop stop-color="#F3F2FA"/>
<stop offset="1" stop-color="#F1EFFD"/>
</linearGradient>
<linearGradient id="paint89_linear" x1="115.694" y1="97.1154" x2="121.232" y2="97.1154" gradientUnits="userSpaceOnUse">
<stop stop-color="#F3F2FA"/>
<stop offset="1" stop-color="#F1EFFD"/>
</linearGradient>
<linearGradient id="paint90_linear" x1="123.654" y1="95.9154" x2="130.913" y2="95.9154" gradientUnits="userSpaceOnUse">
<stop stop-color="#F3F2FA"/>
<stop offset="1" stop-color="#F1EFFD"/>
</linearGradient>
<linearGradient id="paint91_linear" x1="125.372" y1="91.5013" x2="130.91" y2="91.5013" gradientUnits="userSpaceOnUse">
<stop stop-color="#F3F2FA"/>
<stop offset="1" stop-color="#F1EFFD"/>
</linearGradient>
<linearGradient id="paint92_linear" x1="133.332" y1="90.3014" x2="140.591" y2="90.3014" gradientUnits="userSpaceOnUse">
<stop stop-color="#F3F2FA"/>
<stop offset="1" stop-color="#F1EFFD"/>
</linearGradient>
<linearGradient id="paint93_linear" x1="135.051" y1="85.8873" x2="140.588" y2="85.8873" gradientUnits="userSpaceOnUse">
<stop stop-color="#F3F2FA"/>
<stop offset="1" stop-color="#F1EFFD"/>
</linearGradient>
<linearGradient id="paint94_linear" x1="143.011" y1="84.6873" x2="150.27" y2="84.6873" gradientUnits="userSpaceOnUse">
<stop stop-color="#F3F2FA"/>
<stop offset="1" stop-color="#F1EFFD"/>
</linearGradient>
<linearGradient id="paint95_linear" x1="144.729" y1="80.2733" x2="150.267" y2="80.2733" gradientUnits="userSpaceOnUse">
<stop stop-color="#F3F2FA"/>
<stop offset="1" stop-color="#F1EFFD"/>
</linearGradient>
<linearGradient id="paint96_linear" x1="84.1066" y1="139.536" x2="88.5757" y2="136.948" gradientUnits="userSpaceOnUse">
<stop stop-color="#564F81"/>
<stop offset="1" stop-color="#837DA9"/>
</linearGradient>
<linearGradient id="paint97_linear" x1="82.1982" y1="141.241" x2="84.3007" y2="139.659" gradientUnits="userSpaceOnUse">
<stop stop-color="#564F81"/>
<stop offset="1" stop-color="#837DA9"/>
</linearGradient>
<linearGradient id="paint98_linear" x1="87.4117" y1="142.792" x2="92.2074" y2="139.757" gradientUnits="userSpaceOnUse">
<stop stop-color="#564F81"/>
<stop offset="1" stop-color="#837DA9"/>
</linearGradient>
<linearGradient id="paint99_linear" x1="86.1466" y1="125.704" x2="87.3564" y2="125.704" gradientUnits="userSpaceOnUse">
<stop stop-color="#DDDAF1"/>
<stop offset="1" stop-color="#F1EFFD"/>
</linearGradient>
<linearGradient id="paint100_linear" x1="84.9382" y1="126.406" x2="86.148" y2="126.406" gradientUnits="userSpaceOnUse">
<stop stop-color="#DDDAF1"/>
<stop offset="1" stop-color="#F1EFFD"/>
</linearGradient>
<linearGradient id="paint101_linear" x1="85.504" y1="110.876" x2="86.9029" y2="110.288" gradientUnits="userSpaceOnUse">
<stop stop-color="#DDDAF1"/>
<stop offset="1" stop-color="#F1EFFD"/>
</linearGradient>
<linearGradient id="paint102_linear" x1="47.8131" y1="118.483" x2="52.2823" y2="115.895" gradientUnits="userSpaceOnUse">
<stop stop-color="#564F81"/>
<stop offset="1" stop-color="#837DA9"/>
</linearGradient>
<linearGradient id="paint103_linear" x1="45.9047" y1="120.188" x2="48.0073" y2="118.606" gradientUnits="userSpaceOnUse">
<stop stop-color="#564F81"/>
<stop offset="1" stop-color="#837DA9"/>
</linearGradient>
<linearGradient id="paint104_linear" x1="51.1183" y1="121.739" x2="55.914" y2="118.705" gradientUnits="userSpaceOnUse">
<stop stop-color="#564F81"/>
<stop offset="1" stop-color="#837DA9"/>
</linearGradient>
<linearGradient id="paint105_linear" x1="49.8532" y1="104.652" x2="51.063" y2="104.652" gradientUnits="userSpaceOnUse">
<stop stop-color="#DDDAF1"/>
<stop offset="1" stop-color="#F1EFFD"/>
</linearGradient>
<linearGradient id="paint106_linear" x1="48.6447" y1="105.354" x2="49.8545" y2="105.354" gradientUnits="userSpaceOnUse">
<stop stop-color="#DDDAF1"/>
<stop offset="1" stop-color="#F1EFFD"/>
</linearGradient>
<linearGradient id="paint107_linear" x1="49.2106" y1="89.8238" x2="50.6095" y2="89.2353" gradientUnits="userSpaceOnUse">
<stop stop-color="#DDDAF1"/>
<stop offset="1" stop-color="#F1EFFD"/>
</linearGradient>
<linearGradient id="paint108_linear" x1="65.5775" y1="110.545" x2="71.6735" y2="97.2368" gradientUnits="userSpaceOnUse">
<stop stop-color="#EF3F3F"/>
<stop offset="1" stop-color="#F47623"/>
</linearGradient>
<linearGradient id="paint109_linear" x1="87.3517" y1="108.547" x2="80.0929" y2="108.547" gradientUnits="userSpaceOnUse">
<stop stop-color="#F3F2FA"/>
<stop offset="1" stop-color="#F1EFFD"/>
</linearGradient>
<linearGradient id="paint110_linear" x1="85.6335" y1="104.133" x2="80.0959" y2="104.133" gradientUnits="userSpaceOnUse">
<stop stop-color="#F3F2FA"/>
<stop offset="1" stop-color="#F1EFFD"/>
</linearGradient>
<linearGradient id="paint111_linear" x1="77.6735" y1="102.933" x2="70.4147" y2="102.933" gradientUnits="userSpaceOnUse">
<stop stop-color="#F3F2FA"/>
<stop offset="1" stop-color="#F1EFFD"/>
</linearGradient>
<linearGradient id="paint112_linear" x1="75.9553" y1="98.5189" x2="70.4177" y2="98.5189" gradientUnits="userSpaceOnUse">
<stop stop-color="#F3F2FA"/>
<stop offset="1" stop-color="#F1EFFD"/>
</linearGradient>
<linearGradient id="paint113_linear" x1="67.9953" y1="97.3189" x2="60.7365" y2="97.3189" gradientUnits="userSpaceOnUse">
<stop stop-color="#F3F2FA"/>
<stop offset="1" stop-color="#F1EFFD"/>
</linearGradient>
<linearGradient id="paint114_linear" x1="66.2771" y1="92.9048" x2="60.7395" y2="92.9048" gradientUnits="userSpaceOnUse">
<stop stop-color="#F3F2FA"/>
<stop offset="1" stop-color="#F1EFFD"/>
</linearGradient>
<linearGradient id="paint115_linear" x1="58.317" y1="91.7049" x2="51.0583" y2="91.7049" gradientUnits="userSpaceOnUse">
<stop stop-color="#F3F2FA"/>
<stop offset="1" stop-color="#F1EFFD"/>
</linearGradient>
<linearGradient id="paint116_linear" x1="56.5988" y1="87.2908" x2="51.0613" y2="87.2908" gradientUnits="userSpaceOnUse">
<stop stop-color="#F3F2FA"/>
<stop offset="1" stop-color="#F1EFFD"/>
</linearGradient>
<linearGradient id="paint117_linear" x1="48.6383" y1="86.0908" x2="41.3794" y2="86.0908" gradientUnits="userSpaceOnUse">
<stop stop-color="#F3F2FA"/>
<stop offset="1" stop-color="#F1EFFD"/>
</linearGradient>
<linearGradient id="paint118_linear" x1="46.9199" y1="81.6768" x2="41.3823" y2="81.6768" gradientUnits="userSpaceOnUse">
<stop stop-color="#F3F2FA"/>
<stop offset="1" stop-color="#F1EFFD"/>
</linearGradient>
<linearGradient id="paint119_linear" x1="158.684" y1="176.335" x2="182.969" y2="156.797" gradientUnits="userSpaceOnUse">
<stop stop-color="#8C86AD"/>
<stop offset="1" stop-color="#E9E7F9"/>
</linearGradient>
<linearGradient id="paint120_linear" x1="145.378" y1="192.476" x2="158.769" y2="173.588" gradientUnits="userSpaceOnUse">
<stop stop-color="#8C86AD"/>
<stop offset="1" stop-color="#E9E7F9"/>
</linearGradient>
<linearGradient id="paint121_linear" x1="159.892" y1="191.072" x2="182.973" y2="170.829" gradientUnits="userSpaceOnUse">
<stop stop-color="#8C86AD"/>
<stop offset="1" stop-color="#E9E7F9"/>
</linearGradient>
<linearGradient id="paint122_linear" x1="138.437" y1="184.895" x2="134.108" y2="187.727" gradientUnits="userSpaceOnUse">
<stop stop-color="#8C86AD"/>
<stop offset="1" stop-color="#E9E7F9"/>
</linearGradient>
<linearGradient id="paint123_linear" x1="153.066" y1="157.645" x2="147.436" y2="164.866" gradientUnits="userSpaceOnUse">
<stop stop-color="#564F81"/>
<stop offset="1" stop-color="#2C2847"/>
</linearGradient>
<linearGradient id="paint124_linear" x1="159.807" y1="157.056" x2="137.619" y2="182.296" gradientUnits="userSpaceOnUse">
<stop stop-color="#564F81"/>
<stop offset="1" stop-color="#2C2847"/>
</linearGradient>
<linearGradient id="paint125_linear" x1="133.475" y1="133.329" x2="156.35" y2="130.307" gradientUnits="userSpaceOnUse">
<stop stop-color="#FFC620"/>
<stop offset="1" stop-color="#FFF37B"/>
</linearGradient>
<linearGradient id="paint126_linear" x1="147.425" y1="130.565" x2="150.532" y2="124.835" gradientUnits="userSpaceOnUse">
<stop stop-color="#FFC620"/>
<stop offset="1" stop-color="#FFF37B"/>
</linearGradient>
<linearGradient id="paint127_linear" x1="140.918" y1="126.718" x2="162.23" y2="130.548" gradientUnits="userSpaceOnUse">
<stop stop-color="#FFC620"/>
<stop offset="1" stop-color="#FFF37B"/>
</linearGradient>
<linearGradient id="paint128_linear" x1="133.525" y1="152.003" x2="138.228" y2="144.059" gradientUnits="userSpaceOnUse">
<stop stop-color="#A7A1C6"/>
<stop offset="1" stop-color="#E9E7F9"/>
</linearGradient>
<linearGradient id="paint129_linear" x1="138.074" y1="144.189" x2="138.071" y2="143.021" gradientUnits="userSpaceOnUse">
<stop stop-color="#A7A1C6"/>
<stop offset="1" stop-color="#E9E7F9"/>
</linearGradient>
<linearGradient id="paint130_linear" x1="137.611" y1="141.769" x2="138.065" y2="134.787" gradientUnits="userSpaceOnUse">
<stop stop-color="#B9B9B9" stop-opacity="0"/>
<stop offset="0.5" stop-color="#B9B9B9"/>
<stop offset="1" stop-color="#6A6A6A" stop-opacity="0.239216"/>
</linearGradient>
<linearGradient id="paint131_linear" x1="165.282" y1="169.566" x2="147.689" y2="170.83" gradientUnits="userSpaceOnUse">
<stop stop-color="#8C86AD"/>
<stop offset="1" stop-color="#E9E7F9"/>
</linearGradient>
<linearGradient id="paint132_linear" x1="149.229" y1="136.604" x2="169.959" y2="168.267" gradientUnits="userSpaceOnUse">
<stop stop-color="#8C86AD"/>
<stop offset="1" stop-color="#E9E7F9"/>
</linearGradient>
<linearGradient id="paint133_linear" x1="146.852" y1="148.828" x2="131.145" y2="154.149" gradientUnits="userSpaceOnUse">
<stop stop-color="#8C86AD"/>
<stop offset="1" stop-color="#E9E7F9"/>
</linearGradient>
<linearGradient id="paint134_linear" x1="65.3849" y1="160.042" x2="64.7757" y2="158.992" gradientUnits="userSpaceOnUse">
<stop stop-color="#DDDAF1"/>
<stop offset="1" stop-color="#F1EFFD"/>
</linearGradient>
<linearGradient id="paint135_linear" x1="66.594" y1="160.743" x2="65.9849" y2="159.692" gradientUnits="userSpaceOnUse">
<stop stop-color="#DDDAF1"/>
<stop offset="1" stop-color="#F1EFFD"/>
</linearGradient>
<linearGradient id="paint136_linear" x1="52.9248" y1="168.015" x2="51.7109" y2="167.102" gradientUnits="userSpaceOnUse">
<stop stop-color="#DDDAF1"/>
<stop offset="1" stop-color="#F1EFFD"/>
</linearGradient>
<linearGradient id="paint137_linear" x1="43.6784" y1="147.451" x2="43.0692" y2="146.401" gradientUnits="userSpaceOnUse">
<stop stop-color="#DDDAF1"/>
<stop offset="1" stop-color="#F1EFFD"/>
</linearGradient>
<linearGradient id="paint138_linear" x1="44.8875" y1="148.151" x2="44.2783" y2="147.101" gradientUnits="userSpaceOnUse">
<stop stop-color="#DDDAF1"/>
<stop offset="1" stop-color="#F1EFFD"/>
</linearGradient>
<linearGradient id="paint139_linear" x1="31.2183" y1="155.424" x2="30.0043" y2="154.51" gradientUnits="userSpaceOnUse">
<stop stop-color="#DDDAF1"/>
<stop offset="1" stop-color="#F1EFFD"/>
</linearGradient>
<linearGradient id="paint140_linear" x1="52.3683" y1="155.468" x2="23.3417" y2="155.468" gradientUnits="userSpaceOnUse">
<stop stop-color="#BE201B"/>
<stop offset="1" stop-color="#EF3F3F"/>
</linearGradient>
<linearGradient id="paint141_linear" x1="45.3999" y1="166.022" x2="33.2142" y2="143.614" gradientUnits="userSpaceOnUse">
<stop stop-color="#F0BF23"/>
<stop offset="1" stop-color="#FFD743"/>
</linearGradient>
<linearGradient id="paint142_linear" x1="51.4398" y1="156.007" x2="22.4133" y2="156.007" gradientUnits="userSpaceOnUse">
<stop stop-color="#E24C25"/>
<stop offset="1" stop-color="#EC7E47"/>
</linearGradient>
<linearGradient id="paint143_linear" x1="32.3341" y1="152.718" x2="22.5493" y2="152.718" gradientUnits="userSpaceOnUse">
<stop stop-color="#564F81"/>
<stop offset="1" stop-color="#837DA9"/>
</linearGradient>
<clipPath id="clip0">
<rect width="183" height="200" fill="white"/>
</clipPath>
</defs>
</svg>
