<svg width="136" height="183" viewBox="0 0 136 183" fill="none" xmlns="http://www.w3.org/2000/svg">
<g clip-path="url(#clip0)">
<path fill-rule="evenodd" clip-rule="evenodd" d="M94.6478 142.104L102.125 140.675L74.5503 124.836L67.0728 126.264L94.6478 142.104Z" fill="#A099CA"/>
<path fill-rule="evenodd" clip-rule="evenodd" d="M59.2344 125.047L67.0738 126.267L39.4986 142.107L31.6592 140.887L59.2344 125.047Z" fill="#A099CA"/>
<path fill-rule="evenodd" clip-rule="evenodd" d="M67.069 126.264L94.6441 142.104L67.069 159.383L65.8149 158.663V126.984L67.069 126.264Z" fill="url(#paint0_linear)"/>
<path fill-rule="evenodd" clip-rule="evenodd" d="M67.0703 126.264L39.4952 142.104L67.0703 159.383V126.264Z" fill="url(#paint1_linear)"/>
<path fill-rule="evenodd" clip-rule="evenodd" d="M39.7168 166.587L67.0719 150.873L94.4257 166.587L67.0719 182.299L39.7168 166.587Z" fill="url(#paint2_linear)"/>
<path fill-rule="evenodd" clip-rule="evenodd" d="M39.4961 142.104L67.0712 157.943L68.3246 158.113V181.568L67.0712 182.288L39.4961 166.449V142.104Z" fill="url(#paint3_linear)"/>
<path fill-rule="evenodd" clip-rule="evenodd" d="M94.6484 142.104L67.0734 157.943V182.288L94.6484 166.449V142.104Z" fill="url(#paint4_linear)"/>
<path fill-rule="evenodd" clip-rule="evenodd" d="M57.2592 168.603L67.0742 157.95L39.4991 142.111L29.6841 152.763L57.2592 168.603Z" fill="#B4AFD6"/>
<path fill-rule="evenodd" clip-rule="evenodd" d="M94.6478 142.108L104.463 152.761L76.8878 168.601L67.0728 157.948L94.6478 142.108Z" fill="#B4AFD6"/>
<path fill-rule="evenodd" clip-rule="evenodd" d="M0.00146484 82.0668L39.4967 142.118L67.0717 157.958L70.1088 122.337L0.00146484 82.0668Z" fill="url(#paint5_linear)"/>
<path fill-rule="evenodd" clip-rule="evenodd" d="M70.1069 122.337L67.0698 157.958L94.6449 142.118L135.539 84.7515L70.1069 122.337Z" fill="url(#paint6_linear)"/>
<path d="M24.636 29.3246C28.034 29.3246 30.7886 26.584 30.7886 23.2033C30.7886 19.8225 28.034 17.0819 24.636 17.0819C21.238 17.0819 18.4834 19.8225 18.4834 23.2033C18.4834 26.584 21.238 29.3246 24.636 29.3246Z" fill="url(#paint7_linear)"/>
<path fill-rule="evenodd" clip-rule="evenodd" d="M28.2264 28.1155C26.1879 26.9049 25.5361 25.905 25.5361 24.4246C25.5361 22.9447 26.9163 22.2924 28.2221 22.7586C28.2453 22.7666 28.2685 22.7763 28.2895 22.7886C29.5991 23.5514 41.2999 30.2611 41.2999 30.2611V35.6251C41.2999 35.6251 30.3086 29.2527 28.4351 28.2271C28.3661 28.1928 28.2264 28.1155 28.2264 28.1155Z" fill="url(#paint8_linear)"/>
<path fill-rule="evenodd" clip-rule="evenodd" d="M77.0303 94.3985V41.8316L30.3398 15.0118V67.5787L77.0303 94.3985Z" fill="url(#paint9_linear)"/>
<path fill-rule="evenodd" clip-rule="evenodd" d="M103.177 26.8127L77.0303 41.8318V94.3987L103.177 79.3796V26.8127Z" fill="url(#paint10_linear)"/>
<path fill-rule="evenodd" clip-rule="evenodd" d="M30.3394 15.0121L56.4862 -0.00701904L103.177 26.8128L77.0298 41.8319L30.3394 15.0121Z" fill="url(#paint11_linear)"/>
<path fill-rule="evenodd" clip-rule="evenodd" d="M41.7292 33.7352C41.3906 34.1963 41.1943 34.8538 41.1943 35.6649C41.1943 37.8881 42.669 40.4281 44.4853 41.3336C44.9082 41.5445 45.3129 41.6484 45.6795 41.6511C45.0931 42.4623 44.0772 42.6843 42.9233 42.109C41.107 41.2035 39.6323 38.6635 39.6323 36.4401C39.6323 34.7347 40.5 33.708 41.7292 33.7352Z" fill="url(#paint12_linear)"/>
<path fill-rule="evenodd" clip-rule="evenodd" d="M41.7292 33.7332C42.0956 33.7354 42.5003 33.8388 42.9232 34.0492C44.7397 34.9529 46.2142 37.4912 46.2142 39.7145C46.2142 40.5256 46.0179 41.183 45.6793 41.6445C45.3129 41.6425 44.9083 41.539 44.4853 41.3286C42.669 40.4251 41.1943 37.8866 41.1943 35.6632C41.1943 34.8523 41.3906 34.1946 41.7292 33.7332Z" fill="url(#paint13_linear)"/>
<path fill-rule="evenodd" clip-rule="evenodd" d="M63.3039 46.3831C62.9653 46.8442 62.769 47.5017 62.769 48.3128C62.769 50.536 64.2437 53.076 66.06 53.9815C66.483 54.1924 66.8876 54.2963 67.2542 54.2989C66.6678 55.1102 65.6519 55.3321 64.498 54.7569C62.6817 53.8514 61.207 51.3114 61.207 49.088C61.207 47.3826 62.0747 46.3559 63.3039 46.3831Z" fill="url(#paint14_linear)"/>
<path fill-rule="evenodd" clip-rule="evenodd" d="M63.3039 46.3806C63.6703 46.3828 64.075 46.4862 64.4979 46.6966C66.3144 47.6003 67.7889 50.1386 67.7889 52.3619C67.7889 53.173 67.5927 53.8304 67.254 54.2919C66.8876 54.2899 66.483 54.1864 66.06 53.976C64.2437 53.0725 62.769 50.534 62.769 48.3106C62.769 47.4997 62.9653 46.842 63.3039 46.3806Z" fill="url(#paint15_linear)"/>
<path fill-rule="evenodd" clip-rule="evenodd" d="M41.6076 57.8046C41.3598 58.163 41.2235 58.6779 41.2235 59.3113C41.2235 61.2418 42.4888 63.5477 44.047 64.4571L66.4364 77.524C66.7242 77.6919 67.0018 77.8005 67.2607 77.8355C66.7829 78.6165 65.8683 78.7902 64.8213 78.1792L42.4319 65.1123C40.8737 64.2029 39.6084 61.897 39.6084 59.9665C39.6084 58.3923 40.4498 57.5505 41.6076 57.8046Z" fill="url(#paint16_linear)"/>
<path fill-rule="evenodd" clip-rule="evenodd" d="M41.6072 57.8024C41.8664 57.8372 42.144 57.9455 42.4316 58.113L64.8209 71.1559C66.3794 72.0638 67.6444 74.3682 67.6444 76.2987C67.6444 76.9324 67.5081 77.4474 67.2604 77.8059C67.0014 77.7711 66.7238 77.6628 66.436 77.4952L44.0467 64.4523C42.4884 63.5445 41.2231 61.24 41.2231 59.3095C41.2231 58.6758 41.3595 58.1611 41.6072 57.8024Z" fill="url(#paint17_linear)"/>
<path fill-rule="evenodd" clip-rule="evenodd" d="M91.9735 64.735C89.935 63.5244 89.2832 62.5245 89.2832 61.0441C89.2832 59.5642 90.6634 58.9119 91.9692 59.3781C91.9924 59.3861 92.0156 59.3958 92.0366 59.4081C93.3462 60.1709 105.047 66.8806 105.047 66.8806V72.2446C105.047 72.2446 94.0557 65.8722 92.1822 64.8466C92.1132 64.8123 91.9735 64.735 91.9735 64.735Z" fill="url(#paint18_linear)"/>
<path d="M106.028 76.0763C109.426 76.0763 112.18 73.3357 112.18 69.955C112.18 66.5742 109.426 63.8336 106.028 63.8336C102.63 63.8336 99.875 66.5742 99.875 69.955C99.875 73.3357 102.63 76.0763 106.028 76.0763Z" fill="url(#paint19_linear)"/>
</g>
<defs>
<linearGradient id="paint0_linear" x1="74.0741" y1="124.435" x2="74.1448" y2="157.41" gradientUnits="userSpaceOnUse">
<stop stop-color="#564F81"/>
<stop offset="1" stop-color="#2C2847"/>
</linearGradient>
<linearGradient id="paint1_linear" x1="49.8038" y1="128.957" x2="59.5612" y2="146.273" gradientUnits="userSpaceOnUse">
<stop stop-color="#564F81"/>
<stop offset="1" stop-color="#2C2847"/>
</linearGradient>
<linearGradient id="paint2_linear" x1="68.0501" y1="174.802" x2="67.0814" y2="152.762" gradientUnits="userSpaceOnUse">
<stop stop-color="#564F81"/>
<stop offset="1" stop-color="#2C2847"/>
</linearGradient>
<linearGradient id="paint3_linear" x1="45.886" y1="159.427" x2="113.916" y2="227.32" gradientUnits="userSpaceOnUse">
<stop stop-color="#7D77A8"/>
<stop offset="1" stop-color="#403C5A"/>
</linearGradient>
<linearGradient id="paint4_linear" x1="83.9527" y1="175.014" x2="71.4261" y2="159.958" gradientUnits="userSpaceOnUse">
<stop stop-color="#564F81"/>
<stop offset="1" stop-color="#6F6A94"/>
</linearGradient>
<linearGradient id="paint5_linear" x1="52.3492" y1="148.419" x2="62.9991" y2="115.585" gradientUnits="userSpaceOnUse">
<stop stop-color="#EF3F3F" stop-opacity="0.381424"/>
<stop offset="1" stop-color="#F47623" stop-opacity="0.0209409"/>
</linearGradient>
<linearGradient id="paint6_linear" x1="86.4646" y1="145.157" x2="77.2045" y2="112.916" gradientUnits="userSpaceOnUse">
<stop stop-color="#EF3F3F" stop-opacity="0.439831"/>
<stop offset="1" stop-color="#F47623" stop-opacity="0"/>
</linearGradient>
<linearGradient id="paint7_linear" x1="27.4395" y1="26.958" x2="21.8734" y2="19.4214" gradientUnits="userSpaceOnUse">
<stop stop-color="#E54747"/>
<stop offset="1" stop-color="#F47623"/>
</linearGradient>
<linearGradient id="paint8_linear" x1="25.7248" y1="26.2167" x2="41.2964" y2="26.2167" gradientUnits="userSpaceOnUse">
<stop stop-color="#564F81"/>
<stop offset="1" stop-color="#2C2847"/>
</linearGradient>
<linearGradient id="paint9_linear" x1="78.6985" y1="96.4296" x2="42.5327" y2="43.1548" gradientUnits="userSpaceOnUse">
<stop stop-color="#E3E0F3"/>
<stop offset="1" stop-color="#F1EFFD"/>
</linearGradient>
<linearGradient id="paint10_linear" x1="94.5734" y1="91.6023" x2="89.0271" y2="7.92064" gradientUnits="userSpaceOnUse">
<stop stop-color="#A5A0C0"/>
<stop offset="1" stop-color="#D9D6EC"/>
</linearGradient>
<linearGradient id="paint11_linear" x1="86.1686" y1="28.8441" x2="60.0745" y2="15.8649" gradientUnits="userSpaceOnUse">
<stop stop-color="#D1CEE7"/>
<stop offset="1" stop-color="#E1DFEF"/>
</linearGradient>
<linearGradient id="paint12_linear" x1="46.4845" y1="41.1599" x2="39.9625" y2="37.3728" gradientUnits="userSpaceOnUse">
<stop stop-color="#BDB8D9"/>
<stop offset="1" stop-color="#9F9ABC"/>
</linearGradient>
<linearGradient id="paint13_linear" x1="43.4128" y1="39.6863" x2="43.4128" y2="34.3223" gradientUnits="userSpaceOnUse">
<stop stop-color="#564F81"/>
<stop offset="1" stop-color="#2C2847"/>
</linearGradient>
<linearGradient id="paint14_linear" x1="67.5636" y1="53.5335" x2="60.1174" y2="48.128" gradientUnits="userSpaceOnUse">
<stop stop-color="#BDB8D9"/>
<stop offset="1" stop-color="#9F9ABC"/>
</linearGradient>
<linearGradient id="paint15_linear" x1="64.8905" y1="52.023" x2="64.8905" y2="46.6591" gradientUnits="userSpaceOnUse">
<stop stop-color="#564F81"/>
<stop offset="1" stop-color="#2C2847"/>
</linearGradient>
<linearGradient id="paint16_linear" x1="71.6216" y1="78.915" x2="33.9022" y2="59.4242" gradientUnits="userSpaceOnUse">
<stop stop-color="#BDB8D9"/>
<stop offset="1" stop-color="#9F9ABC"/>
</linearGradient>
<linearGradient id="paint17_linear" x1="52.7505" y1="67.5788" x2="55.5306" y2="62.7389" gradientUnits="userSpaceOnUse">
<stop stop-color="#564F81"/>
<stop offset="1" stop-color="#2C2847"/>
</linearGradient>
<linearGradient id="paint18_linear" x1="89.4719" y1="62.8362" x2="105.043" y2="62.8362" gradientUnits="userSpaceOnUse">
<stop stop-color="#564F81"/>
<stop offset="1" stop-color="#2C2847"/>
</linearGradient>
<linearGradient id="paint19_linear" x1="108.831" y1="73.7097" x2="103.265" y2="66.1731" gradientUnits="userSpaceOnUse">
<stop stop-color="#E54747"/>
<stop offset="1" stop-color="#F47623"/>
</linearGradient>
<clipPath id="clip0">
<rect width="136" height="183" fill="white"/>
</clipPath>
</defs>
</svg>
