<svg width="60" height="60" viewBox="0 0 60 60" fill="none" xmlns="http://www.w3.org/2000/svg">
<path fill-rule="evenodd" clip-rule="evenodd" d="M26.4999 6C26.4999 4.067 28.0669 2.5 29.9999 2.5C45.1877 2.5 57.4999 14.8122 57.4999 30C57.4999 45.1878 45.1877 57.5 29.9999 57.5C21.3138 57.5 13.567 53.469 8.53293 47.1892C7.3239 45.6809 7.56643 43.4782 9.07465 42.2691C10.5829 41.0601 12.7856 41.3026 13.9947 42.8108C17.7574 47.5047 23.5276 50.5 29.9999 50.5C41.3217 50.5 50.4999 41.3218 50.4999 30C50.4999 18.6782 41.3217 9.5 29.9999 9.5C28.0669 9.5 26.4999 7.933 26.4999 6Z" fill="url(#paint0_linear)"/>
<defs>
<linearGradient id="paint0_linear" x1="14.4999" y1="48" x2="16.2578" y2="9.91191" gradientUnits="userSpaceOnUse">
<stop stop-color="white"/>
<stop offset="1" stop-color="white" stop-opacity="0"/>
</linearGradient>
</defs>
</svg>
