<svg width="219" height="240" viewBox="0 0 219 240" fill="none" xmlns="http://www.w3.org/2000/svg">
<g clip-path="url(#clip0)">
<path d="M192.045 118.208C192.045 118.208 186.814 122.987 187.469 123.68C188.692 124.974 195.757 121.792 196.527 121.101C196.926 120.743 196.859 118.255 196.859 118.255L192.045 118.208Z" fill="url(#paint0_linear)"/>
<path d="M211.379 123.065C211.379 123.065 211.473 124.179 211.447 125.18C211.382 127.678 203.018 130.803 202.644 129.736C202.044 128.019 206.336 123.362 206.336 123.362L211.379 123.065Z" fill="url(#paint1_linear)"/>
<path d="M192.18 60.6478C192.18 60.6478 190.471 66.0096 190.408 70.1502C190.345 74.2915 191.369 87.1546 191.294 90.5906C191.219 94.0267 191.196 118.796 191.196 118.796C191.196 118.796 195.103 119.644 196.857 118.268L198.734 98.3438L201.268 78.248C201.268 78.248 204.917 96.0658 205.093 100.912C205.267 105.758 205.512 122.749 205.6 123.19C205.687 123.63 211.606 123.174 211.606 123.174C211.606 123.174 213.481 103.995 213.306 98.0919C213.131 92.1892 212.89 60.6478 212.89 60.6478H192.18Z" fill="url(#paint2_linear)"/>
<path d="M191.65 62.5105C191.65 62.5105 195.164 64.8007 202.918 64.4827C210.659 64.1646 213.03 63.2204 213.03 63.2204L212.912 64.9163C212.912 64.9163 207.695 67.2491 200.269 66.8771C193.285 66.5271 191.241 64.1768 191.241 64.1768L191.65 62.5105Z" fill="url(#paint3_linear)"/>
<path d="M205.805 24.2872C204.25 24.2218 195.018 24.8639 192.94 28.071C190.922 31.1874 191.48 32.4573 192.558 54.2293C192.748 58.0465 191.65 62.5105 191.65 62.5105C191.65 62.5105 195.965 65.0631 200.859 64.9886C207.52 64.8874 213.332 63.6198 213.317 62.9974C213.124 55.0754 214.858 44.8799 216.13 40.1336C217.238 35.9991 217.788 32.4482 216.236 30.5902C211.655 25.1059 207.138 24.3435 205.805 24.2872Z" fill="url(#paint4_linear)"/>
<path fill-rule="evenodd" clip-rule="evenodd" d="M189.886 106.604C189.886 106.361 189.123 106.755 188.958 106.559C189.056 106.487 190.288 105.782 190.391 105.722C190.704 105.539 191.09 105.54 191.402 105.722C194.457 107.5 201.223 111.439 203.124 112.545C203.436 112.727 203.629 113.063 203.629 113.428C203.629 115.323 203.629 121.326 203.629 124.423C203.629 125.225 203.2 125.938 202.547 126.322C202.315 126.458 201.28 127.062 201.023 127.203C199.73 126.997 197.959 127.181 197.11 127.311C196.893 127.345 196.675 127.256 196.541 127.08C195.577 125.81 191.669 120.662 190.335 118.904C190.044 118.521 189.886 118.051 189.886 117.568C189.886 115.489 189.886 109.584 189.886 106.604Z" fill="url(#paint5_linear)"/>
<path fill-rule="evenodd" clip-rule="evenodd" d="M188.515 107.41C188.515 107.046 188.707 106.709 189.02 106.528C189.333 106.345 189.718 106.345 190.031 106.527C193.086 108.306 199.852 112.244 201.752 113.351C202.065 113.533 202.258 113.869 202.258 114.234C202.258 116.128 202.258 122.132 202.258 125.229C202.258 126.315 201.47 127.239 200.404 127.402C198.793 127.649 196.587 127.987 195.738 128.117C195.521 128.15 195.303 128.061 195.169 127.886C194.206 126.616 190.298 121.468 188.964 119.71C188.673 119.327 188.515 118.857 188.515 118.373C188.515 116.295 188.515 110.389 188.515 107.41Z" fill="url(#paint6_linear)"/>
<path fill-rule="evenodd" clip-rule="evenodd" d="M195.921 109.577C195.904 107.782 195.921 39.1052 195.921 39.1052H197.367C197.367 39.1052 197.369 105.943 197.367 109.605C197.118 109.985 196.125 110.006 195.921 109.577Z" fill="url(#paint7_linear)"/>
<path d="M195.457 40.6849C196.817 40.0033 200.59 38.2492 199.829 37.1476C198.376 35.0471 191.562 39.1223 191.562 39.1223L191.665 41.2405C191.665 41.2405 194.313 41.2586 195.457 40.6849Z" fill="#FEC197"/>
<path d="M200.248 41.0544C200.248 41.0544 194.616 38.9046 195.31 36.4404C196.004 33.977 201.898 38.5147 201.898 38.5147L200.248 41.0544Z" fill="#FEC197"/>
<path d="M217.049 31.7742C215.727 28.0969 210.81 30.1483 210.646 38.0533C210.625 39.1135 211.193 44.3978 211.179 47.1871C208.62 43.5454 205.302 39.8244 202.52 38.0062C201.871 37.5816 199.783 40.5777 199.671 42.4181C202.472 45.7623 212.809 58.7039 214.266 56.5255C216.777 52.7705 217.974 43.3199 218.016 41.3948C218.092 37.9492 218.416 35.5766 217.049 31.7742Z" fill="url(#paint8_linear)"/>
<path d="M193.027 27.9442C191.377 31.4535 191.838 34.8858 191.915 40.5661C191.44 41.523 191.357 41.6874 190.478 43.9234C189.906 45.3802 187.057 56.0569 186 53.4277C184.05 48.5772 188.631 36.57 188.832 36.0514C190.02 32.9738 190.827 29.8356 193.027 27.9442Z" fill="url(#paint9_linear)"/>
<path d="M192.355 37.2491C193.91 38.8933 194.573 39.8388 195.369 41.4159C194.726 43.3898 193.541 45.9611 192.169 48.2172C191.357 49.5532 186.817 55.8046 185.944 53.1073C184.085 47.3629 191.983 37.6603 192.355 37.2491Z" fill="url(#paint10_linear)"/>
<path d="M202.368 23.6029C202.368 23.6029 200.237 24.7473 199.362 23.854C197.726 22.1862 195.361 13.5855 198.015 11.9337C200.669 10.2818 205.693 7.84937 210.308 9.27445C212.647 9.99651 209.953 17.6112 209.015 20.5983C208.214 23.1525 207.996 23.2765 209.098 25.6542C206.963 28.8308 203.871 28.4808 202.852 27.5876C202.026 25.7828 202.655 25.4762 202.368 23.6029Z" fill="#FEC197"/>
<path d="M205.947 15.6511C205.937 14.6843 205.367 15.0178 205.308 12.8233C202.941 10.4881 200.116 13.6493 196.063 14.5891C196.661 2.30536 218.097 3.51724 210.052 20.0544C209.542 20.505 209.364 20.3129 209.018 20.6001C209.503 18.3576 209.835 13.8178 208.373 15.1643C207.978 15.529 207.846 15.6123 207.468 15.6519C207.665 18.5883 207.686 23.3353 207.005 25.4489C205.383 30.4931 195.595 36.7339 196.895 20.0603C196.921 19.7184 196.937 19.3184 197.329 19.0548C197.873 21.1626 198.775 23.7175 199.147 22.6716C199.576 21.4682 200.225 22.8342 201.529 23.4927C202.49 23.9795 206.023 22.974 205.947 15.6511Z" fill="#292541"/>
<path fill-rule="evenodd" clip-rule="evenodd" d="M203.32 7.36913C207.31 6.59237 210.896 6.7118 211.88 8.11876C212.004 8.29532 212.05 8.89018 212.089 9.09276C212.438 10.9184 209.076 13.1098 204.586 13.9838C200.729 14.7348 196.631 14.2211 195.516 12.9184C195.365 12.579 195.21 11.9874 195.136 11.7221C194.638 9.93231 198.829 8.24326 203.32 7.36913Z" fill="url(#paint11_linear)"/>
<path fill-rule="evenodd" clip-rule="evenodd" d="M201.376 3.36212C207.64 1.65729 211.21 6.12109 211.56 7.94591C211.909 9.77156 208.547 11.9629 204.057 12.8369C199.567 13.7111 195.637 12.9391 195.288 11.1134C194.938 9.28863 196.96 4.56388 201.376 3.36212Z" fill="url(#paint12_linear)"/>
<path fill-rule="evenodd" clip-rule="evenodd" d="M196.664 12.5543C196.664 12.5543 197.06 7.67258 201.6 5.55584C206.833 3.11561 209.574 5.08065 209.821 5.23392C209.489 4.42827 208.206 3.84749 208.206 3.84749C208.206 3.84749 204.137 2.12141 199.619 4.88891C196.315 6.91302 195.439 10.8847 195.367 11.4116C195.704 12.1518 196.664 12.5543 196.664 12.5543Z" fill="url(#paint13_linear)"/>
<path d="M43.6533 63.7337C42.8433 65.03 40.7312 68.6368 39.7211 67.7622C37.7954 66.0925 42.505 59.6692 42.505 59.6692L44.5848 59.9865C44.5848 59.9865 44.335 62.6446 43.6533 63.7337Z" fill="#FEC197"/>
<path d="M41.3018 114.701C41.3018 114.701 46.5328 119.48 45.8778 120.173C44.6546 121.467 37.5898 118.285 36.8193 117.594C36.4209 117.237 36.488 114.749 36.488 114.749L41.3018 114.701Z" fill="url(#paint14_linear)"/>
<path d="M21.9675 119.558C21.9675 119.558 21.874 120.672 21.8996 121.673C21.9645 124.171 30.3288 127.297 30.7023 126.229C31.303 124.512 27.0107 119.856 27.0107 119.856L21.9675 119.558Z" fill="url(#paint15_linear)"/>
<path d="M41.1667 57.1411C41.1667 57.1411 42.8759 62.5029 42.9386 66.6435C43.002 70.7848 41.9779 83.6479 42.0527 87.0839C42.1281 90.5199 42.1508 115.29 42.1508 115.29C42.1508 115.29 38.2441 116.137 36.4896 114.761L34.6128 94.8371L32.0788 74.7413C32.0788 74.7413 28.4294 92.559 28.2543 97.405C28.08 102.251 27.8348 119.242 27.7472 119.683C27.6597 120.123 21.7412 119.668 21.7412 119.668C21.7412 119.668 19.8659 100.489 20.041 94.5852C20.2153 88.6825 20.4568 57.1411 20.4568 57.1411H41.1667Z" fill="url(#paint16_linear)"/>
<path d="M41.6972 59.0036C41.6972 59.0036 38.1829 61.2938 30.4291 60.9758C22.6882 60.6577 20.3171 59.7135 20.3171 59.7135L20.4349 61.4095C20.4349 61.4095 25.6523 63.7423 33.0778 63.3702C40.0619 63.0202 42.1054 60.6699 42.1054 60.6699L41.6972 59.0036Z" fill="url(#paint17_linear)"/>
<path d="M27.5419 20.7804C29.0964 20.7149 38.3292 21.3571 40.4067 24.5641C42.4253 27.6806 41.8669 28.9505 40.7886 50.7224C40.5992 54.5397 41.6971 59.0036 41.6971 59.0036C41.6971 59.0036 37.3814 61.5563 32.4877 61.4817C25.8266 61.3805 20.0145 60.1129 20.0296 59.4906C20.2228 51.5685 18.4887 41.373 17.2171 36.6268C16.1093 32.4923 15.5584 28.9413 17.1107 27.0833C21.692 21.5991 26.2092 20.8367 27.5419 20.7804Z" fill="url(#paint18_linear)"/>
<path fill-rule="evenodd" clip-rule="evenodd" d="M34.8674 34.8592V46.1333L35.6867 46.6108V35.3358L34.8674 34.8592Z" fill="url(#paint19_linear)"/>
<path fill-rule="evenodd" clip-rule="evenodd" d="M40.029 32.8128L39.2097 32.3362L34.8699 34.8625L35.6893 35.3391L40.029 32.8128Z" fill="url(#paint20_linear)"/>
<path fill-rule="evenodd" clip-rule="evenodd" d="M35.6943 35.3393L40.034 32.813V44.0879L35.6943 46.6142V35.3393L34.8749 34.8627L35.6943 35.3393Z" fill="url(#paint21_linear)"/>
<path d="M34.9327 45.0177C34.9327 45.0177 40.6662 43.1626 40.0992 40.6658C39.5315 38.1697 33.4139 42.3959 33.4139 42.3959L34.9327 45.0177Z" fill="#FEC197"/>
<path d="M16.211 28.6847C17.9748 25.201 22.6015 27.851 21.7923 35.7156C21.6835 36.7702 20.9083 43.6133 20.5804 46.3828C24.1241 44.1385 31.0543 42.4547 34.038 40.9981C34.7348 40.6579 36.4383 43.8911 36.3231 45.7313C33.1322 48.7004 15.7707 55.3743 14.5929 53.0306C12.5624 48.9908 13.574 38.6345 13.6412 38.0564C14.0412 34.6338 14.387 32.287 16.211 28.6847Z" fill="url(#paint22_linear)"/>
<path d="M40.3196 24.437C41.97 27.9464 41.4859 33.8664 41.4081 39.5468C41.8833 40.5037 41.9375 44.8884 42.1663 46.8637C42.2319 47.4287 41.6538 58.5887 41.9666 59.0527C42.5332 59.8909 43.9615 60.2285 45.2084 60.224C46.9678 57.4666 46.9624 45.286 46.9292 44.4577C46.7343 39.5398 44.4922 31.5853 44.2573 31.081C42.8683 28.0966 42.5203 26.3285 40.3196 24.437Z" fill="url(#paint23_linear)"/>
<path d="M34.0047 20.7462C34.0047 20.7462 35.8896 22.2675 36.9135 21.5525C38.8268 20.2178 42.7258 12.2051 40.4198 10.0877C38.1138 7.97026 33.6212 4.64446 28.825 5.18619C26.3937 5.46044 27.6473 13.4457 28.0223 16.5561C28.3423 19.2155 28.5339 19.378 27.0151 21.5096C28.5324 25.0291 31.635 25.2606 32.7998 24.5723C33.9423 22.9523 33.3799 22.5338 34.0047 20.7462Z" fill="#FEC197"/>
<path d="M31.9432 12.2649C31.9652 11.2983 32.6297 11.7505 33.0897 9.60476C35.8435 7.75028 38.0409 11.3829 41.8524 13.0609C43.5136 0.876951 22.2238 -1.92175 27.1026 15.8285C27.5216 16.3663 27.7316 16.2107 28.0197 16.5574C27.9534 14.2631 28.4578 9.73952 29.6486 11.3351C29.9701 11.767 30.0845 11.8735 30.4483 11.9826C30.116 13.935 30.0922 14.0632 30.1105 15.5704C31.9649 16.5736 31.9212 13.2272 31.9432 12.2649Z" fill="#292541"/>
<path fill-rule="evenodd" clip-rule="evenodd" d="M36.0424 4.61262C32.2629 3.10653 28.7173 2.5566 27.4918 3.75608C27.3377 3.90654 27.1838 4.48266 27.1086 4.67453C26.4308 6.40374 29.3339 9.18325 33.5865 10.8779C37.2407 12.334 41.362 12.5918 42.6965 11.519C42.9071 11.2136 43.1675 10.6609 43.2883 10.4139C44.1061 8.74768 40.2957 6.30752 36.0424 4.61262Z" fill="url(#paint24_linear)"/>
<path fill-rule="evenodd" clip-rule="evenodd" d="M38.6868 1.03631C32.8424 -1.80511 28.5163 1.91748 27.8388 3.6459C27.1609 5.37511 30.064 8.15458 34.3166 9.84919C38.5699 11.5441 42.5733 11.5168 43.2512 9.78757C43.9287 8.05914 42.8065 3.03926 38.6868 1.03631Z" fill="url(#paint25_linear)"/>
<path fill-rule="evenodd" clip-rule="evenodd" d="M41.6346 10.9475C41.6346 10.9475 42.1389 6.07593 38.0644 3.15057C33.3679 -0.221738 30.3143 1.19937 30.0436 1.30407C30.5174 0.574057 31.8854 0.242185 31.8854 0.242185C31.8854 0.242185 36.2005 -0.696908 40.1337 2.86385C43.0099 5.46804 43.144 9.53456 43.1182 10.0658C42.6513 10.7305 41.6346 10.9475 41.6346 10.9475Z" fill="url(#paint26_linear)"/>
<path d="M116.901 70.4167L87.384 53.2131L116.831 36.1048L146.402 53.244L116.901 70.4167Z" fill="url(#paint27_linear)"/>
<path fill-rule="evenodd" clip-rule="evenodd" d="M116.901 146.638V70.4167L146.408 53.2475L146.402 129.465L116.901 146.638Z" fill="url(#paint28_linear)"/>
<path d="M87.3948 53.2185L87.393 63.2983L87.384 129.456L116.901 146.638V70.4167L87.3948 53.2185Z" fill="url(#paint29_linear)"/>
<path d="M87.3948 53.2185L87.393 63.2983L87.384 129.456L116.901 146.638V70.4167L87.3948 53.2185Z" fill="url(#paint30_linear)"/>
<path d="M87.3948 114.432L87.384 53.2249L116.92 70.4059L116.901 97.2554L87.3948 114.432Z" fill="url(#paint31_linear)"/>
<path d="M87.3948 114.432L87.384 53.2249L116.92 70.4059L116.901 97.2554L87.3948 114.432Z" fill="url(#paint32_linear)"/>
<path fill-rule="evenodd" clip-rule="evenodd" d="M116.901 70.4167V146.638L87.384 129.456L87.3948 53.2185L116.901 70.4167ZM89.0551 128.483L115.231 143.721V71.389L89.0641 56.1372L89.0551 128.483Z" fill="url(#paint33_linear)"/>
<path fill-rule="evenodd" clip-rule="evenodd" d="M116.901 70.4167V146.638L87.384 129.456L87.3948 53.2185L116.901 70.4167ZM89.0551 128.483L115.231 143.721V71.389L89.0641 56.1372L89.0551 128.483Z" fill="url(#paint34_linear)"/>
<path fill-rule="evenodd" clip-rule="evenodd" d="M140.662 76.0566V78.2037L123.512 88.1873V86.0402L140.662 76.0566Z" fill="url(#paint35_linear)"/>
<path fill-rule="evenodd" clip-rule="evenodd" d="M140.662 76.0566V78.2037L123.512 88.1873V86.0402L140.662 76.0566Z" fill="url(#paint36_linear)"/>
<path fill-rule="evenodd" clip-rule="evenodd" d="M140.662 85.7185V87.8655L123.512 97.8491V95.702L140.662 85.7185Z" fill="url(#paint37_linear)"/>
<path fill-rule="evenodd" clip-rule="evenodd" d="M140.662 85.7185V87.8655L123.512 97.8491V95.702L140.662 85.7185Z" fill="url(#paint38_linear)"/>
<path fill-rule="evenodd" clip-rule="evenodd" d="M140.662 95.3803V97.5273L123.512 107.511V105.364L140.662 95.3803Z" fill="url(#paint39_linear)"/>
<path fill-rule="evenodd" clip-rule="evenodd" d="M140.662 95.3803V97.5273L123.512 107.511V105.364L140.662 95.3803Z" fill="url(#paint40_linear)"/>
<path fill-rule="evenodd" clip-rule="evenodd" d="M140.662 105.042V107.189L123.512 117.173V115.026L140.662 105.042Z" fill="url(#paint41_linear)"/>
<path fill-rule="evenodd" clip-rule="evenodd" d="M140.662 105.042V107.189L123.512 117.173V115.026L140.662 105.042Z" fill="url(#paint42_linear)"/>
<path fill-rule="evenodd" clip-rule="evenodd" d="M140.662 114.704V116.851L123.512 126.835V124.688L140.662 114.704Z" fill="url(#paint43_linear)"/>
<path fill-rule="evenodd" clip-rule="evenodd" d="M140.662 114.704V116.851L123.512 126.835V124.688L140.662 114.704Z" fill="url(#paint44_linear)"/>
<path fill-rule="evenodd" clip-rule="evenodd" d="M139.102 52.1673V53.2403L116.972 66.1226V65.0496L139.102 52.1673Z" fill="url(#paint45_linear)"/>
<path fill-rule="evenodd" clip-rule="evenodd" d="M94.8418 52.1673V53.2403L116.972 66.1226V65.0496L94.8418 52.1673Z" fill="url(#paint46_linear)"/>
<path fill-rule="evenodd" clip-rule="evenodd" d="M116.972 65.0495L94.842 52.1672L116.901 39.284L139.102 52.1672L116.972 65.0495Z" fill="url(#paint47_linear)"/>
<path fill-rule="evenodd" clip-rule="evenodd" d="M91.9519 127.228C91.9519 126.366 91.3513 125.318 90.6119 124.888C90.2393 124.67 89.903 124.652 89.6597 124.796V124.795L88.7105 125.355L89.2977 125.375C89.2804 125.465 89.2718 125.563 89.2718 125.668C89.2718 126.53 89.8714 127.577 90.6119 128.008C90.7096 128.065 90.8063 128.108 90.8982 128.138L90.6253 128.653L91.5544 128.106L91.5534 128.105C91.7996 127.966 91.9519 127.661 91.9519 127.228Z" fill="url(#paint48_linear)"/>
<path fill-rule="evenodd" clip-rule="evenodd" d="M90.9969 127.791C90.9969 128.653 90.3963 129.002 89.6559 128.571C88.9164 128.14 88.3159 127.093 88.3159 126.231C88.3159 125.37 88.9164 125.02 89.6559 125.451C90.3963 125.882 90.9969 126.929 90.9969 127.791Z" fill="url(#paint49_linear)"/>
<path fill-rule="evenodd" clip-rule="evenodd" d="M90.427 127.46C90.427 127.956 90.0822 128.157 89.656 127.909C89.2307 127.66 88.8859 127.058 88.8859 126.562C88.8859 126.067 89.2307 125.866 89.656 126.113C90.0822 126.361 90.427 126.964 90.427 127.46Z" fill="#3B3751"/>
<path fill-rule="evenodd" clip-rule="evenodd" d="M90.427 127.46C90.427 127.956 90.0822 128.157 89.656 127.909C89.2307 127.66 88.8859 127.058 88.8859 126.562C88.8859 126.067 89.2307 125.866 89.656 126.113C90.0822 126.361 90.427 126.964 90.427 127.46Z" fill="#3B3751"/>
<path fill-rule="evenodd" clip-rule="evenodd" d="M91.9781 59.7365C91.9781 58.8751 91.3775 57.8272 90.638 57.3965C90.2654 57.1792 89.9292 57.1608 89.6859 57.3047V57.3037L88.7367 57.8639L89.3239 57.8842C89.3066 57.974 89.298 58.0715 89.298 58.1768C89.298 59.0383 89.8976 60.0861 90.638 60.5169C90.7357 60.5739 90.8325 60.6163 90.9244 60.6473L90.6514 61.162L91.5805 60.6144L91.5796 60.6134C91.8258 60.4744 91.9781 60.1702 91.9781 59.7365Z" fill="url(#paint50_linear)"/>
<path fill-rule="evenodd" clip-rule="evenodd" d="M91.0231 60.2996C91.0231 61.1621 90.4225 61.5107 89.6821 61.08C88.9427 60.6492 88.3421 59.6014 88.3421 58.7399C88.3421 57.8784 88.9427 57.5288 89.6821 57.9596C90.4225 58.3903 91.0231 59.4382 91.0231 60.2996Z" fill="url(#paint51_linear)"/>
<path fill-rule="evenodd" clip-rule="evenodd" d="M90.4532 59.9683C90.4532 60.4647 90.1084 60.6656 89.6821 60.4174C89.2568 60.1692 88.912 59.5665 88.912 59.0711C88.912 58.5756 89.2568 58.3748 89.6821 58.622C90.1084 58.8702 90.4532 59.4728 90.4532 59.9683Z" fill="#3B3751"/>
<path fill-rule="evenodd" clip-rule="evenodd" d="M90.4532 59.9683C90.4532 60.4647 90.1084 60.6656 89.6821 60.4174C89.2568 60.1692 88.912 59.5665 88.912 59.0711C88.912 58.5756 89.2568 58.3748 89.6821 58.622C90.1084 58.8702 90.4532 59.4728 90.4532 59.9683Z" fill="#3B3751"/>
<path fill-rule="evenodd" clip-rule="evenodd" d="M115.011 140.643C115.011 139.782 114.41 138.734 113.671 138.303C113.298 138.086 112.962 138.068 112.719 138.211V138.21L111.769 138.771L112.357 138.791C112.339 138.881 112.331 138.978 112.331 139.084C112.331 139.945 112.93 140.993 113.671 141.424C113.768 141.481 113.865 141.523 113.957 141.554L113.684 142.069L114.613 141.521L114.612 141.52C114.858 141.381 115.011 141.077 115.011 140.643Z" fill="url(#paint52_linear)"/>
<path fill-rule="evenodd" clip-rule="evenodd" d="M114.056 141.206C114.056 142.069 113.455 142.417 112.715 141.987C111.975 141.556 111.375 140.508 111.375 139.647C111.375 138.785 111.975 138.436 112.715 138.866C113.455 139.297 114.056 140.345 114.056 141.206Z" fill="url(#paint53_linear)"/>
<path fill-rule="evenodd" clip-rule="evenodd" d="M113.486 140.875C113.486 141.371 113.141 141.572 112.715 141.324C112.289 141.076 111.945 140.473 111.945 139.978C111.945 139.482 112.289 139.281 112.715 139.529C113.141 139.777 113.486 140.38 113.486 140.875Z" fill="#3B3751"/>
<path fill-rule="evenodd" clip-rule="evenodd" d="M113.486 140.875C113.486 141.371 113.141 141.572 112.715 141.324C112.289 141.076 111.945 140.473 111.945 139.978C111.945 139.482 112.289 139.281 112.715 139.529C113.141 139.777 113.486 140.38 113.486 140.875Z" fill="#3B3751"/>
<path fill-rule="evenodd" clip-rule="evenodd" d="M115.011 73.1443C115.011 72.2828 114.41 71.2349 113.671 70.8042C113.298 70.5869 112.962 70.5686 112.719 70.7125V70.7115L111.769 71.2716L112.357 71.2919C112.339 71.3817 112.331 71.4793 112.331 71.5846C112.331 72.446 112.93 73.4939 113.671 73.9246C113.768 73.9816 113.865 74.0241 113.957 74.055L113.684 74.5698L114.613 74.0222L114.612 74.0212C114.858 73.8821 115.011 73.5779 115.011 73.1443Z" fill="url(#paint54_linear)"/>
<path fill-rule="evenodd" clip-rule="evenodd" d="M114.056 73.7074C114.056 74.5698 113.455 74.9185 112.715 74.4877C111.975 74.057 111.375 73.0091 111.375 72.1476C111.375 71.2862 111.975 70.9366 112.715 71.3673C113.455 71.798 114.056 72.8459 114.056 73.7074Z" fill="url(#paint55_linear)"/>
<path fill-rule="evenodd" clip-rule="evenodd" d="M113.486 73.376C113.486 73.8725 113.141 74.0733 112.715 73.8251C112.289 73.5769 111.945 72.9743 111.945 72.4788C111.945 71.9834 112.289 71.7825 112.715 72.0297C113.141 72.278 113.486 72.8806 113.486 73.376Z" fill="#3B3751"/>
<path fill-rule="evenodd" clip-rule="evenodd" d="M113.486 73.376C113.486 73.8725 113.141 74.0733 112.715 73.8251C112.289 73.5769 111.945 72.9743 111.945 72.4788C111.945 71.9834 112.289 71.7825 112.715 72.0297C113.141 72.278 113.486 72.8806 113.486 73.376Z" fill="#3B3751"/>
<path fill-rule="evenodd" clip-rule="evenodd" d="M100.24 78.6131C99.3035 77.907 98.3463 77.3505 97.4096 76.9673C97.1481 77.5152 96.8869 78.0634 96.6263 78.6123C95.8984 78.4511 95.2231 78.4484 94.6323 78.6045C93.8958 78.0518 93.159 77.4996 92.4221 76.9478C91.8141 77.3248 91.3354 77.8758 91.007 78.5769C91.4821 79.4299 91.9577 80.2827 92.4339 81.1354C92.2967 81.8173 92.2967 82.5973 92.4339 83.4386C91.9577 83.7377 91.4821 84.0372 91.007 84.3376C91.3354 85.4207 91.8141 86.5284 92.4221 87.6126C93.159 87.9176 93.8958 88.2221 94.6323 88.5259C95.2231 89.3689 95.8984 90.1516 96.6263 90.8368C96.8869 91.6887 97.1481 92.5407 97.4096 93.3928C98.3463 94.0988 99.3035 94.6553 100.24 95.0385C100.502 94.4906 100.763 93.9423 101.023 93.3935C101.751 93.5547 102.427 93.5574 103.017 93.4013C103.754 93.954 104.491 94.5063 105.228 95.0582C105.836 94.6811 106.314 94.13 106.643 93.4289C106.168 92.5759 105.692 91.7233 105.216 90.8706C105.353 90.1887 105.353 89.4087 105.216 88.5674C105.692 88.2683 106.168 87.9686 106.643 87.6682C106.314 86.5851 105.836 85.4775 105.228 84.3934C104.491 84.0883 103.754 83.7837 103.017 83.4799C102.427 82.6368 101.751 81.8542 101.023 81.1689C100.763 80.3171 100.502 79.4651 100.24 78.6131ZM98.825 82.8157C100.583 83.8382 102.011 86.0965 102.011 87.8557C102.011 89.6147 100.583 90.2128 98.825 89.1903C97.0663 88.1678 95.6386 85.9094 95.6386 84.1504C95.6386 82.3912 97.0663 81.7932 98.825 82.8157Z" fill="url(#paint56_linear)"/>
<path fill-rule="evenodd" clip-rule="evenodd" d="M108.533 96.1557C107.873 95.6583 107.2 95.2662 106.541 94.9961C106.357 95.3815 106.173 95.7673 105.989 96.1534C105.477 96.0396 105.002 96.0374 104.586 96.147C104.068 95.7576 103.549 95.3686 103.03 94.98C102.602 95.245 102.266 95.6325 102.034 96.1258C102.369 96.7264 102.704 97.3268 103.039 97.9272C102.942 98.407 102.942 98.956 103.039 99.5482C102.704 99.7584 102.369 99.969 102.034 100.18C102.266 100.943 102.602 101.722 103.03 102.486C103.549 102.701 104.068 102.915 104.586 103.13C105.002 103.723 105.477 104.274 105.989 104.757C106.173 105.357 106.357 105.956 106.541 106.556C107.2 107.054 107.873 107.446 108.533 107.716C108.717 107.33 108.901 106.945 109.084 106.558C109.596 106.672 110.072 106.674 110.487 106.565C111.006 106.954 111.524 107.343 112.043 107.732C112.471 107.467 112.808 107.079 113.039 106.586C112.704 105.986 112.37 105.385 112.035 104.785C112.131 104.305 112.131 103.756 112.035 103.164C112.37 102.954 112.704 102.743 113.039 102.532C112.808 101.769 112.471 100.99 112.043 100.226C111.524 100.011 111.006 99.7965 110.487 99.5823C110.072 98.9887 109.596 98.4375 109.084 97.9549C108.901 97.3552 108.717 96.7555 108.533 96.1557ZM107.537 99.1129C108.774 99.8333 109.779 101.423 109.779 102.662C109.779 103.899 108.774 104.32 107.537 103.599C106.299 102.879 105.294 101.289 105.294 100.051C105.294 98.8125 106.299 98.3923 107.537 99.1129Z" fill="url(#paint57_linear)"/>
<path fill-rule="evenodd" clip-rule="evenodd" d="M99.5314 95.605C99.1584 95.3236 98.7772 95.1017 98.4042 94.9489C98.3001 95.167 98.1961 95.3853 98.0923 95.6037C97.8024 95.5393 97.5335 95.5381 97.2982 95.6001C97.0049 95.3798 96.7116 95.1597 96.4181 94.9398C96.176 95.0897 95.9854 95.309 95.8546 95.5881C96.0438 95.9279 96.2332 96.2677 96.4228 96.6074C96.3682 96.8789 96.3682 97.1895 96.4228 97.5245C96.2332 97.6435 96.0438 97.7627 95.8546 97.8822C95.9854 98.3136 96.176 98.7548 96.4181 99.1867C96.7116 99.3084 97.0049 99.4298 97.2982 99.551C97.5335 99.8869 97.8024 100.199 98.0923 100.472C98.1961 100.811 98.3001 101.15 98.4042 101.49C98.7772 101.771 99.1584 101.993 99.5314 102.146C99.6356 101.928 99.7396 101.71 99.8433 101.491C100.133 101.556 100.402 101.557 100.637 101.495C100.931 101.715 101.224 101.935 101.518 102.155C101.76 102.005 101.95 101.786 102.081 101.507C101.892 101.167 101.702 100.827 101.513 100.488C101.567 100.216 101.567 99.9055 101.513 99.5704C101.702 99.4515 101.892 99.3322 102.081 99.2127C101.95 98.7813 101.76 98.3402 101.518 97.9083C101.224 97.7866 100.931 97.6651 100.637 97.5439C100.402 97.208 100.133 96.8961 99.8433 96.6231C99.7396 96.2838 99.6356 95.9444 99.5314 95.605ZM98.9679 97.2783C99.6681 97.6859 100.237 98.5856 100.237 99.2861C100.237 99.9866 99.6681 100.224 98.9679 99.8167C98.2675 99.4091 97.699 98.5093 97.699 97.8089C97.699 97.1083 98.2675 96.8706 98.9679 97.2783Z" fill="url(#paint58_linear)"/>
<path fill-rule="evenodd" clip-rule="evenodd" d="M75.398 221.332V222.306L90.455 213.541V212.567L75.398 221.332Z" fill="url(#paint59_linear)"/>
<path fill-rule="evenodd" clip-rule="evenodd" d="M60.7598 212.811V213.785L75.3984 222.306V221.332L60.7598 212.811Z" fill="url(#paint60_linear)"/>
<path fill-rule="evenodd" clip-rule="evenodd" d="M60.7598 212.811L75.3984 221.332L90.4554 212.567L75.8167 204.046L60.7598 212.811Z" fill="url(#paint61_linear)"/>
<path fill-rule="evenodd" clip-rule="evenodd" d="M75.7733 190.947C76.5139 190.947 78.1665 191.656 78.7998 192.626C80.5354 198.968 83.57 209.915 83.57 212.022C83.57 214.566 80.0762 216.632 75.7733 216.632C71.4704 216.632 67.977 214.566 67.977 212.022C67.977 209.987 71.1784 198.522 72.7469 192.626C73.5219 191.417 74.9118 190.947 75.7733 190.947Z" fill="url(#paint62_linear)"/>
<path fill-rule="evenodd" clip-rule="evenodd" d="M69.8394 203.523C71.5587 206.74 79.9202 207.117 81.7071 203.406C82.1044 204.915 82.2055 205.314 82.4585 206.379C82.4585 208.531 79.4152 210.283 75.7749 210.283C72.1346 210.283 68.6231 208.512 69.0993 206.442C69.2225 205.906 69.6314 204.302 69.8394 203.523Z" fill="url(#paint63_linear)"/>
<path fill-rule="evenodd" clip-rule="evenodd" d="M71.764 196.287C72.9308 198.471 78.582 198.77 79.7945 196.253C80.0642 197.276 80.1552 197.488 80.3269 198.211C80.3269 199.672 78.2395 200.877 75.7692 200.877C73.2989 200.877 70.9014 199.695 71.2245 198.291C71.3081 197.927 71.6229 196.816 71.764 196.287Z" fill="url(#paint64_linear)"/>
<path d="M75.7734 194.79C77.4584 194.79 78.8243 193.929 78.8243 192.867C78.8243 191.805 77.4584 190.944 75.7734 190.944C74.0885 190.944 72.7225 191.805 72.7225 192.867C72.7225 193.929 74.0885 194.79 75.7734 194.79Z" fill="url(#paint65_linear)"/>
<path fill-rule="evenodd" clip-rule="evenodd" d="M14.6404 185.963V186.937L29.6974 178.172V177.198L14.6404 185.963Z" fill="url(#paint66_linear)"/>
<path fill-rule="evenodd" clip-rule="evenodd" d="M0.00213623 177.442V178.416L14.6408 186.937V185.963L0.00213623 177.442Z" fill="url(#paint67_linear)"/>
<path fill-rule="evenodd" clip-rule="evenodd" d="M0.00213623 177.442L14.6408 185.963L29.6978 177.198L15.0591 168.677L0.00213623 177.442Z" fill="url(#paint68_linear)"/>
<path fill-rule="evenodd" clip-rule="evenodd" d="M15.0157 155.577C15.7563 155.577 17.4089 156.286 18.0422 157.257C19.7777 163.598 22.8124 174.546 22.8124 176.652C22.8124 179.197 19.3186 181.263 15.0157 181.263C10.7128 181.263 7.21936 179.197 7.21936 176.652C7.21936 174.618 10.4208 163.153 11.9892 157.257C12.7643 156.048 14.1542 155.577 15.0157 155.577Z" fill="url(#paint69_linear)"/>
<path fill-rule="evenodd" clip-rule="evenodd" d="M9.08184 168.154C10.8012 171.371 19.1626 171.747 20.9495 168.037C21.3469 169.545 21.4479 169.945 21.7009 171.01C21.7009 173.162 18.6576 174.914 15.0173 174.914C11.377 174.914 7.86553 173.143 8.34173 171.072C8.46491 170.537 8.87388 168.932 9.08184 168.154Z" fill="url(#paint70_linear)"/>
<path fill-rule="evenodd" clip-rule="evenodd" d="M11.0065 160.918C12.1732 163.101 17.8244 163.401 19.037 160.884C19.3066 161.907 19.3977 162.119 19.5693 162.841C19.5693 164.302 17.4819 165.508 15.0116 165.508C12.5413 165.508 10.1438 164.326 10.4669 162.921C10.5505 162.558 10.8654 161.447 11.0065 160.918Z" fill="url(#paint71_linear)"/>
<path d="M15.0158 159.421C16.7007 159.421 18.0667 158.56 18.0667 157.498C18.0667 156.435 16.7007 155.575 15.0158 155.575C13.3308 155.575 11.9649 156.435 11.9649 157.498C11.9649 158.56 13.3308 159.421 15.0158 159.421Z" fill="url(#paint72_linear)"/>
<path fill-rule="evenodd" clip-rule="evenodd" d="M118.923 164.656L126.157 168.866L133.389 164.656L126.157 160.445L118.923 164.656Z" fill="url(#paint73_linear)"/>
<path fill-rule="evenodd" clip-rule="evenodd" d="M133.391 168.024V164.656L126.158 168.866V172.235" fill="url(#paint74_linear)"/>
<path fill-rule="evenodd" clip-rule="evenodd" d="M118.922 164.656V168.024L126.154 172.235V168.866" fill="url(#paint75_linear)"/>
<path fill-rule="evenodd" clip-rule="evenodd" d="M124.711 164.656L126.157 165.498L126.992 165.012L127.029 119.516L126.157 120.024L124.711 119.182V164.656Z" fill="url(#paint76_linear)"/>
<path fill-rule="evenodd" clip-rule="evenodd" d="M127.6 164.656L126.154 165.498V120.024L127.6 119.182V164.656Z" fill="url(#paint77_linear)"/>
<path fill-rule="evenodd" clip-rule="evenodd" d="M124.711 119.182L126.157 118.34L127.604 119.182L126.157 120.024L124.711 119.182Z" fill="url(#paint78_linear)"/>
<path fill-rule="evenodd" clip-rule="evenodd" d="M162.321 139.393L169.555 143.603L176.788 139.393L169.555 135.182L162.321 139.393Z" fill="url(#paint79_linear)"/>
<path fill-rule="evenodd" clip-rule="evenodd" d="M176.789 142.761V139.392L169.556 143.603V146.971L176.789 142.761Z" fill="url(#paint80_linear)"/>
<path fill-rule="evenodd" clip-rule="evenodd" d="M162.32 139.392V142.761L169.553 146.971V143.603L162.32 139.392Z" fill="url(#paint81_linear)"/>
<path fill-rule="evenodd" clip-rule="evenodd" d="M168.109 139.393L169.556 140.235L170.391 139.749L170.427 94.2534L169.556 94.7612L168.109 93.9191V139.393Z" fill="url(#paint82_linear)"/>
<path fill-rule="evenodd" clip-rule="evenodd" d="M170.999 139.393L169.552 140.235V94.7612L170.999 93.9191V139.393Z" fill="url(#paint83_linear)"/>
<path fill-rule="evenodd" clip-rule="evenodd" d="M168.109 93.9191L169.556 93.077L171.002 93.9191L169.556 94.7612L168.109 93.9191Z" fill="url(#paint84_linear)"/>
<path fill-rule="evenodd" clip-rule="evenodd" d="M124.099 127.248L174.739 97.7743V106.195L124.099 135.669V127.248Z" fill="url(#paint85_linear)"/>
<path fill-rule="evenodd" clip-rule="evenodd" d="M123.263 135.182L124.099 135.668V127.247L123.263 126.761V135.182Z" fill="#F49459"/>
<path fill-rule="evenodd" clip-rule="evenodd" d="M174.737 97.7758L173.902 97.2898L123.262 126.758L124.097 127.244L174.737 97.7758Z" fill="#F8A26C"/>
<path fill-rule="evenodd" clip-rule="evenodd" d="M127.604 125.212L124.711 135.317L130.498 131.949L133.391 121.844L127.604 125.212Z" fill="url(#paint86_linear)"/>
<path fill-rule="evenodd" clip-rule="evenodd" d="M133.392 121.844L127.605 125.212L126.77 124.725L132.565 121.352L133.392 121.844Z" fill="url(#paint87_linear)"/>
<path fill-rule="evenodd" clip-rule="evenodd" d="M139.177 118.475L136.284 128.581L142.071 125.212L144.964 115.107L139.177 118.475Z" fill="url(#paint88_linear)"/>
<path fill-rule="evenodd" clip-rule="evenodd" d="M144.965 115.107L139.178 118.475L138.343 117.989L144.138 114.615L144.965 115.107Z" fill="url(#paint89_linear)"/>
<path fill-rule="evenodd" clip-rule="evenodd" d="M150.75 111.739L147.857 121.844L153.644 118.475L156.537 108.37L150.75 111.739Z" fill="url(#paint90_linear)"/>
<path fill-rule="evenodd" clip-rule="evenodd" d="M156.538 108.37L150.751 111.739L149.916 111.252L155.711 107.878L156.538 108.37Z" fill="url(#paint91_linear)"/>
<path fill-rule="evenodd" clip-rule="evenodd" d="M162.323 105.002L159.43 115.107L165.217 111.738L168.11 101.633L162.323 105.002Z" fill="url(#paint92_linear)"/>
<path fill-rule="evenodd" clip-rule="evenodd" d="M168.111 101.633L162.324 105.002L161.489 104.515L167.284 101.141L168.111 101.633Z" fill="url(#paint93_linear)"/>
<path fill-rule="evenodd" clip-rule="evenodd" d="M173.896 98.2648L171.003 108.37L174.731 106.199L174.74 97.773L173.896 98.2648Z" fill="url(#paint94_linear)"/>
<path fill-rule="evenodd" clip-rule="evenodd" d="M174.731 97.7765L173.896 98.2632L173.061 97.7765L173.905 97.2855L174.731 97.7765Z" fill="url(#paint95_linear)"/>
<path fill-rule="evenodd" clip-rule="evenodd" d="M110.243 166.34L103.009 170.551L95.7766 166.34L103.009 162.129L110.243 166.34Z" fill="url(#paint96_linear)"/>
<path fill-rule="evenodd" clip-rule="evenodd" d="M95.7752 169.708V166.34L103.008 170.55V173.919" fill="url(#paint97_linear)"/>
<path fill-rule="evenodd" clip-rule="evenodd" d="M110.244 166.34V169.708L103.012 173.919V170.55" fill="url(#paint98_linear)"/>
<path fill-rule="evenodd" clip-rule="evenodd" d="M104.455 166.34L103.009 167.182L102.174 166.696L102.137 121.201L103.009 121.708L104.455 120.866V166.34Z" fill="url(#paint99_linear)"/>
<path fill-rule="evenodd" clip-rule="evenodd" d="M101.566 166.34L103.012 167.182V121.708L101.566 120.866V166.34Z" fill="url(#paint100_linear)"/>
<path fill-rule="evenodd" clip-rule="evenodd" d="M104.455 120.866L103.009 120.024L101.562 120.866L103.009 121.708L104.455 120.866Z" fill="url(#paint101_linear)"/>
<path fill-rule="evenodd" clip-rule="evenodd" d="M66.8446 141.077L59.6109 145.287L52.3781 141.077L59.6109 136.866L66.8446 141.077Z" fill="url(#paint102_linear)"/>
<path fill-rule="evenodd" clip-rule="evenodd" d="M52.3767 144.445V141.077L59.6096 145.287V148.656L52.3767 144.445Z" fill="url(#paint103_linear)"/>
<path fill-rule="evenodd" clip-rule="evenodd" d="M66.846 141.077V144.445L59.6131 148.656V145.287L66.846 141.077Z" fill="url(#paint104_linear)"/>
<path fill-rule="evenodd" clip-rule="evenodd" d="M61.0569 141.077L59.6103 141.919L58.7751 141.433L58.7384 95.9375L59.6103 96.4454L61.0569 95.6033V141.077Z" fill="url(#paint105_linear)"/>
<path fill-rule="evenodd" clip-rule="evenodd" d="M58.167 141.077L59.6136 141.919V96.4454L58.167 95.6033V141.077Z" fill="url(#paint106_linear)"/>
<path fill-rule="evenodd" clip-rule="evenodd" d="M61.0569 95.6033L59.6103 94.7611L58.1638 95.6033L59.6103 96.4454L61.0569 95.6033Z" fill="url(#paint107_linear)"/>
<path fill-rule="evenodd" clip-rule="evenodd" d="M105.067 128.932L54.4266 99.4585V107.88L105.067 137.353V128.932Z" fill="url(#paint108_linear)"/>
<path fill-rule="evenodd" clip-rule="evenodd" d="M105.902 136.866L105.067 137.352V128.931L105.902 128.445V136.866Z" fill="#F49459"/>
<path fill-rule="evenodd" clip-rule="evenodd" d="M54.4289 99.4599L55.2641 98.974L105.904 128.443L105.069 128.929L54.4289 99.4599Z" fill="#F8A26C"/>
<path fill-rule="evenodd" clip-rule="evenodd" d="M101.562 126.896L104.455 137.002L98.6677 133.633L95.7746 123.528L101.562 126.896Z" fill="url(#paint109_linear)"/>
<path fill-rule="evenodd" clip-rule="evenodd" d="M95.7737 123.528L101.561 126.896L102.396 126.41L96.6006 123.036L95.7737 123.528Z" fill="url(#paint110_linear)"/>
<path fill-rule="evenodd" clip-rule="evenodd" d="M89.9888 120.16L92.882 130.265L87.0948 126.896L84.2017 116.791L89.9888 120.16Z" fill="url(#paint111_linear)"/>
<path fill-rule="evenodd" clip-rule="evenodd" d="M84.2009 116.791L89.988 120.16L90.8232 119.673L85.0277 116.299L84.2009 116.791Z" fill="url(#paint112_linear)"/>
<path fill-rule="evenodd" clip-rule="evenodd" d="M78.4159 113.423L81.3091 123.528L75.522 120.16L72.6288 110.054L78.4159 113.423Z" fill="url(#paint113_linear)"/>
<path fill-rule="evenodd" clip-rule="evenodd" d="M72.628 110.054L78.4151 113.423L79.2503 112.936L73.4549 109.562L72.628 110.054Z" fill="url(#paint114_linear)"/>
<path fill-rule="evenodd" clip-rule="evenodd" d="M66.8429 106.686L69.7361 116.791L63.949 113.423L61.0558 103.317L66.8429 106.686Z" fill="url(#paint115_linear)"/>
<path fill-rule="evenodd" clip-rule="evenodd" d="M61.055 103.317L66.842 106.686L67.6772 106.199L61.8818 102.826L61.055 103.317Z" fill="url(#paint116_linear)"/>
<path fill-rule="evenodd" clip-rule="evenodd" d="M55.27 99.949L58.1633 110.054L54.4348 107.883L54.4257 99.4571L55.27 99.949Z" fill="url(#paint117_linear)"/>
<path fill-rule="evenodd" clip-rule="evenodd" d="M54.4348 99.4607L55.27 99.9474L56.1052 99.4607L55.2608 98.9697L54.4348 99.4607Z" fill="url(#paint118_linear)"/>
<path d="M173.48 191.717C175.436 188.995 178.761 201.135 178.761 201.135C178.761 201.135 179.307 217.186 178.5 220.21C178.044 221.916 174.203 220.997 173.914 219.281C173.069 214.27 171.204 194.888 173.48 191.717Z" fill="#292541"/>
<path fill-rule="evenodd" clip-rule="evenodd" d="M215.789 200.655V202.339L183.963 220.865L169.497 212.444V210.76L201.322 192.234L215.789 200.655Z" fill="url(#paint119_linear)"/>
<path fill-rule="evenodd" clip-rule="evenodd" d="M169.494 210.76V230.971L183.96 239.392L185.407 236.866V220.024L183.96 219.181L169.494 210.76Z" fill="url(#paint120_linear)"/>
<path fill-rule="evenodd" clip-rule="evenodd" d="M215.789 200.655L183.964 219.181V239.392L215.789 220.866V200.655Z" fill="url(#paint121_linear)"/>
<path d="M169.493 216.655L183.96 225.076L215.785 206.55" stroke="#6A6A6A" stroke-width="0.35" stroke-miterlimit="1.5" stroke-linejoin="round"/>
<path d="M167.698 223.171C167.698 223.171 167.594 224.899 166.751 225.297C164.651 226.288 157.772 220.538 158.502 219.775C159.676 218.549 165.339 220.222 165.339 220.222L167.698 223.171Z" fill="url(#paint122_linear)"/>
<path d="M185.216 198.327C183.461 202.795 179.881 204.27 176.784 204.32C174.556 204.356 174.102 204.267 173.43 204.431C173.43 204.431 171.599 194.99 173.701 190.778C175.9 186.374 186.609 193.255 186.609 193.255C186.609 193.255 186.163 195.916 185.216 198.327Z" fill="url(#paint123_linear)"/>
<path d="M202.369 198.585C205.186 207.497 196.768 210.402 190.841 211.002C184.593 211.636 168.49 204.276 168.49 204.276C168.49 204.276 168.531 220.336 167.628 223.333C167.119 225.024 163.309 223.982 163.074 222.258C162.387 217.222 161.133 197.791 163.509 194.694C165.549 192.035 184.257 198.877 184.257 198.877C184.257 198.877 201.738 196.588 202.369 198.585Z" fill="url(#paint124_linear)"/>
<path d="M184.055 168.531C183.958 168.088 183.041 165.411 182.892 163.788C182.743 162.166 181.18 156.728 178.806 155.54C176.431 154.351 173.039 153.963 172.993 154.983C172.946 156.002 172.508 167.09 174.421 167.132C178.29 167.215 178.204 170.975 178.204 170.975L184.055 168.531Z" fill="#FEC197"/>
<path d="M183.452 165.936C183.452 165.936 184.493 162.652 184.727 159.415C184.962 156.177 185.373 154.56 181.543 153.056C177.712 151.552 171.952 149.749 170.635 152.156C169.318 154.564 172.379 155.914 173.17 157.222C173.962 158.53 174.806 160.572 174.806 160.572L175.568 160.642C175.568 160.642 175.742 159.281 176.571 159.527C177.596 159.832 177.336 162.78 177.403 163.508C177.47 164.235 183.452 165.936 183.452 165.936Z" fill="#272B44"/>
<path fill-rule="evenodd" clip-rule="evenodd" d="M178.719 151.941C174.728 151.164 171.143 151.283 170.158 152.69C170.034 152.867 169.988 153.462 169.95 153.664C169.6 155.49 172.962 157.681 177.452 158.555C181.31 159.306 185.408 158.793 186.523 157.49C186.674 157.151 186.829 156.559 186.902 156.294C187.401 154.504 183.209 152.815 178.719 151.941Z" fill="url(#paint125_linear)"/>
<path fill-rule="evenodd" clip-rule="evenodd" d="M180.663 147.934C174.399 146.229 170.828 150.693 170.479 152.517C170.129 154.343 173.491 156.535 177.981 157.408C182.472 158.283 186.401 157.511 186.751 155.685C187.1 153.86 185.078 149.135 180.663 147.934Z" fill="url(#paint126_linear)"/>
<path fill-rule="evenodd" clip-rule="evenodd" d="M185.375 157.126C185.375 157.126 184.978 152.244 180.438 150.127C175.205 147.687 172.464 149.652 172.217 149.805C172.549 149 173.833 148.419 173.833 148.419C173.833 148.419 177.902 146.693 182.42 149.46C185.723 151.484 186.599 155.456 186.671 155.983C186.334 156.723 185.375 157.126 185.375 157.126Z" fill="url(#paint127_linear)"/>
<path fill-rule="evenodd" clip-rule="evenodd" d="M161.945 172.174C161.948 172.977 161.945 177.109 161.945 177.48C161.945 177.85 163.223 178.151 164.798 178.151C166.373 178.151 167.651 177.85 167.651 177.48C167.651 177.335 167.651 172.546 167.651 172.185C167.09 172.081 162.905 172.174 161.945 172.174Z" fill="url(#paint128_linear)"/>
<path d="M164.799 172.857C163.223 172.857 161.945 172.556 161.945 172.185C161.945 171.814 163.223 171.514 164.799 171.514C166.374 171.514 167.652 171.814 167.652 172.185C167.652 172.556 166.374 172.857 164.799 172.857Z" fill="url(#paint129_linear)"/>
<path d="M165.137 161.384C163.967 163.87 165.86 166.694 164.638 167.832C163.978 168.446 163.867 168.903 163.859 169.056C163.834 169.625 164.078 170.114 164.496 170.784C164.42 170.562 164.366 169.874 164.417 169.597C164.688 168.118 165.768 168.666 166.074 167.595C166.482 166.161 165.774 165.397 165.302 164.13C165.063 163.491 164.938 162.421 165.142 161.385C165.143 161.381 165.14 161.38 165.137 161.384Z" fill="url(#paint130_linear)"/>
<path d="M201.468 196.611C201.468 196.611 199.763 199.954 193.788 201.216C187.108 202.628 183.239 201.016 183.239 201.016L183.558 202.547C183.558 202.547 190.058 205.229 195.92 202.849C201.432 200.609 202.426 198.148 202.426 198.148L201.468 196.611Z" fill="url(#paint131_linear)"/>
<path d="M184.421 166.207C184.421 166.207 185.349 167.169 185.748 167.189C186.148 167.207 188.739 166.933 191.09 169.202C193.442 171.472 196.439 176.765 197.784 183.428C198.517 187.06 199.155 190.399 199.806 191.836C200.277 192.875 202.205 194.744 202.102 196.191C202.07 196.648 201.638 196.925 201.638 196.925C201.638 196.925 198.876 200.185 194.925 201.497C189.547 203.284 184.265 201.552 184.265 201.552C184.265 201.552 183.195 201.425 182.875 201.006C180.818 198.318 178.196 189.454 176.541 185.623C173.09 177.634 177.801 171.701 177.801 171.701L176.786 171.064L184.421 166.207Z" fill="url(#paint132_linear)"/>
<path d="M160.053 180.319C160.053 180.319 159.21 174.786 161.159 173.85C163.109 172.915 162.742 180.532 162.742 180.532L160.053 180.319Z" fill="#FEC197"/>
<path d="M177.99 176.461C180.681 176.683 183.148 181.001 180.02 186.92C177.231 192.199 172.994 196.173 170.063 196.839C166.691 197.604 161.267 183.553 159.795 180.421C159.745 180.315 162.343 178.514 163.453 178.75C165.298 181.785 168.767 188.997 169.642 189.922C171.012 189.295 172.592 185.842 173.922 182.358C175.195 179.026 175.714 176.274 177.99 176.461Z" fill="url(#paint133_linear)"/>
<path fill-rule="evenodd" clip-rule="evenodd" d="M61.4766 200.094L62.9232 200.936L62.9235 201.908L53.1569 207.636L53.1571 206.621L51.7104 205.779L61.4766 200.094Z" fill="url(#paint134_linear)"/>
<path fill-rule="evenodd" clip-rule="evenodd" d="M62.9215 202.617L62.9215 200.933L53.1553 206.618L53.1553 208.302L62.9215 202.617Z" fill="url(#paint135_linear)"/>
<path fill-rule="evenodd" clip-rule="evenodd" d="M51.712 205.778L51.712 207.462L53.1585 208.304L53.1586 206.62L51.712 205.778Z" fill="url(#paint136_linear)"/>
<path fill-rule="evenodd" clip-rule="evenodd" d="M35.5209 184.984L36.9675 185.827L36.9678 186.799L27.2012 192.527L27.2014 191.512L25.7548 190.67L35.5209 184.984Z" fill="url(#paint137_linear)"/>
<path fill-rule="evenodd" clip-rule="evenodd" d="M36.9658 187.508L36.9658 185.824L27.1996 191.509L27.1996 193.193L36.9658 187.508Z" fill="url(#paint138_linear)"/>
<path fill-rule="evenodd" clip-rule="evenodd" d="M25.7563 190.669L25.7563 192.353L27.2028 193.195L27.2029 191.511L25.7563 190.669Z" fill="url(#paint139_linear)"/>
<path fill-rule="evenodd" clip-rule="evenodd" d="M46.2999 158.724C46.1188 158.182 45.6375 157.8 45.0726 157.749C44.5084 157.698 43.8976 158.121 43.0673 158.612C39.421 165.254 31.1231 181.38 28.5891 185.996C28.2109 186.685 28.4505 187.552 29.1261 187.945C33.9594 190.755 51.88 201.173 59.3329 205.505C59.6428 205.685 59.3315 206.215 59.6672 206.145C59.8762 206.021 60.7711 205.522 60.955 205.371C61.4154 204.99 61.5938 204.362 61.4036 203.794C58.1598 194.115 49.3312 167.769 46.2999 158.724Z" fill="url(#paint140_linear)"/>
<path fill-rule="evenodd" clip-rule="evenodd" d="M45.1902 159.37C45.0091 158.829 44.5278 158.447 43.9629 158.395C43.3987 158.344 42.8569 158.633 42.5824 159.133C38.9361 165.775 30.0134 182.027 27.4794 186.642C27.1012 187.331 27.3408 188.198 28.0164 188.591C32.8497 191.401 50.7703 201.819 58.2232 206.152C58.7386 206.451 59.3849 206.398 59.8453 206.018C60.3057 205.637 60.4841 205.008 60.2939 204.44C57.0502 194.761 48.2215 168.415 45.1902 159.37Z" fill="url(#paint141_linear)"/>
<path fill-rule="evenodd" clip-rule="evenodd" d="M43.9071 158.39L43.96 158.394L44.0129 158.399L44.0653 158.407L44.1168 158.417L44.1676 158.428L44.2178 158.441L44.268 158.456L44.3166 158.473L44.3647 158.492L44.412 158.512L44.4588 158.534L44.504 158.557L44.5485 158.582L44.5924 158.608L44.6349 158.636L44.6768 158.666L44.7179 158.698L44.7569 158.73L44.7951 158.764L44.8327 158.799L44.8682 158.835L44.9031 158.874L44.9366 158.913L44.9679 158.954L44.9985 158.995L45.0278 159.038L45.0556 159.082L45.0815 159.128L45.1058 159.173L45.1288 159.22L45.1504 159.269L45.1699 159.319L45.1873 159.368L60.291 204.438L60.3077 204.491L60.3223 204.545L60.3349 204.599L60.3452 204.653L60.3529 204.707L60.3592 204.762L60.3634 204.816L60.3655 204.871V204.925L60.3641 204.98L60.3599 205.033L60.3537 205.086L60.3459 205.14L60.3362 205.193L60.3245 205.245L60.3106 205.297L60.2951 205.349L60.2777 205.4L60.2582 205.449L60.2366 205.499L60.2136 205.547L60.1886 205.595L60.1621 205.643L60.1335 205.688L60.1029 205.733L60.0709 205.777L60.0374 205.821L60.0012 205.861L59.9643 205.902L59.9254 205.941L59.8849 205.98L59.8424 206.016L59.7985 206.05L59.754 206.083L59.7081 206.114L59.6613 206.142L59.614 206.17L59.5659 206.195L59.5164 206.218L59.4669 206.239L59.4168 206.258L59.3659 206.275L59.3144 206.291L59.2629 206.304L59.2107 206.316L59.1578 206.325L59.1047 206.332L59.0518 206.338L58.9989 206.341L58.9452 206.343L58.8916 206.342L58.8387 206.34L58.785 206.334L58.7321 206.328L58.6792 206.32L58.6262 206.309L58.574 206.296L58.5218 206.282L58.4702 206.264L58.4187 206.245L58.3679 206.225L58.3184 206.202L58.2689 206.177L58.2203 206.15L28.0135 188.589L27.9822 188.57L27.9516 188.551L27.9216 188.531L27.8924 188.511L27.8638 188.489L27.8353 188.467L27.8081 188.445L27.7808 188.421L27.7552 188.397L27.7293 188.373L27.705 188.348L27.6805 188.323L27.6576 188.297L27.6346 188.27L27.613 188.244L27.5914 188.216L27.5705 188.188L27.5511 188.16L27.5315 188.131L27.5134 188.102L27.496 188.073L27.4787 188.042L27.4625 188.012L27.4472 187.981L27.4319 187.951L27.418 187.919L27.4047 187.888L27.3923 187.856L27.3804 187.824L27.3691 187.791L27.3595 187.759L27.3498 187.726L27.3414 187.693L27.3329 187.659L27.3261 187.626L27.3198 187.593L27.3142 187.559L27.3093 187.525L27.3052 187.491L27.3023 187.456L27.2996 187.422L27.2982 187.388L27.2976 187.353V187.319L27.2982 187.284L27.3003 187.25L27.3023 187.214L27.3059 187.18L27.31 187.146L27.3149 187.111L27.3212 187.077L27.3282 187.043L27.3351 187.008L27.3442 186.974L27.3532 186.94L27.3637 186.906L27.3748 186.872L27.3867 186.838L27.3992 186.805L27.4132 186.772L27.4278 186.738L27.4431 186.705L27.4591 186.673L27.4765 186.64L42.5795 159.132L42.6059 159.085L42.6344 159.04L42.6637 158.996L42.6945 158.954L42.7271 158.914L42.7606 158.874L42.7955 158.835L42.8317 158.798L42.8693 158.763L42.9075 158.728L42.9473 158.696L42.9883 158.665L43.0301 158.635L43.0727 158.607L43.1165 158.581L43.1611 158.556L43.2063 158.532L43.2531 158.511L43.2997 158.491L43.3478 158.473L43.3958 158.455L43.4452 158.442L43.4947 158.429L43.5449 158.417L43.5957 158.408L43.6466 158.4L43.6981 158.394L43.7503 158.39L43.8018 158.388L43.8549 158.388L43.9071 158.39ZM30.744 186.774L56.256 201.606L43.5003 163.54L30.744 186.774Z" fill="url(#paint142_linear)"/>
<path fill-rule="evenodd" clip-rule="evenodd" d="M38.6634 187.818L41.0684 185.738L40.796 185.237L38.3945 187.277L38.6634 187.818ZM39.2338 188.964L41.6388 186.885L41.399 186.403L38.9649 188.424L39.2338 188.964ZM46.805 192.722C47.2555 193.628 47.9748 194.046 48.3963 193.647C48.8468 193.265 48.8468 192.279 48.3963 191.374C47.9748 190.485 47.2555 190.067 46.805 190.448C46.3836 190.847 46.3836 191.833 46.805 192.722ZM37.7042 186.876L40.8287 184.228C40.8868 184.174 40.9485 184.168 41.0357 184.219C41.1266 184.272 41.2174 184.366 41.2755 184.488L41.548 185.072C42.0602 184.602 42.449 184.309 42.8377 183.979L40.796 179.916C40.0766 179.929 39.2338 179.18 38.6961 178.093C38.1838 177.069 38.0022 175.93 38.1838 175.05L38.2456 174.785L39.5644 177.482L40.6761 176.54L39.3536 173.84L39.5353 173.904C40.2256 174.005 40.9485 174.726 41.4572 175.707C42.0276 176.853 42.1801 178.146 41.8786 178.999L43.9204 183.062C44.4617 182.608 45.181 182.035 46.2637 181.076L46.8631 179.966L46.8958 179.943L47.8876 179.533C47.9458 179.526 48.0366 179.579 48.0657 179.678L48.5161 180.543C48.5779 180.661 48.5779 180.75 48.5161 180.802L47.8549 181.83C47.8259 181.859 47.8259 181.859 47.7968 181.884L46.805 182.122L46.7759 182.105C45.7223 183.04 45.003 183.608 44.4326 184.091L47.0738 189.447C47.6769 189.497 48.3381 190.094 48.8177 191.016C49.4789 192.346 49.4789 193.892 48.8177 194.494C48.1565 195.055 47.0738 194.425 46.4126 193.096C45.9331 192.132 45.7841 191.054 45.9948 190.362L44.251 186.861L43.35 185.009C42.9612 185.338 42.5689 185.665 42.0602 186.102L42.3291 186.642C42.3872 186.764 42.449 186.93 42.449 187.013C42.449 187.143 42.3872 187.237 42.3291 187.286L39.2047 189.934C39.1466 189.988 39.0848 189.994 38.994 189.941C38.9031 189.888 38.816 189.796 38.7542 189.672L37.7042 187.52C37.6425 187.396 37.6134 187.296 37.6134 187.166C37.6134 187.036 37.6425 186.923 37.7042 186.876Z" fill="url(#paint143_linear)"/>
</g>
<defs>
<linearGradient id="paint0_linear" x1="193.179" y1="118.961" x2="193.702" y2="124.534" gradientUnits="userSpaceOnUse">
<stop stop-color="#8C86AD"/>
<stop offset="1" stop-color="#E9E7F9"/>
</linearGradient>
<linearGradient id="paint1_linear" x1="207.996" y1="123.962" x2="208.783" y2="130.569" gradientUnits="userSpaceOnUse">
<stop stop-color="#8C86AD"/>
<stop offset="1" stop-color="#E9E7F9"/>
</linearGradient>
<linearGradient id="paint2_linear" x1="204.388" y1="68.8217" x2="226.172" y2="120.725" gradientUnits="userSpaceOnUse">
<stop stop-color="#564F81"/>
<stop offset="1" stop-color="#2C2847"/>
</linearGradient>
<linearGradient id="paint3_linear" x1="194.702" y1="63.5932" x2="195.564" y2="70.0171" gradientUnits="userSpaceOnUse">
<stop stop-color="#3F3960"/>
<stop offset="1" stop-color="#373157"/>
</linearGradient>
<linearGradient id="paint4_linear" x1="203.399" y1="16.8536" x2="203.399" y2="74.1165" gradientUnits="userSpaceOnUse">
<stop stop-color="#8C86AD"/>
<stop offset="1" stop-color="#E9E7F9"/>
</linearGradient>
<linearGradient id="paint5_linear" x1="189.886" y1="104.836" x2="203.629" y2="104.836" gradientUnits="userSpaceOnUse">
<stop stop-color="#898989"/>
<stop offset="1" stop-color="#515151"/>
</linearGradient>
<linearGradient id="paint6_linear" x1="186.954" y1="106.274" x2="202.009" y2="128.985" gradientUnits="userSpaceOnUse">
<stop stop-color="#B9B9B9"/>
<stop offset="1" stop-color="#6A6A6A"/>
</linearGradient>
<linearGradient id="paint7_linear" x1="195.921" y1="81.122" x2="197.367" y2="81.122" gradientUnits="userSpaceOnUse">
<stop stop-color="#D28D51"/>
<stop offset="1" stop-color="#894A00"/>
</linearGradient>
<linearGradient id="paint8_linear" x1="221.516" y1="17.7059" x2="206.114" y2="50.6753" gradientUnits="userSpaceOnUse">
<stop stop-color="#8C86AD"/>
<stop offset="1" stop-color="#E9E7F9"/>
</linearGradient>
<linearGradient id="paint9_linear" x1="184.513" y1="12.3422" x2="189.749" y2="61.9425" gradientUnits="userSpaceOnUse">
<stop stop-color="#8C86AD"/>
<stop offset="1" stop-color="#E9E7F9"/>
</linearGradient>
<linearGradient id="paint10_linear" x1="150.116" y1="78.6879" x2="199.748" y2="37.8063" gradientUnits="userSpaceOnUse">
<stop stop-color="#8C86AD"/>
<stop offset="1" stop-color="#E9E7F9"/>
</linearGradient>
<linearGradient id="paint11_linear" x1="222.435" y1="15.4237" x2="195.079" y2="11.822" gradientUnits="userSpaceOnUse">
<stop stop-color="#FFC620"/>
<stop offset="1" stop-color="#FFF37B"/>
</linearGradient>
<linearGradient id="paint12_linear" x1="205.754" y1="12.1069" x2="202.019" y2="5.24141" gradientUnits="userSpaceOnUse">
<stop stop-color="#FFC620"/>
<stop offset="1" stop-color="#FFF37B"/>
</linearGradient>
<linearGradient id="paint13_linear" x1="213.535" y1="7.49018" x2="188.046" y2="12.0543" gradientUnits="userSpaceOnUse">
<stop stop-color="#FFC620"/>
<stop offset="1" stop-color="#FFF37B"/>
</linearGradient>
<linearGradient id="paint14_linear" x1="40.1676" y1="115.454" x2="39.6452" y2="121.028" gradientUnits="userSpaceOnUse">
<stop stop-color="#8C86AD"/>
<stop offset="1" stop-color="#E9E7F9"/>
</linearGradient>
<linearGradient id="paint15_linear" x1="25.3505" y1="120.455" x2="24.5638" y2="127.062" gradientUnits="userSpaceOnUse">
<stop stop-color="#8C86AD"/>
<stop offset="1" stop-color="#E9E7F9"/>
</linearGradient>
<linearGradient id="paint16_linear" x1="28.9592" y1="65.315" x2="7.17466" y2="117.218" gradientUnits="userSpaceOnUse">
<stop stop-color="#564F81"/>
<stop offset="1" stop-color="#2C2847"/>
</linearGradient>
<linearGradient id="paint17_linear" x1="38.6447" y1="60.0863" x2="37.7827" y2="66.5102" gradientUnits="userSpaceOnUse">
<stop stop-color="#3F3960"/>
<stop offset="1" stop-color="#373157"/>
</linearGradient>
<linearGradient id="paint18_linear" x1="29.9476" y1="13.3468" x2="29.9476" y2="70.6097" gradientUnits="userSpaceOnUse">
<stop stop-color="#8C86AD"/>
<stop offset="1" stop-color="#E9E7F9"/>
</linearGradient>
<linearGradient id="paint19_linear" x1="34.8674" y1="40.7371" x2="35.6865" y2="40.7371" gradientUnits="userSpaceOnUse">
<stop stop-color="#564F81"/>
<stop offset="1" stop-color="#2C2847"/>
</linearGradient>
<linearGradient id="paint20_linear" x1="39.2105" y1="32.4759" x2="32.4961" y2="36.8168" gradientUnits="userSpaceOnUse">
<stop stop-color="#564F81"/>
<stop offset="1" stop-color="#2C2847"/>
</linearGradient>
<linearGradient id="paint21_linear" x1="38.3753" y1="34.1604" x2="38.3753" y2="47.2495" gradientUnits="userSpaceOnUse">
<stop stop-color="#564F81"/>
<stop offset="1" stop-color="#2C2847"/>
</linearGradient>
<linearGradient id="paint22_linear" x1="13.508" y1="14.1667" x2="24.6862" y2="48.8231" gradientUnits="userSpaceOnUse">
<stop stop-color="#8C86AD"/>
<stop offset="1" stop-color="#E9E7F9"/>
</linearGradient>
<linearGradient id="paint23_linear" x1="48.8335" y1="8.83511" x2="43.598" y2="58.4354" gradientUnits="userSpaceOnUse">
<stop stop-color="#8C86AD"/>
<stop offset="1" stop-color="#E9E7F9"/>
</linearGradient>
<linearGradient id="paint24_linear" x1="15.7811" y1="8.97103" x2="43.3306" y2="10.4393" gradientUnits="userSpaceOnUse">
<stop stop-color="#FFC620"/>
<stop offset="1" stop-color="#FFF37B"/>
</linearGradient>
<linearGradient id="paint25_linear" x1="32.7824" y1="8.81587" x2="37.7179" y2="2.76934" gradientUnits="userSpaceOnUse">
<stop stop-color="#FFC620"/>
<stop offset="1" stop-color="#FFF37B"/>
</linearGradient>
<linearGradient id="paint26_linear" x1="25.9803" y1="2.83028" x2="50.2203" y2="11.997" gradientUnits="userSpaceOnUse">
<stop stop-color="#FFC620"/>
<stop offset="1" stop-color="#FFF37B"/>
</linearGradient>
<linearGradient id="paint27_linear" x1="127.274" y1="74.7453" x2="105.92" y2="38.0135" gradientUnits="userSpaceOnUse">
<stop stop-color="#FAFAFD"/>
<stop offset="1" stop-color="#E7E3FC"/>
</linearGradient>
<linearGradient id="paint28_linear" x1="148.49" y1="127.061" x2="116.449" y2="74.9795" gradientUnits="userSpaceOnUse">
<stop stop-color="#A7A1C6"/>
<stop offset="1" stop-color="#E9E7F9"/>
</linearGradient>
<linearGradient id="paint29_linear" x1="85.169" y1="10.2658" x2="151.169" y2="54.2257" gradientUnits="userSpaceOnUse">
<stop stop-color="#564F81"/>
<stop offset="1" stop-color="#2C2847"/>
</linearGradient>
<linearGradient id="paint30_linear" x1="85.169" y1="10.2658" x2="151.169" y2="54.2257" gradientUnits="userSpaceOnUse">
<stop stop-color="#564F81"/>
<stop offset="1" stop-color="#2C2847"/>
</linearGradient>
<linearGradient id="paint31_linear" x1="87.3137" y1="61.0088" x2="130.258" y2="102.157" gradientUnits="userSpaceOnUse">
<stop stop-color="#564F81"/>
<stop offset="1" stop-color="#2C2847"/>
</linearGradient>
<linearGradient id="paint32_linear" x1="87.3137" y1="61.0088" x2="130.258" y2="102.157" gradientUnits="userSpaceOnUse">
<stop stop-color="#564F81"/>
<stop offset="1" stop-color="#2C2847"/>
</linearGradient>
<linearGradient id="paint33_linear" x1="85.169" y1="10.2658" x2="151.169" y2="54.2257" gradientUnits="userSpaceOnUse">
<stop stop-color="#2C2847"/>
<stop offset="1" stop-color="#3B3751"/>
</linearGradient>
<linearGradient id="paint34_linear" x1="85.169" y1="10.2658" x2="151.169" y2="54.2257" gradientUnits="userSpaceOnUse">
<stop stop-color="#2C2847"/>
<stop offset="1" stop-color="#3B3751"/>
</linearGradient>
<linearGradient id="paint35_linear" x1="1624.06" y1="241.852" x2="1626.52" y2="250.331" gradientUnits="userSpaceOnUse">
<stop stop-color="#564F81"/>
<stop offset="1" stop-color="#2C2847"/>
</linearGradient>
<linearGradient id="paint36_linear" x1="1624.06" y1="241.852" x2="1626.52" y2="250.331" gradientUnits="userSpaceOnUse">
<stop stop-color="#564F81"/>
<stop offset="1" stop-color="#2C2847"/>
</linearGradient>
<linearGradient id="paint37_linear" x1="1624.06" y1="251.514" x2="1626.52" y2="259.993" gradientUnits="userSpaceOnUse">
<stop stop-color="#564F81"/>
<stop offset="1" stop-color="#2C2847"/>
</linearGradient>
<linearGradient id="paint38_linear" x1="1624.06" y1="251.514" x2="1626.52" y2="259.993" gradientUnits="userSpaceOnUse">
<stop stop-color="#564F81"/>
<stop offset="1" stop-color="#2C2847"/>
</linearGradient>
<linearGradient id="paint39_linear" x1="1624.06" y1="261.175" x2="1626.52" y2="269.655" gradientUnits="userSpaceOnUse">
<stop stop-color="#564F81"/>
<stop offset="1" stop-color="#2C2847"/>
</linearGradient>
<linearGradient id="paint40_linear" x1="1624.06" y1="261.175" x2="1626.52" y2="269.655" gradientUnits="userSpaceOnUse">
<stop stop-color="#564F81"/>
<stop offset="1" stop-color="#2C2847"/>
</linearGradient>
<linearGradient id="paint41_linear" x1="1624.06" y1="270.838" x2="1626.52" y2="279.317" gradientUnits="userSpaceOnUse">
<stop stop-color="#564F81"/>
<stop offset="1" stop-color="#2C2847"/>
</linearGradient>
<linearGradient id="paint42_linear" x1="1624.06" y1="270.838" x2="1626.52" y2="279.317" gradientUnits="userSpaceOnUse">
<stop stop-color="#564F81"/>
<stop offset="1" stop-color="#2C2847"/>
</linearGradient>
<linearGradient id="paint43_linear" x1="1624.06" y1="280.5" x2="1626.52" y2="288.979" gradientUnits="userSpaceOnUse">
<stop stop-color="#564F81"/>
<stop offset="1" stop-color="#2C2847"/>
</linearGradient>
<linearGradient id="paint44_linear" x1="1624.06" y1="280.5" x2="1626.52" y2="288.979" gradientUnits="userSpaceOnUse">
<stop stop-color="#564F81"/>
<stop offset="1" stop-color="#2C2847"/>
</linearGradient>
<linearGradient id="paint45_linear" x1="149.428" y1="46.9345" x2="120.68" y2="64.0572" gradientUnits="userSpaceOnUse">
<stop stop-color="#E9E7F9"/>
<stop offset="1" stop-color="#8C86AD"/>
</linearGradient>
<linearGradient id="paint46_linear" x1="85.067" y1="49.0279" x2="127.485" y2="49.0279" gradientUnits="userSpaceOnUse">
<stop stop-color="#E9E7F9"/>
<stop offset="1" stop-color="#8C86AD"/>
</linearGradient>
<linearGradient id="paint47_linear" x1="142.225" y1="59.6478" x2="140.012" y2="40.0917" gradientUnits="userSpaceOnUse">
<stop stop-color="#F0EEFB"/>
<stop offset="1" stop-color="#D6D1EE"/>
</linearGradient>
<linearGradient id="paint48_linear" x1="91.8868" y1="128.574" x2="88.0266" y2="127.518" gradientUnits="userSpaceOnUse">
<stop stop-color="#8C86AD"/>
<stop offset="1" stop-color="#E9E7F9"/>
</linearGradient>
<linearGradient id="paint49_linear" x1="90.1367" y1="128.617" x2="88.5937" y2="128.275" gradientUnits="userSpaceOnUse">
<stop stop-color="#F3F2FA"/>
<stop offset="1" stop-color="#F1EFFD"/>
</linearGradient>
<linearGradient id="paint50_linear" x1="91.9129" y1="61.0828" x2="88.0528" y2="60.027" gradientUnits="userSpaceOnUse">
<stop stop-color="#8C86AD"/>
<stop offset="1" stop-color="#E9E7F9"/>
</linearGradient>
<linearGradient id="paint51_linear" x1="90.163" y1="61.1254" x2="88.6199" y2="60.7837" gradientUnits="userSpaceOnUse">
<stop stop-color="#F3F2FA"/>
<stop offset="1" stop-color="#F1EFFD"/>
</linearGradient>
<linearGradient id="paint52_linear" x1="114.946" y1="141.99" x2="111.085" y2="140.934" gradientUnits="userSpaceOnUse">
<stop stop-color="#8C86AD"/>
<stop offset="1" stop-color="#E9E7F9"/>
</linearGradient>
<linearGradient id="paint53_linear" x1="113.196" y1="142.032" x2="111.653" y2="141.69" gradientUnits="userSpaceOnUse">
<stop stop-color="#F3F2FA"/>
<stop offset="1" stop-color="#F1EFFD"/>
</linearGradient>
<linearGradient id="paint54_linear" x1="114.946" y1="74.4906" x2="111.085" y2="73.4347" gradientUnits="userSpaceOnUse">
<stop stop-color="#8C86AD"/>
<stop offset="1" stop-color="#E9E7F9"/>
</linearGradient>
<linearGradient id="paint55_linear" x1="113.196" y1="74.5331" x2="111.653" y2="74.1914" gradientUnits="userSpaceOnUse">
<stop stop-color="#F3F2FA"/>
<stop offset="1" stop-color="#F1EFFD"/>
</linearGradient>
<linearGradient id="paint56_linear" x1="105.216" y1="93.1006" x2="96.7115" y2="84.1766" gradientUnits="userSpaceOnUse">
<stop stop-color="#BCB7D5"/>
<stop offset="1" stop-color="#DBD7EE"/>
</linearGradient>
<linearGradient id="paint57_linear" x1="112.035" y1="106.354" x2="106.05" y2="100.069" gradientUnits="userSpaceOnUse">
<stop stop-color="#BCB7D5"/>
<stop offset="1" stop-color="#DBD7EE"/>
</linearGradient>
<linearGradient id="paint58_linear" x1="101.513" y1="101.376" x2="98.1264" y2="97.8195" gradientUnits="userSpaceOnUse">
<stop stop-color="#BCB7D5"/>
<stop offset="1" stop-color="#DBD7EE"/>
</linearGradient>
<linearGradient id="paint59_linear" x1="87.0613" y1="216.438" x2="74.5455" y2="219.821" gradientUnits="userSpaceOnUse">
<stop stop-color="#EF3F3F"/>
<stop offset="1" stop-color="#F47623"/>
</linearGradient>
<linearGradient id="paint60_linear" x1="76.2334" y1="222.793" x2="61.1076" y2="213.458" gradientUnits="userSpaceOnUse">
<stop stop-color="#EF3F3F"/>
<stop offset="1" stop-color="#F47623"/>
</linearGradient>
<linearGradient id="paint61_linear" x1="108.021" y1="229.61" x2="61.5047" y2="212.573" gradientUnits="userSpaceOnUse">
<stop stop-color="#EF3F3F"/>
<stop offset="1" stop-color="#F47623"/>
</linearGradient>
<linearGradient id="paint62_linear" x1="79.7149" y1="215.504" x2="67.9948" y2="203.14" gradientUnits="userSpaceOnUse">
<stop stop-color="#E03838"/>
<stop offset="1" stop-color="#F47623"/>
</linearGradient>
<linearGradient id="paint63_linear" x1="69.1771" y1="206.381" x2="82.3691" y2="206.381" gradientUnits="userSpaceOnUse">
<stop stop-color="#E3E0F3"/>
<stop offset="1" stop-color="#F1EFFD"/>
</linearGradient>
<linearGradient id="paint64_linear" x1="71.2921" y1="198.229" x2="80.2443" y2="198.229" gradientUnits="userSpaceOnUse">
<stop stop-color="#E3E0F3"/>
<stop offset="1" stop-color="#F1EFFD"/>
</linearGradient>
<linearGradient id="paint65_linear" x1="74.4715" y1="194.994" x2="79.0302" y2="193.129" gradientUnits="userSpaceOnUse">
<stop stop-color="#B91616"/>
<stop offset="1" stop-color="#FF9650"/>
</linearGradient>
<linearGradient id="paint66_linear" x1="26.3037" y1="181.069" x2="13.7879" y2="184.452" gradientUnits="userSpaceOnUse">
<stop stop-color="#EF3F3F"/>
<stop offset="1" stop-color="#F47623"/>
</linearGradient>
<linearGradient id="paint67_linear" x1="15.4758" y1="187.424" x2="0.350017" y2="178.089" gradientUnits="userSpaceOnUse">
<stop stop-color="#EF3F3F"/>
<stop offset="1" stop-color="#F47623"/>
</linearGradient>
<linearGradient id="paint68_linear" x1="47.2637" y1="194.241" x2="0.747066" y2="177.204" gradientUnits="userSpaceOnUse">
<stop stop-color="#EF3F3F"/>
<stop offset="1" stop-color="#F47623"/>
</linearGradient>
<linearGradient id="paint69_linear" x1="18.9573" y1="180.135" x2="7.2372" y2="167.77" gradientUnits="userSpaceOnUse">
<stop stop-color="#E03838"/>
<stop offset="1" stop-color="#F47623"/>
</linearGradient>
<linearGradient id="paint70_linear" x1="8.41955" y1="171.012" x2="21.6115" y2="171.012" gradientUnits="userSpaceOnUse">
<stop stop-color="#E3E0F3"/>
<stop offset="1" stop-color="#F1EFFD"/>
</linearGradient>
<linearGradient id="paint71_linear" x1="10.5346" y1="162.86" x2="19.4867" y2="162.86" gradientUnits="userSpaceOnUse">
<stop stop-color="#E3E0F3"/>
<stop offset="1" stop-color="#F1EFFD"/>
</linearGradient>
<linearGradient id="paint72_linear" x1="13.7139" y1="159.625" x2="18.2726" y2="157.76" gradientUnits="userSpaceOnUse">
<stop stop-color="#B91616"/>
<stop offset="1" stop-color="#FF9650"/>
</linearGradient>
<linearGradient id="paint73_linear" x1="128.595" y1="165.759" x2="123.241" y2="162.669" gradientUnits="userSpaceOnUse">
<stop stop-color="#564F81"/>
<stop offset="1" stop-color="#837DA9"/>
</linearGradient>
<linearGradient id="paint74_linear" x1="130.877" y1="167.805" x2="128.356" y2="165.915" gradientUnits="userSpaceOnUse">
<stop stop-color="#564F81"/>
<stop offset="1" stop-color="#837DA9"/>
</linearGradient>
<linearGradient id="paint75_linear" x1="124.643" y1="169.666" x2="118.897" y2="166.043" gradientUnits="userSpaceOnUse">
<stop stop-color="#564F81"/>
<stop offset="1" stop-color="#837DA9"/>
</linearGradient>
<linearGradient id="paint76_linear" x1="126.155" y1="149.161" x2="124.709" y2="149.161" gradientUnits="userSpaceOnUse">
<stop stop-color="#DDDAF1"/>
<stop offset="1" stop-color="#F1EFFD"/>
</linearGradient>
<linearGradient id="paint77_linear" x1="127.6" y1="150.003" x2="126.154" y2="150.003" gradientUnits="userSpaceOnUse">
<stop stop-color="#DDDAF1"/>
<stop offset="1" stop-color="#F1EFFD"/>
</linearGradient>
<linearGradient id="paint78_linear" x1="126.924" y1="131.368" x2="125.249" y2="130.666" gradientUnits="userSpaceOnUse">
<stop stop-color="#DDDAF1"/>
<stop offset="1" stop-color="#F1EFFD"/>
</linearGradient>
<linearGradient id="paint79_linear" x1="171.993" y1="140.496" x2="166.639" y2="137.406" gradientUnits="userSpaceOnUse">
<stop stop-color="#564F81"/>
<stop offset="1" stop-color="#837DA9"/>
</linearGradient>
<linearGradient id="paint80_linear" x1="174.275" y1="142.542" x2="171.755" y2="140.652" gradientUnits="userSpaceOnUse">
<stop stop-color="#564F81"/>
<stop offset="1" stop-color="#837DA9"/>
</linearGradient>
<linearGradient id="paint81_linear" x1="168.041" y1="144.403" x2="162.295" y2="140.78" gradientUnits="userSpaceOnUse">
<stop stop-color="#564F81"/>
<stop offset="1" stop-color="#837DA9"/>
</linearGradient>
<linearGradient id="paint82_linear" x1="169.554" y1="123.898" x2="168.107" y2="123.898" gradientUnits="userSpaceOnUse">
<stop stop-color="#DDDAF1"/>
<stop offset="1" stop-color="#F1EFFD"/>
</linearGradient>
<linearGradient id="paint83_linear" x1="170.999" y1="124.74" x2="169.552" y2="124.74" gradientUnits="userSpaceOnUse">
<stop stop-color="#DDDAF1"/>
<stop offset="1" stop-color="#F1EFFD"/>
</linearGradient>
<linearGradient id="paint84_linear" x1="170.322" y1="106.104" x2="168.648" y2="105.402" gradientUnits="userSpaceOnUse">
<stop stop-color="#DDDAF1"/>
<stop offset="1" stop-color="#F1EFFD"/>
</linearGradient>
<linearGradient id="paint85_linear" x1="150.751" y1="130.97" x2="143.419" y2="115.02" gradientUnits="userSpaceOnUse">
<stop stop-color="#EF3F3F"/>
<stop offset="1" stop-color="#F47623"/>
</linearGradient>
<linearGradient id="paint86_linear" x1="124.714" y1="128.572" x2="133.394" y2="128.572" gradientUnits="userSpaceOnUse">
<stop stop-color="#F3F2FA"/>
<stop offset="1" stop-color="#F1EFFD"/>
</linearGradient>
<linearGradient id="paint87_linear" x1="126.769" y1="123.275" x2="133.391" y2="123.275" gradientUnits="userSpaceOnUse">
<stop stop-color="#F3F2FA"/>
<stop offset="1" stop-color="#F1EFFD"/>
</linearGradient>
<linearGradient id="paint88_linear" x1="136.287" y1="121.835" x2="144.967" y2="121.835" gradientUnits="userSpaceOnUse">
<stop stop-color="#F3F2FA"/>
<stop offset="1" stop-color="#F1EFFD"/>
</linearGradient>
<linearGradient id="paint89_linear" x1="138.342" y1="116.539" x2="144.964" y2="116.539" gradientUnits="userSpaceOnUse">
<stop stop-color="#F3F2FA"/>
<stop offset="1" stop-color="#F1EFFD"/>
</linearGradient>
<linearGradient id="paint90_linear" x1="147.86" y1="115.099" x2="156.54" y2="115.099" gradientUnits="userSpaceOnUse">
<stop stop-color="#F3F2FA"/>
<stop offset="1" stop-color="#F1EFFD"/>
</linearGradient>
<linearGradient id="paint91_linear" x1="149.915" y1="109.802" x2="156.536" y2="109.802" gradientUnits="userSpaceOnUse">
<stop stop-color="#F3F2FA"/>
<stop offset="1" stop-color="#F1EFFD"/>
</linearGradient>
<linearGradient id="paint92_linear" x1="159.433" y1="108.362" x2="168.113" y2="108.362" gradientUnits="userSpaceOnUse">
<stop stop-color="#F3F2FA"/>
<stop offset="1" stop-color="#F1EFFD"/>
</linearGradient>
<linearGradient id="paint93_linear" x1="161.488" y1="103.065" x2="168.109" y2="103.065" gradientUnits="userSpaceOnUse">
<stop stop-color="#F3F2FA"/>
<stop offset="1" stop-color="#F1EFFD"/>
</linearGradient>
<linearGradient id="paint94_linear" x1="171.006" y1="101.625" x2="179.686" y2="101.625" gradientUnits="userSpaceOnUse">
<stop stop-color="#F3F2FA"/>
<stop offset="1" stop-color="#F1EFFD"/>
</linearGradient>
<linearGradient id="paint95_linear" x1="173.061" y1="96.328" x2="179.682" y2="96.328" gradientUnits="userSpaceOnUse">
<stop stop-color="#F3F2FA"/>
<stop offset="1" stop-color="#F1EFFD"/>
</linearGradient>
<linearGradient id="paint96_linear" x1="100.571" y1="167.443" x2="105.925" y2="164.354" gradientUnits="userSpaceOnUse">
<stop stop-color="#564F81"/>
<stop offset="1" stop-color="#837DA9"/>
</linearGradient>
<linearGradient id="paint97_linear" x1="98.2892" y1="169.489" x2="100.81" y2="167.599" gradientUnits="userSpaceOnUse">
<stop stop-color="#564F81"/>
<stop offset="1" stop-color="#837DA9"/>
</linearGradient>
<linearGradient id="paint98_linear" x1="104.523" y1="171.35" x2="110.269" y2="167.727" gradientUnits="userSpaceOnUse">
<stop stop-color="#564F81"/>
<stop offset="1" stop-color="#837DA9"/>
</linearGradient>
<linearGradient id="paint99_linear" x1="103.011" y1="150.845" x2="104.457" y2="150.845" gradientUnits="userSpaceOnUse">
<stop stop-color="#DDDAF1"/>
<stop offset="1" stop-color="#F1EFFD"/>
</linearGradient>
<linearGradient id="paint100_linear" x1="101.566" y1="151.687" x2="103.012" y2="151.687" gradientUnits="userSpaceOnUse">
<stop stop-color="#DDDAF1"/>
<stop offset="1" stop-color="#F1EFFD"/>
</linearGradient>
<linearGradient id="paint101_linear" x1="102.242" y1="133.052" x2="103.917" y2="132.35" gradientUnits="userSpaceOnUse">
<stop stop-color="#DDDAF1"/>
<stop offset="1" stop-color="#F1EFFD"/>
</linearGradient>
<linearGradient id="paint102_linear" x1="57.173" y1="142.18" x2="62.5265" y2="139.09" gradientUnits="userSpaceOnUse">
<stop stop-color="#564F81"/>
<stop offset="1" stop-color="#837DA9"/>
</linearGradient>
<linearGradient id="paint103_linear" x1="54.8907" y1="144.226" x2="57.4113" y2="142.336" gradientUnits="userSpaceOnUse">
<stop stop-color="#564F81"/>
<stop offset="1" stop-color="#837DA9"/>
</linearGradient>
<linearGradient id="paint104_linear" x1="61.1248" y1="146.087" x2="66.8709" y2="142.464" gradientUnits="userSpaceOnUse">
<stop stop-color="#564F81"/>
<stop offset="1" stop-color="#837DA9"/>
</linearGradient>
<linearGradient id="paint105_linear" x1="59.612" y1="125.582" x2="61.0587" y2="125.582" gradientUnits="userSpaceOnUse">
<stop stop-color="#DDDAF1"/>
<stop offset="1" stop-color="#F1EFFD"/>
</linearGradient>
<linearGradient id="paint106_linear" x1="58.167" y1="126.424" x2="59.6137" y2="126.424" gradientUnits="userSpaceOnUse">
<stop stop-color="#DDDAF1"/>
<stop offset="1" stop-color="#F1EFFD"/>
</linearGradient>
<linearGradient id="paint107_linear" x1="58.8437" y1="107.789" x2="60.5182" y2="107.087" gradientUnits="userSpaceOnUse">
<stop stop-color="#DDDAF1"/>
<stop offset="1" stop-color="#F1EFFD"/>
</linearGradient>
<linearGradient id="paint108_linear" x1="78.4152" y1="132.654" x2="85.7474" y2="116.704" gradientUnits="userSpaceOnUse">
<stop stop-color="#EF3F3F"/>
<stop offset="1" stop-color="#F47623"/>
</linearGradient>
<linearGradient id="paint109_linear" x1="104.452" y1="130.256" x2="95.7718" y2="130.256" gradientUnits="userSpaceOnUse">
<stop stop-color="#F3F2FA"/>
<stop offset="1" stop-color="#F1EFFD"/>
</linearGradient>
<linearGradient id="paint110_linear" x1="102.397" y1="124.96" x2="95.7752" y2="124.96" gradientUnits="userSpaceOnUse">
<stop stop-color="#F3F2FA"/>
<stop offset="1" stop-color="#F1EFFD"/>
</linearGradient>
<linearGradient id="paint111_linear" x1="92.8787" y1="123.52" x2="84.1989" y2="123.52" gradientUnits="userSpaceOnUse">
<stop stop-color="#F3F2FA"/>
<stop offset="1" stop-color="#F1EFFD"/>
</linearGradient>
<linearGradient id="paint112_linear" x1="90.824" y1="118.223" x2="84.2024" y2="118.223" gradientUnits="userSpaceOnUse">
<stop stop-color="#F3F2FA"/>
<stop offset="1" stop-color="#F1EFFD"/>
</linearGradient>
<linearGradient id="paint113_linear" x1="81.3058" y1="116.783" x2="72.6261" y2="116.783" gradientUnits="userSpaceOnUse">
<stop stop-color="#F3F2FA"/>
<stop offset="1" stop-color="#F1EFFD"/>
</linearGradient>
<linearGradient id="paint114_linear" x1="79.2511" y1="111.486" x2="72.6295" y2="111.486" gradientUnits="userSpaceOnUse">
<stop stop-color="#F3F2FA"/>
<stop offset="1" stop-color="#F1EFFD"/>
</linearGradient>
<linearGradient id="paint115_linear" x1="69.7328" y1="110.046" x2="61.0531" y2="110.046" gradientUnits="userSpaceOnUse">
<stop stop-color="#F3F2FA"/>
<stop offset="1" stop-color="#F1EFFD"/>
</linearGradient>
<linearGradient id="paint116_linear" x1="67.6781" y1="104.749" x2="61.0565" y2="104.749" gradientUnits="userSpaceOnUse">
<stop stop-color="#F3F2FA"/>
<stop offset="1" stop-color="#F1EFFD"/>
</linearGradient>
<linearGradient id="paint117_linear" x1="58.1599" y1="103.309" x2="49.4801" y2="103.309" gradientUnits="userSpaceOnUse">
<stop stop-color="#F3F2FA"/>
<stop offset="1" stop-color="#F1EFFD"/>
</linearGradient>
<linearGradient id="paint118_linear" x1="56.1052" y1="98.0122" x2="49.4836" y2="98.0122" gradientUnits="userSpaceOnUse">
<stop stop-color="#F3F2FA"/>
<stop offset="1" stop-color="#F1EFFD"/>
</linearGradient>
<linearGradient id="paint119_linear" x1="189.747" y1="211.602" x2="218.867" y2="188.257" gradientUnits="userSpaceOnUse">
<stop stop-color="#8C86AD"/>
<stop offset="1" stop-color="#E9E7F9"/>
</linearGradient>
<linearGradient id="paint120_linear" x1="173.837" y1="230.971" x2="189.925" y2="208.359" gradientUnits="userSpaceOnUse">
<stop stop-color="#8C86AD"/>
<stop offset="1" stop-color="#E9E7F9"/>
</linearGradient>
<linearGradient id="paint121_linear" x1="191.192" y1="229.287" x2="218.876" y2="205.092" gradientUnits="userSpaceOnUse">
<stop stop-color="#8C86AD"/>
<stop offset="1" stop-color="#E9E7F9"/>
</linearGradient>
<linearGradient id="paint122_linear" x1="165.537" y1="221.874" x2="160.349" y2="225.255" gradientUnits="userSpaceOnUse">
<stop stop-color="#8C86AD"/>
<stop offset="1" stop-color="#E9E7F9"/>
</linearGradient>
<linearGradient id="paint123_linear" x1="183.029" y1="189.174" x2="176.267" y2="197.816" gradientUnits="userSpaceOnUse">
<stop stop-color="#564F81"/>
<stop offset="1" stop-color="#2C2847"/>
</linearGradient>
<linearGradient id="paint124_linear" x1="191.09" y1="188.467" x2="164.452" y2="218.662" gradientUnits="userSpaceOnUse">
<stop stop-color="#564F81"/>
<stop offset="1" stop-color="#2C2847"/>
</linearGradient>
<linearGradient id="paint125_linear" x1="159.604" y1="159.995" x2="186.959" y2="156.394" gradientUnits="userSpaceOnUse">
<stop stop-color="#FFC620"/>
<stop offset="1" stop-color="#FFF37B"/>
</linearGradient>
<linearGradient id="paint126_linear" x1="176.284" y1="156.678" x2="180.02" y2="149.813" gradientUnits="userSpaceOnUse">
<stop stop-color="#FFC620"/>
<stop offset="1" stop-color="#FFF37B"/>
</linearGradient>
<linearGradient id="paint127_linear" x1="168.503" y1="152.062" x2="193.993" y2="156.626" gradientUnits="userSpaceOnUse">
<stop stop-color="#FFC620"/>
<stop offset="1" stop-color="#FFF37B"/>
</linearGradient>
<linearGradient id="paint128_linear" x1="159.663" y1="182.404" x2="165.316" y2="172.888" gradientUnits="userSpaceOnUse">
<stop stop-color="#A7A1C6"/>
<stop offset="1" stop-color="#E9E7F9"/>
</linearGradient>
<linearGradient id="paint129_linear" x1="165.103" y1="173.027" x2="165.099" y2="171.625" gradientUnits="userSpaceOnUse">
<stop stop-color="#A7A1C6"/>
<stop offset="1" stop-color="#E9E7F9"/>
</linearGradient>
<linearGradient id="paint130_linear" x1="164.549" y1="170.123" x2="165.095" y2="161.745" gradientUnits="userSpaceOnUse">
<stop stop-color="#B9B9B9" stop-opacity="0"/>
<stop offset="0.5" stop-color="#B9B9B9"/>
<stop offset="1" stop-color="#6A6A6A" stop-opacity="0.239216"/>
</linearGradient>
<linearGradient id="paint131_linear" x1="197.637" y1="203.479" x2="176.6" y2="204.986" gradientUnits="userSpaceOnUse">
<stop stop-color="#8C86AD"/>
<stop offset="1" stop-color="#E9E7F9"/>
</linearGradient>
<linearGradient id="paint132_linear" x1="178.442" y1="163.925" x2="203.353" y2="201.84" gradientUnits="userSpaceOnUse">
<stop stop-color="#8C86AD"/>
<stop offset="1" stop-color="#E9E7F9"/>
</linearGradient>
<linearGradient id="paint133_linear" x1="175.599" y1="178.594" x2="156.803" y2="184.939" gradientUnits="userSpaceOnUse">
<stop stop-color="#8C86AD"/>
<stop offset="1" stop-color="#E9E7F9"/>
</linearGradient>
<linearGradient id="paint134_linear" x1="78.1842" y1="192.05" x2="77.452" y2="190.792" gradientUnits="userSpaceOnUse">
<stop stop-color="#DDDAF1"/>
<stop offset="1" stop-color="#F1EFFD"/>
</linearGradient>
<linearGradient id="paint135_linear" x1="79.63" y1="192.891" x2="78.8977" y2="191.633" gradientUnits="userSpaceOnUse">
<stop stop-color="#DDDAF1"/>
<stop offset="1" stop-color="#F1EFFD"/>
</linearGradient>
<linearGradient id="paint136_linear" x1="63.2848" y1="201.618" x2="61.8296" y2="200.527" gradientUnits="userSpaceOnUse">
<stop stop-color="#DDDAF1"/>
<stop offset="1" stop-color="#F1EFFD"/>
</linearGradient>
<linearGradient id="paint137_linear" x1="52.2286" y1="176.941" x2="51.4963" y2="175.683" gradientUnits="userSpaceOnUse">
<stop stop-color="#DDDAF1"/>
<stop offset="1" stop-color="#F1EFFD"/>
</linearGradient>
<linearGradient id="paint138_linear" x1="53.6743" y1="177.782" x2="52.942" y2="176.524" gradientUnits="userSpaceOnUse">
<stop stop-color="#DDDAF1"/>
<stop offset="1" stop-color="#F1EFFD"/>
</linearGradient>
<linearGradient id="paint139_linear" x1="37.3292" y1="186.509" x2="35.8739" y2="185.417" gradientUnits="userSpaceOnUse">
<stop stop-color="#DDDAF1"/>
<stop offset="1" stop-color="#F1EFFD"/>
</linearGradient>
<linearGradient id="paint140_linear" x1="62.6198" y1="186.562" x2="27.911" y2="186.562" gradientUnits="userSpaceOnUse">
<stop stop-color="#BE201B"/>
<stop offset="1" stop-color="#EF3F3F"/>
</linearGradient>
<linearGradient id="paint141_linear" x1="54.287" y1="199.227" x2="39.636" y2="172.38" gradientUnits="userSpaceOnUse">
<stop stop-color="#F0BF23"/>
<stop offset="1" stop-color="#FFD743"/>
</linearGradient>
<linearGradient id="paint142_linear" x1="61.5085" y1="187.207" x2="26.7999" y2="187.207" gradientUnits="userSpaceOnUse">
<stop stop-color="#E24C25"/>
<stop offset="1" stop-color="#EC7E47"/>
</linearGradient>
<linearGradient id="paint143_linear" x1="38.6634" y1="183.261" x2="26.9632" y2="183.261" gradientUnits="userSpaceOnUse">
<stop stop-color="#564F81"/>
<stop offset="1" stop-color="#837DA9"/>
</linearGradient>
<clipPath id="clip0">
<rect width="218.824" height="240" fill="white"/>
</clipPath>
</defs>
</svg>
