<svg width="432" height="400" viewBox="0 0 432 400" fill="none" xmlns="http://www.w3.org/2000/svg">
<path d="M147.49 18.5025L211.245 0L276.278 13.3025L327.692 55.3625L353.709 116.545L348.368 182.833L312.893 239.041L255.411 272.293L189.09 274.971L129.123 246.461L89.2493 193.295L78.602 127.653L99.6208 64.5713L147.49 18.5025Z" fill="white"/>
<path d="M216.647 20.6228L271.611 34.2061L313.984 71.8441L334.058 124.914L327.235 181.259L295.077 227.971L244.952 254.348H188.342L138.217 227.971L106.059 181.259L99.235 124.914L119.309 71.8441L161.682 34.2061L216.647 20.6228Z" fill="#EF3F3F"/>
<path d="M210.427 197.213C213.244 216.207 169.14 216.787 165.407 188.065C147.263 193.146 134.734 175.64 143.508 160.168C132.986 152.991 133.182 132.054 144.145 125.778C135.768 116.854 145.935 91.8639 166.197 96.3225C160.659 76.252 189.962 59.9064 210.546 75.8956L210.427 197.213Z" stroke="white" stroke-width="6" stroke-miterlimit="10" stroke-linecap="round" stroke-linejoin="round"/>
<path d="M165.574 91.8639C167.085 100.767 174.922 107.664 183.872 109.265" stroke="white" stroke-width="6" stroke-miterlimit="10" stroke-linecap="round" stroke-linejoin="round"/>
<path d="M183.872 85.1761C181.802 98.4819 204.141 104.066 210.21 95.435" stroke="white" stroke-width="6" stroke-miterlimit="10" stroke-linecap="round" stroke-linejoin="round"/>
<path d="M172.713 104.806C172.678 109.474 166.427 115.456 162.897 116.847" stroke="white" stroke-width="6" stroke-miterlimit="10" stroke-linecap="round" stroke-linejoin="round"/>
<path d="M158.876 132.019C164.379 134.8 164.505 142.802 170.462 144.577C176.705 146.436 180.103 139.538 182.613 134.758C186.438 127.455 192.115 124.499 200.379 125.799C203.078 126.225 207.756 128.112 209.315 128.902" stroke="white" stroke-width="6" stroke-miterlimit="10" stroke-linecap="round" stroke-linejoin="round"/>
<path d="M152.626 131.572C156.905 136.876 163.764 129.042 159.324 124.436" stroke="white" stroke-width="6" stroke-miterlimit="10" stroke-linecap="round" stroke-linejoin="round"/>
<path d="M210.65 159.238C204.791 153.396 195.66 159.986 193.695 166.31C191.374 173.76 198.429 179.826 195.947 187.08C194.443 191.482 190.983 193.425 186.55 192.691" stroke="white" stroke-width="6" stroke-miterlimit="10" stroke-linecap="round" stroke-linejoin="round"/>
<path d="M165.574 191.797C158.694 173.802 192.8 178.868 178.069 151.649" stroke="white" stroke-width="6" stroke-miterlimit="10" stroke-linecap="round" stroke-linejoin="round"/>
<path d="M143.257 161.02C145.704 157.023 151.535 156.729 155.786 156.988C159.631 157.226 163.952 160.119 165.574 160.573" stroke="white" stroke-width="6" stroke-miterlimit="10" stroke-linecap="round" stroke-linejoin="round"/>
<path d="M299.244 151.656L299.887 132.026L287.98 131.634C287.26 127.56 286.135 123.626 284.638 119.873L295.56 113.891L286.107 96.6719L274.493 103.038C271.99 100.103 269.214 97.4057 266.201 94.9877L273.137 83.2683L256.224 73.2611L249.071 85.3438C245.603 84.0859 241.975 83.1355 238.241 82.5206V68.3483H228.529V210.672H238.241V201.881C241.94 201.28 245.526 200.344 248.966 199.1L253.154 206.961L270.501 197.751L266.117 189.498C269.354 186.905 272.333 184.005 274.983 180.818L283.177 186.038L293.742 169.469L284.918 163.851C286.456 159.86 287.589 155.653 288.246 151.3L299.244 151.656Z" stroke="white" stroke-width="6" stroke-miterlimit="10" stroke-linecap="round" stroke-linejoin="round"/>
<path d="M228.521 96.5741V110.117C244.714 110.18 257.824 123.311 257.824 139.51C257.824 155.709 244.721 168.847 228.521 168.903V182.439C252.189 182.377 271.367 163.18 271.367 139.51C271.367 115.834 252.189 96.637 228.521 96.5741Z" stroke="white" stroke-width="6" stroke-miterlimit="10" stroke-linecap="round" stroke-linejoin="round"/>
<path d="M24.0483 307.728V374.141C24.0483 376.305 25.7579 378.014 27.9234 378.014C30.0888 378.014 31.7984 376.305 31.7984 374.141V307.728H52.0856C54.1371 307.728 55.7327 306.133 55.7327 304.082C55.7327 302.032 54.1371 300.437 52.0856 300.437H3.64713C1.59562 300.437 0 302.032 0 304.082C0 306.133 1.59562 307.728 3.64713 307.728H24.0483Z" fill="#3B3751"/>
<path d="M52.8977 351.13C52.8977 370.268 62.3574 378.584 77.5158 378.584C87.6594 378.584 93.586 373.913 95.2956 372.204C95.9794 371.521 96.5493 370.837 96.5493 369.584C96.5493 367.762 95.0676 366.281 93.2441 366.281C92.3323 366.281 91.8764 366.509 91.1926 366.964C88.0013 369.356 84.1262 371.863 77.5158 371.863C66.8024 371.863 60.3059 364.572 60.3059 353.294H93.586C98.1449 353.294 98.1449 349.307 98.1449 346.004C98.1449 338.257 94.6118 323.79 76.3761 323.79C61.5596 323.79 52.8977 333.587 52.8977 351.13ZM90.9646 346.915H60.3059C60.9897 336.776 66.4604 330.397 76.3761 330.397C88.1153 330.397 90.9646 338.713 90.9646 346.915Z" fill="#3B3751"/>
<path d="M105.989 351.13C105.989 369.812 114.764 378.584 129.467 378.584C138.699 378.584 144.169 374.483 146.677 372.432C147.817 371.407 148.159 370.61 148.159 369.584C148.159 367.762 146.677 366.281 144.853 366.281C144.056 366.281 143.486 366.509 142.688 367.078C140.066 369.015 136.077 371.977 129.467 371.977C118.981 371.977 113.397 365.369 113.397 351.13C113.397 337.118 118.981 330.397 129.467 330.397C136.989 330.397 140.066 333.815 141.776 335.751C142.574 336.662 143.372 337.118 144.511 337.118C146.335 337.118 147.817 335.751 147.817 333.815C147.817 333.017 147.589 332.448 147.019 331.65C145.195 329.144 139.611 323.79 129.467 323.79C114.764 323.79 105.989 332.448 105.989 351.13Z" fill="#3B3751"/>
<path d="M181.056 323.79C173.647 323.79 168.063 327.435 165.897 331.764V299.64C165.897 297.589 164.302 295.994 162.25 295.994C160.199 295.994 158.603 297.589 158.603 299.64V374.369C158.603 376.419 160.199 378.014 162.25 378.014C164.302 378.014 165.897 376.419 165.897 374.369V346.231C165.897 337.118 169.772 330.283 181.056 330.283C192.111 330.283 194.732 336.435 194.732 345.434V374.369C194.732 376.419 196.328 378.014 198.38 378.014C200.431 378.014 202.027 376.419 202.027 374.369V343.953C202.027 334.27 198.608 323.79 181.056 323.79Z" fill="#3B3751"/>
<path d="M252.318 307.5H267.705C278.304 307.5 283.205 312.512 283.205 320.714C283.205 328.688 277.848 333.928 267.705 333.928H252.318V307.5ZM252.318 340.536H271.124C280.811 340.536 286.738 345.89 286.738 355.231C286.738 364.458 281.495 370.04 271.124 370.04H252.318V340.536ZM271.238 377.103C286.282 377.103 294.602 368.445 294.602 355.231C294.602 344.181 288.22 338.257 280.014 336.207C286.396 334.384 291.069 328.233 291.069 320.714C291.069 308.411 283.889 300.437 267.818 300.437H248.443C246.392 300.437 244.568 302.146 244.568 304.31V373.23C244.568 375.394 246.392 377.103 248.443 377.103H271.238Z" fill="#3B3751"/>
<path d="M310.393 295.994C308.455 295.994 306.746 297.703 306.746 299.64V364.686C306.746 373.457 310.963 378.014 318.599 378.014C320.422 378.014 322.018 376.533 322.018 374.597C322.018 372.66 320.422 371.179 318.599 371.179C315.521 371.179 314.04 369.243 314.04 364.686V299.64C314.04 297.703 312.444 295.994 310.393 295.994Z" fill="#3B3751"/>
<path d="M352.192 323.79C337.49 323.79 328.258 332.448 328.258 351.13C328.258 369.812 337.49 378.584 352.192 378.584C367.009 378.584 376.127 369.812 376.127 351.13C376.127 332.448 367.009 323.79 352.192 323.79ZM352.192 371.977C341.707 371.977 335.666 365.711 335.666 351.13C335.666 336.776 341.707 330.397 352.192 330.397C362.678 330.397 368.718 336.776 368.718 351.13C368.718 365.711 362.678 371.977 352.192 371.977Z" fill="#3B3751"/>
<path d="M406.242 323.79C393.021 323.79 385.271 331.308 385.271 342.928C385.271 347.826 386.639 351.927 389.374 355.345C386.639 357.167 384.815 359.901 384.815 363.319C384.815 367.762 387.665 371.179 391.882 372.546C386.525 374.711 383.22 378.812 383.22 384.052C383.22 396.583 395.757 400 407.496 400C421.287 400 432 395.443 432 383.596C432 372.888 423.11 368.103 412.055 368.103H400.316C393.477 368.103 391.882 365.711 391.882 363.319C391.882 361.496 392.679 360.243 393.933 359.218C397.124 361.041 401.341 362.066 406.242 362.066C419.463 362.066 427.213 354.547 427.213 342.928C427.213 338.029 425.731 333.815 423.11 330.625C423.908 328.802 425.162 327.093 428.581 327.093C430.404 327.093 431.886 325.613 431.886 323.79C431.886 321.967 430.404 320.486 428.581 320.486C422.882 320.486 420.375 323.106 418.437 326.638C415.246 324.815 410.915 323.79 406.242 323.79ZM406.242 355.459C397.466 355.459 392.679 350.446 392.679 342.928C392.679 335.409 397.466 330.397 406.242 330.397C415.018 330.397 419.805 335.409 419.805 342.928C419.805 350.446 415.018 355.459 406.242 355.459ZM424.592 383.596C424.592 391.001 416.614 393.621 407.61 393.621C398.606 393.621 390.628 391.001 390.628 384.052C390.628 379.495 393.591 376.078 400.202 374.938H412.055C419.463 374.938 424.592 377.331 424.592 383.596Z" fill="#3B3751"/>
<path d="M80.5694 297.393C78.8323 297.393 77.7338 297.954 76.9163 299.052C76.2777 298.057 75.2303 297.393 73.1356 297.393C71.424 297.393 70.3511 298.184 69.8657 298.925C69.8657 298.159 69.2527 297.546 68.4863 297.546C67.7199 297.546 67.1068 298.159 67.1068 298.925V308.219C67.1068 308.985 67.6944 309.546 68.4863 309.546C69.2782 309.546 69.8657 308.985 69.8657 308.219V302.525C69.8657 301.018 70.5044 299.895 72.4203 299.895C74.0808 299.895 74.6683 300.891 74.6683 302.346V308.219C74.6683 308.985 75.2303 309.546 76.0478 309.546C76.8142 309.546 77.4273 308.985 77.4273 308.219V302.321C77.4273 300.891 78.1425 299.895 79.9818 299.895C81.6423 299.895 82.2298 300.891 82.2298 302.346V308.219C82.2298 308.985 82.7918 309.546 83.6093 309.546C84.3757 309.546 84.9888 308.985 84.9888 308.219V301.835C84.9888 299.614 84.0436 297.393 80.5694 297.393Z" fill="#AEABBE"/>
<path d="M86.9027 303.495C86.9027 307.759 89.0996 309.674 92.6505 309.674C94.9751 309.674 96.329 308.678 96.7633 308.27C96.9932 308.065 97.1976 307.734 97.1976 307.325C97.1976 306.661 96.6611 306.125 95.9969 306.125C95.6649 306.125 95.4605 306.227 95.1795 306.406C94.5664 306.814 93.7745 307.197 92.6505 307.197C90.9645 307.197 89.6616 306.355 89.6616 304.516H95.9714C97.5297 304.516 97.5297 303.418 97.5297 302.474C97.5297 300.712 96.7378 297.393 92.4206 297.393C88.9464 297.393 86.9027 299.589 86.9027 303.495ZM92.4206 299.742C94.081 299.742 94.7963 300.967 94.7963 302.218H89.7383C89.866 300.584 90.9389 299.742 92.4206 299.742Z" fill="#AEABBE"/>
<path d="M112.901 297.393C111.163 297.393 110.065 297.954 109.248 299.052C108.609 298.057 107.562 297.393 105.467 297.393C103.755 297.393 102.682 298.184 102.197 298.925C102.197 298.159 101.584 297.546 100.817 297.546C100.051 297.546 99.438 298.159 99.438 298.925V308.219C99.438 308.985 100.026 309.546 100.817 309.546C101.609 309.546 102.197 308.985 102.197 308.219V302.525C102.197 301.018 102.836 299.895 104.752 299.895C106.412 299.895 107 300.891 107 302.346V308.219C107 308.985 107.562 309.546 108.379 309.546C109.145 309.546 109.758 308.985 109.758 308.219V302.321C109.758 300.891 110.474 299.895 112.313 299.895C113.973 299.895 114.561 300.891 114.561 302.346V308.219C114.561 308.985 115.123 309.546 115.941 309.546C116.707 309.546 117.32 308.985 117.32 308.219V301.835C117.32 299.614 116.375 297.393 112.901 297.393Z" fill="#AEABBE"/>
<path d="M130.397 303.546C130.397 299.359 128.252 297.393 124.803 297.393C121.354 297.393 119.208 299.359 119.208 303.546C119.208 307.708 121.354 309.674 124.803 309.674C128.252 309.674 130.397 307.708 130.397 303.546ZM127.613 303.546C127.613 306.048 126.642 307.325 124.803 307.325C122.964 307.325 121.993 306.048 121.993 303.546C121.993 301.018 122.964 299.742 124.803 299.742C126.642 299.742 127.613 301.018 127.613 303.546Z" fill="#AEABBE"/>
<path d="M140.107 309.7C142.968 309.725 143.786 310.21 144.986 311.385C145.318 311.717 145.65 311.819 146.008 311.819C146.851 311.819 147.464 311.129 147.464 310.363C147.464 310.057 147.413 309.827 147.132 309.444C146.749 308.934 145.753 308.448 144.935 308.346C146.979 306.993 148.205 304.414 148.205 300.763C148.205 294.712 145.267 291.801 140.107 291.801C134.947 291.801 132.009 294.712 132.009 300.763C132.009 306.738 134.947 309.7 140.107 309.7ZM140.107 294.456C143.479 294.456 145.14 296.525 145.14 300.763C145.14 304.976 143.479 307.044 140.107 307.044C136.735 307.044 135.075 304.976 135.075 300.763C135.075 296.525 136.735 294.456 140.107 294.456Z" fill="#AEABBE"/>
</svg>
