<svg width="576" height="214" viewBox="0 0 576 214" fill="none" xmlns="http://www.w3.org/2000/svg">
<path d="M42.0385 69.5669H23.687V123H19.0595L19.0991 69.5669H0.707947V65.4141H42.0385V69.5669Z" fill="#3B3751"/>
<path d="M66.6834 123.791C63.7039 123.791 60.9881 123.237 58.5359 122.13C56.0838 121.022 53.9744 119.52 52.2078 117.621C50.4676 115.723 49.1097 113.508 48.1341 110.977C47.1849 108.419 46.6971 105.703 46.6707 102.829V101.128C46.6971 98.0698 47.198 95.2222 48.1736 92.5854C49.1756 89.9487 50.5335 87.6548 52.2474 85.7036C53.9612 83.7524 55.9783 82.2231 58.2986 81.1157C60.6189 79.9819 63.1106 79.415 65.7737 79.415C68.6214 79.415 71.1395 79.9292 73.3279 80.9575C75.5164 81.9858 77.3489 83.3965 78.8255 85.1895C80.3284 86.9561 81.4622 89.0259 82.2269 91.3989C83.0179 93.772 83.4266 96.3164 83.4529 99.0322V101.919H51.4168V102.829C51.4432 105.07 51.8255 107.219 52.5638 109.276C53.302 111.306 54.3436 113.099 55.6883 114.655C57.033 116.21 58.6546 117.463 60.553 118.412C62.4515 119.335 64.5608 119.796 66.8811 119.796C69.5179 119.823 71.9041 119.335 74.0398 118.333C76.1756 117.331 77.9949 115.881 79.4978 113.982L82.5037 116.237C81.7127 117.344 80.7767 118.373 79.6956 119.322C78.6145 120.245 77.4017 121.036 76.0569 121.695C74.7386 122.354 73.2884 122.868 71.7063 123.237C70.1243 123.606 68.45 123.791 66.6834 123.791ZM65.7737 83.4492C63.8489 83.4492 62.0823 83.8184 60.4739 84.5566C58.8655 85.2686 57.4549 86.2705 56.242 87.5625C55.0291 88.8545 54.0271 90.3838 53.2361 92.1504C52.4451 93.8906 51.9046 95.8022 51.6145 97.8853H78.7068V97.3711C78.6541 95.6045 78.3245 93.8906 77.7181 92.2295C77.138 90.542 76.2942 89.0522 75.1868 87.7603C74.1058 86.4683 72.7742 85.4268 71.1922 84.6357C69.6102 83.8447 67.804 83.4492 65.7737 83.4492Z" fill="#3B3751"/>
<path d="M109.561 119.796C111.143 119.796 112.646 119.572 114.07 119.124C115.52 118.649 116.799 117.977 117.906 117.107C119.014 116.237 119.91 115.195 120.596 113.982C121.308 112.743 121.716 111.346 121.822 109.79H126.37C126.265 111.82 125.737 113.692 124.788 115.406C123.839 117.12 122.6 118.597 121.07 119.836C119.541 121.075 117.788 122.051 115.81 122.763C113.833 123.448 111.75 123.791 109.561 123.791C106.423 123.791 103.694 123.198 101.374 122.011C99.0539 120.825 97.1159 119.243 95.5602 117.265C94.0309 115.288 92.8708 113.02 92.0797 110.462C91.3151 107.878 90.9328 105.202 90.9328 102.434V100.772C90.9328 98.0039 91.3151 95.3408 92.0797 92.7832C92.8708 90.1992 94.0309 87.9185 95.5602 85.9409C97.1159 83.9634 99.0539 82.3813 101.374 81.1948C103.694 80.0083 106.41 79.415 109.522 79.415C111.895 79.415 114.083 79.7974 116.087 80.562C118.117 81.3003 119.871 82.355 121.347 83.7261C122.85 85.0708 124.037 86.6792 124.907 88.5513C125.777 90.397 126.265 92.4272 126.37 94.6421H121.822C121.743 93.0337 121.374 91.5439 120.715 90.1729C120.055 88.8018 119.185 87.6152 118.104 86.6133C117.023 85.6113 115.744 84.8335 114.268 84.2798C112.818 83.7261 111.236 83.4492 109.522 83.4492C107.043 83.4492 104.921 83.9502 103.154 84.9521C101.414 85.9541 99.9899 87.2725 98.8825 88.9072C97.7751 90.542 96.9577 92.4009 96.4303 94.4839C95.9294 96.5405 95.6789 98.6367 95.6789 100.772V102.434C95.6789 104.596 95.9294 106.718 96.4303 108.801C96.9577 110.884 97.7751 112.743 98.8825 114.378C99.9899 115.986 101.414 117.292 103.154 118.293C104.921 119.295 107.056 119.796 109.561 119.796Z" fill="#3B3751"/>
<path d="M140.732 88.4722C142.235 85.73 144.239 83.5415 146.744 81.9067C149.249 80.272 152.109 79.4414 155.326 79.415C157.673 79.415 159.743 79.7842 161.536 80.5225C163.355 81.2344 164.871 82.2891 166.084 83.6865C167.323 85.0576 168.259 86.7583 168.892 88.7886C169.551 90.7925 169.881 93.0864 169.881 95.6704V123H165.135V95.6704C165.135 93.772 164.911 92.0713 164.462 90.5684C164.014 89.0654 163.329 87.7998 162.406 86.7715C161.509 85.7168 160.376 84.9126 159.004 84.3589C157.633 83.8052 156.025 83.5283 154.179 83.5283C152.676 83.5283 151.239 83.7656 149.868 84.2402C148.497 84.7148 147.231 85.374 146.071 86.2178C144.911 87.0615 143.87 88.0635 142.947 89.2236C142.05 90.3574 141.312 91.6099 140.732 92.981V123H135.986V62.25H140.732V88.4722Z" fill="#3B3751"/>
<path d="M410.673 123V65.4141H426.414C428.734 65.4404 430.989 65.7568 433.177 66.3633C435.392 66.9434 437.356 67.853 439.07 69.0923C440.784 70.3052 442.155 71.8608 443.184 73.7593C444.238 75.6313 444.752 77.8726 444.726 80.4829C444.726 82.1177 444.476 83.5942 443.975 84.9126C443.474 86.2046 442.788 87.3647 441.918 88.3931C441.074 89.395 440.072 90.2783 438.912 91.043C437.752 91.7812 436.5 92.4009 435.155 92.9019C436.816 93.2974 438.345 93.9038 439.743 94.7212C441.167 95.5386 442.393 96.5537 443.421 97.7666C444.449 98.9531 445.253 100.311 445.833 101.84C446.44 103.37 446.743 105.018 446.743 106.784C446.77 109.342 446.295 111.623 445.319 113.626C444.344 115.604 443.025 117.292 441.364 118.689C439.703 120.06 437.778 121.115 435.59 121.853C433.428 122.591 431.16 122.974 428.787 123H410.673ZM415.419 95.3145V118.887H428.906C430.646 118.86 432.307 118.57 433.889 118.017C435.471 117.437 436.855 116.632 438.042 115.604C439.255 114.576 440.204 113.336 440.89 111.886C441.602 110.41 441.958 108.735 441.958 106.863C441.958 105.044 441.615 103.436 440.929 102.038C440.27 100.614 439.347 99.4146 438.161 98.439C437 97.4634 435.643 96.7119 434.087 96.1846C432.558 95.6572 430.949 95.3672 429.262 95.3145H415.419ZM415.419 91.2407H427.007C428.668 91.2144 430.277 90.9771 431.833 90.5288C433.388 90.0806 434.759 89.4082 435.946 88.5117C437.159 87.6152 438.134 86.4946 438.873 85.1499C439.611 83.8052 439.98 82.21 439.98 80.3643C439.98 78.4395 439.598 76.8047 438.833 75.46C438.068 74.0889 437.053 72.9814 435.788 72.1377C434.522 71.2676 433.085 70.6348 431.477 70.2393C429.868 69.8174 428.22 69.5933 426.533 69.5669H415.419V91.2407Z" fill="#3B3751"/>
<path d="M455.528 62.25H475.462V118.808H489.937V123H455.528V118.808H470.716V66.4819H455.528V62.25Z" fill="#3B3751"/>
<path d="M495.756 100.97C495.782 98.0698 496.231 95.3145 497.101 92.7041C497.971 90.0938 499.21 87.813 500.819 85.8618C502.453 83.8843 504.444 82.3154 506.791 81.1553C509.164 79.9951 511.84 79.415 514.82 79.415C517.825 79.415 520.502 79.9951 522.848 81.1553C525.221 82.3154 527.225 83.8843 528.86 85.8618C530.495 87.813 531.747 90.0938 532.617 92.7041C533.488 95.3145 533.936 98.0698 533.962 100.97V102.275C533.936 105.176 533.488 107.931 532.617 110.542C531.774 113.152 530.534 115.446 528.9 117.423C527.265 119.375 525.274 120.93 522.927 122.09C520.581 123.224 517.905 123.791 514.899 123.791C511.893 123.791 509.203 123.224 506.83 122.09C504.484 120.93 502.493 119.375 500.858 117.423C499.223 115.446 497.971 113.152 497.101 110.542C496.231 107.931 495.782 105.176 495.756 102.275V100.97ZM500.502 102.275C500.502 104.543 500.819 106.731 501.451 108.841C502.084 110.95 503.007 112.822 504.22 114.457C505.433 116.065 506.923 117.357 508.689 118.333C510.482 119.309 512.552 119.796 514.899 119.796C517.219 119.796 519.262 119.309 521.029 118.333C522.822 117.357 524.312 116.065 525.498 114.457C526.711 112.822 527.634 110.95 528.267 108.841C528.9 106.731 529.216 104.543 529.216 102.275V100.97C529.216 98.729 528.9 96.5537 528.267 94.4443C527.634 92.335 526.711 90.4761 525.498 88.8677C524.285 87.2329 522.782 85.9277 520.989 84.9521C519.197 83.9502 517.14 83.4492 514.82 83.4492C512.499 83.4492 510.443 83.9502 508.65 84.9521C506.883 85.9277 505.393 87.2329 504.18 88.8677C502.994 90.4761 502.084 92.335 501.451 94.4443C500.819 96.5537 500.502 98.729 500.502 100.97V102.275Z" fill="#3B3751"/>
<path d="M540.651 101.208C540.651 98.3599 540.994 95.6309 541.679 93.0205C542.365 90.3838 543.406 88.0635 544.804 86.0596C546.228 84.0293 547.994 82.4209 550.104 81.2344C552.239 80.0215 554.757 79.415 557.658 79.415C560.4 79.415 562.852 80.0083 565.014 81.1948C567.203 82.355 569.022 84.0029 570.472 86.1387L570.67 80.2061H575.1V122.249C575.073 124.859 574.665 127.258 573.874 129.447C573.083 131.635 571.936 133.507 570.433 135.063C568.956 136.645 567.163 137.871 565.054 138.741C562.944 139.611 560.571 140.046 557.935 140.046C556.669 140.046 555.351 139.901 553.98 139.611C552.608 139.321 551.264 138.873 549.945 138.267C548.627 137.66 547.361 136.896 546.149 135.973C544.962 135.076 543.92 133.995 543.024 132.729L545.674 129.882C549.075 133.995 553.057 136.052 557.618 136.052C559.649 136.052 561.455 135.722 563.037 135.063C564.619 134.404 565.937 133.468 566.992 132.255C568.073 131.068 568.89 129.631 569.444 127.944C570.024 126.283 570.327 124.45 570.354 122.446V117.582C568.851 119.585 567.005 121.128 564.816 122.209C562.654 123.264 560.242 123.791 557.579 123.791C554.731 123.791 552.239 123.185 550.104 121.972C547.994 120.732 546.241 119.111 544.843 117.107C543.446 115.077 542.391 112.756 541.679 110.146C540.994 107.509 540.651 104.807 540.651 102.038V101.208ZM545.397 102.038C545.397 104.174 545.621 106.296 546.069 108.406C546.544 110.515 547.295 112.414 548.324 114.101C549.352 115.762 550.697 117.107 552.358 118.135C554.019 119.164 556.049 119.678 558.449 119.678C559.794 119.678 561.072 119.506 562.285 119.164C563.498 118.794 564.606 118.28 565.607 117.621C566.636 116.962 567.545 116.171 568.337 115.248C569.154 114.299 569.826 113.244 570.354 112.084V91.7153C569.826 90.5288 569.18 89.4346 568.416 88.4326C567.651 87.4307 566.768 86.5737 565.766 85.8618C564.764 85.1235 563.656 84.5566 562.443 84.1611C561.231 83.7393 559.925 83.5283 558.528 83.5283C556.102 83.5283 554.059 84.0557 552.398 85.1104C550.736 86.1387 549.378 87.4966 548.324 89.1841C547.295 90.8452 546.544 92.7305 546.069 94.8398C545.621 96.9492 545.397 99.0718 545.397 101.208V102.038Z" fill="#3B3751"/>
<g filter="url(#filter0_d)">
<circle cx="290" cy="95" r="89" fill="#F47623"/>
</g>
<path d="M296.403 145.269C293.965 161.817 332.124 162.322 335.355 137.299C351.053 141.726 361.893 126.474 354.301 112.995C363.406 106.742 363.236 88.5013 353.751 83.034C360.998 75.2591 352.202 53.4872 334.671 57.3716C339.462 39.8859 314.109 25.6452 296.3 39.5753L296.403 145.269Z" stroke="white" stroke-width="4" stroke-miterlimit="10" stroke-linecap="round" stroke-linejoin="round"/>
<path d="M335.21 53.4874C333.903 61.2439 327.122 67.2531 319.378 68.6473" stroke="white" stroke-width="4" stroke-miterlimit="10" stroke-linecap="round" stroke-linejoin="round"/>
<path d="M319.378 47.6606C321.169 59.2529 301.841 64.1174 296.59 56.5983" stroke="white" stroke-width="4" stroke-miterlimit="10" stroke-linecap="round" stroke-linejoin="round"/>
<path d="M329.033 64.7628C329.063 68.8298 334.472 74.0414 337.527 75.253" stroke="white" stroke-width="4" stroke-miterlimit="10" stroke-linecap="round" stroke-linejoin="round"/>
<path d="M341.005 88.4707C336.244 90.8939 336.135 97.865 330.981 99.4115C325.579 101.031 322.639 95.0218 320.467 90.8573C317.158 84.495 312.246 81.9197 305.096 83.0521C302.761 83.4235 298.714 85.0673 297.365 85.7553" stroke="white" stroke-width="4" stroke-miterlimit="10" stroke-linecap="round" stroke-linejoin="round"/>
<path d="M346.413 88.0811C342.711 92.7021 336.776 85.8771 340.618 81.8649" stroke="white" stroke-width="4" stroke-miterlimit="10" stroke-linecap="round" stroke-linejoin="round"/>
<path d="M296.209 112.185C301.279 107.095 309.179 112.837 310.879 118.347C312.887 124.837 306.784 130.121 308.931 136.441C310.232 140.277 313.226 141.969 317.061 141.33" stroke="white" stroke-width="4" stroke-miterlimit="10" stroke-linecap="round" stroke-linejoin="round"/>
<path d="M335.21 140.551C341.162 124.873 311.653 129.287 324.399 105.573" stroke="white" stroke-width="4" stroke-miterlimit="10" stroke-linecap="round" stroke-linejoin="round"/>
<path d="M354.519 113.737C352.402 110.255 347.357 109.999 343.679 110.224C340.352 110.431 336.613 112.952 335.21 113.348" stroke="white" stroke-width="4" stroke-miterlimit="10" stroke-linecap="round" stroke-linejoin="round"/>
<path d="M219.556 105.579L219 88.477L229.302 88.136C229.925 84.5865 230.899 81.1588 232.194 77.8894L222.745 72.6777L230.923 57.6761L240.971 63.2225C243.137 60.6654 245.539 58.3153 248.146 56.2088L242.145 45.9986L256.778 37.2801L262.967 47.8069C265.967 46.711 269.107 45.8829 272.337 45.3472V33H280.74V156.995H272.337V149.336C269.137 148.812 266.034 147.997 263.058 146.913L259.434 153.762L244.426 145.738L248.218 138.548C245.418 136.289 242.841 133.762 240.548 130.986L233.458 135.534L224.317 121.098L231.952 116.203C230.621 112.727 229.641 109.062 229.072 105.269L219.556 105.579Z" stroke="white" stroke-width="4" stroke-miterlimit="10" stroke-linecap="round" stroke-linejoin="round"/>
<path d="M280.747 57.5909V69.3901C266.737 69.4449 255.394 80.8849 255.394 94.9977C255.394 109.11 266.731 120.557 280.747 120.605V132.398C260.27 132.344 243.676 115.619 243.676 94.9977C243.676 74.3704 260.27 57.6457 280.747 57.5909Z" stroke="white" stroke-width="4" stroke-miterlimit="10" stroke-linecap="round" stroke-linejoin="round"/>
<defs>
<filter id="filter0_d" x="183" y="0" width="214" height="214" filterUnits="userSpaceOnUse" color-interpolation-filters="sRGB">
<feFlood flood-opacity="0" result="BackgroundImageFix"/>
<feColorMatrix in="SourceAlpha" type="matrix" values="0 0 0 0 0 0 0 0 0 0 0 0 0 0 0 0 0 0 127 0"/>
<feOffset dy="12"/>
<feGaussianBlur stdDeviation="9"/>
<feColorMatrix type="matrix" values="0 0 0 0 0.231373 0 0 0 0 0.215686 0 0 0 0 0.317647 0 0 0 0.1 0"/>
<feBlend mode="normal" in2="BackgroundImageFix" result="effect1_dropShadow"/>
<feBlend mode="normal" in="SourceGraphic" in2="effect1_dropShadow" result="shape"/>
</filter>
</defs>
</svg>
