<svg width="446" height="477" viewBox="0 0 446 477" fill="none" xmlns="http://www.w3.org/2000/svg">
<g clip-path="url(#clip0)">
<path d="M134.318 23.0272L213.812 0.00152588L294.901 16.556L359.008 68.8981L391.448 145.037L384.788 227.53L340.555 297.479L268.882 338.86L186.187 342.193L111.416 306.713L61.6979 240.55L48.422 158.86L74.6299 80.3582L134.318 23.0272Z" fill="white"/>
<path d="M219.465 32.9999L284.526 49.0361L334.682 93.4709L358.444 156.125L350.367 222.645L312.302 277.791L252.969 308.932H185.96L126.627 277.791L88.5623 222.645L80.4854 156.125L104.247 93.4709L154.403 49.0361L219.465 32.9999Z" fill="#EF3F3F"/>
<path d="M212.802 245.257C216.304 268.878 161.483 269.6 156.843 233.881C134.29 240.199 118.716 218.429 129.623 199.187C116.544 190.262 116.787 164.225 130.414 156.42C120.003 145.322 132.639 114.244 157.825 119.789C150.942 94.8292 187.364 74.5016 212.95 94.3859L212.802 245.257Z" stroke="white" stroke-width="6" stroke-miterlimit="10" stroke-linecap="round" stroke-linejoin="round"/>
<path d="M157.051 114.244C158.928 125.316 168.671 133.894 179.795 135.884" stroke="white" stroke-width="6" stroke-miterlimit="10" stroke-linecap="round" stroke-linejoin="round"/>
<path d="M179.795 105.927C177.222 122.474 204.989 129.418 212.533 118.685" stroke="white" stroke-width="6" stroke-miterlimit="10" stroke-linecap="round" stroke-linejoin="round"/>
<path d="M165.924 130.339C165.881 136.145 158.111 143.584 153.723 145.314" stroke="white" stroke-width="6" stroke-miterlimit="10" stroke-linecap="round" stroke-linejoin="round"/>
<path d="M148.725 164.181C155.565 167.64 155.721 177.591 163.126 179.798C170.887 182.11 175.11 173.532 178.23 167.588C182.984 158.506 190.041 154.83 200.314 156.446C203.668 156.977 209.482 159.323 211.42 160.305" stroke="white" stroke-width="6" stroke-miterlimit="10" stroke-linecap="round" stroke-linejoin="round"/>
<path d="M140.956 163.625C146.275 170.221 154.8 160.479 149.282 154.752" stroke="white" stroke-width="6" stroke-miterlimit="10" stroke-linecap="round" stroke-linejoin="round"/>
<path d="M213.08 198.032C205.797 190.766 194.447 198.961 192.005 206.827C189.12 216.091 197.889 223.634 194.804 232.655C192.935 238.13 188.633 240.547 183.123 239.634" stroke="white" stroke-width="6" stroke-miterlimit="10" stroke-linecap="round" stroke-linejoin="round"/>
<path d="M157.051 238.522C148.499 216.143 190.893 222.444 172.581 188.593" stroke="white" stroke-width="6" stroke-miterlimit="10" stroke-linecap="round" stroke-linejoin="round"/>
<path d="M129.31 200.248C132.352 195.277 139.6 194.912 144.884 195.233C149.664 195.529 155.035 199.127 157.051 199.691" stroke="white" stroke-width="6" stroke-miterlimit="10" stroke-linecap="round" stroke-linejoin="round"/>
<path d="M323.201 188.602L324 164.19L309.2 163.703C308.305 158.636 306.906 153.744 305.046 149.077L318.621 141.637L306.871 120.223L292.435 128.141C289.324 124.491 285.874 121.136 282.128 118.129L290.749 103.555L269.727 91.1095L260.836 106.136C256.525 104.571 252.015 103.39 247.374 102.625V85H235.303V261.995H247.374V251.062C251.971 250.315 256.43 249.15 260.706 247.603L265.911 257.38L287.473 245.926L282.024 235.662C286.048 232.438 289.75 228.831 293.044 224.868L303.229 231.36L316.361 210.755L305.393 203.767C307.305 198.805 308.713 193.573 309.53 188.159L323.201 188.602Z" stroke="white" stroke-width="6" stroke-miterlimit="10" stroke-linecap="round" stroke-linejoin="round"/>
<path d="M235.294 120.102V136.944C255.421 137.023 271.716 153.353 271.716 173.498C271.716 193.643 255.43 209.981 235.294 210.051V226.885C264.712 226.806 288.55 202.933 288.55 173.498C288.55 144.053 264.712 120.18 235.294 120.102Z" stroke="white" stroke-width="6" stroke-miterlimit="10" stroke-linecap="round" stroke-linejoin="round"/>
<path d="M27.2606 375.356V442.984C27.2606 445.188 29.0005 446.928 31.2046 446.928C33.4086 446.928 35.1486 445.188 35.1486 442.984V375.356H55.7966C57.8846 375.356 59.5086 373.732 59.5086 371.644C59.5086 369.556 57.8846 367.932 55.7966 367.932H6.49655C4.40855 367.932 2.78455 369.556 2.78455 371.644C2.78455 373.732 4.40855 375.356 6.49655 375.356H27.2606Z" fill="#3B3751"/>
<path d="M56.6231 419.552C56.6231 439.04 66.251 447.508 81.6791 447.508C92.003 447.508 98.0351 442.752 99.7751 441.012C100.471 440.316 101.051 439.62 101.051 438.344C101.051 436.488 99.5431 434.98 97.6871 434.98C96.7591 434.98 96.295 435.212 95.599 435.676C92.351 438.112 88.4071 440.664 81.6791 440.664C70.775 440.664 64.1631 433.24 64.1631 421.756H98.0351C102.675 421.756 102.675 417.696 102.675 414.332C102.675 406.444 99.0791 391.712 80.5191 391.712C65.4391 391.712 56.6231 401.688 56.6231 419.552ZM95.3671 415.26H64.1631C64.8591 404.936 70.4271 398.44 80.5191 398.44C92.4671 398.44 95.3671 406.908 95.3671 415.26Z" fill="#3B3751"/>
<path d="M110.658 419.552C110.658 438.576 119.59 447.508 134.554 447.508C143.95 447.508 149.518 443.332 152.07 441.244C153.23 440.2 153.578 439.388 153.578 438.344C153.578 436.488 152.07 434.98 150.214 434.98C149.402 434.98 148.822 435.212 148.01 435.792C145.342 437.764 141.282 440.78 134.554 440.78C123.882 440.78 118.198 434.052 118.198 419.552C118.198 405.284 123.882 398.44 134.554 398.44C142.21 398.44 145.342 401.92 147.082 403.892C147.894 404.82 148.706 405.284 149.866 405.284C151.722 405.284 153.23 403.892 153.23 401.92C153.23 401.108 152.998 400.528 152.418 399.716C150.562 397.164 144.878 391.712 134.554 391.712C119.59 391.712 110.658 400.528 110.658 419.552Z" fill="#3B3751"/>
<path d="M187.061 391.712C179.521 391.712 173.837 395.424 171.633 399.832V367.12C171.633 365.032 170.009 363.408 167.921 363.408C165.833 363.408 164.209 365.032 164.209 367.12V443.216C164.209 445.304 165.833 446.928 167.921 446.928C170.009 446.928 171.633 445.304 171.633 443.216V414.564C171.633 405.284 175.577 398.324 187.061 398.324C198.313 398.324 200.981 404.588 200.981 413.752V443.216C200.981 445.304 202.605 446.928 204.693 446.928C206.781 446.928 208.405 445.304 208.405 443.216V412.244C208.405 402.384 204.925 391.712 187.061 391.712Z" fill="#3B3751"/>
<path d="M259.59 375.124H275.25C286.038 375.124 291.026 380.228 291.026 388.58C291.026 396.7 285.574 402.036 275.25 402.036H259.59V375.124ZM259.59 408.764H278.73C288.59 408.764 294.622 414.216 294.622 423.728C294.622 433.124 289.286 438.808 278.73 438.808H259.59V408.764ZM278.846 446C294.158 446 302.626 437.184 302.626 423.728C302.626 412.476 296.13 406.444 287.778 404.356C294.274 402.5 299.03 396.236 299.03 388.58C299.03 376.052 291.722 367.932 275.366 367.932H255.646C253.558 367.932 251.702 369.672 251.702 371.876V442.056C251.702 444.26 253.558 446 255.646 446H278.846Z" fill="#3B3751"/>
<path d="M318.698 363.408C316.726 363.408 314.986 365.148 314.986 367.12V433.356C314.986 442.288 319.278 446.928 327.05 446.928C328.906 446.928 330.53 445.42 330.53 443.448C330.53 441.476 328.906 439.968 327.05 439.968C323.918 439.968 322.41 437.996 322.41 433.356V367.12C322.41 365.148 320.786 363.408 318.698 363.408Z" fill="#3B3751"/>
<path d="M361.241 391.712C346.277 391.712 336.881 400.528 336.881 419.552C336.881 438.576 346.277 447.508 361.241 447.508C376.321 447.508 385.601 438.576 385.601 419.552C385.601 400.528 376.321 391.712 361.241 391.712ZM361.241 440.78C350.569 440.78 344.421 434.4 344.421 419.552C344.421 404.936 350.569 398.44 361.241 398.44C371.913 398.44 378.061 404.936 378.061 419.552C378.061 434.4 371.913 440.78 361.241 440.78Z" fill="#3B3751"/>
<path d="M416.252 391.712C402.796 391.712 394.908 399.368 394.908 411.2C394.908 416.188 396.3 420.364 399.084 423.844C396.3 425.7 394.444 428.484 394.444 431.964C394.444 436.488 397.344 439.968 401.636 441.36C396.184 443.564 392.82 447.74 392.82 453.076C392.82 465.836 405.58 469.316 417.528 469.316C431.564 469.316 442.468 464.676 442.468 452.612C442.468 441.708 433.42 436.836 422.168 436.836H410.22C403.26 436.836 401.636 434.4 401.636 431.964C401.636 430.108 402.448 428.832 403.724 427.788C406.972 429.644 411.264 430.688 416.252 430.688C429.708 430.688 437.596 423.032 437.596 411.2C437.596 406.212 436.088 401.92 433.42 398.672C434.232 396.816 435.508 395.076 438.988 395.076C440.844 395.076 442.352 393.568 442.352 391.712C442.352 389.856 440.844 388.348 438.988 388.348C433.188 388.348 430.636 391.016 428.664 394.612C425.416 392.756 421.008 391.712 416.252 391.712ZM416.252 423.96C407.32 423.96 402.448 418.856 402.448 411.2C402.448 403.544 407.32 398.44 416.252 398.44C425.184 398.44 430.056 403.544 430.056 411.2C430.056 418.856 425.184 423.96 416.252 423.96ZM434.928 452.612C434.928 460.152 426.808 462.82 417.644 462.82C408.48 462.82 400.36 460.152 400.36 453.076C400.36 448.436 403.376 444.956 410.104 443.796H422.168C429.708 443.796 434.928 446.232 434.928 452.612Z" fill="#3B3751"/>
<path d="M85.0024 364.832C83.2344 364.832 82.1164 365.404 81.2844 366.522C80.6344 365.508 79.5684 364.832 77.4364 364.832C75.6944 364.832 74.6024 365.638 74.1084 366.392C74.1084 365.612 73.4844 364.988 72.7044 364.988C71.9244 364.988 71.3004 365.612 71.3004 366.392V375.856C71.3004 376.636 71.8984 377.208 72.7044 377.208C73.5104 377.208 74.1084 376.636 74.1084 375.856V370.058C74.1084 368.524 74.7584 367.38 76.7084 367.38C78.3984 367.38 78.9964 368.394 78.9964 369.876V375.856C78.9964 376.636 79.5684 377.208 80.4004 377.208C81.1804 377.208 81.8044 376.636 81.8044 375.856V369.85C81.8044 368.394 82.5324 367.38 84.4044 367.38C86.0944 367.38 86.6924 368.394 86.6924 369.876V375.856C86.6924 376.636 87.2644 377.208 88.0964 377.208C88.8764 377.208 89.5004 376.636 89.5004 375.856V369.356C89.5004 367.094 88.5384 364.832 85.0024 364.832Z" fill="#3B3751"/>
<path d="M91.4483 371.046C91.4483 375.388 93.6843 377.338 97.2983 377.338C99.6643 377.338 101.042 376.324 101.484 375.908C101.718 375.7 101.926 375.362 101.926 374.946C101.926 374.27 101.38 373.724 100.704 373.724C100.366 373.724 100.158 373.828 99.8723 374.01C99.2483 374.426 98.4423 374.816 97.2983 374.816C95.5823 374.816 94.2563 373.958 94.2563 372.086H100.678C102.264 372.086 102.264 370.968 102.264 370.006C102.264 368.212 101.458 364.832 97.0643 364.832C93.5283 364.832 91.4483 367.068 91.4483 371.046ZM97.0643 367.224C98.7543 367.224 99.4823 368.472 99.4823 369.746H94.3343C94.4643 368.082 95.5563 367.224 97.0643 367.224Z" fill="#3B3751"/>
<path d="M117.909 364.832C116.141 364.832 115.023 365.404 114.191 366.522C113.541 365.508 112.475 364.832 110.343 364.832C108.601 364.832 107.509 365.638 107.015 366.392C107.015 365.612 106.391 364.988 105.611 364.988C104.831 364.988 104.207 365.612 104.207 366.392V375.856C104.207 376.636 104.805 377.208 105.611 377.208C106.417 377.208 107.015 376.636 107.015 375.856V370.058C107.015 368.524 107.665 367.38 109.615 367.38C111.305 367.38 111.903 368.394 111.903 369.876V375.856C111.903 376.636 112.475 377.208 113.307 377.208C114.087 377.208 114.711 376.636 114.711 375.856V369.85C114.711 368.394 115.439 367.38 117.311 367.38C119.001 367.38 119.599 368.394 119.599 369.876V375.856C119.599 376.636 120.171 377.208 121.003 377.208C121.783 377.208 122.407 376.636 122.407 375.856V369.356C122.407 367.094 121.445 364.832 117.909 364.832Z" fill="#3B3751"/>
<path d="M135.717 371.098C135.717 366.834 133.533 364.832 130.023 364.832C126.513 364.832 124.329 366.834 124.329 371.098C124.329 375.336 126.513 377.338 130.023 377.338C133.533 377.338 135.717 375.336 135.717 371.098ZM132.883 371.098C132.883 373.646 131.895 374.946 130.023 374.946C128.151 374.946 127.163 373.646 127.163 371.098C127.163 368.524 128.151 367.224 130.023 367.224C131.895 367.224 132.883 368.524 132.883 371.098Z" fill="#3B3751"/>
<path d="M145.599 377.364C148.511 377.39 149.343 377.884 150.565 379.08C150.903 379.418 151.241 379.522 151.605 379.522C152.463 379.522 153.087 378.82 153.087 378.04C153.087 377.728 153.035 377.494 152.749 377.104C152.359 376.584 151.345 376.09 150.513 375.986C152.593 374.608 153.841 371.982 153.841 368.264C153.841 362.102 150.851 359.138 145.599 359.138C140.347 359.138 137.357 362.102 137.357 368.264C137.357 374.348 140.347 377.364 145.599 377.364ZM145.599 361.842C149.031 361.842 150.721 363.948 150.721 368.264C150.721 372.554 149.031 374.66 145.599 374.66C142.167 374.66 140.477 372.554 140.477 368.264C140.477 363.948 142.167 361.842 145.599 361.842Z" fill="#3B3751"/>
</g>
<defs>
<clipPath id="clip0">
<rect x="0.000549316" y="0.00152588" width="446" height="476.998" fill="white"/>
</clipPath>
</defs>
</svg>
