<svg width="387" height="120" viewBox="0 0 387 120" fill="none" xmlns="http://www.w3.org/2000/svg">
<path d="M27.8227 42.8542H15.4689V78.8765H12.3538L12.3805 42.8542H0V40.0545H27.8227V42.8542Z" fill="#3B3751"/>
<path d="M44.4131 79.4098C42.4074 79.4098 40.5791 79.0365 38.9284 78.2899C37.2777 77.5433 35.8577 76.5301 34.6685 75.2503C33.497 73.9704 32.5829 72.4773 31.9261 70.7708C31.2871 69.0466 30.9588 67.2157 30.941 65.2782V64.1316C30.9588 62.0697 31.296 60.1499 31.9528 58.3723C32.6272 56.5948 33.5414 55.0483 34.6951 53.7329C35.8488 52.4175 37.2067 51.3865 38.7687 50.6399C40.3306 49.8756 42.008 49.4934 43.8007 49.4934C45.7177 49.4934 47.4128 49.84 48.886 50.5333C50.3593 51.2265 51.5929 52.1775 52.5868 53.3863C53.5986 54.5772 54.3618 55.9726 54.8766 57.5724C55.4091 59.1722 55.6842 60.8876 55.7019 62.7185V64.6649H34.136V65.2782C34.1537 66.7891 34.4111 68.2378 34.9081 69.6243C35.4051 70.993 36.1062 72.2018 37.0114 73.2505C37.9167 74.2993 39.0083 75.1436 40.2863 75.7836C41.5642 76.4057 42.9842 76.7168 44.5462 76.7168C46.3212 76.7346 47.9275 76.4057 49.3653 75.7302C50.803 75.0548 52.0277 74.0771 53.0395 72.7972L55.0629 74.3171C54.5304 75.0636 53.9003 75.7569 53.1726 76.3968C52.4448 77.019 51.6284 77.5522 50.7231 77.9966C49.8356 78.441 48.8594 78.7876 47.7944 79.0365C46.7294 79.2854 45.6023 79.4098 44.4131 79.4098ZM43.8007 52.2131C42.505 52.2131 41.3158 52.4619 40.233 52.9596C39.1503 53.4396 38.2007 54.1151 37.3842 54.9861C36.5677 55.8571 35.8932 56.8881 35.3607 58.079C34.8282 59.2522 34.4643 60.5409 34.2691 61.9452H52.507V61.5986C52.4715 60.4076 52.2496 59.2522 51.8414 58.1323C51.4509 56.9947 50.8829 55.9904 50.1374 55.1194C49.4096 54.2484 48.5133 53.5462 47.4483 53.013C46.3833 52.4797 45.1674 52.2131 43.8007 52.2131Z" fill="#3B3751"/>
<path d="M73.2774 76.7168C74.3424 76.7168 75.3541 76.5657 76.3126 76.2635C77.2888 75.9435 78.1497 75.4903 78.8952 74.9037C79.6407 74.3171 80.2442 73.6149 80.7057 72.7972C81.1849 71.9618 81.46 71.0197 81.531 69.9709H84.5929C84.5219 71.3396 84.1669 72.6017 83.5279 73.7571C82.8889 74.9125 82.0546 75.908 81.0252 76.7434C79.9957 77.5789 78.8153 78.2366 77.4841 78.7165C76.1528 79.1787 74.7506 79.4098 73.2774 79.4098C71.1652 79.4098 69.3281 79.0098 67.7661 78.2099C66.2041 77.41 64.8995 76.3435 63.8523 75.0103C62.8228 73.6771 62.0418 72.1484 61.5093 70.4242C60.9946 68.6822 60.7372 66.878 60.7372 65.0115V63.8917C60.7372 62.0252 60.9946 60.2299 61.5093 58.5056C62.0418 56.7636 62.8228 55.226 63.8523 53.8929C64.8995 52.5597 66.2041 51.4931 67.7661 50.6932C69.3281 49.8933 71.1563 49.4934 73.2508 49.4934C74.8482 49.4934 76.3215 49.7511 77.6704 50.2666C79.0372 50.7643 80.2175 51.4754 81.2115 52.3997C82.2233 53.3063 83.022 54.3906 83.6077 55.6526C84.1935 56.8969 84.5219 58.2657 84.5929 59.7588H81.531C81.4778 58.6745 81.2293 57.6702 80.7855 56.7458C80.3418 55.8215 79.756 55.0216 79.0283 54.3461C78.3006 53.6707 77.4397 53.1463 76.4457 52.773C75.4695 52.3997 74.4045 52.2131 73.2508 52.2131C71.5823 52.2131 70.1534 52.5508 68.9642 53.2263C67.7927 53.9017 66.8342 54.7905 66.0887 55.8926C65.3432 56.9947 64.793 58.2479 64.438 59.6522C64.1008 61.0387 63.9321 62.4518 63.9321 63.8917V65.0115C63.9321 66.4691 64.1008 67.9001 64.438 69.3043C64.793 70.7086 65.3432 71.9618 66.0887 73.0639C66.8342 74.1482 67.7927 75.0281 68.9642 75.7036C70.1534 76.379 71.5912 76.7168 73.2774 76.7168Z" fill="#3B3751"/>
<path d="M94.2608 55.5993C95.2725 53.7507 96.6215 52.2753 98.3077 51.1732C99.994 50.0711 101.92 49.5112 104.085 49.4934C105.665 49.4934 107.058 49.7422 108.265 50.24C109.49 50.7199 110.511 51.4309 111.327 52.373C112.161 53.2974 112.792 54.4439 113.218 55.8126C113.661 57.1636 113.883 58.7101 113.883 60.4521V78.8765H110.688V60.4521C110.688 59.1722 110.537 58.0257 110.236 57.0125C109.934 55.9993 109.472 55.146 108.851 54.4528C108.248 53.7418 107.484 53.1996 106.561 52.8263C105.638 52.453 104.556 52.2664 103.313 52.2664C102.301 52.2664 101.334 52.4264 100.411 52.7463C99.4881 53.0663 98.6361 53.5107 97.8551 54.0795C97.0741 54.6483 96.373 55.3238 95.7518 56.1059C95.1483 56.8703 94.6513 57.7146 94.2608 58.639V78.8765H91.0658V37.9214H94.2608V55.5993Z" fill="#3B3751"/>
<path d="M275.979 78.8765V40.0545H286.575C288.137 40.0723 289.655 40.2856 291.128 40.6944C292.619 41.0855 293.941 41.6988 295.095 42.5342C296.249 43.3519 297.172 44.4007 297.864 45.6805C298.574 46.9426 298.92 48.4535 298.902 50.2133C298.902 51.3154 298.734 52.3108 298.396 53.1996C298.059 54.0706 297.598 54.8527 297.012 55.546C296.444 56.2215 295.769 56.8169 294.989 57.3324C294.208 57.8302 293.364 58.2479 292.459 58.5856C293.577 58.8523 294.607 59.2611 295.548 59.8121C296.506 60.3632 297.331 61.0475 298.024 61.8652C298.716 62.6651 299.257 63.5806 299.648 64.6116C300.056 65.6425 300.26 66.7535 300.26 67.9445C300.278 69.6687 299.958 71.2063 299.302 72.5573C298.645 73.8904 297.757 75.0281 296.639 75.9702C295.521 76.8945 294.225 77.6056 292.752 78.1033C291.297 78.601 289.77 78.8587 288.173 78.8765H275.979ZM279.173 60.2121V76.1035H288.252C289.424 76.0857 290.542 75.8902 291.607 75.5169C292.672 75.1258 293.604 74.5837 294.403 73.8904C295.219 73.1972 295.858 72.3617 296.32 71.3841C296.799 70.3886 297.039 69.2599 297.039 67.9978C297.039 66.7713 296.808 65.687 296.346 64.7449C295.903 63.785 295.281 62.9762 294.483 62.3185C293.702 61.6608 292.788 61.1542 291.74 60.7987C290.711 60.4432 289.628 60.2476 288.492 60.2121H279.173ZM279.173 57.4658H286.974C288.093 57.448 289.175 57.288 290.223 56.9858C291.27 56.6836 292.193 56.2304 292.992 55.626C293.808 55.0216 294.465 54.2661 294.962 53.3596C295.459 52.453 295.707 51.3776 295.707 50.1333C295.707 48.8357 295.45 47.7336 294.935 46.827C294.421 45.9027 293.737 45.1561 292.885 44.5873C292.033 44.0007 291.066 43.5741 289.983 43.3075C288.9 43.0231 287.791 42.872 286.655 42.8542H279.173V57.4658Z" fill="#3B3751"/>
<path d="M306.174 37.9214H319.593V76.0502H329.337V78.8765H306.174V76.0502H316.398V40.7744H306.174V37.9214Z" fill="#3B3751"/>
<path d="M333.254 64.025C333.272 62.0696 333.574 60.2121 334.16 58.4523C334.745 56.6925 335.58 55.1549 336.662 53.8395C337.763 52.5064 339.103 51.4487 340.683 50.6666C342.28 49.8844 344.082 49.4934 346.088 49.4934C348.111 49.4934 349.913 49.8844 351.492 50.6666C353.09 51.4487 354.439 52.5064 355.539 53.8395C356.64 55.1549 357.483 56.6925 358.069 58.4523C358.654 60.2121 358.956 62.0696 358.974 64.025V64.9049C358.956 66.8602 358.654 68.7177 358.069 70.4775C357.501 72.2373 356.666 73.7838 355.566 75.117C354.465 76.4324 353.125 77.4811 351.546 78.2632C349.966 79.0276 348.164 79.4098 346.141 79.4098C344.117 79.4098 342.307 79.0276 340.709 78.2632C339.13 77.4811 337.79 76.4324 336.689 75.117C335.589 73.7838 334.745 72.2373 334.16 70.4775C333.574 68.7177 333.272 66.8602 333.254 64.9049V64.025ZM336.449 64.9049C336.449 66.4336 336.662 67.9089 337.088 69.331C337.514 70.753 338.136 72.0151 338.952 73.1172C339.769 74.2015 340.772 75.0725 341.961 75.7302C343.168 76.3879 344.561 76.7168 346.141 76.7168C347.703 76.7168 349.078 76.3879 350.268 75.7302C351.475 75.0725 352.477 74.2015 353.276 73.1172C354.093 72.0151 354.714 70.753 355.14 69.331C355.566 67.9089 355.779 66.4336 355.779 64.9049V64.025C355.779 62.514 355.566 61.0475 355.14 59.6255C354.714 58.2034 354.093 56.9503 353.276 55.866C352.46 54.7639 351.448 53.884 350.241 53.2263C349.034 52.5508 347.65 52.2131 346.088 52.2131C344.526 52.2131 343.141 52.5508 341.934 53.2263C340.745 53.884 339.742 54.7639 338.926 55.866C338.127 56.9503 337.514 58.2034 337.088 59.6255C336.662 61.0475 336.449 62.514 336.449 64.025V64.9049Z" fill="#3B3751"/>
<path d="M363.477 64.1849C363.477 62.2652 363.707 60.4254 364.169 58.6656C364.63 56.888 365.331 55.3238 366.272 53.9728C367.231 52.6041 368.42 51.5198 369.84 50.7199C371.278 49.9022 372.973 49.4934 374.925 49.4934C376.771 49.4934 378.422 49.8933 379.877 50.6932C381.351 51.4754 382.575 52.5863 383.552 54.0262L383.685 50.0267H386.667V78.3699C386.649 80.1297 386.374 81.7473 385.841 83.2227C385.309 84.698 384.537 85.9601 383.525 87.0089C382.531 88.0754 381.324 88.902 379.904 89.4886C378.484 90.0752 376.887 90.3685 375.112 90.3685C374.26 90.3685 373.372 90.2707 372.449 90.0752C371.526 89.8796 370.621 89.5774 369.733 89.1686C368.846 88.7598 367.994 88.2443 367.177 87.6221C366.379 87.0177 365.678 86.2889 365.074 85.4357L366.858 83.5159C369.148 86.2889 371.828 87.6754 374.899 87.6754C376.265 87.6754 377.481 87.4533 378.546 87.0089C379.611 86.5645 380.499 85.9334 381.209 85.1158C381.936 84.3159 382.487 83.3471 382.859 82.2094C383.25 81.0896 383.454 79.8542 383.472 78.5032V75.2236C382.46 76.5746 381.218 77.6144 379.744 78.3432C378.289 79.0543 376.665 79.4098 374.872 79.4098C372.955 79.4098 371.278 79.0009 369.84 78.1833C368.42 77.3478 367.24 76.2546 366.299 74.9037C365.358 73.5349 364.648 71.9707 364.169 70.2109C363.707 68.4333 363.477 66.6113 363.477 64.7449V64.1849ZM366.672 64.7449C366.672 66.1847 366.822 67.6156 367.124 69.0377C367.444 70.4597 367.95 71.7396 368.642 72.8772C369.334 73.9971 370.239 74.9037 371.358 75.5969C372.476 76.2902 373.843 76.6368 375.458 76.6368C376.363 76.6368 377.224 76.5212 378.04 76.2902C378.857 76.0413 379.602 75.6947 380.277 75.2503C380.969 74.8059 381.581 74.2726 382.114 73.6505C382.664 73.0105 383.117 72.2995 383.472 71.5174V57.7857C383.117 56.9858 382.682 56.2481 382.167 55.5727C381.652 54.8972 381.058 54.3195 380.383 53.8395C379.709 53.3418 378.963 52.9596 378.147 52.693C377.33 52.4086 376.452 52.2664 375.511 52.2664C373.878 52.2664 372.502 52.6219 371.384 53.3329C370.266 54.0262 369.352 54.9416 368.642 56.0793C367.95 57.1991 367.444 58.4701 367.124 59.8921C366.822 61.3142 366.672 62.7451 366.672 64.1849V64.7449Z" fill="#3B3751"/>
<ellipse cx="194.744" cy="60" rx="59.9127" ry="60" fill="#F47623"/>
<path d="M199.055 93.8891C197.413 105.045 223.102 105.386 225.276 88.5164C235.844 91.5003 243.141 81.2185 238.031 72.1312C244.159 67.9159 244.045 55.6188 237.66 51.9329C242.539 46.6915 236.618 32.0138 224.816 34.6325C228.041 22.8443 210.974 13.2439 198.985 22.635L199.055 93.8891Z" stroke="white" stroke-width="4" stroke-miterlimit="10" stroke-linecap="round" stroke-linejoin="round"/>
<path d="M225.178 32.0137C224.299 37.2429 219.734 41.294 214.521 42.2339" stroke="white" stroke-width="4" stroke-miterlimit="10" stroke-linecap="round" stroke-linejoin="round"/>
<path d="M214.521 28.0859C215.727 35.9009 202.716 39.1804 199.181 34.1113" stroke="white" stroke-width="4" stroke-miterlimit="10" stroke-linecap="round" stroke-linejoin="round"/>
<path d="M221.021 39.6154C221.041 42.3572 224.682 45.8707 226.738 46.6875" stroke="white" stroke-width="4" stroke-miterlimit="10" stroke-linecap="round" stroke-linejoin="round"/>
<path d="M229.08 55.5982C225.875 57.2318 225.801 61.9314 222.332 62.974C218.695 64.0658 216.716 60.0146 215.254 57.2072C213.027 52.918 209.72 51.1818 204.906 51.9452C203.335 52.1956 200.61 53.3038 199.702 53.7676" stroke="white" stroke-width="4" stroke-miterlimit="10" stroke-linecap="round" stroke-linejoin="round"/>
<path d="M232.72 55.3355C230.228 58.4508 226.233 53.8496 228.819 51.1448" stroke="white" stroke-width="4" stroke-miterlimit="10" stroke-linecap="round" stroke-linejoin="round"/>
<path d="M198.924 71.5854C202.337 68.154 207.655 72.0246 208.8 75.7392C210.152 80.1145 206.043 83.6773 207.488 87.9377C208.364 90.5236 210.38 91.6646 212.962 91.2336" stroke="white" stroke-width="4" stroke-miterlimit="10" stroke-linecap="round" stroke-linejoin="round"/>
<path d="M225.178 90.7082C229.186 80.1391 209.321 83.1148 217.901 67.1278" stroke="white" stroke-width="4" stroke-miterlimit="10" stroke-linecap="round" stroke-linejoin="round"/>
<path d="M238.177 72.632C236.752 70.2843 233.356 70.1119 230.88 70.2637C228.64 70.4033 226.123 72.1026 225.178 72.3693" stroke="white" stroke-width="4" stroke-miterlimit="10" stroke-linecap="round" stroke-linejoin="round"/>
<path d="M147.321 67.132L146.947 55.6025L153.882 55.3726C154.301 52.9797 154.957 50.6689 155.828 48.4648L149.467 44.9513L154.973 34.8378L161.737 38.577C163.195 36.8531 164.812 35.2688 166.567 33.8486L162.527 26.9654L172.378 21.0877L176.544 28.1844C178.564 27.4456 180.678 26.8874 182.852 26.5262V18.2023H188.509V101.795H182.852V96.6311C180.698 96.2781 178.609 95.7281 176.605 94.9975L174.166 99.6151L164.063 94.2053L166.616 89.3579C164.73 87.8351 162.996 86.1318 161.452 84.2601L156.679 87.3262L150.526 77.5944L155.665 74.2944C154.77 71.9507 154.11 69.4798 153.727 66.9227L147.321 67.132Z" stroke="white" stroke-width="4" stroke-miterlimit="10" stroke-linecap="round" stroke-linejoin="round"/>
<path d="M188.516 34.7803V42.7349C179.084 42.7718 171.448 50.4842 171.448 59.9984C171.448 69.5126 179.08 77.2291 188.516 77.2619V85.2123C174.731 85.1754 163.56 73.9003 163.56 59.9984C163.56 46.0923 174.731 34.8173 188.516 34.7803Z" stroke="white" stroke-width="4" stroke-miterlimit="10" stroke-linecap="round" stroke-linejoin="round"/>
</svg>
