<svg width="580" height="180" viewBox="0 0 580 180" fill="none" xmlns="http://www.w3.org/2000/svg">
<path d="M41.7341 64.2812H23.2034V118.315H18.5307L18.5707 64.2812H0V60.0817H41.7341V64.2812Z" fill="#3B3751"/>
<path d="M66.6196 119.115C63.611 119.115 60.8687 118.555 58.3926 117.435C55.9165 116.315 53.7865 114.795 52.0027 112.875C50.2455 110.956 48.8743 108.716 47.8892 106.156C46.9307 103.57 46.4382 100.823 46.4115 97.9171V96.1973C46.4382 93.1044 46.944 90.2247 47.9291 87.5584C48.9409 84.892 50.312 82.5723 52.0426 80.5992C53.7732 78.6261 55.81 77.0796 58.153 75.9598C60.496 74.8132 63.012 74.24 65.7011 74.24C68.5765 74.24 71.1192 74.7599 73.329 75.7998C75.5389 76.8397 77.3893 78.2662 78.8803 80.0793C80.3979 81.8657 81.5427 83.9588 82.3148 86.3585C83.1136 88.7582 83.5263 91.3313 83.5529 94.0776V96.9972H51.204V97.9171C51.2306 100.184 51.6166 102.357 52.3621 104.436C53.1076 106.489 54.1593 108.303 55.5172 109.876C56.875 111.449 58.5124 112.715 60.4294 113.675C62.3464 114.608 64.4763 115.075 66.8193 115.075C69.4818 115.102 71.8913 114.608 74.0479 113.595C76.2045 112.582 78.0416 111.116 79.5592 109.196L82.5944 111.475C81.7957 112.595 80.8505 113.635 79.7589 114.595C78.6673 115.528 77.4425 116.328 76.0847 116.995C74.7534 117.661 73.2891 118.181 71.6916 118.555C70.0941 118.928 68.4035 119.115 66.6196 119.115ZM65.7011 78.3195C63.7575 78.3195 61.9736 78.6928 60.3495 79.4394C58.7254 80.1593 57.301 81.1725 56.0763 82.479C54.8515 83.7855 53.8398 85.332 53.0411 87.1184C52.2423 88.8782 51.6965 90.8113 51.4036 92.9177H78.7605V92.3978C78.7072 90.6113 78.3744 88.8782 77.762 87.1984C77.1763 85.492 76.3243 83.9855 75.2061 82.679C74.1145 81.3725 72.7699 80.3193 71.1724 79.5193C69.575 78.7194 67.7512 78.3195 65.7011 78.3195Z" fill="#3B3751"/>
<path d="M109.916 115.075C111.514 115.075 113.031 114.848 114.469 114.395C115.933 113.915 117.225 113.235 118.343 112.355C119.461 111.475 120.366 110.422 121.058 109.196C121.777 107.943 122.19 106.529 122.297 104.956H126.889C126.783 107.009 126.25 108.902 125.292 110.636C124.333 112.369 123.082 113.862 121.538 115.115C119.993 116.368 118.223 117.355 116.226 118.075C114.229 118.768 112.126 119.115 109.916 119.115C106.748 119.115 103.992 118.515 101.649 117.315C99.3062 116.115 97.3492 114.515 95.7784 112.515C94.2342 110.516 93.0627 108.223 92.2639 105.636C91.4918 103.023 91.1058 100.317 91.1058 97.5172V95.8374C91.1058 93.0377 91.4918 90.3447 92.2639 87.7584C93.0627 85.1453 94.2342 82.8389 95.7784 80.8392C97.3492 78.8394 99.3062 77.2396 101.649 76.0398C103.992 74.8399 106.734 74.24 109.876 74.24C112.272 74.24 114.482 74.6266 116.506 75.3998C118.556 76.1464 120.326 77.213 121.817 78.5995C123.335 79.9593 124.533 81.5858 125.412 83.4789C126.29 85.3453 126.783 87.3984 126.889 89.6381H122.297C122.217 88.0117 121.844 86.5052 121.178 85.1187C120.513 83.7322 119.634 82.5323 118.542 81.5191C117.451 80.5059 116.16 79.7193 114.669 79.1594C113.204 78.5995 111.607 78.3195 109.876 78.3195C107.373 78.3195 105.23 78.8261 103.446 79.8393C101.689 80.8525 100.251 82.1857 99.1331 83.8388C98.0149 85.492 97.1895 87.3717 96.657 89.4781C96.1511 91.5579 95.8982 93.6776 95.8982 95.8374V97.5172C95.8982 99.7036 96.1511 101.85 96.657 103.956C97.1895 106.063 98.0149 107.943 99.1331 109.596C100.251 111.222 101.689 112.542 103.446 113.555C105.23 114.568 107.387 115.075 109.916 115.075Z" fill="#3B3751"/>
<path d="M141.391 83.3989C142.909 80.6259 144.932 78.4128 147.462 76.7597C149.991 75.1065 152.88 74.2666 156.128 74.24C158.497 74.24 160.588 74.6133 162.398 75.3598C164.235 76.0798 165.766 77.1463 166.991 78.5595C168.242 79.946 169.187 81.6658 169.826 83.7188C170.492 85.7453 170.825 88.065 170.825 90.678V118.315H166.032V90.678C166.032 88.7582 165.806 87.0384 165.353 85.5186C164.901 83.9988 164.208 82.719 163.277 81.6791C162.371 80.6125 161.227 79.7993 159.842 79.2394C158.458 78.6794 156.833 78.3995 154.97 78.3995C153.452 78.3995 152.001 78.6395 150.617 79.1194C149.232 79.5993 147.954 80.2659 146.783 81.1192C145.611 81.9724 144.56 82.9856 143.628 84.1588C142.722 85.3053 141.977 86.5718 141.391 87.9583V118.315H136.599V56.8821H141.391V83.3989Z" fill="#3B3751"/>
<path d="M413.968 118.315V60.0817H429.863C432.206 60.1084 434.482 60.4283 436.692 61.0416C438.928 61.6282 440.912 62.5481 442.642 63.8012C444.373 65.0278 445.758 66.6009 446.796 68.5207C447.861 70.4138 448.38 72.6802 448.353 75.3199C448.353 76.973 448.1 78.4661 447.595 79.7993C447.089 81.1058 446.397 82.279 445.518 83.3189C444.666 84.3321 443.654 85.2253 442.483 85.9986C441.311 86.7451 440.047 87.3717 438.689 87.8783C440.366 88.2783 441.91 88.8915 443.321 89.7181C444.759 90.5447 445.997 91.5712 447.036 92.7977C448.074 93.9976 448.886 95.3708 449.472 96.9172C450.084 98.4637 450.39 100.13 450.39 101.917C450.417 104.503 449.938 106.809 448.952 108.836C447.967 110.836 446.636 112.542 444.959 113.955C443.281 115.342 441.338 116.408 439.128 117.155C436.945 117.901 434.655 118.288 432.259 118.315H413.968ZM418.76 90.318V114.155H432.379C434.136 114.129 435.813 113.835 437.411 113.275C439.008 112.689 440.406 111.875 441.604 110.836C442.829 109.796 443.787 108.543 444.48 107.076C445.198 105.583 445.558 103.89 445.558 101.997C445.558 100.157 445.212 98.5304 444.519 97.1172C443.854 95.6774 442.922 94.4642 441.724 93.4777C440.552 92.4911 439.181 91.7312 437.61 91.1979C436.066 90.6647 434.442 90.3714 432.738 90.318H418.76ZM418.76 86.1985H430.462C432.139 86.1719 433.763 85.9319 435.334 85.4786C436.905 85.0253 438.289 84.3454 439.487 83.4389C440.712 82.5323 441.697 81.3991 442.443 80.0393C443.188 78.6794 443.561 77.0663 443.561 75.1999C443.561 73.2534 443.175 71.6003 442.403 70.2405C441.631 68.854 440.606 67.7341 439.328 66.8809C438.05 66.001 436.599 65.3611 434.975 64.9611C433.35 64.5345 431.686 64.3079 429.982 64.2812H418.76V86.1985Z" fill="#3B3751"/>
<path d="M459.261 56.8821H479.389V114.075H494.006V118.315H459.261V114.075H474.597V61.1616H459.261V56.8821Z" fill="#3B3751"/>
<path d="M499.882 96.0374C499.908 93.1044 500.361 90.318 501.24 87.6784C502.118 85.0387 503.369 82.7323 504.994 80.7592C506.644 78.7594 508.654 77.173 511.024 75.9998C513.42 74.8266 516.123 74.24 519.131 74.24C522.166 74.24 524.869 74.8266 527.238 75.9998C529.635 77.173 531.658 78.7594 533.309 80.7592C534.96 82.7323 536.224 85.0387 537.103 87.6784C537.982 90.318 538.434 93.1044 538.461 96.0374V97.3572C538.434 100.29 537.982 103.077 537.103 105.716C536.251 108.356 535 110.676 533.349 112.675C531.698 114.648 529.688 116.222 527.318 117.395C524.949 118.541 522.246 119.115 519.211 119.115C516.176 119.115 513.46 118.541 511.064 117.395C508.694 116.222 506.684 114.648 505.034 112.675C503.383 110.676 502.118 108.356 501.24 105.716C500.361 103.077 499.908 100.29 499.882 97.3572V96.0374ZM504.674 97.3572C504.674 99.6503 504.994 101.863 505.633 103.996C506.272 106.129 507.203 108.023 508.428 109.676C509.653 111.302 511.157 112.609 512.941 113.595C514.752 114.582 516.842 115.075 519.211 115.075C521.554 115.075 523.618 114.582 525.401 113.595C527.212 112.609 528.716 111.302 529.914 109.676C531.139 108.023 532.071 106.129 532.71 103.996C533.349 101.863 533.668 99.6503 533.668 97.3572V96.0374C533.668 93.771 533.349 91.5712 532.71 89.4382C532.071 87.3051 531.139 85.4253 529.914 83.7988C528.69 82.1457 527.172 80.8259 525.361 79.8393C523.551 78.8261 521.474 78.3195 519.131 78.3195C516.788 78.3195 514.712 78.8261 512.901 79.8393C511.117 80.8259 509.613 82.1457 508.388 83.7988C507.19 85.4253 506.272 87.3051 505.633 89.4382C504.994 91.5712 504.674 93.771 504.674 96.0374V97.3572Z" fill="#3B3751"/>
<path d="M545.215 96.2773C545.215 93.3977 545.561 90.638 546.253 87.9983C546.946 85.332 547.997 82.9856 549.408 80.9592C550.846 78.9061 552.63 77.2796 554.76 76.0798C556.916 74.8532 559.459 74.24 562.388 74.24C565.157 74.24 567.633 74.8399 569.816 76.0398C572.026 77.213 573.863 78.8794 575.327 81.0392L575.527 75.0399H580V117.555C579.973 120.194 579.561 122.621 578.762 124.834C577.963 127.047 576.805 128.94 575.287 130.513C573.796 132.113 571.986 133.353 569.856 134.233C567.726 135.113 565.33 135.553 562.667 135.553C561.389 135.553 560.058 135.406 558.674 135.113C557.289 134.819 555.931 134.366 554.6 133.753C553.269 133.14 551.991 132.366 550.766 131.433C549.568 130.527 548.516 129.433 547.611 128.153L550.287 125.274C553.721 129.433 557.742 131.513 562.348 131.513C564.398 131.513 566.222 131.18 567.819 130.513C569.417 129.847 570.748 128.9 571.813 127.674C572.905 126.474 573.73 125.021 574.289 123.314C574.875 121.634 575.181 119.781 575.208 117.755V112.835C573.69 114.862 571.826 116.422 569.616 117.515C567.433 118.581 564.997 119.115 562.308 119.115C559.432 119.115 556.916 118.501 554.76 117.275C552.63 116.022 550.859 114.382 549.448 112.355C548.037 110.302 546.972 107.956 546.253 105.316C545.561 102.65 545.215 99.9169 545.215 97.1172V96.2773ZM550.007 97.1172C550.007 99.277 550.234 101.423 550.686 103.556C551.166 105.69 551.924 107.609 552.963 109.316C554.001 110.996 555.359 112.355 557.036 113.395C558.714 114.435 560.764 114.955 563.187 114.955C564.544 114.955 565.836 114.782 567.06 114.435C568.285 114.062 569.403 113.542 570.415 112.875C571.453 112.209 572.372 111.409 573.171 110.476C573.996 109.516 574.675 108.449 575.208 107.276V86.6785C574.675 85.4786 574.023 84.3721 573.251 83.3589C572.479 82.3457 571.587 81.4791 570.575 80.7592C569.563 80.0126 568.445 79.4394 567.22 79.0394C565.995 78.6128 564.678 78.3995 563.266 78.3995C560.817 78.3995 558.754 78.9328 557.076 79.9993C555.399 81.0392 554.028 82.4123 552.963 84.1188C551.924 85.7986 551.166 87.705 550.686 89.8381C550.234 91.9712 550.007 94.1176 550.007 96.2773V97.1172Z" fill="#3B3751"/>
<ellipse cx="292.117" cy="90" rx="89.869" ry="90" fill="#F47623"/>
<path d="M298.582 140.834C296.12 157.568 334.652 158.079 337.914 132.775C353.766 137.251 364.712 121.828 357.046 108.197C366.239 101.874 366.068 83.4283 356.49 77.8995C363.808 70.0373 354.926 48.0208 337.224 51.9488C342.062 34.2666 316.461 19.866 298.478 33.9526L298.582 140.834Z" stroke="white" stroke-width="4" stroke-miterlimit="10" stroke-linecap="round" stroke-linejoin="round"/>
<path d="M337.768 48.0209C336.448 55.8646 329.601 61.9413 321.782 63.3512" stroke="white" stroke-width="4" stroke-miterlimit="10" stroke-linecap="round" stroke-linejoin="round"/>
<path d="M321.782 42.1288C323.59 53.8512 304.073 58.7705 298.771 51.1669" stroke="white" stroke-width="4" stroke-miterlimit="10" stroke-linecap="round" stroke-linejoin="round"/>
<path d="M331.531 59.423C331.561 63.5357 337.022 68.8059 340.107 70.0311" stroke="white" stroke-width="4" stroke-miterlimit="10" stroke-linecap="round" stroke-linejoin="round"/>
<path d="M343.62 83.3973C338.812 85.8477 338.702 92.8972 333.498 94.461C328.043 96.0987 325.074 90.022 322.881 85.8107C319.54 79.3769 314.58 76.7726 307.36 77.9178C305.002 78.2934 300.915 79.9557 299.553 80.6514" stroke="white" stroke-width="4" stroke-miterlimit="10" stroke-linecap="round" stroke-linejoin="round"/>
<path d="M349.081 83.0033C345.342 87.6763 339.35 80.7746 343.229 76.7173" stroke="white" stroke-width="4" stroke-miterlimit="10" stroke-linecap="round" stroke-linejoin="round"/>
<path d="M298.386 107.378C303.505 102.231 311.483 108.037 313.199 113.609C315.227 120.172 309.064 125.516 311.233 131.907C312.546 135.785 315.57 137.497 319.442 136.851" stroke="white" stroke-width="4" stroke-miterlimit="10" stroke-linecap="round" stroke-linejoin="round"/>
<path d="M337.768 136.062C343.778 120.209 313.981 124.672 326.852 100.692" stroke="white" stroke-width="4" stroke-miterlimit="10" stroke-linecap="round" stroke-linejoin="round"/>
<path d="M357.266 108.948C355.128 105.426 350.033 105.168 346.32 105.396C342.96 105.605 339.185 108.154 337.768 108.554" stroke="white" stroke-width="4" stroke-miterlimit="10" stroke-linecap="round" stroke-linejoin="round"/>
<path d="M220.985 100.698L220.423 83.4037L230.826 83.0589C231.455 79.4695 232.439 76.0033 233.746 72.6971L224.205 67.4269L232.463 52.2567L242.609 57.8655C244.796 55.2796 247.221 52.9031 249.854 50.7729L243.794 40.448L258.571 31.6315L264.82 42.2766C267.849 41.1684 271.02 40.331 274.282 39.7892V27.3033H282.766V152.692H274.282V144.947C271.05 144.417 267.917 143.592 264.911 142.496L261.252 149.423L246.097 141.308L249.927 134.037C247.099 131.753 244.497 129.198 242.182 126.39L235.023 130.989L225.793 116.392L233.502 111.442C232.158 107.926 231.168 104.22 230.594 100.384L220.985 100.698Z" stroke="white" stroke-width="4" stroke-miterlimit="10" stroke-linecap="round" stroke-linejoin="round"/>
<path d="M282.773 52.1706V64.1024C268.626 64.1578 257.173 75.7263 257.173 89.9977C257.173 104.269 268.62 115.844 282.773 115.893V127.819C262.096 127.763 245.341 110.851 245.341 89.9977C245.341 69.1386 262.096 52.226 282.773 52.1706Z" stroke="white" stroke-width="4" stroke-miterlimit="10" stroke-linecap="round" stroke-linejoin="round"/>
</svg>
