<svg width="580" height="216" viewBox="0 0 580 216" fill="none" xmlns="http://www.w3.org/2000/svg">
<path d="M41.7341 70.2812H23.2034V124.315H18.5307L18.5707 70.2812H0V66.0817H41.7341V70.2812Z" fill="#3B3751"/>
<path d="M66.6196 125.115C63.611 125.115 60.8687 124.555 58.3926 123.435C55.9165 122.315 53.7865 120.795 52.0027 118.875C50.2455 116.956 48.8743 114.716 47.8892 112.156C46.9307 109.57 46.4382 106.823 46.4115 103.917V102.197C46.4382 99.1044 46.944 96.2247 47.9291 93.5584C48.9409 90.892 50.312 88.5723 52.0426 86.5992C53.7732 84.6261 55.81 83.0796 58.153 81.9598C60.496 80.8132 63.012 80.24 65.7011 80.24C68.5765 80.24 71.1192 80.7599 73.329 81.7998C75.5389 82.8397 77.3893 84.2662 78.8803 86.0793C80.3979 87.8657 81.5427 89.9588 82.3148 92.3585C83.1136 94.7582 83.5263 97.3313 83.5529 100.078V102.997H51.204V103.917C51.2306 106.184 51.6166 108.357 52.3621 110.436C53.1076 112.489 54.1593 114.303 55.5172 115.876C56.875 117.449 58.5124 118.715 60.4294 119.675C62.3464 120.608 64.4763 121.075 66.8193 121.075C69.4818 121.102 71.8913 120.608 74.0479 119.595C76.2045 118.582 78.0416 117.116 79.5592 115.196L82.5944 117.475C81.7957 118.595 80.8505 119.635 79.7589 120.595C78.6673 121.528 77.4425 122.328 76.0847 122.995C74.7534 123.661 73.2891 124.181 71.6916 124.555C70.0941 124.928 68.4035 125.115 66.6196 125.115ZM65.7011 84.3195C63.7575 84.3195 61.9736 84.6928 60.3495 85.4394C58.7254 86.1593 57.301 87.1725 56.0763 88.479C54.8515 89.7855 53.8398 91.332 53.0411 93.1184C52.2423 94.8782 51.6965 96.8113 51.4036 98.9177H78.7605V98.3978C78.7072 96.6113 78.3744 94.8782 77.762 93.1984C77.1763 91.492 76.3243 89.9855 75.2061 88.679C74.1145 87.3725 72.7699 86.3193 71.1724 85.5193C69.575 84.7194 67.7512 84.3195 65.7011 84.3195Z" fill="#3B3751"/>
<path d="M109.916 121.075C111.514 121.075 113.031 120.848 114.469 120.395C115.933 119.915 117.225 119.235 118.343 118.355C119.461 117.475 120.366 116.422 121.058 115.196C121.777 113.943 122.19 112.529 122.297 110.956H126.889C126.783 113.009 126.25 114.902 125.292 116.636C124.333 118.369 123.082 119.862 121.538 121.115C119.993 122.368 118.223 123.355 116.226 124.075C114.229 124.768 112.126 125.115 109.916 125.115C106.748 125.115 103.992 124.515 101.649 123.315C99.3062 122.115 97.3492 120.515 95.7784 118.515C94.2342 116.516 93.0627 114.223 92.2639 111.636C91.4918 109.023 91.1058 106.317 91.1058 103.517V101.837C91.1058 99.0377 91.4918 96.3447 92.2639 93.7584C93.0627 91.1453 94.2342 88.8389 95.7784 86.8392C97.3492 84.8394 99.3062 83.2396 101.649 82.0398C103.992 80.8399 106.734 80.24 109.876 80.24C112.272 80.24 114.482 80.6266 116.506 81.3998C118.556 82.1464 120.326 83.213 121.817 84.5995C123.335 85.9593 124.533 87.5858 125.412 89.4789C126.29 91.3453 126.783 93.3984 126.889 95.6381H122.297C122.217 94.0117 121.844 92.5052 121.178 91.1187C120.513 89.7322 119.634 88.5323 118.542 87.5191C117.451 86.5059 116.16 85.7193 114.669 85.1594C113.204 84.5995 111.607 84.3195 109.876 84.3195C107.373 84.3195 105.23 84.8261 103.446 85.8393C101.689 86.8525 100.251 88.1857 99.1331 89.8388C98.0149 91.492 97.1895 93.3717 96.657 95.4781C96.1511 97.5579 95.8982 99.6776 95.8982 101.837V103.517C95.8982 105.704 96.1511 107.85 96.657 109.956C97.1895 112.063 98.0149 113.943 99.1331 115.596C100.251 117.222 101.689 118.542 103.446 119.555C105.23 120.568 107.387 121.075 109.916 121.075Z" fill="#3B3751"/>
<path d="M141.391 89.3989C142.909 86.6259 144.932 84.4128 147.462 82.7597C149.991 81.1065 152.88 80.2666 156.128 80.24C158.497 80.24 160.588 80.6133 162.398 81.3598C164.235 82.0798 165.766 83.1463 166.991 84.5595C168.242 85.946 169.187 87.6658 169.826 89.7188C170.492 91.7453 170.825 94.065 170.825 96.678V124.315H166.032V96.678C166.032 94.7582 165.806 93.0384 165.353 91.5186C164.901 89.9988 164.208 88.719 163.277 87.6791C162.371 86.6125 161.227 85.7993 159.842 85.2394C158.458 84.6794 156.833 84.3995 154.97 84.3995C153.452 84.3995 152.001 84.6395 150.617 85.1194C149.232 85.5993 147.954 86.2659 146.783 87.1192C145.611 87.9724 144.56 88.9856 143.628 90.1588C142.722 91.3053 141.977 92.5718 141.391 93.9583V124.315H136.599V62.8821H141.391V89.3989Z" fill="#3B3751"/>
<path d="M413.968 124.315V66.0817H429.863C432.206 66.1084 434.482 66.4283 436.692 67.0416C438.928 67.6282 440.912 68.5481 442.642 69.8012C444.373 71.0278 445.758 72.6009 446.796 74.5207C447.861 76.4138 448.38 78.6802 448.353 81.3199C448.353 82.973 448.1 84.4661 447.595 85.7993C447.089 87.1058 446.397 88.279 445.518 89.3189C444.666 90.3321 443.654 91.2253 442.483 91.9986C441.311 92.7451 440.047 93.3717 438.689 93.8783C440.366 94.2783 441.91 94.8915 443.321 95.7181C444.759 96.5447 445.997 97.5712 447.036 98.7977C448.074 99.9976 448.886 101.371 449.472 102.917C450.084 104.464 450.39 106.13 450.39 107.917C450.417 110.503 449.938 112.809 448.952 114.836C447.967 116.836 446.636 118.542 444.959 119.955C443.281 121.342 441.338 122.408 439.128 123.155C436.945 123.901 434.655 124.288 432.259 124.315H413.968ZM418.76 96.318V120.155H432.379C434.136 120.129 435.813 119.835 437.411 119.275C439.008 118.689 440.406 117.875 441.604 116.836C442.829 115.796 443.787 114.543 444.48 113.076C445.198 111.583 445.558 109.89 445.558 107.997C445.558 106.157 445.212 104.53 444.519 103.117C443.854 101.677 442.922 100.464 441.724 99.4777C440.552 98.4911 439.181 97.7312 437.61 97.1979C436.066 96.6647 434.442 96.3714 432.738 96.318H418.76ZM418.76 92.1985H430.462C432.139 92.1719 433.763 91.9319 435.334 91.4786C436.905 91.0253 438.289 90.3454 439.487 89.4389C440.712 88.5323 441.697 87.3991 442.443 86.0393C443.188 84.6794 443.561 83.0663 443.561 81.1999C443.561 79.2534 443.175 77.6003 442.403 76.2405C441.631 74.854 440.606 73.7341 439.328 72.8809C438.05 72.001 436.599 71.3611 434.975 70.9611C433.35 70.5345 431.686 70.3079 429.982 70.2812H418.76V92.1985Z" fill="#3B3751"/>
<path d="M459.261 62.8821H479.389V120.075H494.006V124.315H459.261V120.075H474.597V67.1616H459.261V62.8821Z" fill="#3B3751"/>
<path d="M499.882 102.037C499.908 99.1044 500.361 96.318 501.24 93.6784C502.118 91.0387 503.369 88.7323 504.994 86.7592C506.644 84.7594 508.654 83.173 511.024 81.9998C513.42 80.8266 516.123 80.24 519.131 80.24C522.166 80.24 524.869 80.8266 527.238 81.9998C529.635 83.173 531.658 84.7594 533.309 86.7592C534.96 88.7323 536.224 91.0387 537.103 93.6784C537.982 96.318 538.434 99.1044 538.461 102.037V103.357C538.434 106.29 537.982 109.077 537.103 111.716C536.251 114.356 535 116.676 533.349 118.675C531.698 120.648 529.688 122.222 527.318 123.395C524.949 124.541 522.246 125.115 519.211 125.115C516.176 125.115 513.46 124.541 511.064 123.395C508.694 122.222 506.684 120.648 505.034 118.675C503.383 116.676 502.118 114.356 501.24 111.716C500.361 109.077 499.908 106.29 499.882 103.357V102.037ZM504.674 103.357C504.674 105.65 504.994 107.863 505.633 109.996C506.272 112.129 507.203 114.023 508.428 115.676C509.653 117.302 511.157 118.609 512.941 119.595C514.752 120.582 516.842 121.075 519.211 121.075C521.554 121.075 523.618 120.582 525.401 119.595C527.212 118.609 528.716 117.302 529.914 115.676C531.139 114.023 532.071 112.129 532.71 109.996C533.349 107.863 533.668 105.65 533.668 103.357V102.037C533.668 99.771 533.349 97.5712 532.71 95.4382C532.071 93.3051 531.139 91.4253 529.914 89.7988C528.69 88.1457 527.172 86.8259 525.361 85.8393C523.551 84.8261 521.474 84.3195 519.131 84.3195C516.788 84.3195 514.712 84.8261 512.901 85.8393C511.117 86.8259 509.613 88.1457 508.388 89.7988C507.19 91.4253 506.272 93.3051 505.633 95.4382C504.994 97.5712 504.674 99.771 504.674 102.037V103.357Z" fill="#3B3751"/>
<path d="M545.215 102.277C545.215 99.3977 545.561 96.638 546.253 93.9983C546.946 91.332 547.997 88.9856 549.408 86.9592C550.846 84.9061 552.63 83.2796 554.76 82.0798C556.916 80.8532 559.459 80.24 562.388 80.24C565.157 80.24 567.633 80.8399 569.816 82.0398C572.026 83.213 573.863 84.8794 575.327 87.0392L575.527 81.0399H580V123.555C579.973 126.194 579.561 128.621 578.762 130.834C577.963 133.047 576.805 134.94 575.287 136.513C573.796 138.113 571.986 139.353 569.856 140.233C567.726 141.113 565.33 141.553 562.667 141.553C561.389 141.553 560.058 141.406 558.674 141.113C557.289 140.819 555.931 140.366 554.6 139.753C553.269 139.14 551.991 138.366 550.766 137.433C549.568 136.527 548.516 135.433 547.611 134.153L550.287 131.274C553.721 135.433 557.742 137.513 562.348 137.513C564.398 137.513 566.222 137.18 567.819 136.513C569.417 135.847 570.748 134.9 571.813 133.674C572.905 132.474 573.73 131.021 574.289 129.314C574.875 127.634 575.181 125.781 575.208 123.755V118.835C573.69 120.862 571.826 122.422 569.616 123.515C567.433 124.581 564.997 125.115 562.308 125.115C559.432 125.115 556.916 124.501 554.76 123.275C552.63 122.022 550.859 120.382 549.448 118.355C548.037 116.302 546.972 113.956 546.253 111.316C545.561 108.65 545.215 105.917 545.215 103.117V102.277ZM550.007 103.117C550.007 105.277 550.234 107.423 550.686 109.556C551.166 111.69 551.924 113.609 552.963 115.316C554.001 116.996 555.359 118.355 557.036 119.395C558.714 120.435 560.764 120.955 563.187 120.955C564.544 120.955 565.836 120.782 567.06 120.435C568.285 120.062 569.403 119.542 570.415 118.875C571.453 118.209 572.372 117.409 573.171 116.476C573.996 115.516 574.675 114.449 575.208 113.276V92.6785C574.675 91.4786 574.023 90.3721 573.251 89.3589C572.479 88.3457 571.587 87.4791 570.575 86.7592C569.563 86.0126 568.445 85.4394 567.22 85.0394C565.995 84.6128 564.678 84.3995 563.266 84.3995C560.817 84.3995 558.754 84.9328 557.076 85.9993C555.399 87.0392 554.028 88.4123 552.963 90.1188C551.924 91.7986 551.166 93.705 550.686 95.8381C550.234 97.9712 550.007 100.118 550.007 102.277V103.117Z" fill="#3B3751"/>
<g filter="url(#filter0_d)">
<ellipse cx="292.117" cy="96" rx="89.869" ry="90" fill="#F47623"/>
</g>
<path d="M298.582 146.834C296.12 163.568 334.652 164.079 337.914 138.775C353.766 143.251 364.712 127.828 357.046 114.197C366.239 107.874 366.068 89.4283 356.49 83.8995C363.808 76.0373 354.926 54.0208 337.224 57.9488C342.062 40.2666 316.461 25.866 298.478 39.9526L298.582 146.834Z" stroke="white" stroke-width="4" stroke-miterlimit="10" stroke-linecap="round" stroke-linejoin="round"/>
<path d="M337.768 54.0209C336.448 61.8646 329.601 67.9413 321.782 69.3512" stroke="white" stroke-width="4" stroke-miterlimit="10" stroke-linecap="round" stroke-linejoin="round"/>
<path d="M321.782 48.1288C323.59 59.8512 304.073 64.7705 298.771 57.1669" stroke="white" stroke-width="4" stroke-miterlimit="10" stroke-linecap="round" stroke-linejoin="round"/>
<path d="M331.531 65.423C331.561 69.5357 337.022 74.8059 340.107 76.0311" stroke="white" stroke-width="4" stroke-miterlimit="10" stroke-linecap="round" stroke-linejoin="round"/>
<path d="M343.62 89.3973C338.812 91.8477 338.702 98.8972 333.498 100.461C328.043 102.099 325.074 96.022 322.881 91.8107C319.54 85.3769 314.58 82.7726 307.36 83.9178C305.002 84.2934 300.915 85.9557 299.553 86.6514" stroke="white" stroke-width="4" stroke-miterlimit="10" stroke-linecap="round" stroke-linejoin="round"/>
<path d="M349.081 89.0033C345.342 93.6763 339.35 86.7746 343.229 82.7173" stroke="white" stroke-width="4" stroke-miterlimit="10" stroke-linecap="round" stroke-linejoin="round"/>
<path d="M298.386 113.378C303.505 108.231 311.483 114.037 313.199 119.609C315.227 126.172 309.064 131.516 311.233 137.907C312.546 141.785 315.57 143.497 319.442 142.851" stroke="white" stroke-width="4" stroke-miterlimit="10" stroke-linecap="round" stroke-linejoin="round"/>
<path d="M337.768 142.062C343.778 126.209 313.981 130.672 326.852 106.692" stroke="white" stroke-width="4" stroke-miterlimit="10" stroke-linecap="round" stroke-linejoin="round"/>
<path d="M357.266 114.948C355.128 111.426 350.033 111.168 346.32 111.396C342.96 111.605 339.185 114.154 337.768 114.554" stroke="white" stroke-width="4" stroke-miterlimit="10" stroke-linecap="round" stroke-linejoin="round"/>
<path d="M220.985 106.698L220.423 89.4037L230.826 89.0589C231.455 85.4695 232.439 82.0033 233.746 78.6971L224.205 73.4269L232.463 58.2567L242.609 63.8655C244.796 61.2796 247.221 58.9031 249.854 56.7729L243.794 46.448L258.571 37.6315L264.82 48.2766C267.849 47.1684 271.02 46.331 274.282 45.7892V33.3033H282.766V158.692H274.282V150.947C271.05 150.417 267.917 149.592 264.911 148.496L261.252 155.423L246.097 147.308L249.927 140.037C247.099 137.753 244.497 135.198 242.182 132.39L235.023 136.989L225.793 122.392L233.502 117.442C232.158 113.926 231.168 110.22 230.594 106.384L220.985 106.698Z" stroke="white" stroke-width="4" stroke-miterlimit="10" stroke-linecap="round" stroke-linejoin="round"/>
<path d="M282.773 58.1706V70.1024C268.626 70.1578 257.173 81.7263 257.173 95.9977C257.173 110.269 268.62 121.844 282.773 121.893V133.819C262.096 133.763 245.341 116.851 245.341 95.9977C245.341 75.1386 262.096 58.226 282.773 58.1706Z" stroke="white" stroke-width="4" stroke-miterlimit="10" stroke-linecap="round" stroke-linejoin="round"/>
<defs>
<filter id="filter0_d" x="184.248" y="0" width="215.738" height="216" filterUnits="userSpaceOnUse" color-interpolation-filters="sRGB">
<feFlood flood-opacity="0" result="BackgroundImageFix"/>
<feColorMatrix in="SourceAlpha" type="matrix" values="0 0 0 0 0 0 0 0 0 0 0 0 0 0 0 0 0 0 127 0"/>
<feOffset dy="12"/>
<feGaussianBlur stdDeviation="9"/>
<feColorMatrix type="matrix" values="0 0 0 0 0.231373 0 0 0 0 0.215686 0 0 0 0 0.317647 0 0 0 0.1 0"/>
<feBlend mode="normal" in2="BackgroundImageFix" result="effect1_dropShadow"/>
<feBlend mode="normal" in="SourceGraphic" in2="effect1_dropShadow" result="shape"/>
</filter>
</defs>
</svg>
