<svg width="557" height="140" viewBox="0 0 557 140" fill="none" xmlns="http://www.w3.org/2000/svg">
<path d="M184.668 44.0039H170.875V56.7656H186.773V59H168.318V27.7188H186.688V29.9746H170.875V41.7695H184.668V44.0039Z" fill="#3B3751"/>
<path d="M196.936 35.7539L197.129 40.1152C197.945 38.6686 199.034 37.5156 200.395 36.6562C201.755 35.7826 203.302 35.3385 205.035 35.3242C207.585 35.3242 209.533 36.0905 210.879 37.623C212.225 39.1413 212.906 41.304 212.92 44.1113V59H210.342V44.1543C210.327 42.0202 209.84 40.3874 208.881 39.2559C207.921 38.11 206.432 37.5443 204.412 37.5586C203.581 37.5586 202.786 37.6947 202.027 37.9668C201.283 38.2389 200.595 38.6113 199.965 39.084C199.349 39.5566 198.798 40.1152 198.311 40.7598C197.838 41.4043 197.451 42.1061 197.15 42.8652V59H194.572V35.7539H196.936Z" fill="#3B3751"/>
<path d="M220.268 47.1621C220.268 45.6152 220.454 44.1328 220.826 42.7148C221.199 41.2826 221.764 40.0221 222.523 38.9336C223.297 37.8307 224.257 36.957 225.402 36.3125C226.562 35.6536 227.93 35.3242 229.506 35.3242C230.995 35.3242 232.327 35.6465 233.502 36.291C234.691 36.9212 235.679 37.8164 236.467 38.9766L236.574 35.7539H238.98V58.5918C238.966 60.0098 238.744 61.3132 238.314 62.502C237.885 63.6908 237.262 64.7077 236.445 65.5527C235.643 66.4121 234.669 67.0781 233.523 67.5508C232.378 68.0234 231.089 68.2598 229.656 68.2598C228.969 68.2598 228.253 68.181 227.508 68.0234C226.763 67.8659 226.033 67.6224 225.316 67.293C224.6 66.9635 223.913 66.5482 223.254 66.0469C222.609 65.5599 222.044 64.9727 221.557 64.2852L222.996 62.7383C224.844 64.9727 227.007 66.0898 229.484 66.0898C230.587 66.0898 231.568 65.9108 232.428 65.5527C233.287 65.1947 234.003 64.6862 234.576 64.0273C235.163 63.3828 235.607 62.6022 235.908 61.6855C236.223 60.7832 236.388 59.7878 236.402 58.6992V56.0566C235.586 57.1452 234.583 57.9831 233.395 58.5703C232.22 59.1432 230.91 59.4297 229.463 59.4297C227.916 59.4297 226.562 59.1003 225.402 58.4414C224.257 57.7682 223.304 56.8874 222.545 55.7988C221.786 54.696 221.213 53.4355 220.826 52.0176C220.454 50.5853 220.268 49.1172 220.268 47.6133V47.1621ZM222.846 47.6133C222.846 48.7734 222.967 49.9264 223.211 51.0723C223.469 52.2181 223.877 53.2493 224.436 54.166C224.994 55.0684 225.725 55.7988 226.627 56.3574C227.529 56.916 228.632 57.1953 229.936 57.1953C230.666 57.1953 231.361 57.1022 232.02 56.916C232.678 56.7155 233.28 56.4362 233.824 56.0781C234.383 55.7201 234.877 55.2904 235.307 54.7891C235.751 54.2734 236.116 53.7005 236.402 53.0703V42.0059C236.116 41.3613 235.765 40.7669 235.35 40.2227C234.934 39.6784 234.454 39.2129 233.91 38.8262C233.366 38.4251 232.764 38.1172 232.105 37.9023C231.447 37.6732 230.738 37.5586 229.979 37.5586C228.661 37.5586 227.551 37.8451 226.648 38.418C225.746 38.9766 225.008 39.7142 224.436 40.6309C223.877 41.5332 223.469 42.5573 223.211 43.7031C222.967 44.849 222.846 46.002 222.846 47.1621V47.6133Z" fill="#3B3751"/>
<path d="M248.025 35.7539H258.811V56.7227H266.717V59H248.025V56.7227H256.232V38.0527H248.025V35.7539ZM255.48 29.3945C255.48 28.8646 255.631 28.4062 255.932 28.0195C256.232 27.6328 256.734 27.4395 257.436 27.4395C258.123 27.4395 258.617 27.6328 258.918 28.0195C259.233 28.4062 259.391 28.8646 259.391 29.3945C259.391 29.8958 259.233 30.3398 258.918 30.7266C258.617 31.099 258.123 31.2852 257.436 31.2852C256.734 31.2852 256.232 31.099 255.932 30.7266C255.631 30.3398 255.48 29.8958 255.48 29.3945Z" fill="#3B3751"/>
<path d="M276.213 35.7539L276.406 40.1152C277.223 38.6686 278.311 37.5156 279.672 36.6562C281.033 35.7826 282.579 35.3385 284.312 35.3242C286.862 35.3242 288.81 36.0905 290.156 37.623C291.503 39.1413 292.183 41.304 292.197 44.1113V59H289.619V44.1543C289.605 42.0202 289.118 40.3874 288.158 39.2559C287.199 38.11 285.709 37.5443 283.689 37.5586C282.859 37.5586 282.064 37.6947 281.305 37.9668C280.56 38.2389 279.872 38.6113 279.242 39.084C278.626 39.5566 278.075 40.1152 277.588 40.7598C277.115 41.4043 276.729 42.1061 276.428 42.8652V59H273.85V35.7539H276.213Z" fill="#3B3751"/>
<path d="M310.201 59.4297C308.583 59.4297 307.107 59.1289 305.775 58.5273C304.443 57.9258 303.298 57.1094 302.338 56.0781C301.393 55.0469 300.655 53.8438 300.125 52.4688C299.609 51.0794 299.344 49.6042 299.33 48.043V47.1191C299.344 45.4577 299.617 43.9108 300.146 42.4785C300.691 41.0462 301.428 39.8001 302.359 38.7402C303.29 37.6803 304.386 36.8496 305.646 36.248C306.907 35.6322 308.26 35.3242 309.707 35.3242C311.254 35.3242 312.622 35.6035 313.811 36.1621C314.999 36.7207 315.995 37.487 316.797 38.4609C317.613 39.4206 318.229 40.5449 318.645 41.834C319.074 43.123 319.296 44.5052 319.311 45.9805V47.5488H301.908V48.043C301.923 49.2604 302.13 50.4277 302.531 51.5449C302.932 52.6478 303.498 53.6217 304.229 54.4668C304.959 55.3118 305.84 55.9922 306.871 56.5078C307.902 57.0091 309.048 57.2598 310.309 57.2598C311.741 57.2741 313.037 57.0091 314.197 56.4648C315.357 55.9206 316.346 55.1328 317.162 54.1016L318.795 55.3262C318.365 55.9277 317.857 56.4863 317.27 57.002C316.682 57.5033 316.023 57.9329 315.293 58.291C314.577 58.6491 313.789 58.9284 312.93 59.1289C312.07 59.3294 311.161 59.4297 310.201 59.4297ZM309.707 37.5156C308.661 37.5156 307.702 37.7161 306.828 38.1172C305.954 38.5039 305.188 39.0482 304.529 39.75C303.87 40.4518 303.326 41.2826 302.896 42.2422C302.467 43.1875 302.173 44.2259 302.016 45.3574H316.732V45.0781C316.704 44.1185 316.525 43.1875 316.195 42.2852C315.88 41.3685 315.422 40.5592 314.82 39.8574C314.233 39.1556 313.51 38.5898 312.65 38.1602C311.791 37.7305 310.81 37.5156 309.707 37.5156Z" fill="#3B3751"/>
<path d="M336.627 59.4297C335.008 59.4297 333.533 59.1289 332.201 58.5273C330.869 57.9258 329.723 57.1094 328.764 56.0781C327.818 55.0469 327.081 53.8438 326.551 52.4688C326.035 51.0794 325.77 49.6042 325.756 48.043V47.1191C325.77 45.4577 326.042 43.9108 326.572 42.4785C327.117 41.0462 327.854 39.8001 328.785 38.7402C329.716 37.6803 330.812 36.8496 332.072 36.248C333.333 35.6322 334.686 35.3242 336.133 35.3242C337.68 35.3242 339.048 35.6035 340.236 36.1621C341.425 36.7207 342.421 37.487 343.223 38.4609C344.039 39.4206 344.655 40.5449 345.07 41.834C345.5 43.123 345.722 44.5052 345.736 45.9805V47.5488H328.334V48.043C328.348 49.2604 328.556 50.4277 328.957 51.5449C329.358 52.6478 329.924 53.6217 330.654 54.4668C331.385 55.3118 332.266 55.9922 333.297 56.5078C334.328 57.0091 335.474 57.2598 336.734 57.2598C338.167 57.2741 339.463 57.0091 340.623 56.4648C341.783 55.9206 342.771 55.1328 343.588 54.1016L345.221 55.3262C344.791 55.9277 344.283 56.4863 343.695 57.002C343.108 57.5033 342.449 57.9329 341.719 58.291C341.003 58.6491 340.215 58.9284 339.355 59.1289C338.496 59.3294 337.587 59.4297 336.627 59.4297ZM336.133 37.5156C335.087 37.5156 334.128 37.7161 333.254 38.1172C332.38 38.5039 331.614 39.0482 330.955 39.75C330.296 40.4518 329.752 41.2826 329.322 42.2422C328.893 43.1875 328.599 44.2259 328.441 45.3574H343.158V45.0781C343.13 44.1185 342.951 43.1875 342.621 42.2852C342.306 41.3685 341.848 40.5592 341.246 39.8574C340.659 39.1556 339.936 38.5898 339.076 38.1602C338.217 37.7305 337.236 37.5156 336.133 37.5156Z" fill="#3B3751"/>
<path d="M368.51 35.3242C369.154 35.3242 369.799 35.3672 370.443 35.4531C371.088 35.5247 371.625 35.6322 372.055 35.7754L371.732 38.2461C371.131 38.1172 370.529 38.0169 369.928 37.9453C369.326 37.8737 368.71 37.8379 368.08 37.8379C365.903 37.8379 364.055 38.3535 362.537 39.3848C361.019 40.416 359.952 41.9987 359.336 44.1328L359.357 59H356.693V35.7539H359.164L359.336 39.793V40.2656C360.281 38.7331 361.535 37.5299 363.096 36.6562C364.657 35.7682 366.462 35.3242 368.51 35.3242Z" fill="#3B3751"/>
<path d="M380.154 35.7539H390.939V56.7227H398.846V59H380.154V56.7227H388.361V38.0527H380.154V35.7539ZM387.609 29.3945C387.609 28.8646 387.76 28.4062 388.061 28.0195C388.361 27.6328 388.863 27.4395 389.564 27.4395C390.252 27.4395 390.746 27.6328 391.047 28.0195C391.362 28.4062 391.52 28.8646 391.52 29.3945C391.52 29.8958 391.362 30.3398 391.047 30.7266C390.746 31.099 390.252 31.2852 389.564 31.2852C388.863 31.2852 388.361 31.099 388.061 30.7266C387.76 30.3398 387.609 29.8958 387.609 29.3945Z" fill="#3B3751"/>
<path d="M408.342 35.7539L408.535 40.1152C409.352 38.6686 410.44 37.5156 411.801 36.6562C413.161 35.7826 414.708 35.3385 416.441 35.3242C418.991 35.3242 420.939 36.0905 422.285 37.623C423.632 39.1413 424.312 41.304 424.326 44.1113V59H421.748V44.1543C421.734 42.0202 421.247 40.3874 420.287 39.2559C419.327 38.11 417.838 37.5443 415.818 37.5586C414.988 37.5586 414.193 37.6947 413.434 37.9668C412.689 38.2389 412.001 38.6113 411.371 39.084C410.755 39.5566 410.204 40.1152 409.717 40.7598C409.244 41.4043 408.857 42.1061 408.557 42.8652V59H405.979V35.7539H408.342Z" fill="#3B3751"/>
<path d="M431.674 47.1621C431.674 45.6152 431.86 44.1328 432.232 42.7148C432.605 41.2826 433.171 40.0221 433.93 38.9336C434.703 37.8307 435.663 36.957 436.809 36.3125C437.969 35.6536 439.337 35.3242 440.912 35.3242C442.402 35.3242 443.734 35.6465 444.908 36.291C446.097 36.9212 447.085 37.8164 447.873 38.9766L447.98 35.7539H450.387V58.5918C450.372 60.0098 450.15 61.3132 449.721 62.502C449.291 63.6908 448.668 64.7077 447.852 65.5527C447.049 66.4121 446.076 67.0781 444.93 67.5508C443.784 68.0234 442.495 68.2598 441.062 68.2598C440.375 68.2598 439.659 68.181 438.914 68.0234C438.169 67.8659 437.439 67.6224 436.723 67.293C436.007 66.9635 435.319 66.5482 434.66 66.0469C434.016 65.5599 433.45 64.9727 432.963 64.2852L434.402 62.7383C436.25 64.9727 438.413 66.0898 440.891 66.0898C441.993 66.0898 442.975 65.9108 443.834 65.5527C444.693 65.1947 445.41 64.6862 445.982 64.0273C446.57 63.3828 447.014 62.6022 447.314 61.6855C447.63 60.7832 447.794 59.7878 447.809 58.6992V56.0566C446.992 57.1452 445.99 57.9831 444.801 58.5703C443.626 59.1432 442.316 59.4297 440.869 59.4297C439.322 59.4297 437.969 59.1003 436.809 58.4414C435.663 57.7682 434.71 56.8874 433.951 55.7988C433.192 54.696 432.619 53.4355 432.232 52.0176C431.86 50.5853 431.674 49.1172 431.674 47.6133V47.1621ZM434.252 47.6133C434.252 48.7734 434.374 49.9264 434.617 51.0723C434.875 52.2181 435.283 53.2493 435.842 54.166C436.4 55.0684 437.131 55.7988 438.033 56.3574C438.936 56.916 440.038 57.1953 441.342 57.1953C442.072 57.1953 442.767 57.1022 443.426 56.916C444.085 56.7155 444.686 56.4362 445.23 56.0781C445.789 55.7201 446.283 55.2904 446.713 54.7891C447.157 54.2734 447.522 53.7005 447.809 53.0703V42.0059C447.522 41.3613 447.171 40.7669 446.756 40.2227C446.34 39.6784 445.861 39.2129 445.316 38.8262C444.772 38.4251 444.171 38.1172 443.512 37.9023C442.853 37.6732 442.144 37.5586 441.385 37.5586C440.067 37.5586 438.957 37.8451 438.055 38.418C437.152 38.9766 436.415 39.7142 435.842 40.6309C435.283 41.5332 434.875 42.5573 434.617 43.7031C434.374 44.849 434.252 46.002 434.252 47.1621V47.6133Z" fill="#3B3751"/>
<path d="M501.24 59C501.083 58.5273 500.961 58.0046 500.875 57.4316C500.789 56.8444 500.732 56.25 500.703 55.6484C500.259 56.1927 499.743 56.694 499.156 57.1523C498.569 57.6107 497.924 58.0117 497.223 58.3555C496.535 58.6849 495.79 58.9427 494.988 59.1289C494.186 59.3294 493.348 59.4297 492.475 59.4297C491.386 59.4297 490.369 59.2721 489.424 58.957C488.493 58.6419 487.676 58.1979 486.975 57.625C486.287 57.0521 485.743 56.3646 485.342 55.5625C484.955 54.7461 484.762 53.8366 484.762 52.834C484.762 51.502 485.055 50.3704 485.643 49.4395C486.23 48.5085 487.025 47.7565 488.027 47.1836C489.03 46.5964 490.19 46.1667 491.508 45.8945C492.826 45.6224 494.208 45.4863 495.654 45.4863H500.682V42.8438C500.667 41.9701 500.495 41.2038 500.166 40.5449C499.837 39.8717 499.385 39.3132 498.812 38.8691C498.254 38.4108 497.581 38.0671 496.793 37.8379C496.02 37.6087 495.174 37.4941 494.258 37.4941C493.427 37.4941 492.632 37.6016 491.873 37.8164C491.128 38.0312 490.462 38.3392 489.875 38.7402C489.302 39.1413 488.837 39.6354 488.479 40.2227C488.12 40.7956 487.927 41.4473 487.898 42.1777L485.32 42.1562C485.363 41.168 485.621 40.2585 486.094 39.4277C486.581 38.597 487.232 37.8809 488.049 37.2793C488.865 36.6634 489.811 36.1836 490.885 35.8398C491.973 35.4961 493.133 35.3242 494.365 35.3242C495.597 35.3242 496.75 35.4818 497.824 35.7969C498.913 36.112 499.851 36.5846 500.639 37.2148C501.441 37.8451 502.071 38.6328 502.529 39.5781C503.002 40.5234 503.245 41.6263 503.26 42.8867V54.1445C503.26 54.918 503.324 55.6986 503.453 56.4863C503.596 57.2741 503.768 58.026 503.969 58.7422L503.99 59H501.24ZM492.754 57.1523C493.656 57.1667 494.516 57.0592 495.332 56.8301C496.163 56.6009 496.922 56.2858 497.609 55.8848C498.297 55.4694 498.906 54.9824 499.436 54.4238C499.965 53.8509 500.381 53.2279 500.682 52.5547V47.4629H495.998C494.867 47.4629 493.778 47.5488 492.732 47.7207C491.687 47.8926 490.763 48.179 489.961 48.5801C489.159 48.9668 488.514 49.4896 488.027 50.1484C487.555 50.8073 487.318 51.6309 487.318 52.6191C487.318 53.321 487.462 53.9512 487.748 54.5098C488.035 55.0684 488.421 55.5482 488.908 55.9492C489.395 56.3359 489.968 56.6367 490.627 56.8516C491.286 57.0521 491.995 57.1523 492.754 57.1523Z" fill="#3B3751"/>
<path d="M514.045 35.7539L514.238 40.1152C515.055 38.6686 516.143 37.5156 517.504 36.6562C518.865 35.7826 520.411 35.3385 522.145 35.3242C524.694 35.3242 526.642 36.0905 527.988 37.623C529.335 39.1413 530.015 41.304 530.029 44.1113V59H527.451V44.1543C527.437 42.0202 526.95 40.3874 525.99 39.2559C525.031 38.11 523.541 37.5443 521.521 37.5586C520.691 37.5586 519.896 37.6947 519.137 37.9668C518.392 38.2389 517.704 38.6113 517.074 39.084C516.458 39.5566 515.907 40.1152 515.42 40.7598C514.947 41.4043 514.561 42.1061 514.26 42.8652V59H511.682V35.7539H514.045Z" fill="#3B3751"/>
<path d="M537.334 47.1621C537.334 45.6152 537.527 44.1328 537.914 42.7148C538.301 41.2826 538.874 40.0221 539.633 38.9336C540.406 37.8307 541.366 36.957 542.512 36.3125C543.672 35.6536 545.033 35.3242 546.594 35.3242C548.069 35.3242 549.387 35.6393 550.547 36.2695C551.721 36.8997 552.702 37.7806 553.49 38.9121V26H556.047V59H553.641L553.533 55.9707C552.717 57.0879 551.714 57.9473 550.525 58.5488C549.337 59.1361 548.012 59.4297 546.551 59.4297C545.018 59.4297 543.672 59.1003 542.512 58.4414C541.366 57.7682 540.406 56.8874 539.633 55.7988C538.874 54.696 538.301 53.4355 537.914 52.0176C537.527 50.5853 537.334 49.1172 537.334 47.6133V47.1621ZM539.934 47.6133C539.934 48.7734 540.055 49.9264 540.299 51.0723C540.557 52.2181 540.965 53.2493 541.523 54.166C542.082 55.0684 542.812 55.7988 543.715 56.3574C544.617 56.916 545.72 57.1953 547.023 57.1953C547.754 57.1953 548.441 57.1022 549.086 56.916C549.745 56.7298 550.346 56.4648 550.891 56.1211C551.449 55.763 551.943 55.3405 552.373 54.8535C552.817 54.3522 553.189 53.7936 553.49 53.1777V41.9199C553.204 41.2754 552.846 40.6882 552.416 40.1582C552.001 39.6283 551.521 39.1699 550.977 38.7832C550.432 38.3965 549.831 38.0957 549.172 37.8809C548.513 37.666 547.811 37.5586 547.066 37.5586C545.749 37.5586 544.639 37.8451 543.736 38.418C542.834 38.9766 542.096 39.7142 541.523 40.6309C540.965 41.5332 540.557 42.5573 540.299 43.7031C540.055 44.849 539.934 46.002 539.934 47.1621V47.6133Z" fill="#3B3751"/>
<path d="M188.471 81.9746H178.502V111H175.988L176.01 81.9746H166.02V79.7188H188.471V81.9746Z" fill="#3B3751"/>
<path d="M204.498 111.43C202.88 111.43 201.404 111.129 200.072 110.527C198.74 109.926 197.594 109.109 196.635 108.078C195.689 107.047 194.952 105.844 194.422 104.469C193.906 103.079 193.641 101.604 193.627 100.043V99.1191C193.641 97.4577 193.913 95.9108 194.443 94.4785C194.988 93.0462 195.725 91.8001 196.656 90.7402C197.587 89.6803 198.683 88.8496 199.943 88.248C201.204 87.6322 202.557 87.3242 204.004 87.3242C205.551 87.3242 206.919 87.6035 208.107 88.1621C209.296 88.7207 210.292 89.487 211.094 90.4609C211.91 91.4206 212.526 92.5449 212.941 93.834C213.371 95.123 213.593 96.5052 213.607 97.9805V99.5488H196.205V100.043C196.219 101.26 196.427 102.428 196.828 103.545C197.229 104.648 197.795 105.622 198.525 106.467C199.256 107.312 200.137 107.992 201.168 108.508C202.199 109.009 203.345 109.26 204.605 109.26C206.038 109.274 207.334 109.009 208.494 108.465C209.654 107.921 210.643 107.133 211.459 106.102L213.092 107.326C212.662 107.928 212.154 108.486 211.566 109.002C210.979 109.503 210.32 109.933 209.59 110.291C208.874 110.649 208.086 110.928 207.227 111.129C206.367 111.329 205.458 111.43 204.498 111.43ZM204.004 89.5156C202.958 89.5156 201.999 89.7161 201.125 90.1172C200.251 90.5039 199.485 91.0482 198.826 91.75C198.167 92.4518 197.623 93.2826 197.193 94.2422C196.764 95.1875 196.47 96.2259 196.312 97.3574H211.029V97.0781C211.001 96.1185 210.822 95.1875 210.492 94.2852C210.177 93.3685 209.719 92.5592 209.117 91.8574C208.53 91.1556 207.807 90.5898 206.947 90.1602C206.088 89.7305 205.107 89.5156 204.004 89.5156Z" fill="#3B3751"/>
<path d="M230.43 109.26C231.289 109.26 232.105 109.138 232.879 108.895C233.667 108.637 234.361 108.271 234.963 107.799C235.564 107.326 236.051 106.76 236.424 106.102C236.811 105.428 237.033 104.669 237.09 103.824H239.561C239.503 104.927 239.217 105.944 238.701 106.875C238.186 107.806 237.512 108.608 236.682 109.281C235.851 109.954 234.898 110.484 233.824 110.871C232.75 111.243 231.618 111.43 230.43 111.43C228.725 111.43 227.243 111.107 225.982 110.463C224.722 109.818 223.669 108.959 222.824 107.885C221.993 106.811 221.363 105.579 220.934 104.189C220.518 102.786 220.311 101.332 220.311 99.8281V98.9258C220.311 97.4219 220.518 95.9753 220.934 94.5859C221.363 93.1823 221.993 91.9434 222.824 90.8691C223.669 89.7949 224.722 88.9355 225.982 88.291C227.243 87.6465 228.718 87.3242 230.408 87.3242C231.697 87.3242 232.886 87.5319 233.975 87.9473C235.077 88.3483 236.03 88.9212 236.832 89.666C237.648 90.3965 238.293 91.2702 238.766 92.2871C239.238 93.2897 239.503 94.3926 239.561 95.5957H237.09C237.047 94.722 236.846 93.9128 236.488 93.168C236.13 92.4232 235.658 91.7786 235.07 91.2344C234.483 90.6901 233.788 90.2676 232.986 89.9668C232.199 89.666 231.339 89.5156 230.408 89.5156C229.062 89.5156 227.909 89.7878 226.949 90.332C226.004 90.8763 225.23 91.5924 224.629 92.4805C224.027 93.3685 223.583 94.3783 223.297 95.5098C223.025 96.627 222.889 97.7656 222.889 98.9258V99.8281C222.889 101.003 223.025 102.156 223.297 103.287C223.583 104.419 224.027 105.428 224.629 106.316C225.23 107.19 226.004 107.899 226.949 108.443C227.909 108.988 229.069 109.26 230.43 109.26Z" fill="#3B3751"/>
<path d="M250.002 92.2441C250.818 90.7546 251.907 89.5658 253.268 88.6777C254.628 87.7897 256.182 87.3385 257.93 87.3242C259.204 87.3242 260.329 87.5247 261.303 87.9258C262.291 88.3125 263.115 88.8854 263.773 89.6445C264.447 90.3893 264.955 91.3132 265.299 92.416C265.657 93.5046 265.836 94.7507 265.836 96.1543V111H263.258V96.1543C263.258 95.123 263.136 94.1992 262.893 93.3828C262.649 92.5664 262.277 91.8789 261.775 91.3203C261.288 90.7474 260.673 90.3105 259.928 90.0098C259.183 89.709 258.309 89.5586 257.307 89.5586C256.49 89.5586 255.71 89.6875 254.965 89.9453C254.22 90.2031 253.533 90.5612 252.902 91.0195C252.272 91.4779 251.706 92.0221 251.205 92.6523C250.718 93.2682 250.317 93.9486 250.002 94.6934V111H247.424V78H250.002V92.2441Z" fill="#3B3751"/>
<path d="M276.213 87.7539L276.406 92.1152C277.223 90.6686 278.311 89.5156 279.672 88.6562C281.033 87.7826 282.579 87.3385 284.312 87.3242C286.862 87.3242 288.81 88.0905 290.156 89.623C291.503 91.1413 292.183 93.304 292.197 96.1113V111H289.619V96.1543C289.605 94.0202 289.118 92.3874 288.158 91.2559C287.199 90.11 285.709 89.5443 283.689 89.5586C282.859 89.5586 282.064 89.6947 281.305 89.9668C280.56 90.2389 279.872 90.6113 279.242 91.084C278.626 91.5566 278.075 92.1152 277.588 92.7598C277.115 93.4043 276.729 94.1061 276.428 94.8652V111H273.85V87.7539H276.213Z" fill="#3B3751"/>
<path d="M298.943 99.0332C298.958 97.4577 299.201 95.9609 299.674 94.543C300.146 93.125 300.82 91.8861 301.693 90.8262C302.581 89.752 303.663 88.8997 304.938 88.2695C306.227 87.6393 307.68 87.3242 309.299 87.3242C310.932 87.3242 312.385 87.6393 313.66 88.2695C314.949 88.8997 316.038 89.752 316.926 90.8262C317.814 91.8861 318.494 93.125 318.967 94.543C319.439 95.9609 319.683 97.4577 319.697 99.0332V99.7422C319.683 101.318 319.439 102.814 318.967 104.232C318.508 105.65 317.835 106.896 316.947 107.971C316.059 109.031 314.978 109.876 313.703 110.506C312.428 111.122 310.975 111.43 309.342 111.43C307.709 111.43 306.248 111.122 304.959 110.506C303.684 109.876 302.603 109.031 301.715 107.971C300.827 106.896 300.146 105.65 299.674 104.232C299.201 102.814 298.958 101.318 298.943 99.7422V99.0332ZM301.521 99.7422C301.521 100.974 301.693 102.163 302.037 103.309C302.381 104.454 302.882 105.471 303.541 106.359C304.2 107.233 305.009 107.935 305.969 108.465C306.943 108.995 308.067 109.26 309.342 109.26C310.602 109.26 311.712 108.995 312.672 108.465C313.646 107.935 314.455 107.233 315.1 106.359C315.758 105.471 316.26 104.454 316.604 103.309C316.947 102.163 317.119 100.974 317.119 99.7422V99.0332C317.119 97.8158 316.947 96.6341 316.604 95.4883C316.26 94.3424 315.758 93.3327 315.1 92.459C314.441 91.571 313.624 90.862 312.65 90.332C311.676 89.7878 310.559 89.5156 309.299 89.5156C308.038 89.5156 306.921 89.7878 305.947 90.332C304.988 90.862 304.178 91.571 303.52 92.459C302.875 93.3327 302.381 94.3424 302.037 95.4883C301.693 96.6341 301.521 97.8158 301.521 99.0332V99.7422Z" fill="#3B3751"/>
<path d="M327.303 78H338.131V108.723H345.994V111H327.303V108.723H335.553V80.2988H327.303V78Z" fill="#3B3751"/>
<path d="M351.795 99.0332C351.809 97.4577 352.053 95.9609 352.525 94.543C352.998 93.125 353.671 91.8861 354.545 90.8262C355.433 89.752 356.514 88.8997 357.789 88.2695C359.078 87.6393 360.532 87.3242 362.15 87.3242C363.783 87.3242 365.237 87.6393 366.512 88.2695C367.801 88.8997 368.889 89.752 369.777 90.8262C370.665 91.8861 371.346 93.125 371.818 94.543C372.291 95.9609 372.535 97.4577 372.549 99.0332V99.7422C372.535 101.318 372.291 102.814 371.818 104.232C371.36 105.65 370.687 106.896 369.799 107.971C368.911 109.031 367.829 109.876 366.555 110.506C365.28 111.122 363.826 111.43 362.193 111.43C360.561 111.43 359.1 111.122 357.811 110.506C356.536 109.876 355.454 109.031 354.566 107.971C353.678 106.896 352.998 105.65 352.525 104.232C352.053 102.814 351.809 101.318 351.795 99.7422V99.0332ZM354.373 99.7422C354.373 100.974 354.545 102.163 354.889 103.309C355.232 104.454 355.734 105.471 356.393 106.359C357.051 107.233 357.861 107.935 358.82 108.465C359.794 108.995 360.919 109.26 362.193 109.26C363.454 109.26 364.564 108.995 365.523 108.465C366.497 107.935 367.307 107.233 367.951 106.359C368.61 105.471 369.111 104.454 369.455 103.309C369.799 102.163 369.971 100.974 369.971 99.7422V99.0332C369.971 97.8158 369.799 96.6341 369.455 95.4883C369.111 94.3424 368.61 93.3327 367.951 92.459C367.292 91.571 366.476 90.862 365.502 90.332C364.528 89.7878 363.411 89.5156 362.15 89.5156C360.89 89.5156 359.773 89.7878 358.799 90.332C357.839 90.862 357.03 91.571 356.371 92.459C355.727 93.3327 355.232 94.3424 354.889 95.4883C354.545 96.6341 354.373 97.8158 354.373 99.0332V99.7422Z" fill="#3B3751"/>
<path d="M378.822 99.1621C378.822 97.6152 379.008 96.1328 379.381 94.7148C379.753 93.2826 380.319 92.0221 381.078 90.9336C381.852 89.8307 382.811 88.957 383.957 88.3125C385.117 87.6536 386.485 87.3242 388.061 87.3242C389.55 87.3242 390.882 87.6465 392.057 88.291C393.245 88.9212 394.234 89.8164 395.021 90.9766L395.129 87.7539H397.535V110.592C397.521 112.01 397.299 113.313 396.869 114.502C396.439 115.691 395.816 116.708 395 117.553C394.198 118.412 393.224 119.078 392.078 119.551C390.932 120.023 389.643 120.26 388.211 120.26C387.523 120.26 386.807 120.181 386.062 120.023C385.318 119.866 384.587 119.622 383.871 119.293C383.155 118.964 382.467 118.548 381.809 118.047C381.164 117.56 380.598 116.973 380.111 116.285L381.551 114.738C383.398 116.973 385.561 118.09 388.039 118.09C389.142 118.09 390.123 117.911 390.982 117.553C391.842 117.195 392.558 116.686 393.131 116.027C393.718 115.383 394.162 114.602 394.463 113.686C394.778 112.783 394.943 111.788 394.957 110.699V108.057C394.141 109.145 393.138 109.983 391.949 110.57C390.775 111.143 389.464 111.43 388.018 111.43C386.471 111.43 385.117 111.1 383.957 110.441C382.811 109.768 381.859 108.887 381.1 107.799C380.34 106.696 379.768 105.436 379.381 104.018C379.008 102.585 378.822 101.117 378.822 99.6133V99.1621ZM381.4 99.6133C381.4 100.773 381.522 101.926 381.766 103.072C382.023 104.218 382.432 105.249 382.99 106.166C383.549 107.068 384.279 107.799 385.182 108.357C386.084 108.916 387.187 109.195 388.49 109.195C389.221 109.195 389.915 109.102 390.574 108.916C391.233 108.715 391.835 108.436 392.379 108.078C392.938 107.72 393.432 107.29 393.861 106.789C394.305 106.273 394.671 105.701 394.957 105.07V94.0059C394.671 93.3613 394.32 92.7669 393.904 92.2227C393.489 91.6784 393.009 91.2129 392.465 90.8262C391.921 90.4251 391.319 90.1172 390.66 89.9023C390.001 89.6732 389.292 89.5586 388.533 89.5586C387.215 89.5586 386.105 89.8451 385.203 90.418C384.301 90.9766 383.563 91.7142 382.99 92.6309C382.432 93.5332 382.023 94.5573 381.766 95.7031C381.522 96.849 381.4 98.002 381.4 99.1621V99.6133Z" fill="#3B3751"/>
<path d="M414.723 106.273L415.195 107.541L423.596 87.7539H426.518L414.508 114.717C414.193 115.419 413.82 116.106 413.391 116.779C412.961 117.452 412.452 118.054 411.865 118.584C411.278 119.128 410.598 119.565 409.824 119.895C409.065 120.224 408.191 120.389 407.203 120.389C406.859 120.389 406.48 120.353 406.064 120.281C405.649 120.224 405.298 120.16 405.012 120.088L405.312 117.939C405.556 117.968 405.857 117.997 406.215 118.025C406.587 118.068 406.895 118.09 407.139 118.09C407.798 118.09 408.399 117.961 408.943 117.703C409.488 117.445 409.967 117.109 410.383 116.693C410.812 116.292 411.185 115.834 411.5 115.318C411.829 114.817 412.102 114.323 412.316 113.836L413.906 110.398L403.465 87.7539H406.365L414.723 106.273Z" fill="#3B3751"/>
<path d="M458.852 111V79.7188H467.402C468.663 79.7331 469.887 79.9049 471.076 80.2344C472.279 80.5495 473.346 81.0436 474.277 81.7168C475.208 82.3757 475.953 83.2207 476.512 84.252C477.085 85.2689 477.364 86.4863 477.35 87.9043C477.35 88.7923 477.214 89.5944 476.941 90.3105C476.669 91.0124 476.297 91.6426 475.824 92.2012C475.366 92.7454 474.822 93.2253 474.191 93.6406C473.561 94.0417 472.881 94.3783 472.15 94.6504C473.053 94.8652 473.883 95.1947 474.643 95.6387C475.416 96.0827 476.082 96.6341 476.641 97.293C477.199 97.9375 477.636 98.6751 477.951 99.5059C478.281 100.337 478.445 101.232 478.445 102.191C478.46 103.581 478.202 104.82 477.672 105.908C477.142 106.982 476.426 107.899 475.523 108.658C474.621 109.403 473.576 109.976 472.387 110.377C471.212 110.778 469.98 110.986 468.691 111H458.852ZM461.43 95.9609V108.766H468.756C469.701 108.751 470.604 108.594 471.463 108.293C472.322 107.978 473.074 107.541 473.719 106.982C474.378 106.424 474.893 105.751 475.266 104.963C475.652 104.161 475.846 103.251 475.846 102.234C475.846 101.246 475.66 100.372 475.287 99.6133C474.929 98.8398 474.428 98.1882 473.783 97.6582C473.153 97.1283 472.415 96.7201 471.57 96.4336C470.74 96.1471 469.866 95.9896 468.949 95.9609H461.43ZM461.43 93.748H467.725C468.627 93.7337 469.501 93.6048 470.346 93.3613C471.191 93.1178 471.936 92.7526 472.58 92.2656C473.239 91.7786 473.769 91.1699 474.17 90.4395C474.571 89.709 474.771 88.8424 474.771 87.8398C474.771 86.7943 474.564 85.9062 474.148 85.1758C473.733 84.431 473.182 83.8294 472.494 83.3711C471.807 82.8984 471.026 82.5547 470.152 82.3398C469.279 82.1107 468.383 81.9889 467.467 81.9746H461.43V93.748Z" fill="#3B3751"/>
<path d="M485.857 78H496.686V108.723H504.549V111H485.857V108.723H494.107V80.2988H485.857V78Z" fill="#3B3751"/>
<path d="M510.35 99.0332C510.364 97.4577 510.607 95.9609 511.08 94.543C511.553 93.125 512.226 91.8861 513.1 90.8262C513.988 89.752 515.069 88.8997 516.344 88.2695C517.633 87.6393 519.087 87.3242 520.705 87.3242C522.338 87.3242 523.792 87.6393 525.066 88.2695C526.355 88.8997 527.444 89.752 528.332 90.8262C529.22 91.8861 529.9 93.125 530.373 94.543C530.846 95.9609 531.089 97.4577 531.104 99.0332V99.7422C531.089 101.318 530.846 102.814 530.373 104.232C529.915 105.65 529.242 106.896 528.354 107.971C527.465 109.031 526.384 109.876 525.109 110.506C523.835 111.122 522.381 111.43 520.748 111.43C519.115 111.43 517.654 111.122 516.365 110.506C515.09 109.876 514.009 109.031 513.121 107.971C512.233 106.896 511.553 105.65 511.08 104.232C510.607 102.814 510.364 101.318 510.35 99.7422V99.0332ZM512.928 99.7422C512.928 100.974 513.1 102.163 513.443 103.309C513.787 104.454 514.288 105.471 514.947 106.359C515.606 107.233 516.415 107.935 517.375 108.465C518.349 108.995 519.473 109.26 520.748 109.26C522.008 109.26 523.118 108.995 524.078 108.465C525.052 107.935 525.861 107.233 526.506 106.359C527.165 105.471 527.666 104.454 528.01 103.309C528.354 102.163 528.525 100.974 528.525 99.7422V99.0332C528.525 97.8158 528.354 96.6341 528.01 95.4883C527.666 94.3424 527.165 93.3327 526.506 92.459C525.847 91.571 525.031 90.862 524.057 90.332C523.083 89.7878 521.965 89.5156 520.705 89.5156C519.445 89.5156 518.327 89.7878 517.354 90.332C516.394 90.862 515.585 91.571 514.926 92.459C514.281 93.3327 513.787 94.3424 513.443 95.4883C513.1 96.6341 512.928 97.8158 512.928 99.0332V99.7422Z" fill="#3B3751"/>
<path d="M537.377 99.1621C537.377 97.6152 537.563 96.1328 537.936 94.7148C538.308 93.2826 538.874 92.0221 539.633 90.9336C540.406 89.8307 541.366 88.957 542.512 88.3125C543.672 87.6536 545.04 87.3242 546.615 87.3242C548.105 87.3242 549.437 87.6465 550.611 88.291C551.8 88.9212 552.788 89.8164 553.576 90.9766L553.684 87.7539H556.09V110.592C556.076 112.01 555.854 113.313 555.424 114.502C554.994 115.691 554.371 116.708 553.555 117.553C552.753 118.412 551.779 119.078 550.633 119.551C549.487 120.023 548.198 120.26 546.766 120.26C546.078 120.26 545.362 120.181 544.617 120.023C543.872 119.866 543.142 119.622 542.426 119.293C541.71 118.964 541.022 118.548 540.363 118.047C539.719 117.56 539.153 116.973 538.666 116.285L540.105 114.738C541.953 116.973 544.116 118.09 546.594 118.09C547.697 118.09 548.678 117.911 549.537 117.553C550.396 117.195 551.113 116.686 551.686 116.027C552.273 115.383 552.717 114.602 553.018 113.686C553.333 112.783 553.497 111.788 553.512 110.699V108.057C552.695 109.145 551.693 109.983 550.504 110.57C549.329 111.143 548.019 111.43 546.572 111.43C545.025 111.43 543.672 111.1 542.512 110.441C541.366 109.768 540.413 108.887 539.654 107.799C538.895 106.696 538.322 105.436 537.936 104.018C537.563 102.585 537.377 101.117 537.377 99.6133V99.1621ZM539.955 99.6133C539.955 100.773 540.077 101.926 540.32 103.072C540.578 104.218 540.986 105.249 541.545 106.166C542.104 107.068 542.834 107.799 543.736 108.357C544.639 108.916 545.742 109.195 547.045 109.195C547.775 109.195 548.47 109.102 549.129 108.916C549.788 108.715 550.389 108.436 550.934 108.078C551.492 107.72 551.986 107.29 552.416 106.789C552.86 106.273 553.225 105.701 553.512 105.07V94.0059C553.225 93.3613 552.874 92.7669 552.459 92.2227C552.044 91.6784 551.564 91.2129 551.02 90.8262C550.475 90.4251 549.874 90.1172 549.215 89.9023C548.556 89.6732 547.847 89.5586 547.088 89.5586C545.77 89.5586 544.66 89.8451 543.758 90.418C542.855 90.9766 542.118 91.7142 541.545 92.6309C540.986 93.5332 540.578 94.5573 540.32 95.7031C540.077 96.849 539.955 98.002 539.955 99.1621V99.6133Z" fill="#3B3751"/>
<circle cx="70" cy="70" r="69" stroke="#3B3751" stroke-width="2"/>
<path d="M74.0546 103.889C72.4135 115.045 98.1016 115.386 100.276 98.5164C110.844 101.5 118.141 91.2185 113.031 82.1312C119.159 77.9159 119.045 65.6188 112.66 61.9329C117.539 56.6915 111.618 42.0138 99.816 44.6325C103.041 32.8443 85.9742 23.2439 73.9854 32.635L74.0546 103.889Z" stroke="#3B3751" stroke-width="2" stroke-miterlimit="10" stroke-linecap="round" stroke-linejoin="round"/>
<path d="M100.178 42.0137C99.2988 47.2429 94.7338 51.294 89.5212 52.2339" stroke="#3B3751" stroke-width="2" stroke-miterlimit="10" stroke-linecap="round" stroke-linejoin="round"/>
<path d="M89.5212 38.0859C90.7266 45.9009 77.7156 49.1804 74.1809 44.1113" stroke="#3B3751" stroke-width="2" stroke-miterlimit="10" stroke-linecap="round" stroke-linejoin="round"/>
<path d="M96.0206 49.6154C96.041 52.3572 99.6816 55.8707 101.738 56.6875" stroke="#3B3751" stroke-width="2" stroke-miterlimit="10" stroke-linecap="round" stroke-linejoin="round"/>
<path d="M104.08 65.5982C100.875 67.2318 100.801 71.9314 97.3319 72.974C93.6953 74.0658 91.7162 70.0146 90.2542 67.2072C88.0267 62.918 84.72 61.1818 79.9065 61.9452C78.3346 62.1956 75.6102 63.3038 74.7021 63.7676" stroke="#3B3751" stroke-width="2" stroke-miterlimit="10" stroke-linecap="round" stroke-linejoin="round"/>
<path d="M107.72 65.3355C105.228 68.4508 101.233 63.8496 103.819 61.1448" stroke="#3B3751" stroke-width="2" stroke-miterlimit="10" stroke-linecap="round" stroke-linejoin="round"/>
<path d="M73.9243 81.5854C77.3369 78.154 82.6553 82.0246 83.7997 85.7392C85.1517 90.1145 81.0427 93.6773 82.4884 97.9377C83.3639 100.524 85.3797 101.665 87.9615 101.234" stroke="#3B3751" stroke-width="2" stroke-miterlimit="10" stroke-linecap="round" stroke-linejoin="round"/>
<path d="M100.178 100.708C104.186 90.1391 84.3209 93.1148 92.9012 77.1278" stroke="#3B3751" stroke-width="2" stroke-miterlimit="10" stroke-linecap="round" stroke-linejoin="round"/>
<path d="M113.177 82.632C111.752 80.2843 108.356 80.1119 105.88 80.2637C103.64 80.4033 101.123 82.1026 100.178 82.3693" stroke="#3B3751" stroke-width="2" stroke-miterlimit="10" stroke-linecap="round" stroke-linejoin="round"/>
<path d="M22.3213 77.132L21.9466 65.6025L28.8818 65.3726C29.3012 62.9797 29.9569 60.6689 30.8283 58.4648L24.4674 54.9513L29.9731 44.8378L36.7372 48.577C38.1951 46.8531 39.8118 45.2688 41.567 43.8486L37.5273 36.9654L47.3782 31.0877L51.5441 38.1844C53.564 37.4456 55.6775 36.8874 57.8521 36.5262V28.2023H63.5086V111.795H57.8521V106.631C55.6979 106.278 53.6088 105.728 51.6052 104.997L49.1659 109.615L39.0625 104.205L41.6159 99.3579C39.7304 97.8351 37.9956 96.1318 36.4522 94.2601L31.6794 97.3262L25.5262 87.5944L30.6654 84.2944C29.7695 81.9507 29.1098 79.4798 28.727 76.9227L22.3213 77.132Z" stroke="#3B3751" stroke-width="2" stroke-miterlimit="10" stroke-linecap="round" stroke-linejoin="round"/>
<path d="M63.5155 44.7803V52.7349C54.084 52.7718 46.4485 60.4842 46.4485 69.9984C46.4485 79.5126 54.08 87.2291 63.5155 87.2619V95.2123C49.7307 95.1754 38.5604 83.9003 38.5604 69.9984C38.5604 56.0923 49.7307 44.8173 63.5155 44.7803Z" stroke="#3B3751" stroke-width="2" stroke-miterlimit="10" stroke-linecap="round" stroke-linejoin="round"/>
</svg>
