<svg width="48" height="48" viewBox="0 0 48 48" fill="none" xmlns="http://www.w3.org/2000/svg">
<path d="M24 46.002C36.1503 46.002 46 36.1523 46 24.002C46 11.8517 36.1503 2.00201 24 2.00201C11.8497 2.00201 2 11.8517 2 24.002C2 36.1523 11.8497 46.002 24 46.002Z" stroke="#178CF6" stroke-width="3" stroke-linecap="round" stroke-linejoin="round"/>
<path d="M28.5 35.5H25.5C24.9696 35.5 24.4609 35.2893 24.0858 34.9142C23.7107 34.5391 23.5 34.0304 23.5 33.5V20.5C23.5 20.2348 23.3946 19.9804 23.2071 19.7929C23.0196 19.6054 22.7652 19.5 22.5 19.5H19.5" stroke="#178CF6" stroke-width="3" stroke-linecap="round" stroke-linejoin="round"/>
<path d="M23 10C22.6044 10 22.2178 10.1173 21.8889 10.3371C21.56 10.5568 21.3036 10.8692 21.1522 11.2346C21.0009 11.6001 20.9613 12.0022 21.0384 12.3902C21.1156 12.7781 21.3061 13.1345 21.5858 13.4142C21.8655 13.6939 22.2219 13.8844 22.6098 13.9616C22.9978 14.0387 23.3999 13.9991 23.7654 13.8478C24.1308 13.6964 24.4432 13.44 24.6629 13.1111C24.8827 12.7822 25 12.3956 25 12C25 11.4696 24.7893 10.9609 24.4142 10.5858C24.0391 10.2107 23.5304 10 23 10Z" fill="#178CF6"/>
</svg>
