<svg width="546" height="403" viewBox="0 0 546 403" fill="none" xmlns="http://www.w3.org/2000/svg">
<path d="M159.162 144.509V141.563H155.701V138.616H152.241V135.667V132.72H148.781V129.774V126.828V123.881V120.935V117.988V115.042V112.095H145.32V115.042H141.86V117.988H138.403H134.939H131.479H128.021H124.561H121.101V115.042H117.64V112.095H114.18V109.146H110.719V112.095H107.259V115.042V117.988H103.799V120.935H100.342V123.881H96.8812V126.828H93.4208H89.9604V129.774H86.5H83.0396H79.5792H76.1188H72.6584H69.198H65.7376H62.2772V126.828H58.8201H55.3597V123.881H51.8993V120.935H48.439V117.988H44.9786H41.5182V120.935H38.061V123.881H34.5974H31.1403H27.6799H24.2162H20.7591H17.302V120.935H13.8383V117.988H10.3779V115.042V112.095H6.91751V109.146V106.199V103.253V100.307H3.45712V103.253V106.199V109.146H0V112.095V115.042V117.988V120.935V123.881V126.828H3.45712V129.774V132.72V135.667H6.91751V138.616V141.563H10.3779V144.509H13.8383V147.456H17.302H20.7591V150.402H24.2162H27.6799H31.1403H34.5974H38.061H41.5182H44.9786H48.439H51.8993H55.3597H58.8201H62.2772H65.7376H69.198H72.6584H76.1188H79.5792H83.0396H86.5H89.9604H93.4208H96.8812H100.342H103.799H107.259H110.719H114.18H117.64H121.101H124.561H128.021H131.479H134.939H138.403H141.86H145.32H148.781H152.241H155.701H159.162V147.456H162.619V144.509H159.162Z" fill="#B2E2F1"/>
<path d="M169.54 117.988V115.042V112.095H166.079V109.146H162.619V106.199H159.162V103.253H155.701H152.241H148.781V100.307V97.3602V94.4138H145.32V91.4674V88.5209V85.5745H141.86V82.6281H138.403V79.6784H134.939V76.732H131.479V73.7856H128.021H124.561H121.101H117.64H114.18H110.719H107.259H103.799V76.732H100.342V73.7856V70.8392H96.8812V67.8928H93.4208H89.9604V64.9464H86.5V62H83.0396H79.5792H76.1188H72.6584H69.198H65.7376V64.9464H62.2772H58.8201V67.8928H55.3597V70.8392H51.8993V73.7856H48.439V76.732H44.9786V79.6784V82.6281V85.5745H41.5182H38.061H34.5974H31.1403H27.6799H24.2162H20.7591V88.5209H17.302H13.8383V91.4674H10.3779V94.4138H6.91751V97.3602V100.307V103.253V106.199V109.146V112.095H10.3779V115.042V117.988H13.8383V120.935H17.302V123.881H20.7591H24.2162H27.6799H31.1403H34.5974H38.061V120.935H41.5182V117.988H44.9786H48.439V120.935H51.8993V123.881H55.3597V126.828H58.8201H62.2772V129.774H65.7376H69.198H72.6584H76.1188H79.5792H83.0396H86.5H89.9604V126.828H93.4208H96.8812V123.881H100.342V120.935H103.799V117.988H107.259V115.042V112.095H110.719V109.146H114.18V112.095H117.64V115.042H121.101V117.988H124.561H128.021H131.479H134.939H138.403H141.86V115.042H145.32V112.095H148.781V115.042V117.988V120.935V123.881V126.828V129.774V132.72H152.241V135.667V138.616H155.701V141.563H159.162V144.509H162.619V147.456H166.079V144.509V141.563H169.54V138.616H173V135.667V132.72V129.774V126.828V123.881V120.935V117.988H169.54Z" fill="white"/>
<path d="M160.733 59.1089V57.4624H162.667V55.8158H164.601V54.1674V52.5209H166.535V50.8743V49.2278V47.5812V45.9347V44.2881V42.6416V40.995H168.468V42.6416H170.402V44.2881H172.334H174.27H176.204H178.136H180.069H182.003V42.6416H183.937V40.995H185.871V39.3466H187.804V40.995H189.738V42.6416V44.2881H191.672V45.9347H193.604V47.5812H195.538V49.2278H197.472H199.405V50.8743H201.339H203.273H205.207H207.14H209.074H211.008H212.942H214.876V49.2278H216.808H218.741V47.5812H220.675V45.9347H222.609V44.2881H224.543H226.476V45.9347H228.408V47.5812H230.344H232.276H234.21H236.145H238.077H240.009V45.9347H241.945V44.2881H243.879V42.6416V40.995H245.812V39.3466V37.7001V36.0535V34.407H247.746V36.0535V37.7001V39.3466H249.678V40.995V42.6416V44.2881V45.9347V47.5812V49.2278H247.746V50.8743V52.5209V54.1674H245.812V55.8158V57.4624H243.879V59.1089H241.945V60.7555H240.009H238.077V62.402H236.145H234.21H232.276H230.344H228.408H226.476H224.543H222.609H220.675H218.741H216.808H214.876H212.942H211.008H209.074H207.14H205.207H203.273H201.339H199.405H197.472H195.538H193.604H191.672H189.738H187.804H185.871H183.937H182.003H180.069H178.136H176.204H174.27H172.334H170.402H168.468H166.535H164.601H162.667H160.733V60.7555H158.801V59.1089H160.733Z" fill="#B2E2F1"/>
<path d="M154.934 44.2882V42.6416V40.9951H156.868V39.3467H158.801V37.7001H160.733V36.0536H162.667H164.601H166.535V34.407V32.7605V31.1139H168.468V29.4674V27.8208V26.1743H170.402V24.5277H172.334V22.8793H174.27V21.2328H176.204V19.5862H178.136H180.069H182.003H183.937H185.871H187.804H189.738H191.672V21.2328H193.604V19.5862V17.9397H195.538V16.2931H197.472H199.405V14.6466H201.339V13H203.273H205.207H207.14H209.074H211.008H212.942V14.6466H214.876H216.808V16.2931H218.741V17.9397H220.675V19.5862H222.609V21.2328H224.543V22.8793V24.5277V26.1743H226.476H228.408H230.344H232.276H234.21H236.145H238.077V27.8208H240.009H241.945V29.4674H243.879V31.1139H245.812V32.7605V34.407V36.0536V37.7001V39.3467V40.9951H243.879V42.6416V44.2882H241.945V45.9347H240.009V47.5813H238.077H236.145H234.21H232.276H230.344H228.408V45.9347H226.476V44.2882H224.543H222.609V45.9347H220.675V47.5813H218.741V49.2278H216.808H214.876V50.8744H212.942H211.008H209.074H207.14H205.207H203.273H201.339H199.405V49.2278H197.472H195.538V47.5813H193.604V45.9347H191.672V44.2882H189.738V42.6416V40.9951H187.804V39.3467H185.871V40.9951H183.937V42.6416H182.003V44.2882H180.069H178.136H176.204H174.27H172.334H170.402V42.6416H168.468V40.9951H166.535V42.6416V44.2882V45.9347V47.5813V49.2278V50.8744V52.5209H164.601V54.1675V55.8159H162.667V57.4624H160.733V59.109H158.801V60.7555H156.868V59.109V57.4624H154.934V55.8159H153V54.1675V52.5209V50.8744V49.2278V47.5813V45.9347V44.2882H154.934Z" fill="white"/>
<mask id="mask0" mask-type="alpha" maskUnits="userSpaceOnUse" x="7" y="186" width="534" height="216">
<path d="M35 365V402H52V401V392H62V383H71V374H80V365H522V356H532V347H541V204H531V195H522V186H25V195H16V204H7V346.5H16V355.5H25V365H35Z" fill="#FFBF09"/>
</mask>
<g mask="url(#mask0)">
<path d="M547 74.9254H7V498.892H547V74.9254Z" fill="#00C0F0"/>
<path d="M543.86 225.847V209.185H531.764V220.102H512.181V236.764H494.901V209.185H481.076V225.274H462.071V209.185H448.824V224.124H432.697V209.185H413.689V216.08H387.195V209.185H371.068V229.296H355.515V209.185H343.419V220.102H320.958V233.317H299.645V214.93H285.245V224.699H272.573V213.207H254.721V226.997H228.224V209.185H206.911V217.803H189.059V209.185H172.931V217.228H148.74V231.594H133.188V209.185H119.364V221.25H99.7807V209.185H89.9893V216.653H60.0398V235.041H46.2154V209.185H25.4822V219.527H7V415.234H547V225.847H543.86Z" fill="#4EC8EC"/>
<path d="M543.86 331.668V318.083H531.764V326.984H512.181V340.567H494.901V318.083H481.076V331.199H462.071V318.083H448.824V330.263H432.697V318.083H413.689V323.704H387.195V318.083H371.068V334.479H355.515V318.083H343.419V326.984H320.958V337.756H299.645V322.768H285.245V330.73H272.573V321.363H254.721V332.605H228.224V318.083H206.911V325.109H189.059V318.083H172.931V324.642H148.74V336.353H133.188V318.083H119.364V327.92H99.7807V318.083H89.9893V324.173H60.0398V339.164H46.2154V318.083H25.4822V326.514H7V478.892H547V331.668H543.86Z" fill="#77D0EE"/>
</g>
<path fill-rule="evenodd" clip-rule="evenodd" d="M20 177H527V186H536V195H546V348H537V357H527V366H85V375H76V384H67V393H57V403H30V366H20V356.5H11V347.5H2V195H11V186H20V177ZM21 196H30V187H517V196H526V205H536V338H527V347H517V356H75V365H66V374H57V383H47V393H40V356H30V346.5H21V337.5H12V205H21V196Z" fill="#2D2A3D"/>
<path d="M49.8947 313V306.053H63.7895V250.474H42.9474V264.368H36V250.474H42.9474V243.526H98.5263V250.474H77.6842V306.053H70.7368V313H49.8947Z" fill="#D8D7E2"/>
<path d="M112.414 291.602H118.806V284.655H125.753V277.707H132.701V271.316H112.414V291.602ZM98.5195 306.053V271.316H105.467V264.368H140.204V278.263H133.256V285.211H126.309V292.158H119.362V299.105H112.414V306.053H133.256V299.105H140.204V292.158H147.151V299.105H140.204V306.053H133.256V313H105.467V306.053H98.5195Z" fill="#D8D7E2"/>
<path d="M154.065 313V306.053H147.117V271.316H154.065V264.368H188.801V278.263H181.854V271.316H161.012V306.053H174.907V299.105H181.854V292.158H188.801V299.105H181.854V306.053H174.907V313H154.065Z" fill="#D8D7E2"/>
<path d="M195.715 313V243.526H202.662V236.579H223.504V243.526H209.61V278.263H216.557V271.316H223.504V264.368H244.346V299.105H251.294V292.158H258.241V299.105H251.294V306.053H244.346V313H230.452V271.316H223.504V278.263H216.557V285.211H209.61V313H195.715Z" fill="#D8D7E2"/>
<path d="M320.7 271.316H334.594V250.474H320.7V271.316ZM320.7 306.053H340.986V278.819H320.7V306.053ZM292.91 313V306.053H306.805V250.474H299.858V264.368H292.91V250.474H299.858V243.526H313.752V236.579H320.7V243.526H341.542V250.474H348.489V271.316H341.542V278.263H355.436V306.053H348.489V313H292.91Z" fill="#D8D7E2"/>
<path d="M362.391 313V243.526H369.338V236.579H390.18V243.526H376.285V306.053H383.233V299.105H390.18V292.158H397.127V299.105H390.18V306.053H383.233V313H362.391Z" fill="#D8D7E2"/>
<path d="M410.961 306.053H424.856V299.105H431.803V271.316H410.961V306.053ZM404.014 313V306.053H397.066V271.316H404.014V264.368H438.751V271.316H445.698V299.105H438.751V306.053H431.803V313H404.014Z" fill="#D8D7E2"/>
<path d="M472.911 305.497V298.55H479.859V292.158H487.362V271.316H466.52V305.497H472.911ZM459.572 313V306.053H452.625V271.316H459.572V264.368H501.257V319.947H494.309V326.895H487.362V333.842H480.414V340.79H466.52V333.842H480.414V326.895H487.362V299.105H480.414V306.053H473.467V313H459.572Z" fill="#D8D7E2"/>
<path d="M49.8947 306V299.053H63.7895V243.474H42.9474V257.368H36V243.474H42.9474V236.526H98.5263V243.474H77.6842V299.053H70.7368V306H49.8947Z" fill="#3B3751"/>
<path d="M112.414 284.602H118.806V277.655H125.753V270.707H132.701V264.316H112.414V284.602ZM98.5195 299.053V264.316H105.467V257.368H140.204V271.263H133.256V278.211H126.309V285.158H119.362V292.105H112.414V299.053H133.256V292.105H140.204V285.158H147.151V292.105H140.204V299.053H133.256V306H105.467V299.053H98.5195Z" fill="#3B3751"/>
<path d="M154.065 306V299.053H147.117V264.316H154.065V257.368H188.801V271.263H181.854V264.316H161.012V299.053H174.907V292.105H181.854V285.158H188.801V292.105H181.854V299.053H174.907V306H154.065Z" fill="#3B3751"/>
<path d="M195.715 306V236.526H202.662V229.579H223.504V236.526H209.61V271.263H216.557V264.316H223.504V257.368H244.346V292.105H251.294V285.158H258.241V292.105H251.294V299.053H244.346V306H230.452V264.316H223.504V271.263H216.557V278.211H209.61V306H195.715Z" fill="#3B3751"/>
<path d="M320.7 264.316H334.594V243.474H320.7V264.316ZM320.7 299.053H340.986V271.819H320.7V299.053ZM292.91 306V299.053H306.805V243.474H299.858V257.368H292.91V243.474H299.858V236.526H313.752V229.579H320.7V236.526H341.542V243.474H348.489V264.316H341.542V271.263H355.436V299.053H348.489V306H292.91Z" fill="#3B3751"/>
<path d="M362.391 306V236.526H369.338V229.579H390.18V236.526H376.285V299.053H383.233V292.105H390.18V285.158H397.127V292.105H390.18V299.053H383.233V306H362.391Z" fill="#3B3751"/>
<path d="M410.961 299.053H424.856V292.105H431.803V264.316H410.961V299.053ZM404.014 306V299.053H397.066V264.316H404.014V257.368H438.751V264.316H445.698V292.105H438.751V299.053H431.803V306H404.014Z" fill="#3B3751"/>
<path d="M472.911 298.497V291.55H479.859V285.158H487.362V264.316H466.52V298.497H472.911ZM459.572 306V299.053H452.625V264.316H459.572V257.368H501.257V312.947H494.309V319.895H487.362V326.842H480.414V333.79H466.52V326.842H480.414V319.895H487.362V292.105H480.414V299.053H473.467V306H459.572Z" fill="#3B3751"/>
<path fill-rule="evenodd" clip-rule="evenodd" d="M498 206H490V214H498V222H506V230H514V222V214V206H506H498Z" fill="#2D2A3D"/>
<path fill-rule="evenodd" clip-rule="evenodd" d="M357.16 44.2523L345.479 32.5711L332.792 45.2578L330.271 42.7362L326.191 38.6565L326.038 38.5038L267.097 97.4456L208.155 38.5039L208.002 38.6566L203.923 42.7363L201.401 45.2579L188.714 32.5712L177.033 44.2524L189.72 56.9391L183.119 63.5403L242.06 122.482L217.433 147.109L212.927 142.603L215.354 140.176L219.007 136.523L215.28 132.796L211.627 136.449L204.157 128.979L200.142 132.994L197.028 129.88L191.958 134.95L195.072 138.064L191.06 142.076L198.53 149.546L194.876 153.2L198.603 156.927L202.257 153.273L204.847 150.683L212.674 158.511L206.815 164.37L202.773 168.413L198.466 172.719L194.424 176.762L190.123 181.063L186.08 185.106L182.911 181.937L179.068 185.78L203.952 210.663L207.795 206.821L204.631 203.657L208.674 199.614L212.975 195.313L217.017 191.27L221.324 186.964L225.366 182.921L231.225 177.062L238.832 184.669L236.242 187.259L232.589 190.912L236.316 194.639L239.969 190.986L247.439 198.456L251.551 194.344L254.665 197.459L259.735 192.39L256.62 189.275L260.536 185.358L253.066 177.889L256.72 174.235L252.993 170.508L249.339 174.162L246.913 176.588L242.47 172.145L267.097 147.518L291.724 172.146L287.281 176.588L284.854 174.162L281.201 170.508L277.474 174.235L281.127 177.889L273.657 185.359L277.573 189.275L274.459 192.39L279.528 197.459L282.643 194.344L286.754 198.456L294.224 190.986L297.878 194.639L301.605 190.912L297.951 187.259L295.361 184.669L302.968 177.062L308.827 182.921L312.87 186.964L317.176 191.27L321.219 195.313L325.52 199.614L329.563 203.657L326.399 206.821L330.242 210.663L355.125 185.78L351.283 181.937L348.114 185.106L344.071 181.063L339.77 176.762L335.727 172.719L331.421 168.413L327.378 164.37L321.519 158.511L329.347 150.683L331.937 153.273L335.59 156.927L339.317 153.2L335.664 149.546L343.134 142.077L339.121 138.064L342.235 134.95L337.166 129.88L334.052 132.995L330.036 128.979L322.567 136.449L318.913 132.796L315.186 136.523L318.84 140.176L321.266 142.603L316.76 147.109L292.133 122.482L351.075 63.5402L344.474 56.939L357.16 44.2523ZM186.533 215.639L197.726 204.446L197.724 204.445L197.726 204.443L184.629 191.346L182.039 193.936L182.04 193.937L173.436 202.542L171.147 200.253L168.868 202.532L166.52 204.88L164.246 207.154L181.918 224.826L184.192 222.552L186.54 220.204L188.819 217.925L186.533 215.639ZM336.467 204.446L347.66 215.639L345.374 217.925L347.654 220.204L350.001 222.552L352.276 224.826L369.947 207.154L367.673 204.88L365.326 202.532L363.046 200.253L360.757 202.542L352.153 193.937L352.155 193.936L349.565 191.346L336.467 204.443L336.469 204.445L336.467 204.446Z" fill="#2D2A3D"/>
<path d="M351.075 56.5402L326.191 31.6565L217.586 140.262L242.47 165.145L351.075 56.5402Z" fill="#D9D8DB"/>
<path d="M316.326 71.5273L311.204 66.4053L227.467 150.142L232.589 155.265L316.326 71.5273Z" fill="#ACACB2"/>
<path d="M330.271 35.7362L326.038 31.5038L217.433 140.109L221.666 144.341L330.271 35.7362Z" fill="#E1E1E3"/>
<path d="M231.231 170.057L212.68 151.506L186.08 178.106L204.631 196.657L231.231 170.057Z" fill="#A16125"/>
<path d="M208.674 192.614L190.123 174.063L186.08 178.106L204.631 196.657L208.674 192.614Z" fill="#C27526"/>
<path d="M217.017 184.27L198.466 165.719L194.424 169.762L212.975 188.313L217.017 184.27Z" fill="#C27526"/>
<path d="M225.366 175.921L206.815 157.37L202.773 161.413L221.324 179.964L225.366 175.921Z" fill="#C27526"/>
<path d="M207.795 199.821L182.911 174.937L179.068 178.78L203.952 203.663L207.795 199.821Z" fill="#F6E781"/>
<path d="M357.16 37.2523L345.479 25.5711L332.792 38.2578L344.474 49.939L357.16 37.2523Z" fill="#D9D8DB"/>
<path d="M247.044 169.72L212.927 135.603L207.442 141.088L241.559 175.205L247.044 169.72Z" fill="#EDA637"/>
<path d="M241.559 175.205L207.442 141.088L204.847 143.683L238.964 177.8L241.559 175.205Z" fill="#DF871E"/>
<path d="M215.354 133.176L204.157 121.979L191.06 135.076L202.257 146.273L215.354 133.176Z" fill="#F6CE23"/>
<path d="M219.007 129.523L215.28 125.796L194.876 146.2L198.603 149.927L219.007 129.523Z" fill="#F6E781"/>
<path d="M191.958 127.95L195.075 131.066L200.144 125.997L197.028 122.88L191.958 127.95Z" fill="#C27526"/>
<path d="M251.549 187.343L254.665 190.459L259.735 185.39L256.618 182.273L251.549 187.343Z" fill="#C27526"/>
<path d="M260.536 178.358L249.339 167.162L236.242 180.259L247.439 191.456L260.536 178.358Z" fill="#F6CE23"/>
<path d="M186.529 208.643L197.726 197.446L184.629 184.349L173.432 195.546L186.529 208.643Z" fill="#F6CE23"/>
<path d="M171.147 193.253L164.246 200.154L181.918 217.826L188.819 210.924L171.147 193.253Z" fill="#BDAC92"/>
<path d="M168.868 195.532L166.52 197.88L184.192 215.552L186.54 213.204L168.868 195.532Z" fill="#A38A67"/>
<path d="M195.136 200.033L197.726 197.443L184.629 184.346L182.039 186.936L195.136 200.033Z" fill="#E5BF2B"/>
<path d="M256.72 167.235L252.993 163.508L232.589 183.912L236.316 187.639L256.72 167.235Z" fill="#F6E781"/>
<path d="M183.119 56.5403L208.002 31.6566L316.608 140.262L291.724 165.145L183.119 56.5403Z" fill="#D9D8DB"/>
<path d="M217.867 71.5274L222.989 66.4054L306.727 150.143L301.605 155.265L217.867 71.5274Z" fill="#ACACB2"/>
<path d="M203.923 35.7363L208.155 31.5039L316.76 140.109L312.528 144.341L203.923 35.7363Z" fill="#E1E1E3"/>
<path d="M302.963 170.057L321.514 151.506L348.114 178.106L329.563 196.657L302.963 170.057Z" fill="#A16125"/>
<path d="M325.52 192.614L344.071 174.063L348.114 178.106L329.563 196.657L325.52 192.614Z" fill="#C27526"/>
<path d="M317.176 184.27L335.727 165.719L339.77 169.762L321.219 188.313L317.176 184.27Z" fill="#C27526"/>
<path d="M308.827 175.921L327.378 157.37L331.421 161.413L312.87 179.964L308.827 175.921Z" fill="#C27526"/>
<path d="M326.399 199.821L351.283 174.937L355.125 178.78L330.242 203.663L326.399 199.821Z" fill="#F6E781"/>
<path d="M177.033 37.2524L188.714 25.5712L201.401 38.2579L189.72 49.9391L177.033 37.2524Z" fill="#D9D8DB"/>
<path d="M287.149 169.72L321.266 135.603L326.752 141.088L292.634 175.205L287.149 169.72Z" fill="#EDA637"/>
<path d="M292.634 175.205L326.752 141.088L329.347 143.683L295.23 177.801L292.634 175.205Z" fill="#DF871E"/>
<path d="M318.84 133.176L330.036 121.979L343.134 135.077L331.937 146.273L318.84 133.176Z" fill="#F6CE23"/>
<path d="M315.186 129.523L318.913 125.796L339.317 146.2L335.59 149.927L315.186 129.523Z" fill="#F6E781"/>
<path d="M342.235 127.95L339.119 131.066L334.049 125.997L337.166 122.88L342.235 127.95Z" fill="#C27526"/>
<path d="M282.645 187.343L279.528 190.459L274.459 185.39L277.575 182.273L282.645 187.343Z" fill="#C27526"/>
<path d="M273.657 178.359L284.854 167.162L297.951 180.259L286.754 191.456L273.657 178.359Z" fill="#F6CE23"/>
<path d="M347.664 208.643L336.467 197.446L349.565 184.349L360.762 195.546L347.664 208.643Z" fill="#F6CE23"/>
<path d="M363.046 193.253L369.947 200.154L352.276 217.826L345.374 210.925L363.046 193.253Z" fill="#BDAC92"/>
<path d="M365.325 195.532L367.673 197.88L350.001 215.552L347.654 213.204L365.325 195.532Z" fill="#A38A67"/>
<path d="M339.057 200.033L336.467 197.443L349.565 184.346L352.155 186.936L339.057 200.033Z" fill="#E5BF2B"/>
<path d="M277.474 167.235L281.201 163.508L301.605 183.912L297.878 187.639L277.474 167.235Z" fill="#F6E781"/>
<path d="M475.186 139.5V145.123C475.186 145.798 474.638 146.293 473.953 146.293C473.222 146.293 472.719 145.798 472.719 145.123V139.95C472.719 138.668 472.194 137.791 470.71 137.791C469.065 137.791 468.427 138.668 468.427 139.928V145.123C468.427 145.798 467.878 146.293 467.193 146.293C466.462 146.293 465.96 145.798 465.96 145.123V139.95C465.96 138.668 465.435 137.791 463.95 137.791C462.238 137.791 461.667 138.781 461.667 140.108V145.123C461.667 145.798 461.141 146.293 460.433 146.293C459.725 146.293 459.2 145.798 459.2 145.123V136.936C459.2 136.262 459.748 135.722 460.433 135.722C461.119 135.722 461.667 136.262 461.667 136.936C462.1 136.284 463.06 135.587 464.59 135.587C466.462 135.587 467.398 136.172 467.969 137.049C468.7 136.082 469.682 135.587 471.235 135.587C474.341 135.587 475.186 137.543 475.186 139.5Z" fill="white"/>
<path d="M481.831 135.587C485.69 135.587 486.398 138.511 486.398 140.063C486.398 140.895 486.398 141.862 485.005 141.862H479.364C479.364 143.481 480.529 144.224 482.036 144.224C483.041 144.224 483.749 143.886 484.297 143.526C484.548 143.369 484.731 143.279 485.028 143.279C485.622 143.279 486.101 143.751 486.101 144.336C486.101 144.696 485.918 144.988 485.713 145.168C485.325 145.528 484.114 146.405 482.036 146.405C478.862 146.405 476.898 144.718 476.898 140.962C476.898 137.521 478.725 135.587 481.831 135.587ZM479.433 139.838H483.955C483.955 138.736 483.315 137.656 481.831 137.656C480.506 137.656 479.547 138.398 479.433 139.838Z" fill="white"/>
<path d="M504.096 139.5V145.123C504.096 145.798 503.548 146.293 502.863 146.293C502.132 146.293 501.63 145.798 501.63 145.123V139.95C501.63 138.668 501.105 137.791 499.62 137.791C497.976 137.791 497.337 138.668 497.337 139.928V145.123C497.337 145.798 496.789 146.293 496.103 146.293C495.372 146.293 494.87 145.798 494.87 145.123V139.95C494.87 138.668 494.345 137.791 492.86 137.791C491.148 137.791 490.577 138.781 490.577 140.108V145.123C490.577 145.798 490.052 146.293 489.344 146.293C488.635 146.293 488.11 145.798 488.11 145.123V136.936C488.11 136.262 488.658 135.722 489.344 135.722C490.029 135.722 490.577 136.262 490.577 136.936C491.011 136.284 491.97 135.587 493.5 135.587C495.372 135.587 496.309 136.172 496.879 137.049C497.61 136.082 498.592 135.587 500.145 135.587C503.251 135.587 504.096 137.543 504.096 139.5Z" fill="white"/>
<path d="M510.787 146.405C507.703 146.405 505.785 144.673 505.785 141.007C505.785 137.319 507.703 135.587 510.787 135.587C513.87 135.587 515.788 137.319 515.788 141.007C515.788 144.673 513.87 146.405 510.787 146.405ZM510.787 137.656C509.142 137.656 508.274 138.781 508.274 141.007C508.274 143.211 509.142 144.336 510.787 144.336C512.431 144.336 513.299 143.211 513.299 141.007C513.299 138.781 512.431 137.656 510.787 137.656Z" fill="white"/>
<path d="M517.134 140.985C517.134 137.319 518.938 135.587 522.021 135.587C524.784 135.587 526.749 137.094 526.749 140.085V149.419C526.749 150.094 526.2 150.634 525.515 150.634C524.83 150.634 524.282 150.094 524.282 149.419V145.506C523.825 145.956 522.866 146.405 521.77 146.405C518.893 146.405 517.134 144.651 517.134 140.985ZM524.282 140.085C524.282 138.533 523.346 137.656 522.021 137.656C520.446 137.656 519.578 138.781 519.578 140.985C519.578 143.211 520.468 144.336 522.021 144.336C523.392 144.336 524.282 143.189 524.282 143.189V140.085Z" fill="white"/>
<path d="M437.661 141C437.661 139.13 437.334 137.335 436.736 135.667H436.734C435.715 132.828 433.906 130.357 431.567 128.511C431.563 128.507 431.559 128.504 431.555 128.501C431.327 128.321 431.094 128.147 430.856 127.98C430.846 127.973 430.836 127.966 430.826 127.959C430.711 127.878 430.596 127.799 430.479 127.722C430.476 127.72 430.474 127.718 430.471 127.717C430.352 127.638 430.232 127.56 430.111 127.485C430.096 127.476 430.082 127.467 430.067 127.458C429.959 127.391 429.85 127.325 429.741 127.26C429.726 127.251 429.711 127.242 429.696 127.234C429.576 127.164 429.456 127.095 429.334 127.028C429.317 127.019 429.3 127.01 429.283 127C429.177 126.943 429.071 126.886 428.964 126.831C428.94 126.818 428.916 126.806 428.893 126.794C428.772 126.732 428.65 126.671 428.527 126.612C428.51 126.604 428.493 126.597 428.477 126.589C428.369 126.538 428.262 126.488 428.153 126.439C428.124 126.426 428.094 126.412 428.064 126.399C427.941 126.345 427.817 126.291 427.692 126.24C427.68 126.235 427.668 126.23 427.656 126.225C427.542 126.178 427.427 126.133 427.312 126.089C427.279 126.076 427.246 126.064 427.214 126.051C427.087 126.004 426.959 125.957 426.831 125.912H426.831C420.521 128.108 416 134.034 416 141C416 142.87 416.327 144.665 416.926 146.333C419.156 140.119 425.172 135.667 432.245 135.667C435.236 135.667 437.661 138.054 437.661 141Z" fill="url(#paint0_linear)"/>
<path d="M426.838 141.277C426.833 141.185 426.83 141.093 426.83 141C426.83 140.997 426.831 140.995 426.831 140.992C426.835 138.05 429.257 135.667 432.245 135.667C432.018 135.667 431.793 135.672 431.569 135.681H431.569C431.147 135.698 430.73 135.731 430.318 135.779C430.315 135.779 430.312 135.779 430.308 135.78C429.907 135.827 429.511 135.889 429.119 135.964C429.102 135.968 429.084 135.97 429.066 135.974C428.686 136.048 428.311 136.137 427.94 136.237C427.913 136.244 427.886 136.251 427.859 136.258C427.497 136.358 427.141 136.471 426.791 136.594C426.756 136.606 426.722 136.617 426.688 136.629C426.344 136.753 426.006 136.888 425.673 137.033C425.636 137.05 425.597 137.066 425.559 137.083C425.232 137.228 424.912 137.385 424.596 137.551C424.556 137.573 424.515 137.593 424.475 137.615C424.165 137.782 423.861 137.959 423.563 138.145C423.522 138.171 423.481 138.196 423.44 138.222C423.145 138.41 422.858 138.606 422.577 138.811C422.537 138.841 422.497 138.87 422.457 138.9C422.179 139.107 421.908 139.323 421.644 139.547C421.606 139.579 421.568 139.612 421.53 139.645C421.269 139.871 421.014 140.106 420.768 140.348C420.733 140.382 420.699 140.417 420.664 140.451C420.419 140.697 420.181 140.951 419.951 141.212C419.921 141.246 419.892 141.281 419.862 141.316C419.633 141.581 419.412 141.853 419.201 142.133C419.176 142.167 419.151 142.201 419.127 142.234C418.915 142.519 418.711 142.811 418.519 143.11C418.499 143.14 418.481 143.171 418.462 143.201C418.268 143.507 418.083 143.819 417.909 144.138C417.897 144.162 417.885 144.186 417.872 144.21C417.696 144.538 417.53 144.873 417.377 145.214C417.371 145.228 417.365 145.243 417.359 145.257C417.202 145.61 417.057 145.968 416.926 146.333C419.156 152.547 425.172 157 432.245 157C434.144 157 436.984 157 439.014 157C432.789 154.832 426.99 148.147 426.838 141.277Z" fill="url(#paint1_linear)"/>
<path d="M437.661 141C437.661 143.902 435.306 146.262 432.376 146.33C432.386 146.332 432.355 146.333 432.245 146.333H436.984C440.405 146.333 443.453 147.897 445.438 150.337C447.359 147.709 448.491 144.485 448.491 141C448.491 140.872 448.489 140.744 448.486 140.616C448.485 140.573 448.483 140.53 448.482 140.487C448.479 140.403 448.476 140.319 448.472 140.235C448.469 140.183 448.466 140.132 448.463 140.08C448.459 140.006 448.454 139.932 448.449 139.858C448.445 139.802 448.441 139.746 448.436 139.69C448.431 139.621 448.424 139.553 448.418 139.484C448.412 139.425 448.407 139.366 448.4 139.308C448.394 139.244 448.386 139.181 448.378 139.118C448.371 139.056 448.364 138.993 448.356 138.931C448.355 138.924 448.354 138.916 448.353 138.909C448.328 138.72 448.299 138.532 448.267 138.345C448.261 138.31 448.255 138.275 448.249 138.241C448.234 138.157 448.219 138.074 448.203 137.991C448.196 137.957 448.19 137.924 448.183 137.89C448.166 137.804 448.148 137.718 448.129 137.633C448.123 137.606 448.117 137.579 448.111 137.552C448.091 137.46 448.07 137.368 448.047 137.276C448.045 137.265 448.042 137.253 448.039 137.241C446.322 130.219 439.903 125 432.245 125C430.347 125 428.524 125.322 426.83 125.912C433.14 128.108 437.661 134.034 437.661 141Z" fill="url(#paint2_linear)"/>
<path d="M436.984 146.333H432.245C429.349 146.333 426.984 144.094 426.838 141.277C426.974 147.416 431.62 153.405 437.049 156.157C437.178 156.223 437.307 156.287 437.437 156.348C437.489 156.373 437.541 156.397 437.593 156.421C437.712 156.476 437.831 156.53 437.95 156.582C438.032 156.618 438.115 156.651 438.197 156.685C438.289 156.724 438.381 156.763 438.474 156.799C438.653 156.869 438.834 156.937 439.014 157H447.814C447.814 151.109 442.965 146.333 436.984 146.333Z" fill="url(#paint3_linear)"/>
<defs>
<linearGradient id="paint0_linear" x1="431.292" y1="127.51" x2="423.677" y2="148.753" gradientUnits="userSpaceOnUse">
<stop stop-color="#EF3F3F"/>
<stop offset="1" stop-color="#F47623"/>
</linearGradient>
<linearGradient id="paint1_linear" x1="423.405" y1="137.806" x2="431.279" y2="159.773" gradientUnits="userSpaceOnUse">
<stop stop-color="#EF3F3F"/>
<stop offset="1" stop-color="#F47623"/>
</linearGradient>
<linearGradient id="paint2_linear" x1="437.661" y1="150.337" x2="437.661" y2="125" gradientUnits="userSpaceOnUse">
<stop stop-color="#EF3F3F"/>
<stop offset="1" stop-color="#F47623"/>
</linearGradient>
<linearGradient id="paint3_linear" x1="426.838" y1="149.138" x2="447.814" y2="149.138" gradientUnits="userSpaceOnUse">
<stop stop-color="#EF3F3F"/>
<stop offset="1" stop-color="#F47623"/>
</linearGradient>
</defs>
</svg>
