<svg width="32" height="32" viewBox="0 0 32 32" fill="none" xmlns="http://www.w3.org/2000/svg">
<path d="M21.3363 15.9912C21.3363 14.1213 21.0159 12.3259 20.4235 10.6579C19.4185 7.81784 17.6412 5.3509 15.3374 3.50289C15.333 3.4985 15.3286 3.4985 15.3242 3.49411C15.1004 3.31413 14.8722 3.13855 14.6352 2.97175C14.6264 2.96297 14.6133 2.95858 14.6045 2.9498C14.4904 2.87079 14.3763 2.79177 14.2622 2.71276C14.2578 2.71276 14.2578 2.70837 14.2534 2.70837C14.1349 2.62936 14.0165 2.55035 13.898 2.47572C13.8848 2.46694 13.8716 2.45817 13.8541 2.44939C13.7488 2.38354 13.6391 2.3177 13.5337 2.25186C13.5206 2.24308 13.503 2.2343 13.4898 2.22552C13.3714 2.15528 13.2529 2.08505 13.1344 2.01921C13.1168 2.01043 13.0993 2.00165 13.0817 1.99287C12.9764 1.93581 12.8711 1.87874 12.7658 1.82168C12.7438 1.80851 12.7175 1.79534 12.6956 1.78656C12.5771 1.72511 12.4586 1.66365 12.3357 1.60659C12.3182 1.59781 12.3006 1.58903 12.2874 1.58464C12.1821 1.53197 12.0768 1.48368 11.9671 1.43539C11.9364 1.42223 11.91 1.40906 11.8793 1.39589C11.7564 1.34321 11.6336 1.28615 11.5107 1.23786C11.4975 1.23347 11.4888 1.22908 11.4756 1.22469C11.3615 1.17641 11.2518 1.13251 11.1377 1.08862C11.107 1.07545 11.0719 1.06228 11.0411 1.04911C10.9183 1.00083 10.791 0.952541 10.6637 0.908646C4.45419 3.10343 2.67845e-07 9.02936 2.67845e-07 15.9956C2.67845e-07 17.8656 0.320351 19.6609 0.912781 21.3289C3.10697 15.1177 9.03127 10.6623 15.9956 10.6623C18.949 10.6623 21.3363 13.0502 21.3363 15.9912Z" fill="url(#paint0_linear)"/>
<path d="M10.6812 16.2722C10.6768 16.18 10.6724 16.0878 10.6724 15.9956C10.6724 15.9912 10.6724 15.9912 10.6724 15.9868C10.6768 13.0458 13.0597 10.6623 16.0043 10.6623C15.7805 10.6623 15.5611 10.6667 15.3373 10.6754C14.9204 10.693 14.5123 10.7237 14.1041 10.772C14.0997 10.772 14.0997 10.772 14.0954 10.772C13.7004 10.8203 13.3098 10.8818 12.9237 10.9564C12.9061 10.9608 12.8886 10.9608 12.871 10.9652C12.498 11.0398 12.125 11.1276 11.7607 11.2285C11.7344 11.2373 11.7081 11.2417 11.6818 11.2505C11.3263 11.3514 10.9752 11.4612 10.6285 11.5841C10.5934 11.5973 10.5627 11.606 10.5276 11.6192C10.1897 11.7421 9.85619 11.8782 9.52706 12.023C9.48757 12.0406 9.45246 12.0538 9.41297 12.0713C9.09262 12.2162 8.77665 12.3742 8.46508 12.541C8.42558 12.563 8.38609 12.5849 8.34659 12.6069C8.03941 12.7737 7.741 12.9492 7.44698 13.138C7.40748 13.1643 7.3636 13.1907 7.3241 13.217C7.03447 13.4058 6.75361 13.5989 6.47715 13.8052C6.43765 13.8359 6.39816 13.8623 6.35866 13.893C6.08658 14.0993 5.81889 14.3144 5.55998 14.5383C5.52048 14.569 5.48538 14.6041 5.44588 14.6348C5.18697 14.8631 4.93683 15.0957 4.69547 15.3372C4.66036 15.3723 4.62965 15.4074 4.59454 15.4425C4.35318 15.6883 4.1162 15.9429 3.8924 16.2019C3.86168 16.237 3.83535 16.2722 3.80463 16.3073C3.58082 16.5706 3.36141 16.8472 3.15515 17.1237C3.12882 17.1588 3.10688 17.1896 3.08055 17.2247C2.8743 17.51 2.67243 17.7997 2.48373 18.1026C2.46618 18.1333 2.44862 18.1641 2.42668 18.1948C2.23359 18.5021 2.05367 18.8137 1.88252 19.1342C1.86936 19.1561 1.85619 19.1824 1.84742 19.2044C1.67627 19.5336 1.50951 19.8672 1.36031 20.2096C1.35592 20.2228 1.34714 20.2403 1.34276 20.2535C1.18916 20.6047 1.04435 20.9646 0.917084 21.3289C3.11127 27.5402 9.03557 31.9956 15.9999 31.9956C17.8694 31.9956 20.6647 31.9956 22.6658 31.9956C16.5397 29.8228 10.8304 23.1375 10.6812 16.2722Z" fill="url(#paint1_linear)"/>
<path d="M21.3363 15.9912C21.3363 18.8927 19.0192 21.2499 16.1317 21.3202C16.1404 21.3202 16.1097 21.3246 16.0044 21.3246H20.6692C24.0351 21.3246 27.0368 22.8872 28.994 25.3278C30.8854 22.6985 32 19.4765 32 15.9912C32 15.8639 32 15.7366 31.9956 15.6093C31.9956 15.5654 31.9912 15.5215 31.9912 15.482C31.9868 15.3986 31.9868 15.3152 31.9824 15.2318C31.9781 15.1792 31.9781 15.1265 31.9737 15.0782C31.9693 15.0036 31.9649 14.9289 31.9605 14.8543C31.9561 14.7973 31.9517 14.7402 31.9473 14.6875C31.943 14.6173 31.9342 14.5514 31.9298 14.4812C31.9254 14.4241 31.921 14.3627 31.9122 14.3056C31.9035 14.2442 31.8991 14.1783 31.8903 14.1169C31.8815 14.0554 31.8771 13.994 31.8684 13.9281C31.8684 13.9193 31.8684 13.915 31.864 13.9062C31.8376 13.7174 31.8113 13.5287 31.7806 13.3443C31.7762 13.3092 31.7674 13.2741 31.763 13.239C31.7499 13.1556 31.7323 13.0722 31.7191 12.9888C31.7148 12.9536 31.706 12.9229 31.7016 12.8878C31.684 12.8 31.6665 12.7166 31.6489 12.6288C31.6445 12.6025 31.6358 12.5761 31.6314 12.5498C31.6094 12.4576 31.5919 12.3654 31.5699 12.2733C31.5656 12.2601 31.5656 12.2513 31.5612 12.2381C29.8716 5.21482 23.5524 0 16.0132 0C14.1437 0 12.3489 0.320439 10.6813 0.913032C16.8865 3.10343 21.3363 9.02936 21.3363 15.9912Z" fill="url(#paint2_linear)"/>
<path d="M20.6692 21.3246H16.0044C13.152 21.3246 10.8261 19.0859 10.6813 16.2678C10.813 22.4088 15.39 28.3962 20.7351 31.1484C20.8623 31.2143 20.9896 31.2757 21.1169 31.3416C21.1695 31.3679 21.2178 31.3899 21.2704 31.4162C21.3889 31.4733 21.503 31.5259 21.6215 31.5786C21.7005 31.6137 21.7839 31.6488 21.8629 31.684C21.955 31.7235 22.0428 31.763 22.135 31.7981C22.3105 31.8683 22.4904 31.9342 22.6659 32H31.3286C31.333 26.1004 26.5584 21.3246 20.6692 21.3246Z" fill="url(#paint3_linear)"/>
<defs>
<linearGradient id="paint0_linear" x1="15.0658" y1="2.50584" x2="7.36065" y2="23.6698" gradientUnits="userSpaceOnUse">
<stop stop-color="#EF3F3F"/>
<stop offset="1" stop-color="#F47623"/>
</linearGradient>
<linearGradient id="paint1_linear" x1="7.30089" y1="12.8002" x2="15.2685" y2="34.6851" gradientUnits="userSpaceOnUse">
<stop stop-color="#EF3F3F"/>
<stop offset="1" stop-color="#F47623"/>
</linearGradient>
<linearGradient id="paint2_linear" x1="21.3357" y1="25.329" x2="21.3357" y2="-0.00425815" gradientUnits="userSpaceOnUse">
<stop stop-color="#EF3F3F"/>
<stop offset="1" stop-color="#F47623"/>
</linearGradient>
<linearGradient id="paint3_linear" x1="10.6806" y1="24.1306" x2="31.3314" y2="24.1306" gradientUnits="userSpaceOnUse">
<stop stop-color="#EF3F3F"/>
<stop offset="1" stop-color="#F47623"/>
</linearGradient>
</defs>
</svg>
