<svg width="110" height="32" viewBox="0 0 110 32" fill="none" xmlns="http://www.w3.org/2000/svg">
<g clip-path="url(#clip0)">
<path d="M58.4734 14.5003V20.1232C58.4734 20.7979 57.9336 21.2928 57.2586 21.2928C56.539 21.2928 56.0439 20.7979 56.0439 20.1232V14.9502C56.0439 13.6683 55.5269 12.791 54.0646 12.791C52.4453 12.791 51.8159 13.6683 51.8159 14.9278V20.1233C51.8159 20.798 51.2761 21.2928 50.6012 21.2928C49.8814 21.2928 49.3864 20.798 49.3864 20.1233V14.9502C49.3864 13.6683 48.8694 12.791 47.4071 12.791C45.7206 12.791 45.1584 13.7807 45.1584 15.1078V20.1233C45.1584 20.7981 44.641 21.2929 43.9437 21.2929C43.2463 21.2929 42.7289 20.7981 42.7289 20.1233V11.9363C42.7289 11.2615 43.2687 10.7217 43.9437 10.7217C44.6186 10.7217 45.1584 11.2615 45.1584 11.9363C45.5854 11.2839 46.5303 10.5867 48.0373 10.5867C49.8814 10.5867 50.8034 11.1715 51.3656 12.0488C52.0854 11.0816 53.0526 10.5867 54.582 10.5867C57.6409 10.5868 58.4734 12.5435 58.4734 14.5003Z" fill="white"/>
<path d="M65.0176 10.5868C68.8186 10.5868 69.5159 13.5107 69.5159 15.0626C69.5159 15.8948 69.5159 16.8618 68.1436 16.8618H62.5882C62.5882 18.4813 63.7353 19.2236 65.22 19.2236C66.2096 19.2236 66.9065 18.8863 67.4463 18.5265C67.6938 18.3689 67.8738 18.279 68.166 18.279C68.751 18.279 69.2232 18.7511 69.2232 19.3362C69.2232 19.696 69.0433 19.9883 68.841 20.1682C68.4587 20.5281 67.2663 21.4054 65.22 21.4054C62.0936 21.4054 60.1595 19.7184 60.1595 15.9622C60.1594 12.521 61.9588 10.5868 65.0176 10.5868ZM62.6558 14.8378H67.1092C67.1092 13.7356 66.4794 12.656 65.0176 12.656C63.7129 12.656 62.7681 13.3983 62.6558 14.8378Z" fill="white"/>
<path d="M86.9464 14.5003V20.1232C86.9464 20.7979 86.4064 21.2928 85.732 21.2928C85.012 21.2928 84.5168 20.7979 84.5168 20.1232V14.9502C84.5168 13.6683 84 12.791 82.5376 12.791C80.9184 12.791 80.2888 13.6683 80.2888 14.9278V20.1233C80.2888 20.798 79.749 21.2928 79.0741 21.2928C78.3544 21.2928 77.8594 20.798 77.8594 20.1233V14.9502C77.8594 13.6683 77.3424 12.791 75.8801 12.791C74.1936 12.791 73.6314 13.7807 73.6314 15.1078V20.1233C73.6314 20.7981 73.1139 21.2929 72.4166 21.2929C71.7193 21.2929 71.2018 20.7981 71.2018 20.1233V11.9363C71.2018 11.2615 71.7417 10.7217 72.4166 10.7217C73.0915 10.7217 73.6314 11.2615 73.6314 11.9363C74.0584 11.2839 75.0033 10.5867 76.5102 10.5867C78.3543 10.5867 79.2764 11.1715 79.8386 12.0488C80.5584 11.0816 81.5256 10.5867 83.0552 10.5867C86.1136 10.5868 86.9464 12.5435 86.9464 14.5003Z" fill="white"/>
<path d="M93.5352 21.4054C90.4992 21.4054 88.6096 19.6734 88.6096 16.0074C88.6096 12.3187 90.4992 10.5868 93.5352 10.5868C96.572 10.5868 98.4608 12.3188 98.4608 16.0074C98.4608 19.6734 96.572 21.4054 93.5352 21.4054ZM93.5352 12.656C91.916 12.656 91.0608 13.7806 91.0608 16.0074C91.0608 18.2114 91.916 19.3362 93.5352 19.3362C95.1544 19.3362 96.0096 18.2114 96.0096 16.0074C96.0096 13.7806 95.1544 12.656 93.5352 12.656Z" fill="white"/>
<path d="M99.7872 15.9848C99.7872 12.3187 101.564 10.5868 104.6 10.5868C107.322 10.5868 109.256 12.0937 109.256 15.0851V24.4191C109.256 25.0941 108.716 25.6338 108.042 25.6338C107.366 25.6338 106.827 25.0941 106.827 24.4191V20.5058C106.377 20.9556 105.432 21.4054 104.353 21.4054C101.519 21.4054 99.7872 19.6508 99.7872 15.9848ZM106.827 15.0851C106.827 13.533 105.905 12.656 104.6 12.656C103.049 12.656 102.194 13.7806 102.194 15.9847C102.194 18.2114 103.071 19.3361 104.6 19.3361C105.95 19.3361 106.827 18.189 106.827 18.189V15.0851Z" fill="white"/>
<path d="M21.333 16C21.333 14.1297 21.0118 12.3348 20.422 10.6666H20.4202C19.4166 7.82816 17.6353 5.35731 15.3321 3.51048C15.3281 3.50732 15.3241 3.50411 15.3201 3.50095C15.0954 3.32112 14.8658 3.14732 14.6314 2.97961C14.6215 2.97254 14.6116 2.96556 14.6017 2.95854C14.4889 2.8782 14.3751 2.79912 14.2602 2.72168C14.2576 2.71993 14.255 2.71817 14.2525 2.71646C14.1353 2.63761 14.0169 2.56039 13.8975 2.48461C13.8833 2.47561 13.869 2.46674 13.8548 2.45779C13.7483 2.39062 13.641 2.32472 13.5328 2.26001C13.5181 2.25118 13.5034 2.24223 13.4886 2.23344C13.3709 2.16351 13.2522 2.09511 13.1325 2.02816C13.1158 2.01876 13.0988 2.00964 13.0819 2.00032C12.9778 1.94255 12.873 1.88605 12.7675 1.8306C12.7442 1.8184 12.7212 1.80606 12.6979 1.79399C12.5786 1.73204 12.4587 1.67136 12.3378 1.6124C12.3212 1.60433 12.3045 1.5966 12.288 1.58861C12.1824 1.53756 12.0762 1.48781 11.9694 1.43904C11.9402 1.42573 11.9112 1.41244 11.882 1.39931C11.7605 1.34469 11.6383 1.29122 11.5152 1.23955C11.5034 1.23459 11.4914 1.22993 11.4795 1.22497C11.3673 1.17821 11.2542 1.13291 11.1406 1.08865C11.1085 1.07614 11.0763 1.06368 11.0441 1.05134C10.919 1.00357 10.7935 0.956731 10.667 0.911987H10.667C4.45267 3.10833 0 9.03366 0 16.0001C0 17.8703 0.321974 19.6651 0.911704 21.3334C3.10827 15.1193 9.0336 10.6668 15.9998 10.6668C18.9453 10.6666 21.333 13.0544 21.333 16Z" fill="url(#paint0_linear)"/>
<path d="M10.6737 16.2769C10.669 16.1852 10.6665 16.0928 10.6665 16C10.6665 15.9972 10.6671 15.9946 10.6671 15.9918C10.6712 13.0503 13.0567 10.6668 15.999 10.6667C15.776 10.6667 15.554 10.6716 15.3333 10.6806H15.3332C14.9182 10.6976 14.5075 10.7306 14.1014 10.7787C14.0983 10.7791 14.0951 10.7793 14.0919 10.7797C13.6968 10.8266 13.3064 10.8893 12.9206 10.9645C12.9034 10.9678 12.8859 10.9705 12.8688 10.9738C12.4941 11.0482 12.1246 11.137 11.7598 11.237C11.7331 11.2444 11.706 11.2508 11.6794 11.2583C11.3234 11.3579 10.973 11.4709 10.6274 11.5941C10.5938 11.606 10.5599 11.6172 10.5265 11.6294C10.1878 11.7527 9.85488 11.8882 9.5272 12.0334C9.48984 12.05 9.45208 12.0658 9.41488 12.0827C9.0928 12.2284 8.7768 12.3854 8.4664 12.5514C8.42664 12.5726 8.38664 12.5934 8.34712 12.615C8.04136 12.7819 7.74206 12.959 7.44888 13.1449C7.40827 13.1706 7.36754 13.1962 7.3271 13.2224C7.03744 13.4097 6.75431 13.6063 6.47786 13.8114C6.43831 13.8408 6.39884 13.8702 6.35959 13.9C6.0857 14.1071 5.81878 14.3227 5.55905 14.5467C5.52138 14.5792 5.48415 14.612 5.4467 14.6449C5.18901 14.8714 4.93824 15.1057 4.69555 15.3482C4.6614 15.3822 4.62772 15.4169 4.59387 15.4514C4.35202 15.6974 4.11746 15.9506 3.89171 16.2118C3.86208 16.2461 3.83333 16.281 3.80391 16.3155C3.57834 16.5811 3.36042 16.8534 3.15232 17.1334C3.12765 17.1667 3.10386 17.2006 3.07945 17.2341C2.87091 17.5194 2.67042 17.811 2.48063 18.1102C2.4617 18.14 2.4438 18.1707 2.42496 18.2007C2.23368 18.5068 2.05127 18.819 1.88062 19.1384C1.86794 19.162 1.8563 19.1863 1.8437 19.2101C1.67051 19.5384 1.50707 19.8726 1.3564 20.2138C1.35003 20.2282 1.34446 20.243 1.33809 20.2574C1.18382 20.6098 1.04079 20.9682 0.91172 21.3334C3.10825 27.5474 9.0336 32 15.9998 32C17.87 32 20.6664 32 22.6663 32C16.5348 29.8325 10.8242 23.1466 10.6737 16.2769Z" fill="url(#paint1_linear)"/>
<path d="M21.333 16C21.333 18.9023 19.0142 21.2616 16.1283 21.3301C16.1378 21.3322 16.1076 21.3333 15.9998 21.3333H20.6664C24.0358 21.3333 27.0383 22.8973 28.9931 25.337C30.8846 22.7093 31.9995 19.485 31.9995 16C31.9995 15.8717 31.9977 15.7438 31.9947 15.6162C31.9937 15.573 31.9918 15.53 31.9905 15.4868C31.9878 15.4029 31.9849 15.319 31.981 15.2353C31.9785 15.1834 31.9755 15.1315 31.9726 15.0798C31.9683 15.0056 31.9638 14.9315 31.9585 14.8577C31.9545 14.8016 31.9503 14.7457 31.9458 14.6898C31.9402 14.6211 31.934 14.5526 31.9275 14.4841C31.922 14.4253 31.9166 14.3665 31.9105 14.3078C31.9038 14.2444 31.8962 14.1813 31.8888 14.118C31.8814 14.0555 31.8746 13.993 31.8666 13.9308C31.8657 13.9235 31.8645 13.9163 31.8635 13.9091C31.8388 13.72 31.8102 13.5321 31.779 13.345C31.7731 13.3102 31.7677 13.2753 31.7617 13.2406C31.7471 13.157 31.7315 13.0738 31.7157 12.9906C31.7093 12.9572 31.703 12.9236 31.6964 12.8902C31.6794 12.8041 31.6617 12.7183 31.6434 12.6328C31.6375 12.6056 31.6317 12.5786 31.6257 12.5515C31.6055 12.4596 31.5847 12.3678 31.5629 12.2765C31.5601 12.2647 31.5572 12.253 31.5543 12.2414C29.8634 5.21852 23.5415 0 15.9998 0C14.1296 0 12.3348 0.321978 10.6666 0.91172C16.8805 3.10827 21.333 9.03368 21.333 16Z" fill="url(#paint2_linear)"/>
<path d="M20.6664 21.3333H15.9998C13.1472 21.3333 10.8178 19.0937 10.6737 16.2769C10.8082 22.4159 15.3835 28.4051 20.7308 31.1572C20.8579 31.2226 20.9853 31.2865 21.1131 31.3483C21.1643 31.373 21.2157 31.3968 21.267 31.421C21.3838 31.4759 21.5008 31.5302 21.6182 31.5821C21.6992 31.6178 21.7805 31.6514 21.8618 31.6855C21.9525 31.7238 22.043 31.7629 22.134 31.7991C22.311 31.8695 22.4885 31.937 22.6664 31.9999H31.3329C31.3329 26.1089 26.5574 21.3333 20.6664 21.3333Z" fill="url(#paint3_linear)"/>
</g>
<defs>
<linearGradient id="paint0_linear" x1="15.0606" y1="2.5106" x2="7.35583" y2="23.6789" gradientUnits="userSpaceOnUse">
<stop stop-color="#EF3F3F"/>
<stop offset="1" stop-color="#F47623"/>
</linearGradient>
<linearGradient id="paint1_linear" x1="7.29264" y1="12.8064" x2="15.2598" y2="34.6958" gradientUnits="userSpaceOnUse">
<stop stop-color="#EF3F3F"/>
<stop offset="1" stop-color="#F47623"/>
</linearGradient>
<linearGradient id="paint2_linear" x1="21.333" y1="25.337" x2="21.333" y2="0" gradientUnits="userSpaceOnUse">
<stop stop-color="#EF3F3F"/>
<stop offset="1" stop-color="#F47623"/>
</linearGradient>
<linearGradient id="paint3_linear" x1="10.6737" y1="24.1384" x2="31.3329" y2="24.1384" gradientUnits="userSpaceOnUse">
<stop stop-color="#EF3F3F"/>
<stop offset="1" stop-color="#F47623"/>
</linearGradient>
<clipPath id="clip0">
<rect width="109.6" height="32" fill="white"/>
</clipPath>
</defs>
</svg>
