<svg width="111" height="32" viewBox="0 0 111 32" fill="none" xmlns="http://www.w3.org/2000/svg">
<path d="M59.1862 14.5003V20.1232C59.1862 20.7979 58.6381 21.2928 57.9528 21.2928C57.222 21.2928 56.7194 20.7979 56.7194 20.1232V14.9502C56.7194 13.6683 56.1945 12.791 54.7098 12.791C53.0655 12.791 52.4265 13.6683 52.4265 14.9278V20.1233C52.4265 20.798 51.8784 21.2928 51.1931 21.2928C50.4623 21.2928 49.9597 20.798 49.9597 20.1233V14.9502C49.9597 13.6683 49.4348 12.791 47.9501 12.791C46.2376 12.791 45.6668 13.7806 45.6668 15.1077V20.1233C45.6668 20.798 45.1414 21.2929 44.4334 21.2929C43.7254 21.2929 43.2 20.798 43.2 20.1233V11.9362C43.2 11.2615 43.7481 10.7217 44.4334 10.7217C45.1187 10.7217 45.6668 11.2615 45.6668 11.9362C46.1004 11.2839 47.0598 10.5867 48.5899 10.5867C50.4623 10.5867 51.3985 11.1715 51.9693 12.0488C52.7001 11.0816 53.6822 10.5867 55.235 10.5867C58.3409 10.5868 59.1862 12.5435 59.1862 14.5003Z" fill="white"/>
<path d="M65.8309 10.5868C69.6902 10.5868 70.3982 13.5107 70.3982 15.0625C70.3982 15.8948 70.3982 16.8619 69.0049 16.8619H63.3641C63.3641 18.4813 64.5288 19.2236 66.0363 19.2236C67.0411 19.2236 67.7487 18.8863 68.2968 18.5265C68.5481 18.3689 68.7308 18.2789 69.0276 18.2789C69.6216 18.2789 70.101 18.7512 70.101 19.3361C70.101 19.696 69.9183 19.9883 69.7129 20.1682C69.3248 20.5281 68.1141 21.4054 66.0363 21.4054C62.8619 21.4054 60.8982 19.7184 60.8982 15.9622C60.8981 12.5211 62.7251 10.5868 65.8309 10.5868ZM63.4327 14.8378H67.9546C67.9546 13.7356 67.3151 12.656 65.8309 12.656C64.5061 12.656 63.5468 13.3983 63.4327 14.8378Z" fill="white"/>
<path d="M88.0963 14.5003V20.1232C88.0963 20.7979 87.5482 21.2928 86.8629 21.2928C86.1322 21.2928 85.6295 20.7979 85.6295 20.1232V14.9502C85.6295 13.6683 85.1046 12.791 83.6199 12.791C81.9756 12.791 81.3366 13.6683 81.3366 14.9278V20.1233C81.3366 20.798 80.7885 21.2928 80.1032 21.2928C79.3725 21.2928 78.8698 20.798 78.8698 20.1233V14.9502C78.8698 13.6683 78.3449 12.791 76.8602 12.791C75.1478 12.791 74.5769 13.7806 74.5769 15.1077V20.1233C74.5769 20.798 74.0516 21.2929 73.3435 21.2929C72.6355 21.2929 72.1101 20.798 72.1101 20.1233V11.9362C72.1101 11.2615 72.6582 10.7217 73.3435 10.7217C74.0288 10.7217 74.5769 11.2615 74.5769 11.9362C75.0105 11.2839 75.9699 10.5867 77.5 10.5867C79.3724 10.5867 80.3086 11.1715 80.8794 12.0488C81.6102 11.0816 82.5923 10.5867 84.1452 10.5867C87.2511 10.5868 88.0963 12.5435 88.0963 14.5003Z" fill="white"/>
<path d="M94.7865 21.4054C91.7035 21.4054 89.7852 19.6734 89.7852 16.0074C89.7852 12.3187 91.7035 10.5868 94.7865 10.5868C97.8696 10.5868 99.7879 12.3188 99.7879 16.0074C99.7879 19.6734 97.8695 21.4054 94.7865 21.4054ZM94.7865 12.656C93.1423 12.656 92.2743 13.7806 92.2743 16.0074C92.2743 18.2114 93.1423 19.3361 94.7865 19.3361C96.4307 19.3361 97.2988 18.2114 97.2988 16.0074C97.2988 13.7806 96.4307 12.656 94.7865 12.656Z" fill="white"/>
<path d="M101.134 15.9848C101.134 12.3187 102.938 10.5868 106.021 10.5868C108.784 10.5868 110.749 12.0936 110.749 15.0851V24.4191C110.749 25.0941 110.2 25.6339 109.515 25.6339C108.83 25.6339 108.282 25.0941 108.282 24.4191V20.5057C107.825 20.9556 106.866 21.4054 105.77 21.4054C102.893 21.4054 101.134 19.6508 101.134 15.9848ZM108.282 15.0851C108.282 13.5331 107.346 12.656 106.021 12.656C104.446 12.656 103.578 13.7806 103.578 15.9847C103.578 18.2113 104.468 19.3361 106.021 19.3361C107.392 19.3361 108.282 18.1889 108.282 18.1889V15.0851Z" fill="white"/>
<path d="M21.6605 16C21.6605 14.1298 21.3343 12.3348 20.7355 10.6667H20.7337C19.7147 7.82822 17.906 5.35736 15.5674 3.51053C15.5634 3.50737 15.5594 3.50417 15.5553 3.501C15.3272 3.32118 15.0939 3.14737 14.856 2.97967C14.846 2.9726 14.8359 2.96562 14.8259 2.95859C14.7113 2.87825 14.5958 2.79918 14.4791 2.72174C14.4765 2.71998 14.4739 2.71823 14.4713 2.71652C14.3523 2.63767 14.232 2.56044 14.1108 2.48467C14.0964 2.47567 14.0819 2.4668 14.0675 2.45784C13.9594 2.39067 13.8504 2.32478 13.7405 2.26006C13.7256 2.25124 13.7107 2.24228 13.6957 2.2335C13.5761 2.16357 13.4556 2.09517 13.3341 2.02822C13.3171 2.01882 13.2999 2.00969 13.2828 2.00038C13.1771 1.94261 13.0706 1.88611 12.9635 1.83066C12.9399 1.81845 12.9165 1.80612 12.8928 1.79404C12.7718 1.7321 12.65 1.67142 12.5272 1.61246C12.5104 1.60439 12.4934 1.59666 12.4766 1.58867C12.3694 1.53761 12.2616 1.48787 12.1531 1.43909C12.1236 1.42579 12.0941 1.41249 12.0644 1.39936C11.941 1.34475 11.817 1.29128 11.6919 1.2396C11.6799 1.23464 11.6678 1.22999 11.6558 1.22503C11.5418 1.17827 11.427 1.13296 11.3117 1.08871C11.279 1.0762 11.2464 1.06373 11.2136 1.05139C11.0866 1.00363 10.9592 0.956785 10.8308 0.912048H10.8307C4.52103 3.10839 -2.63905e-07 9.03373 -2.63905e-07 16.0001C-2.63905e-07 17.8704 0.326917 19.6652 0.9257 21.3335C3.15599 15.1194 9.17226 10.6668 16.2454 10.6668C19.2361 10.6667 21.6605 13.0545 21.6605 16Z" fill="url(#paint0_linear)"/>
<path d="M10.8375 16.2769C10.8328 16.1851 10.8302 16.0928 10.8302 16C10.8302 15.9972 10.8308 15.9946 10.8308 15.9918C10.835 13.0503 13.2571 10.6668 16.2446 10.6667C16.0182 10.6667 15.7928 10.6716 15.5686 10.6806H15.5685C15.1472 10.6976 14.7302 10.7307 14.3178 10.7787C14.3147 10.7791 14.3115 10.7793 14.3082 10.7797C13.907 10.8267 13.5107 10.8892 13.1189 10.9645C13.1015 10.9679 13.0838 10.9704 13.0664 10.9738C12.6859 11.0482 12.3107 11.137 11.9403 11.2371C11.9132 11.2444 11.8857 11.2508 11.8587 11.2583C11.4973 11.3579 11.1414 11.4708 10.7905 11.594C10.7565 11.606 10.722 11.6172 10.688 11.6293C10.3441 11.7527 10.0061 11.8882 9.67346 12.0334C9.63553 12.05 9.59719 12.0659 9.55939 12.0827C9.23238 12.2284 8.91153 12.3853 8.59638 12.5513C8.55599 12.5726 8.51539 12.5935 8.47522 12.6151C8.1648 12.7819 7.86088 12.959 7.56321 13.1449C7.52198 13.1706 7.48061 13.1962 7.43956 13.2224C7.14545 13.4097 6.85798 13.6063 6.57729 13.8114C6.53713 13.8408 6.49705 13.8702 6.4572 13.9C6.17909 14.1071 5.90808 14.3227 5.64437 14.5467C5.60612 14.5792 5.56832 14.612 5.5303 14.6448C5.26864 14.8713 5.01402 15.1057 4.76761 15.3481C4.73293 15.3822 4.69874 15.4169 4.66437 15.4513C4.41881 15.6974 4.18064 15.9505 3.95143 16.2118C3.92134 16.246 3.89215 16.281 3.86228 16.3155C3.63325 16.5811 3.41198 16.8534 3.20069 17.1334C3.17564 17.1667 3.15148 17.2006 3.1267 17.2341C2.91496 17.5193 2.71139 17.8109 2.51869 18.1101C2.49947 18.14 2.48129 18.1707 2.46216 18.2007C2.26795 18.5068 2.08274 18.8189 1.90947 19.1384C1.89659 19.162 1.88478 19.1863 1.87198 19.2101C1.69613 19.5384 1.53018 19.8725 1.3772 20.2138C1.37073 20.2282 1.36507 20.2429 1.35861 20.2573C1.20197 20.6097 1.05674 20.9682 0.92569 21.3333C3.15594 27.5474 9.17225 32 16.2454 32C18.1443 32 20.9836 32 23.0143 32C16.7886 29.8325 10.9903 23.1466 10.8375 16.2769Z" fill="url(#paint1_linear)"/>
<path d="M21.6605 16C21.6605 18.9024 19.3061 21.2616 16.3759 21.3301C16.3856 21.3322 16.3549 21.3333 16.2454 21.3333H20.9837C24.4048 21.3333 27.4534 22.8973 29.4382 25.337C31.3588 22.7092 32.4908 19.485 32.4908 16C32.4908 15.8717 32.4889 15.7439 32.4858 15.6163C32.4848 15.573 32.483 15.53 32.4816 15.4868C32.4789 15.4029 32.4759 15.3189 32.4719 15.2353C32.4694 15.1834 32.4664 15.1315 32.4634 15.0797C32.4591 15.0056 32.4544 14.9315 32.4491 14.8576C32.4451 14.8016 32.4408 14.7456 32.4362 14.6898C32.4306 14.6211 32.4242 14.5526 32.4177 14.4841C32.4121 14.4253 32.4066 14.3665 32.4003 14.3078C32.3936 14.2444 32.3859 14.1812 32.3783 14.118C32.3709 14.0556 32.3639 13.993 32.3558 13.9308C32.3548 13.9235 32.3536 13.9163 32.3527 13.9091C32.3276 13.72 32.2985 13.5321 32.2668 13.3451C32.2609 13.3103 32.2554 13.2753 32.2492 13.2406C32.2345 13.157 32.2186 13.0738 32.2025 12.9907C32.1961 12.9572 32.1897 12.9236 32.183 12.8902C32.1658 12.8041 32.1477 12.7183 32.1291 12.6328C32.1232 12.6056 32.1172 12.5786 32.1112 12.5515C32.0907 12.4596 32.0696 12.3678 32.0474 12.2765C32.0446 12.2647 32.0416 12.2531 32.0388 12.2414C30.3219 5.21852 23.9029 -2.39822e-07 16.2454 -2.39822e-07C14.3465 -2.39822e-07 12.5242 0.321979 10.8303 0.911717C17.1396 3.10828 21.6605 9.03367 21.6605 16Z" fill="url(#paint2_linear)"/>
<path d="M20.9836 21.3333H16.2454C13.349 21.3333 10.9838 19.0937 10.8375 16.2769C10.9741 22.4159 15.6196 28.4051 21.049 31.1572C21.178 31.2226 21.3074 31.2865 21.4372 31.3483C21.4892 31.373 21.5413 31.3968 21.5934 31.4209C21.7121 31.4759 21.8308 31.5302 21.95 31.5821C22.0323 31.6177 22.1148 31.6514 22.1973 31.6855C22.2894 31.7237 22.3814 31.7628 22.4737 31.7991C22.6535 31.8695 22.8337 31.937 23.0143 31.9999H31.8138C31.8138 26.1089 26.965 21.3333 20.9836 21.3333Z" fill="url(#paint3_linear)"/>
<defs>
<linearGradient id="paint0_linear" x1="15.2918" y1="2.51048" x2="7.67683" y2="23.7534" gradientUnits="userSpaceOnUse">
<stop stop-color="#EF3F3F"/>
<stop offset="1" stop-color="#F47623"/>
</linearGradient>
<linearGradient id="paint1_linear" x1="7.40456" y1="12.8063" x2="15.2789" y2="34.7729" gradientUnits="userSpaceOnUse">
<stop stop-color="#EF3F3F"/>
<stop offset="1" stop-color="#F47623"/>
</linearGradient>
<linearGradient id="paint2_linear" x1="21.6605" y1="25.337" x2="21.6605" y2="0" gradientUnits="userSpaceOnUse">
<stop stop-color="#EF3F3F"/>
<stop offset="1" stop-color="#F47623"/>
</linearGradient>
<linearGradient id="paint3_linear" x1="10.8375" y1="24.1384" x2="31.8138" y2="24.1384" gradientUnits="userSpaceOnUse">
<stop stop-color="#EF3F3F"/>
<stop offset="1" stop-color="#F47623"/>
</linearGradient>
</defs>
</svg>
