<svg width="137" height="40" viewBox="0 0 137 40" fill="none" xmlns="http://www.w3.org/2000/svg">
<path d="M73.0918 18.1254V25.154C73.0918 25.9974 72.417 26.616 71.5733 26.616C70.6737 26.616 70.0549 25.9974 70.0549 25.154V18.6877C70.0549 17.0854 69.4086 15.9887 67.5808 15.9887C65.5566 15.9887 64.7699 17.0854 64.7699 18.6597V25.1541C64.7699 25.9975 64.0951 26.616 63.2515 26.616C62.3518 26.616 61.733 25.9975 61.733 25.1541V18.6877C61.733 17.0854 61.0868 15.9887 59.2589 15.9887C57.1508 15.9887 56.448 17.2258 56.448 18.8847V25.1541C56.448 25.9976 55.8012 26.6161 54.9296 26.6161C54.0579 26.6161 53.4111 25.9976 53.4111 25.1541V14.9203C53.4111 14.0769 54.0859 13.4021 54.9296 13.4021C55.7733 13.4021 56.448 14.0769 56.448 14.9203C56.9818 14.1048 58.1629 13.2334 60.0466 13.2334C62.3517 13.2334 63.5043 13.9644 64.207 15.061C65.1067 13.852 66.3157 13.2334 68.2275 13.2334C72.0511 13.2335 73.0918 15.6793 73.0918 18.1254Z" fill="white"/>
<path d="M81.272 13.2335C86.0232 13.2335 86.8949 16.8884 86.8949 18.8282C86.8949 19.8685 86.8949 21.0773 85.1795 21.0773H78.2352C78.2352 23.1016 79.6691 24.0295 81.525 24.0295C82.762 24.0295 83.6331 23.6079 84.3079 23.1581C84.6173 22.9611 84.8422 22.8487 85.2075 22.8487C85.9388 22.8487 86.529 23.4389 86.529 24.1702C86.529 24.62 86.3041 24.9854 86.0512 25.2103C85.5734 25.6601 84.0829 26.7567 81.525 26.7567C77.617 26.7567 75.1994 24.648 75.1994 19.9527C75.1993 15.6513 77.4485 13.2335 81.272 13.2335ZM78.3197 18.5472H83.8865C83.8865 17.1695 83.0993 15.82 81.272 15.82C79.6411 15.82 78.4601 16.7479 78.3197 18.5472Z" fill="white"/>
<path d="M108.683 18.1254V25.154C108.683 25.9974 108.008 26.616 107.165 26.616C106.265 26.616 105.646 25.9974 105.646 25.154V18.6877C105.646 17.0854 105 15.9887 103.172 15.9887C101.148 15.9887 100.361 17.0854 100.361 18.6597V25.1541C100.361 25.9975 99.6863 26.616 98.8426 26.616C97.943 26.616 97.3242 25.9975 97.3242 25.1541V18.6877C97.3242 17.0854 96.678 15.9887 94.8501 15.9887C92.742 15.9887 92.0392 17.2258 92.0392 18.8847V25.1541C92.0392 25.9976 91.3924 26.6161 90.5208 26.6161C89.6491 26.6161 89.0023 25.9976 89.0023 25.1541V14.9203C89.0023 14.0769 89.6771 13.4021 90.5208 13.4021C91.3644 13.4021 92.0392 14.0769 92.0392 14.9203C92.573 14.1048 93.7541 13.2334 95.6378 13.2334C97.9429 13.2334 99.0955 13.9644 99.7982 15.061C100.698 13.852 101.907 13.2334 103.819 13.2334C107.642 13.2335 108.683 15.6793 108.683 18.1254Z" fill="white"/>
<path d="M116.919 26.7567C113.124 26.7567 110.762 24.5918 110.762 20.0092C110.762 15.3984 113.124 13.2335 116.919 13.2335C120.715 13.2335 123.076 15.3985 123.076 20.0092C123.076 24.5918 120.715 26.7567 116.919 26.7567ZM116.919 15.82C114.895 15.82 113.826 17.2258 113.826 20.0092C113.826 22.7642 114.895 24.1702 116.919 24.1702C118.943 24.1702 120.012 22.7642 120.012 20.0092C120.012 17.2257 118.943 15.82 116.919 15.82Z" fill="white"/>
<path d="M124.734 19.981C124.734 15.3984 126.955 13.2335 130.75 13.2335C134.152 13.2335 136.57 15.1171 136.57 18.8564V30.5239C136.57 31.3676 135.895 32.0423 135.052 32.0423C134.208 32.0423 133.534 31.3676 133.534 30.5239V25.6322C132.971 26.1945 131.79 26.7568 130.441 26.7568C126.899 26.7567 124.734 24.5635 124.734 19.981ZM133.534 18.8564C133.534 16.9163 132.381 15.82 130.75 15.82C128.811 15.82 127.742 17.2257 127.742 19.9809C127.742 22.7642 128.839 24.1701 130.75 24.1701C132.437 24.1701 133.534 22.7362 133.534 22.7362V18.8564Z" fill="white"/>
<path d="M26.6663 20C26.6663 17.6622 26.2647 15.4185 25.5275 13.3333H25.5253C24.2708 9.78523 22.0441 6.69666 19.1651 4.38812C19.1601 4.38417 19.1551 4.38016 19.1501 4.37621C18.8693 4.15143 18.5822 3.93417 18.2892 3.72454C18.2769 3.7157 18.2645 3.70698 18.2521 3.6982C18.1111 3.59777 17.9689 3.49893 17.8252 3.40213C17.822 3.39994 17.8188 3.39774 17.8156 3.3956C17.6691 3.29704 17.5211 3.20051 17.3719 3.10579C17.3541 3.09454 17.3362 3.08345 17.3185 3.07226C17.1854 2.9883 17.0512 2.90592 16.916 2.82504C16.8976 2.814 16.8793 2.80281 16.8608 2.79183C16.7136 2.70441 16.5652 2.61891 16.4156 2.53523C16.3947 2.52348 16.3735 2.51207 16.3524 2.50043C16.2223 2.42821 16.0912 2.35759 15.9594 2.28828C15.9303 2.27302 15.9015 2.2576 15.8724 2.24251C15.7233 2.16508 15.5734 2.08923 15.4222 2.01553C15.4015 2.00544 15.3806 1.99578 15.36 1.98579C15.228 1.92197 15.0952 1.85979 14.9617 1.79882C14.9253 1.78219 14.889 1.76557 14.8525 1.74916C14.7006 1.68089 14.5479 1.61405 14.394 1.54946C14.3792 1.54326 14.3643 1.53744 14.3494 1.53124C14.2091 1.47279 14.0678 1.41616 13.9258 1.36084C13.8856 1.3452 13.8454 1.32962 13.8051 1.3142C13.6488 1.25449 13.4919 1.19594 13.3338 1.14001H13.3337C5.56584 3.88544 0 11.2921 0 20.0001C0 22.3379 0.402468 24.5814 1.13963 26.6668C3.88534 18.8992 11.292 13.3335 19.9997 13.3335C23.6816 13.3333 26.6663 16.318 26.6663 20Z" fill="url(#paint0_linear)"/>
<path d="M13.3421 20.3461C13.3363 20.2315 13.3331 20.116 13.3331 20C13.3331 19.9965 13.3339 19.9932 13.3339 19.9897C13.339 16.3129 16.3209 13.3335 19.9988 13.3334C19.72 13.3334 19.4425 13.3395 19.1666 13.3508H19.1665C18.6478 13.372 18.1344 13.4133 17.6267 13.4734C17.6229 13.4739 17.6189 13.4741 17.6149 13.4746C17.121 13.5333 16.633 13.6116 16.1507 13.7056C16.1293 13.7098 16.1074 13.7131 16.086 13.7173C15.6176 13.8103 15.1557 13.9213 14.6997 14.0463C14.6664 14.0555 14.6325 14.0635 14.5993 14.0729C14.1543 14.1974 13.7162 14.3386 13.2843 14.4926C13.2423 14.5075 13.1999 14.5215 13.1581 14.5367C12.7347 14.6909 12.3186 14.8603 11.909 15.0417C11.8623 15.0625 11.8151 15.0823 11.7686 15.1034C11.366 15.2855 10.971 15.4817 10.583 15.6892C10.5333 15.7158 10.4833 15.7418 10.4339 15.7688C10.0517 15.9774 9.67757 16.1988 9.3111 16.4311C9.26034 16.4633 9.20942 16.4953 9.15887 16.528C8.7968 16.7621 8.44289 17.0079 8.09733 17.2643C8.04789 17.301 7.99855 17.3378 7.94949 17.375C7.60712 17.6339 7.27347 17.9034 6.94881 18.1834C6.90173 18.224 6.85519 18.265 6.80838 18.3061C6.48626 18.5892 6.1728 18.8821 5.86944 19.1852C5.82675 19.2278 5.78465 19.2711 5.74234 19.3142C5.44003 19.6217 5.14682 19.9382 4.86464 20.2647C4.8276 20.3076 4.79166 20.3512 4.75489 20.3944C4.47293 20.7264 4.20052 21.0667 3.9404 21.4168C3.90956 21.4584 3.87982 21.5008 3.84931 21.5426C3.58864 21.8992 3.33802 22.2637 3.10079 22.6377C3.07713 22.675 3.05475 22.7134 3.0312 22.7509C2.7921 23.1335 2.56409 23.5237 2.35078 23.923C2.33492 23.9525 2.32038 23.9829 2.30463 24.0126C2.08814 24.423 1.88384 24.8407 1.6955 25.2673C1.68754 25.2853 1.68057 25.3037 1.67261 25.3217C1.47978 25.7622 1.30099 26.2103 1.13965 26.6667C3.88531 34.4343 11.292 40 19.9998 40C22.3375 40 25.833 40 28.3329 40C20.6685 37.2906 13.5302 28.9333 13.3421 20.3461Z" fill="url(#paint1_linear)"/>
<path d="M26.6663 20C26.6663 23.6279 23.7678 26.577 20.1604 26.6626C20.1723 26.6653 20.1345 26.6666 19.9998 26.6666H25.833C30.0448 26.6666 33.7979 28.6216 36.2414 31.6713C38.6058 28.3866 39.9994 24.3562 39.9994 20C39.9994 19.8396 39.9971 19.6798 39.9934 19.5203C39.9921 19.4663 39.9898 19.4125 39.9881 19.3585C39.9848 19.2536 39.9811 19.1487 39.9762 19.0441C39.9731 18.9792 39.9694 18.9144 39.9657 18.8497C39.9604 18.757 39.9547 18.6644 39.9481 18.5721C39.9431 18.502 39.9379 18.4321 39.9323 18.3623C39.9253 18.2764 39.9175 18.1907 39.9094 18.1051C39.9025 18.0316 39.8958 17.9581 39.8881 17.8848C39.8798 17.8055 39.8703 17.7266 39.861 17.6475C39.8518 17.5694 39.8433 17.4912 39.8332 17.4135C39.8321 17.4044 39.8306 17.3954 39.8294 17.3864C39.7985 17.15 39.7628 16.9151 39.7237 16.6813C39.7164 16.6378 39.7096 16.5941 39.7021 16.5508C39.6839 16.4463 39.6644 16.3423 39.6446 16.2383C39.6366 16.1965 39.6287 16.1545 39.6205 16.1127C39.5993 16.0051 39.5771 15.8979 39.5542 15.791C39.5469 15.757 39.5396 15.7232 39.5321 15.6894C39.5069 15.5745 39.4809 15.4598 39.4536 15.3456C39.4501 15.3309 39.4465 15.3163 39.4429 15.3017C37.3293 6.52315 29.4269 0 19.9998 0C17.662 0 15.4185 0.402473 13.3332 1.13965C21.1006 3.88534 26.6663 11.2921 26.6663 20Z" fill="url(#paint2_linear)"/>
<path d="M25.833 26.6666H19.9998C16.434 26.6666 13.5223 23.8671 13.3421 20.3461C13.5102 28.0199 19.2294 35.5064 25.9135 38.9465C26.0724 39.0283 26.2316 39.1081 26.3914 39.1854C26.4554 39.2163 26.5196 39.246 26.5837 39.2762C26.7298 39.3449 26.876 39.4128 27.0228 39.4776C27.124 39.5222 27.2256 39.5642 27.3272 39.6069C27.4406 39.6547 27.5538 39.7036 27.6675 39.7489C27.8888 39.8369 28.1106 39.9213 28.333 39.9999H39.1661C39.1661 32.6361 33.1967 26.6666 25.833 26.6666Z" fill="url(#paint3_linear)"/>
<defs>
<linearGradient id="paint0_linear" x1="18.8257" y1="3.13828" x2="9.19478" y2="29.5986" gradientUnits="userSpaceOnUse">
<stop stop-color="#EF3F3F"/>
<stop offset="1" stop-color="#F47623"/>
</linearGradient>
<linearGradient id="paint1_linear" x1="9.1158" y1="16.008" x2="19.0748" y2="43.3697" gradientUnits="userSpaceOnUse">
<stop stop-color="#EF3F3F"/>
<stop offset="1" stop-color="#F47623"/>
</linearGradient>
<linearGradient id="paint2_linear" x1="26.6663" y1="31.6713" x2="26.6663" y2="0" gradientUnits="userSpaceOnUse">
<stop stop-color="#EF3F3F"/>
<stop offset="1" stop-color="#F47623"/>
</linearGradient>
<linearGradient id="paint3_linear" x1="13.3421" y1="30.173" x2="39.1661" y2="30.173" gradientUnits="userSpaceOnUse">
<stop stop-color="#EF3F3F"/>
<stop offset="1" stop-color="#F47623"/>
</linearGradient>
</defs>
</svg>
