<svg width="883" height="314" viewBox="0 0 883 314" fill="none" xmlns="http://www.w3.org/2000/svg">
<g clip-path="url(#clip0_338_1129)">
<path d="M89.5672 309.431H0L100.912 4.17334H214.364L315.277 309.431H225.709L158.832 88.2384H156.444L89.5672 309.431ZM72.848 188.997H241.234V251.003H72.848V188.997Z" fill="url(#paint0_linear_338_1129)"/>
<path d="M520.487 104.932C519.193 99.6658 517.153 95.0452 514.366 91.0705C511.58 86.9964 508.097 83.5683 503.917 80.786C499.837 77.9043 495.06 75.7679 489.586 74.3767C484.212 72.8862 478.291 72.141 471.822 72.141C457.889 72.141 445.997 75.4698 436.144 82.1274C426.392 88.7851 418.928 98.374 413.753 110.894C408.677 123.415 406.139 138.519 406.139 156.206C406.139 174.092 408.578 189.395 413.454 202.114C418.331 214.833 425.595 224.571 435.249 231.328C444.902 238.085 456.894 241.464 471.225 241.464C483.864 241.464 494.363 239.625 502.723 235.949C511.182 232.272 517.501 227.055 521.681 220.298C525.861 213.541 527.932 207.082 527.932 197.94H472.419V138.916H607.964V181.247C607.964 209.07 602.043 232.868 590.2 252.642C578.457 272.317 562.235 287.421 541.535 297.954C520.935 308.388 497.299 313.604 470.628 313.604C440.872 313.604 414.748 307.295 392.257 294.675C369.765 282.055 352.2 264.07 339.561 240.718C327.022 217.367 320.752 189.594 320.752 157.398C320.752 132.159 324.584 109.801 332.247 90.3253C340.009 70.8492 350.757 54.4038 364.491 40.9892C378.224 27.4752 394.098 17.29 412.111 10.4336C430.124 3.47787 449.43 0 470.031 0C488.143 0 504.962 2.58356 520.487 7.75069C536.111 12.8184 549.895 20.0723 561.837 29.5122C573.879 38.8528 583.582 49.9323 590.946 62.7507C598.311 75.5691 602.789 89.6297 604.381 104.932H520.487Z" fill="url(#paint1_linear_338_1129)"/>
<path d="M616.351 70.9485V4.17334H882.067V70.9485H790.111V309.431H708.306V70.9485H616.351Z" fill="url(#paint2_linear_338_1129)"/>
</g>
<defs>
<linearGradient id="paint0_linear_338_1129" x1="96.5" y1="-0.00014456" x2="806.866" y2="313.17" gradientUnits="userSpaceOnUse">
<stop offset="0.0533112" stop-color="#ECDFD1"/>
<stop offset="0.58817" stop-color="#D57C9B"/>
<stop offset="0.884958" stop-color="#9D51B0"/>
<stop offset="1" stop-color="#491B72"/>
</linearGradient>
<linearGradient id="paint1_linear_338_1129" x1="96.5" y1="-4.3831e-05" x2="806.866" y2="313.17" gradientUnits="userSpaceOnUse">
<stop offset="0.0533112" stop-color="#ECDFD1"/>
<stop offset="0.58817" stop-color="#D57C9B"/>
<stop offset="0.884958" stop-color="#9D51B0"/>
<stop offset="1" stop-color="#491B72"/>
</linearGradient>
<linearGradient id="paint2_linear_338_1129" x1="96.5" y1="-0.000162298" x2="806.866" y2="313.17" gradientUnits="userSpaceOnUse">
<stop offset="0.0533112" stop-color="#F7CFA7"/>
<stop offset="0.58817" stop-color="#F3C1C5"/>
<stop offset="0.884958" stop-color="#F092C4"/>
<stop offset="1" stop-color="#B155B5"/>
</linearGradient>
<clipPath id="clip0_338_1129">
<rect width="883" height="314" fill="white"/>
</clipPath>
</defs>
</svg>
