<svg width="526" height="189" viewBox="0 0 526 189" fill="none" xmlns="http://www.w3.org/2000/svg">
<path d="M58.4074 172.285C55.8519 180.718 48.0785 186.485 39.267 186.485H27.6962C14.0601 186.485 4.42232 173.138 8.71126 160.194L56.4149 16.2246C59.1267 8.04041 66.7781 2.51521 75.3999 2.51521H115.047C123.669 2.51521 131.32 8.04042 134.032 16.2246L181.736 160.194C186.025 173.138 176.387 186.485 162.751 186.485H151.18C142.369 186.485 134.595 180.718 132.04 172.285L96.1541 53.8691C96.0299 53.4591 95.6519 53.1787 95.2235 53.1787C94.7951 53.1787 94.4172 53.4591 94.2929 53.8691L58.4074 172.285ZM44.0048 132.587C44.0048 122.268 52.3701 113.903 62.6892 113.903H127.036C137.356 113.903 145.721 122.268 145.721 132.587C145.721 142.907 137.356 151.272 127.036 151.272H62.6892C52.3701 151.272 44.0048 142.907 44.0048 132.587Z" fill="black"/>
<path d="M314.232 63.2395C308.836 63.2395 304.449 59.3005 301.346 54.8855C299.663 52.4301 297.559 50.3641 295.034 48.6873C292.569 46.9506 289.684 45.663 286.378 44.8246C283.131 43.9263 279.554 43.4772 275.647 43.4772C267.231 43.4772 260.047 45.4834 254.095 49.4957C248.204 53.5081 243.695 59.2871 240.569 66.8327C237.503 74.3783 235.97 83.481 235.97 94.1407C235.97 104.92 237.443 114.143 240.389 121.808C243.335 129.473 247.723 135.342 253.554 139.414C259.386 143.487 266.629 145.523 275.286 145.523C282.921 145.523 289.263 144.415 294.313 142.199C299.423 139.983 303.24 136.839 305.765 132.767C309.897 126.102 303.184 119.293 295.342 119.293H292.774C283.514 119.293 276.008 111.786 276.008 102.526V101.507C276.008 91.6836 283.971 83.7205 293.794 83.7205H337.885C348.931 83.7205 357.885 92.6748 357.885 103.721V109.232C357.885 126 354.308 140.343 347.155 152.26C340.061 164.117 330.262 173.22 317.758 179.568C305.314 185.856 291.037 189 274.925 189C256.951 189 241.17 185.197 227.584 177.592C213.998 169.986 203.388 159.147 195.753 145.074C188.178 131 184.391 114.262 184.391 94.8593C184.391 79.6483 186.705 66.174 191.334 54.4363C196.023 42.6987 202.516 32.7876 210.812 24.7029C219.108 16.5585 228.696 10.4202 239.577 6.28802C250.458 2.09601 262.121 0 274.565 0C285.506 0 295.665 1.55704 305.044 4.67111C314.482 7.72528 322.808 12.097 330.022 17.7861C337.296 23.4154 343.157 30.0927 347.606 37.818C348.388 39.1775 349.117 40.5602 349.792 41.9661C354.928 52.6637 345.393 63.2395 333.527 63.2395H314.232Z" fill="black"/>
<path d="M385.491 42.7586C374.445 42.7586 365.491 33.6826 365.491 22.6369C365.491 11.5912 374.445 2.51521 385.491 2.51521H506C517.046 2.51521 526 11.5912 526 22.6369C526 33.6826 517.046 42.7586 506 42.7586H490.453C479.407 42.7586 470.453 51.7129 470.453 62.7586V166.485C470.453 177.53 461.499 186.485 450.453 186.485H441.038C429.992 186.485 421.038 177.53 421.038 166.485V62.7586C421.038 51.7129 412.083 42.7586 401.038 42.7586H385.491Z" fill="black"/>
</svg>
