<svg width="882" height="313" viewBox="0 0 882 313" fill="none" xmlns="http://www.w3.org/2000/svg">
<path d="M89.5604 308.835H0L100.905 4.1654H214.348L315.253 308.835H225.692L158.82 88.0685H156.432L89.5604 308.835ZM72.8425 188.633H241.216V250.519H72.8425V188.633Z" fill="black"/>
<path d="M520.447 104.73C519.154 99.4737 517.114 94.862 514.328 90.895C511.541 86.8287 508.058 83.4072 503.879 80.6302C499.799 77.7541 495.022 75.6218 489.549 74.2334C484.176 72.7457 478.255 72.0019 471.786 72.0019C457.855 72.0019 445.963 75.3243 436.111 81.9691C426.359 88.6139 418.896 98.1844 413.721 110.681C408.646 123.177 406.109 138.252 406.109 155.905C406.109 173.757 408.547 189.03 413.423 201.724C418.299 214.419 425.563 224.138 435.216 230.882C444.868 237.626 456.86 240.998 471.189 240.998C483.827 240.998 494.326 239.163 502.685 235.494C511.143 231.824 517.462 226.618 521.642 219.874C525.821 213.13 527.892 206.683 527.892 197.559H472.383V138.648H607.918V180.897C607.918 208.667 601.997 232.419 590.155 252.155C578.413 271.792 562.193 286.867 541.494 297.38C520.895 307.793 497.261 313 470.592 313C440.838 313 414.716 306.702 392.227 294.107C369.737 281.512 352.173 263.561 339.535 240.254C326.997 216.948 320.728 189.228 320.728 157.095C320.728 131.904 324.559 109.59 332.221 90.1511C339.983 70.7126 350.731 54.299 364.463 40.9102C378.196 27.4222 394.068 17.2567 412.079 10.4135C430.091 3.47116 449.396 0 469.995 0C488.106 0 504.924 2.57858 520.447 7.73575C536.071 12.7937 549.853 20.0336 561.795 29.4553C573.835 38.7779 583.538 49.836 590.902 62.6298C598.266 75.4235 602.744 89.4569 604.336 104.73H520.447Z" fill="black"/>
<path d="M616.304 70.8118V4.1654H882V70.8118H790.051V308.835H708.253V70.8118H616.304Z" fill="black"/>
</svg>
