<svg width="342" height="100" viewBox="0 0 342 100" fill="none" xmlns="http://www.w3.org/2000/svg">
<path d="M182.82 45.3138V62.8853C182.82 64.9939 181.132 66.5402 179.022 66.5402C176.772 66.5402 175.224 64.9939 175.224 62.8853V46.7196C175.224 42.7137 173.607 39.9721 169.036 39.9721C163.972 39.9721 162.005 42.7137 162.005 46.6496V62.8855C162.005 64.994 160.317 66.5403 158.207 66.5403C155.957 66.5403 154.409 64.994 154.409 62.8855V46.7196C154.409 42.7137 152.792 39.9721 148.221 39.9721C142.948 39.9721 141.19 43.0647 141.19 47.212V62.8856C141.19 64.9941 139.572 66.5405 137.392 66.5405C135.212 66.5405 133.594 64.9941 133.594 62.8856V37.3011C133.594 35.1925 135.282 33.5056 137.392 33.5056C139.502 33.5056 141.19 35.1925 141.19 37.3011C142.525 35.2624 145.479 33.0838 150.191 33.0838C155.956 33.0838 158.839 34.9113 160.597 37.6528C162.847 34.6302 165.871 33.0838 170.653 33.0838C180.217 33.084 182.82 39.1986 182.82 45.3138Z" fill="#3B3751"/>
<path d="M203.281 33.0849C215.165 33.0849 217.345 42.2221 217.345 47.0716C217.345 49.6725 217.345 52.6945 213.054 52.6945H195.685C195.685 57.7551 199.271 60.0748 203.913 60.0748C207.007 60.0748 209.186 59.0209 210.874 57.8963C211.648 57.4039 212.21 57.1228 213.124 57.1228C214.953 57.1228 216.43 58.5985 216.43 60.4266C216.43 61.5512 215.867 62.4646 215.235 63.0268C214.039 64.1514 210.311 66.893 203.913 66.893C194.138 66.893 188.092 61.6211 188.092 49.8829C188.091 39.1295 193.717 33.0849 203.281 33.0849ZM195.896 46.3693H209.82C209.82 42.9249 207.851 39.5511 203.281 39.5511C199.201 39.5512 196.247 41.8709 195.896 46.3693Z" fill="#3B3751"/>
<path d="M271.842 45.3148V62.8863C271.842 64.9949 270.154 66.5412 268.044 66.5412C265.794 66.5412 264.246 64.9949 264.246 62.8863V46.7206C264.246 42.7147 262.63 39.9731 258.058 39.9731C252.995 39.9731 251.027 42.7147 251.027 46.6506V62.8865C251.027 64.995 249.339 66.5413 247.229 66.5413C244.979 66.5413 243.431 64.995 243.431 62.8865V46.7206C243.431 42.7147 241.815 39.9731 237.243 39.9731C231.97 39.9731 230.212 43.0658 230.212 47.213V62.8866C230.212 64.9952 228.594 66.5415 226.414 66.5415C224.234 66.5415 222.616 64.9952 222.616 62.8866V37.3021C222.616 35.1935 224.304 33.5066 226.414 33.5066C228.524 33.5066 230.212 35.1935 230.212 37.3021C231.547 35.2634 234.501 33.0849 239.213 33.0849C244.979 33.0849 247.862 34.9123 249.619 37.6539C251.87 34.6312 254.894 33.0849 259.675 33.0849C269.239 33.085 271.842 39.1996 271.842 45.3148Z" fill="#3B3751"/>
<path d="M292.443 66.893C282.95 66.893 277.043 61.4805 277.043 50.0242C277.043 38.4972 282.95 33.0849 292.443 33.0849C301.937 33.0849 307.844 38.4973 307.844 50.0242C307.844 61.4805 301.937 66.893 292.443 66.893ZM292.443 39.5512C287.38 39.5512 284.707 43.0656 284.707 50.0242C284.707 56.9117 287.38 60.4266 292.443 60.4266C297.506 60.4266 300.179 56.9117 300.179 50.0242C300.179 43.0655 297.506 39.5512 292.443 39.5512Z" fill="#3B3751"/>
<path d="M311.99 49.9536C311.99 38.4972 317.545 33.0849 327.038 33.0849C335.547 33.0849 341.595 37.7938 341.595 47.1422V76.3108C341.595 78.42 339.907 80.107 337.797 80.107C335.688 80.107 334 78.42 334 76.3108V64.0816C332.594 65.4873 329.64 66.8931 326.264 66.8931C317.405 66.893 311.99 61.41 311.99 49.9536ZM334 47.1421C334 42.292 331.118 39.5511 327.038 39.5511C322.187 39.5511 319.514 43.0655 319.514 49.9535C319.514 56.9115 322.257 60.4265 327.038 60.4265C331.258 60.4265 334 56.8416 334 56.8416V47.1421Z" fill="#3B3751"/>
<path d="M66.6988 49.9992C66.6988 44.1548 65.6942 38.5455 63.8504 33.3325H63.8448C60.707 24.4624 55.1377 16.7409 47.9364 10.9696C47.9239 10.9597 47.9116 10.9497 47.8991 10.9398C47.1966 10.3779 46.4785 9.8347 45.7458 9.31062C45.7149 9.28853 45.6839 9.26672 45.653 9.24477C45.3002 8.9937 44.9446 8.74662 44.5851 8.50461C44.5771 8.49912 44.5692 8.49363 44.5611 8.48828C44.1947 8.24188 43.8244 8.00055 43.4512 7.76376C43.4068 7.73563 43.3621 7.70792 43.3176 7.67993C42.9848 7.47002 42.6492 7.26409 42.311 7.06187C42.2648 7.03429 42.2191 7.00631 42.1729 6.97887C41.8047 6.76032 41.4336 6.54657 41.0594 6.33735C41.007 6.30799 40.954 6.27945 40.9013 6.25037C40.5758 6.06982 40.2481 5.89325 39.9182 5.71997C39.8456 5.68183 39.7734 5.64328 39.7007 5.60555C39.3279 5.41197 38.9527 5.22237 38.5746 5.03812C38.523 5.01287 38.4707 4.98873 38.4189 4.96376C38.089 4.8042 37.7568 4.64876 37.4228 4.49634C37.3318 4.45477 37.241 4.4132 37.1497 4.37218C36.7696 4.20151 36.3877 4.0344 36.0027 3.87293C35.9658 3.85742 35.9285 3.84288 35.8914 3.82738C35.5403 3.68127 35.1869 3.53968 34.8318 3.40139C34.7313 3.36229 34.6307 3.32333 34.5298 3.28477C34.1389 3.13551 33.7464 2.98912 33.351 2.84932H33.3507C13.9215 9.71287 0 28.2296 0 49.9996C0 55.844 1.00667 61.4528 2.85049 66.6662C9.71818 47.2473 28.2439 33.3329 50.024 33.3329C59.2332 33.3325 66.6988 40.7944 66.6988 49.9992Z" fill="#F47623"/>
<path d="M33.3717 50.8651C33.3572 50.5785 33.3492 50.29 33.3492 49.9998C33.3492 49.9911 33.3511 49.983 33.3511 49.9742C33.364 40.782 40.8223 33.3337 50.0217 33.3333C49.3244 33.3333 48.6304 33.3486 47.9401 33.3768H47.9399C46.6426 33.4299 45.3584 33.5332 44.0886 33.6834C44.079 33.6845 44.0691 33.6852 44.0591 33.6865C42.8236 33.8333 41.6031 34.0288 40.3967 34.2639C40.3432 34.2745 40.2885 34.2826 40.235 34.2931C39.0634 34.5255 37.908 34.8031 36.7674 35.1158C36.6841 35.1387 36.5994 35.1587 36.5163 35.182C35.4033 35.4933 34.3074 35.8463 33.227 36.2313C33.1222 36.2686 33.0161 36.3036 32.9115 36.3416C31.8524 36.7271 30.8117 37.1506 29.7873 37.6042C29.6705 37.6561 29.5524 37.7057 29.436 37.7584C28.4291 38.2137 27.4411 38.7041 26.4707 39.2228C26.3463 39.2893 26.2213 39.3545 26.0976 39.422C25.1417 39.9435 24.2059 40.4969 23.2892 41.0777C23.1623 41.1581 23.0349 41.2382 22.9085 41.3198C22.0028 41.9052 21.1176 42.5196 20.2533 43.1606C20.1296 43.2523 20.0062 43.3444 19.8835 43.4373C19.0272 44.0846 18.1926 44.7585 17.3806 45.4583C17.2628 45.5598 17.1464 45.6624 17.0293 45.7651C16.2236 46.4728 15.4396 47.2052 14.6808 47.9628C14.574 48.0694 14.4687 48.1776 14.3629 48.2853C13.6067 49.0542 12.8734 49.8453 12.1676 50.6617C12.0749 50.7688 11.985 50.878 11.893 50.986C11.1878 51.8159 10.5064 52.6667 9.85583 53.5419C9.77869 53.6458 9.70429 53.7518 9.62798 53.8564C8.97599 54.7479 8.34912 55.6591 7.75574 56.5941C7.69658 56.6875 7.64058 56.7833 7.5817 56.8772C6.98365 57.8336 6.41334 58.8091 5.8798 59.8073C5.84014 59.8812 5.80376 59.9571 5.76437 60.0315C5.22287 61.0573 4.71186 62.1016 4.24078 63.168C4.22087 63.213 4.20344 63.2591 4.18354 63.3041C3.70121 64.4054 3.25401 65.5256 2.85046 66.6666C9.71802 86.0856 28.2439 99.9999 50.0242 99.9999C55.8713 99.9999 64.6144 99.9999 70.8674 99.9999C51.6968 93.2263 33.8421 72.3331 33.3717 50.8651Z" fill="#EF3F3F"/>
<path d="M66.699 49.9999C66.699 59.0698 59.449 66.4424 50.4262 66.6564C50.4558 66.6631 50.3613 66.6665 50.0243 66.6665H64.6147C75.1493 66.6665 84.5368 71.554 90.6485 79.1781C96.5626 70.9663 100.048 60.8905 100.048 49.9999C100.048 49.599 100.043 49.1995 100.033 48.8008C100.03 48.6657 100.024 48.5311 100.02 48.3962C100.012 48.1339 100.002 47.8716 99.9901 47.6103C99.9824 47.448 99.9731 47.2861 99.9639 47.1242C99.9507 46.8925 99.9363 46.661 99.9199 46.4301C99.9075 46.255 99.8945 46.0801 99.8803 45.9056C99.8629 45.6909 99.8433 45.4767 99.8232 45.2627C99.8059 45.0789 99.789 44.8952 99.7698 44.7119C99.749 44.5136 99.7252 44.3164 99.702 44.1187C99.6791 43.9236 99.6577 43.7281 99.6326 43.5338C99.6297 43.511 99.626 43.4885 99.623 43.4659C99.5458 42.8749 99.4563 42.2877 99.3586 41.7034C99.3403 41.5946 99.3234 41.4854 99.3045 41.377C99.2591 41.1156 99.2102 40.8556 99.1607 40.5958C99.1408 40.4911 99.1211 40.3863 99.1005 40.2818C99.0476 40.0127 98.992 39.7448 98.9347 39.4774C98.9165 39.3926 98.8981 39.3081 98.8794 39.2236C98.8163 38.9361 98.7512 38.6494 98.6831 38.3639C98.6743 38.3273 98.6653 38.2908 98.6564 38.2543C93.3698 16.3079 73.6039 0 50.0243 0C44.177 0 38.5655 1.00618 33.3496 2.84911C52.7779 9.71336 66.699 28.2302 66.699 49.9999Z" fill="#EF3F3F"/>
<path d="M64.6144 66.6667H50.0242C41.1054 66.6667 33.8223 59.668 33.3717 50.8657C33.7923 70.0499 48.0972 88.7663 64.8159 97.3666C65.2131 97.571 65.6115 97.7706 66.0112 97.9638C66.1712 98.041 66.3318 98.1154 66.4923 98.1907C66.8575 98.3626 67.2233 98.5323 67.5903 98.6943C67.8436 98.8057 68.0978 98.9108 68.3519 99.0174C68.6354 99.1369 68.9185 99.2592 69.2029 99.3725C69.7564 99.5924 70.3113 99.8035 70.8674 100H97.9638C97.9638 81.5906 83.0328 66.6667 64.6144 66.6667Z" fill="#F47623"/>
</svg>
