<svg width="342" height="100" viewBox="0 0 342 100" fill="none" xmlns="http://www.w3.org/2000/svg">
<path d="M182.799 45.3157V62.8873C182.799 64.9959 181.112 66.5422 179.002 66.5422C176.752 66.5422 175.204 64.9959 175.204 62.8873V46.7215C175.204 42.7156 173.588 39.974 169.016 39.974C163.954 39.974 161.987 42.7156 161.987 46.6515V62.8875C161.987 64.996 160.299 66.5424 158.189 66.5424C155.939 66.5424 154.391 64.996 154.391 62.8875V46.7215C154.391 42.7156 152.775 39.974 148.204 39.974C142.931 39.974 141.174 43.0666 141.174 47.2139V62.8876C141.174 64.9962 139.556 66.5425 137.376 66.5425C135.196 66.5425 133.579 64.9962 133.579 62.8876V37.3029C133.579 35.1944 135.266 33.5074 137.376 33.5074C139.486 33.5074 141.174 35.1944 141.174 37.3029C142.509 35.2642 145.463 33.0857 150.174 33.0857C155.939 33.0857 158.821 34.9131 160.579 37.6547C162.829 34.632 165.853 33.0857 170.634 33.0857C180.197 33.0858 182.799 39.2005 182.799 45.3157Z" fill="#3B3751"/>
<path d="M203.258 33.0831C215.14 33.0831 217.32 42.2204 217.32 47.0698C217.32 49.6708 217.32 52.6928 213.03 52.6928H195.663C195.663 57.7535 199.249 60.0732 203.89 60.0732C206.984 60.0732 209.163 59.0192 210.85 57.8947C211.624 57.4023 212.186 57.1212 213.1 57.1212C214.929 57.1212 216.405 58.5968 216.405 60.4249C216.405 61.5495 215.843 62.463 215.21 63.0252C214.015 64.1498 210.288 66.8914 203.89 66.8914C194.117 66.8914 188.07 61.6195 188.07 49.8812C188.07 39.1277 193.695 33.0831 203.258 33.0831ZM195.874 46.3675H209.796C209.796 42.9231 207.828 39.5493 203.258 39.5493C199.179 39.5495 196.225 41.8692 195.874 46.3675Z" fill="#3B3751"/>
<path d="M271.812 45.313V62.8847C271.812 64.9933 270.124 66.5396 268.014 66.5396C265.764 66.5396 264.216 64.9933 264.216 62.8847V46.7189C264.216 42.7129 262.6 39.9714 258.029 39.9714C252.966 39.9714 250.999 42.7129 250.999 46.6489V62.8849C250.999 64.9934 249.311 66.5397 247.201 66.5397C244.951 66.5397 243.404 64.9934 243.404 62.8849V46.7189C243.404 42.7129 241.788 39.9714 237.216 39.9714C231.944 39.9714 230.186 43.064 230.186 47.2113V62.885C230.186 64.9935 228.569 66.5399 226.389 66.5399C224.209 66.5399 222.591 64.9935 222.591 62.885V37.3003C222.591 35.1918 224.279 33.5048 226.389 33.5048C228.499 33.5048 230.186 35.1918 230.186 37.3003C231.521 35.2616 234.475 33.0831 239.186 33.0831C244.951 33.0831 247.834 34.9105 249.591 37.6521C251.841 34.6294 254.865 33.0831 259.646 33.0831C269.209 33.0832 271.812 39.1979 271.812 45.313Z" fill="#3B3751"/>
<path d="M292.41 66.8914C282.918 66.8914 277.012 61.4789 277.012 50.0225C277.012 38.4954 282.918 33.0831 292.41 33.0831C301.903 33.0831 307.809 38.4956 307.809 50.0225C307.809 61.4789 301.903 66.8914 292.41 66.8914ZM292.41 39.5495C287.348 39.5495 284.675 43.0639 284.675 50.0225C284.675 56.91 287.348 60.4249 292.41 60.4249C297.473 60.4249 300.145 56.91 300.145 50.0225C300.145 43.0637 297.473 39.5495 292.41 39.5495Z" fill="#3B3751"/>
<path d="M311.955 49.9519C311.955 38.4954 317.509 33.0831 327.001 33.0831C335.509 33.0831 341.556 37.792 341.556 47.1405V76.3093C341.556 78.4185 339.869 80.1054 337.759 80.1054C335.65 80.1054 333.962 78.4185 333.962 76.3093V64.08C332.556 65.4857 329.602 66.8915 326.227 66.8915C317.369 66.8914 311.955 61.4084 311.955 49.9519ZM333.963 47.1404C333.963 42.2902 331.08 39.5493 327.001 39.5493C322.15 39.5493 319.478 43.0637 319.478 49.9518C319.478 56.9099 322.22 60.4248 327.001 60.4248C331.22 60.4248 333.963 56.8399 333.963 56.8399V47.1404Z" fill="#3B3751"/>
<path d="M66.6913 50.0005C66.6913 44.1561 65.6868 38.5467 63.8432 33.3337H63.8376C60.7002 24.4635 55.1315 16.7421 47.931 10.9707C47.9185 10.9608 47.9062 10.9508 47.8937 10.9409C47.1913 10.379 46.4732 9.8358 45.7406 9.31171C45.7097 9.28962 45.6787 9.26781 45.6478 9.24586C45.2951 8.99479 44.9395 8.7477 44.5801 8.50569C44.5721 8.5002 44.5641 8.49472 44.556 8.48937C44.1897 8.24296 43.8194 8.00164 43.4463 7.76484C43.4019 7.73671 43.3572 7.709 43.3127 7.68101C42.9799 7.4711 42.6444 7.26517 42.3062 7.06295C42.2601 7.03537 42.2144 7.00738 42.1681 6.97994C41.8 6.76139 41.4289 6.54764 41.0548 6.33842C41.0024 6.30906 40.9494 6.28052 40.8967 6.25144C40.5713 6.07089 40.2435 5.89432 39.9137 5.72104C39.8411 5.6829 39.7689 5.64435 39.6962 5.60662C39.3234 5.41304 38.9483 5.22344 38.5702 5.03918C38.5186 5.01394 38.4663 4.98979 38.4146 4.96482C38.0847 4.80527 37.7525 4.64982 37.4186 4.4974C37.3276 4.45583 37.2368 4.41426 37.1455 4.37324C36.7655 4.20257 36.3836 4.03546 35.9987 3.87398C35.9618 3.85848 35.9244 3.84394 35.8874 3.82844C35.5363 3.68232 35.1829 3.54074 34.8278 3.40245C34.7274 3.36335 34.6268 3.32438 34.5259 3.28583C34.135 3.13656 33.7426 2.99017 33.3472 2.85037H33.347C13.9199 9.71397 0 28.2308 0 50.0009C0 55.8454 1.00656 61.4542 2.85017 66.6676C9.71708 47.2486 28.2408 33.3342 50.0184 33.3342C59.2266 33.3337 66.6913 40.7957 66.6913 50.0005Z" fill="url(#paint0_linear)"/>
<path d="M33.368 50.8649C33.3534 50.5783 33.3454 50.2898 33.3454 49.9996C33.3454 49.9909 33.3474 49.9828 33.3474 49.974C33.3603 40.7818 40.8178 33.3334 50.0161 33.333C49.3188 33.333 48.6249 33.3483 47.9347 33.3765H47.9345C46.6374 33.4296 45.3533 33.5329 44.0836 33.6832C44.074 33.6843 44.0641 33.6849 44.0541 33.6862C42.8188 33.833 41.5984 34.0285 40.3922 34.2636C40.3386 34.2742 40.284 34.2823 40.2305 34.2929C39.059 34.5253 37.9038 34.8028 36.7633 35.1155C36.68 35.1384 36.5953 35.1584 36.5122 35.1817C35.3993 35.493 34.3036 35.846 33.2233 36.231C33.1184 36.2683 33.0124 36.3033 32.9078 36.3413C31.8488 36.7268 30.8082 37.1504 29.7839 37.6039C29.6671 37.6558 29.5491 37.7054 29.4327 37.7581C28.4259 38.2135 27.438 38.7038 26.4677 39.2225C26.3433 39.2891 26.2183 39.3543 26.0947 39.4218C25.1389 39.9432 24.2031 40.4967 23.2866 41.0774C23.1597 41.1578 23.0323 41.2379 22.9059 41.3196C22.0004 41.905 21.1153 42.5193 20.251 43.1603C20.1274 43.2521 20.004 43.3442 19.8813 43.437C19.025 44.0843 18.1906 44.7582 17.3786 45.4581C17.2609 45.5596 17.1445 45.6622 17.0274 45.7648C16.2218 46.4726 15.4379 47.205 14.6792 47.9626C14.5724 48.0692 14.4671 48.1774 14.3613 48.2851C13.6052 49.0539 12.8719 49.8451 12.1662 50.6615C12.0736 50.7686 11.9837 50.8778 11.8917 50.9858C11.1866 51.8157 10.5053 52.6666 9.85473 53.5417C9.7776 53.6456 9.70321 53.7516 9.6269 53.8562C8.97499 54.7477 8.34819 55.6589 7.75488 56.5939C7.69573 56.6873 7.63974 56.7831 7.58086 56.8771C6.98288 57.8335 6.41263 58.8089 5.87916 59.8072C5.83949 59.8811 5.80312 59.957 5.76373 60.0313C5.2223 61.0571 4.71134 62.1015 4.24031 63.1679C4.22041 63.2129 4.20298 63.259 4.18308 63.304C3.7008 64.4053 3.25366 65.5254 2.85016 66.6665C9.71694 86.0856 28.2408 100 50.0185 100C55.865 100 64.6071 100 70.8594 100C51.691 93.2264 33.8383 72.3331 33.368 50.8649Z" fill="url(#paint1_linear)"/>
<path d="M66.6913 50.0002C66.6913 59.0702 59.4422 66.4428 50.4204 66.6568C50.4501 66.6635 50.3555 66.6669 50.0186 66.6669H64.6073C75.1407 66.6669 84.5272 71.5544 90.6381 79.1786C96.5516 70.9668 100.037 60.8909 100.037 50.0002C100.037 49.5993 100.031 49.1998 100.022 48.8011C100.019 48.666 100.013 48.5314 100.009 48.3965C100 48.1342 99.9911 47.8719 99.9787 47.6105C99.9711 47.4482 99.9617 47.2863 99.9525 47.1245C99.9394 46.8927 99.9249 46.6613 99.9085 46.4304C99.8961 46.2553 99.8831 46.0804 99.8689 45.9059C99.8515 45.6912 99.8319 45.477 99.8119 45.263C99.7946 45.0791 99.7777 44.8954 99.7585 44.7122C99.7376 44.5139 99.7139 44.3166 99.6907 44.1189C99.6677 43.9238 99.6463 43.7283 99.6212 43.5341C99.6183 43.5113 99.6146 43.4888 99.6116 43.4661C99.5345 42.8751 99.445 42.2879 99.3473 41.7036C99.329 41.5948 99.3121 41.4856 99.2932 41.3772C99.2478 41.1159 99.1989 40.8559 99.1494 40.596C99.1295 40.4913 99.1098 40.3865 99.0893 40.282C99.0363 40.0129 98.9807 39.745 98.9235 39.4776C98.9052 39.3928 98.8868 39.3083 98.8682 39.2238C98.805 38.9364 98.74 38.6496 98.6719 38.3641C98.6631 38.3275 98.6541 38.291 98.6451 38.2545C93.3591 16.308 73.5955 0 50.0186 0C44.1719 0 38.5611 1.00619 33.3458 2.84913C52.7718 9.71341 66.6913 28.2304 66.6913 50.0002Z" fill="url(#paint2_linear)"/>
<path d="M64.6071 66.6666H50.0185C41.1007 66.6666 33.8185 59.6678 33.3679 50.8654C33.7884 70.0498 48.0917 88.7662 64.8086 97.3666C65.2057 97.571 65.604 97.7706 66.0037 97.9638C66.1637 98.041 66.3243 98.1154 66.4847 98.1907C66.8499 98.3626 67.2157 98.5323 67.5827 98.6943C67.8359 98.8057 68.0901 98.9108 68.3441 99.0174C68.6277 99.1369 68.9107 99.2592 69.195 99.3725C69.7486 99.5924 70.3033 99.8035 70.8594 100H97.9527C97.9527 81.5905 83.0234 66.6666 64.6071 66.6666Z" fill="url(#paint3_linear)"/>
<defs>
<linearGradient id="paint0_linear" x1="47.0824" y1="7.84551" x2="23.012" y2="74.0028" gradientUnits="userSpaceOnUse">
<stop stop-color="#EF3F3F"/>
<stop offset="1" stop-color="#F47623"/>
</linearGradient>
<linearGradient id="paint1_linear" x1="22.7982" y1="40.0194" x2="47.6886" y2="108.43" gradientUnits="userSpaceOnUse">
<stop stop-color="#EF3F3F"/>
<stop offset="1" stop-color="#F47623"/>
</linearGradient>
<linearGradient id="paint2_linear" x1="66.6912" y1="79.1786" x2="66.6912" y2="0" gradientUnits="userSpaceOnUse">
<stop stop-color="#EF3F3F"/>
<stop offset="1" stop-color="#F47623"/>
</linearGradient>
<linearGradient id="paint3_linear" x1="33.3679" y1="75.4328" x2="97.9527" y2="75.4328" gradientUnits="userSpaceOnUse">
<stop stop-color="#EF3F3F"/>
<stop offset="1" stop-color="#F47623"/>
</linearGradient>
</defs>
</svg>
