<svg width="342" height="100" viewBox="0 0 342 100" fill="none" xmlns="http://www.w3.org/2000/svg">
<path d="M182.733 45.3123V62.8839C182.733 64.9925 181.046 66.5388 178.937 66.5388C176.687 66.5388 175.14 64.9925 175.14 62.8839V46.7181C175.14 42.7121 173.525 39.9706 168.955 39.9706C163.894 39.9706 161.928 42.7121 161.928 46.6481V62.8841C161.928 64.9926 160.241 66.539 158.132 66.539C155.882 66.539 154.335 64.9926 154.335 62.8841V46.7181C154.335 42.7121 152.72 39.9706 148.15 39.9706C142.88 39.9706 141.123 43.0632 141.123 47.2105V62.8842C141.123 64.9928 139.506 66.5391 137.326 66.5391C135.147 66.5391 133.53 64.9928 133.53 62.8842V37.2995C133.53 35.191 135.217 33.504 137.326 33.504C139.436 33.504 141.123 35.191 141.123 37.2995C142.457 35.2608 145.41 33.0823 150.119 33.0823C155.882 33.0823 158.764 34.9097 160.52 37.6513C162.77 34.6286 165.792 33.0823 170.572 33.0823C180.131 33.0824 182.733 39.1971 182.733 45.3123Z" fill="white"/>
<path d="M203.184 33.0838C215.062 33.0838 217.241 42.2211 217.241 47.0706C217.241 49.6715 217.241 52.6935 212.953 52.6935H195.592C195.592 57.7542 199.177 60.0739 203.816 60.0739C206.909 60.0739 209.087 59.02 210.774 57.8954C211.547 57.403 212.109 57.1219 213.023 57.1219C214.851 57.1219 216.327 58.5976 216.327 60.4257C216.327 61.5503 215.764 62.4637 215.132 63.026C213.938 64.1505 210.211 66.8921 203.816 66.8921C194.046 66.8921 188.002 61.6203 188.002 49.882C188.002 39.1285 193.625 33.0838 203.184 33.0838ZM195.803 46.3683H209.72C209.72 42.9238 207.752 39.5501 203.184 39.5501C199.107 39.5502 196.154 41.8699 195.803 46.3683Z" fill="white"/>
<path d="M271.713 45.3123V62.8839C271.713 64.9925 270.026 66.5388 267.917 66.5388C265.667 66.5388 264.12 64.9925 264.12 62.8839V46.7181C264.12 42.7121 262.505 39.9706 257.935 39.9706C252.874 39.9706 250.908 42.7121 250.908 46.6481V62.8841C250.908 64.9926 249.221 66.539 247.111 66.539C244.862 66.539 243.315 64.9926 243.315 62.8841V46.7181C243.315 42.7121 241.7 39.9706 237.13 39.9706C231.859 39.9706 230.103 43.0632 230.103 47.2105V62.8842C230.103 64.9928 228.486 66.5391 226.306 66.5391C224.127 66.5391 222.51 64.9928 222.51 62.8842V37.2995C222.51 35.191 224.197 33.504 226.306 33.504C228.416 33.504 230.103 35.191 230.103 37.2995C231.437 35.2608 234.39 33.0823 239.099 33.0823C244.862 33.0823 247.744 34.9097 249.5 37.6513C251.75 34.6286 254.772 33.0823 259.552 33.0823C269.111 33.0824 271.713 39.1971 271.713 45.3123Z" fill="white"/>
<path d="M292.304 66.8921C282.815 66.8921 276.911 61.4796 276.911 50.0233C276.911 38.4961 282.815 33.0838 292.304 33.0838C301.793 33.0838 307.697 38.4963 307.697 50.0233C307.697 61.4796 301.793 66.8921 292.304 66.8921ZM292.304 39.5502C287.243 39.5502 284.572 43.0646 284.572 50.0233C284.572 56.9108 287.243 60.4257 292.304 60.4257C297.364 60.4257 300.036 56.9108 300.036 50.0233C300.036 43.0645 297.364 39.5502 292.304 39.5502Z" fill="white"/>
<path d="M311.842 49.9511C311.842 38.4946 317.393 33.0823 326.882 33.0823C335.387 33.0823 341.432 37.7912 341.432 47.1397V76.3085C341.432 78.4177 339.745 80.1047 337.636 80.1047C335.528 80.1047 333.841 78.4177 333.841 76.3085V64.0792C332.435 65.4849 329.483 66.8907 326.109 66.8907C317.253 66.8906 311.842 61.4076 311.842 49.9511ZM333.841 47.1396C333.841 42.2894 330.96 39.5486 326.883 39.5486C322.033 39.5486 319.361 43.0629 319.361 49.951C319.361 56.9091 322.103 60.424 326.883 60.424C331.1 60.424 333.841 56.8391 333.841 56.8391V47.1396Z" fill="white"/>
<path opacity="0.8" d="M66.6671 50C66.6671 44.1556 65.663 38.5463 63.82 33.3332H63.8144C60.6781 24.463 55.1114 16.7415 47.9136 10.9702C47.9011 10.9603 47.8888 10.9503 47.8763 10.9404C47.1741 10.3784 46.4563 9.83528 45.724 9.3112C45.6931 9.28911 45.6621 9.26729 45.6312 9.24534C45.2787 8.99428 44.9232 8.74719 44.5639 8.50518C44.5559 8.49969 44.548 8.4942 44.5399 8.48885C44.1737 8.24245 43.8035 8.00112 43.4305 7.76432C43.3862 7.7362 43.3415 7.70848 43.297 7.6805C42.9643 7.47059 42.6289 7.26466 42.2908 7.06243C42.2447 7.03485 42.199 7.00687 42.1528 6.97943C41.7848 6.76088 41.4139 6.54713 41.0399 6.3379C40.9875 6.30854 40.9345 6.28001 40.8818 6.25092C40.5565 6.07037 40.2289 5.8938 39.8992 5.72052C39.8267 5.68238 39.7545 5.64383 39.6818 5.60611C39.3092 5.41252 38.9342 5.22292 38.5562 5.03867C38.5046 5.01342 38.4524 4.98928 38.4006 4.96431C38.0708 4.80475 37.7388 4.64931 37.405 4.49688C37.3141 4.45531 37.2232 4.41374 37.132 4.37272C36.7521 4.20205 36.3704 4.03494 35.9856 3.87347C35.9487 3.85796 35.9114 3.84342 35.8743 3.82792C35.5234 3.68181 35.1701 3.54022 34.8152 3.40193C34.7148 3.36283 34.6142 3.32386 34.5134 3.28531C34.1226 3.13604 33.7304 2.98966 33.3351 2.84985H33.3349C13.9149 9.71345 0 28.2303 0 50.0004C0 55.8449 1.00619 61.4537 2.84913 66.6671C9.71355 47.2481 28.2305 33.3337 50.0002 33.3337C59.2051 33.3333 66.6671 40.7952 66.6671 50Z" fill="white"/>
<path d="M33.3558 50.8649C33.3413 50.5783 33.3333 50.2898 33.3333 49.9996C33.3333 49.9909 33.3353 49.9828 33.3353 49.974C33.3482 40.7818 40.8029 33.3334 49.9979 33.333C49.3009 33.333 48.6073 33.3483 47.9173 33.3765H47.9171C46.6204 33.4296 45.3368 33.5329 44.0676 33.6831C44.058 33.6842 44.0481 33.6849 44.0381 33.6862C42.8032 33.833 41.5833 34.0285 40.3775 34.2636C40.324 34.2742 40.2694 34.2823 40.2159 34.2928C39.0448 34.5252 37.89 34.8028 36.7499 35.1155C36.6666 35.1384 36.582 35.1584 36.499 35.1817C35.3865 35.493 34.2911 35.846 33.2112 36.231C33.1064 36.2683 33.0004 36.3033 32.8958 36.3413C31.8372 36.7268 30.797 37.1503 29.7731 37.6039C29.6564 37.6558 29.5384 37.7054 29.422 37.7581C28.4156 38.2135 27.428 38.7038 26.4581 39.2225C26.3338 39.2891 26.2088 39.3542 26.0852 39.4217C25.1298 39.9432 24.1944 40.4967 23.2782 41.0774C23.1513 41.1578 23.0239 41.2379 22.8976 41.3196C21.9924 41.905 21.1076 42.5193 20.2437 43.1603C20.1201 43.2521 19.9967 43.3442 19.8741 43.437C19.0181 44.0843 18.184 44.7582 17.3723 45.4581C17.2546 45.5596 17.1383 45.6622 17.0212 45.7648C16.2159 46.4726 15.4323 47.205 14.6738 47.9626C14.5671 48.0692 14.4619 48.1774 14.3561 48.2851C13.6003 49.0539 12.8673 49.8451 12.1618 50.6615C12.0692 50.7686 11.9793 50.8778 11.8874 50.9858C11.1825 51.8157 10.5015 52.6666 9.85115 53.5417C9.77405 53.6456 9.69969 53.7516 9.62341 53.8562C8.97173 54.7477 8.34516 55.6589 7.75206 56.5939C7.69293 56.6874 7.63696 56.7831 7.5781 56.8771C6.98034 57.8335 6.4103 58.8089 5.87702 59.8072C5.83737 59.8811 5.80101 59.957 5.76164 60.0313C5.2204 61.0571 4.70963 62.1015 4.23877 63.1679C4.21888 63.2129 4.20146 63.259 4.18156 63.304C3.69946 64.4053 3.25247 65.5255 2.84912 66.6665C9.71341 86.0857 28.2305 100 50.0004 100C55.8447 100 64.5837 100 70.8337 100C51.6722 93.2264 33.826 72.3331 33.3558 50.8649Z" fill="white"/>
<path d="M66.667 50.0002C66.667 59.0702 59.4205 66.4428 50.402 66.6568C50.4316 66.6635 50.3371 66.667 50.0003 66.667H64.5837C75.1133 66.667 84.4964 71.5544 90.6051 79.1786C96.5165 70.9668 100.001 60.8909 100.001 50.0002C100.001 49.5994 99.9948 49.1998 99.9853 48.8011C99.9821 48.666 99.9765 48.5314 99.9723 48.3966C99.9639 48.1342 99.9547 47.8719 99.9424 47.6106C99.9347 47.4483 99.9253 47.2864 99.9162 47.1245C99.903 46.8928 99.8886 46.6613 99.8721 46.4304C99.8598 46.2553 99.8467 46.0804 99.8326 45.9059C99.8152 45.6912 99.7956 45.477 99.7755 45.263C99.7582 45.0792 99.7414 44.8955 99.7222 44.7122C99.7013 44.5139 99.6776 44.3166 99.6544 44.1189C99.6315 43.9239 99.6101 43.7284 99.585 43.5341C99.5821 43.5113 99.5784 43.4888 99.5754 43.4662C99.4983 42.8751 99.4088 42.2879 99.3111 41.7036C99.2929 41.5948 99.276 41.4856 99.2571 41.3772C99.2117 41.1159 99.1628 40.8559 99.1133 40.5961C99.0934 40.4914 99.0738 40.3866 99.0532 40.282C99.0002 40.013 98.9447 39.745 98.8875 39.4776C98.8692 39.3929 98.8508 39.3083 98.8322 39.2238C98.7691 38.9364 98.704 38.6497 98.636 38.3642C98.6272 38.3275 98.6182 38.291 98.6092 38.2545C93.3252 16.308 73.5686 0 50.0003 0C44.1558 0 38.547 1.00619 33.3336 2.84913C52.7526 9.71342 66.667 28.2304 66.667 50.0002Z" fill="white"/>
<path opacity="0.8" d="M64.5837 66.6656H50.0004C41.0859 66.6656 33.8063 59.6669 33.3559 50.8645C33.7763 70.0489 48.0743 88.7653 64.7851 97.3657C65.1822 97.5701 65.5803 97.7697 65.9798 97.9629C66.1398 98.0401 66.3003 98.1145 66.4607 98.1898C66.8258 98.3617 67.1914 98.5314 67.5582 98.6934C67.8114 98.8048 68.0654 98.9099 68.3194 99.0165C68.6028 99.136 68.8857 99.2583 69.17 99.3716C69.7233 99.5915 70.2779 99.8027 70.8338 99.9991H97.9172C97.9172 81.5896 82.9934 66.6656 64.5837 66.6656Z" fill="white"/>
</svg>
