<svg width="100" height="100" viewBox="0 0 100 100" fill="none" xmlns="http://www.w3.org/2000/svg">
<path d="M66.6662 49.9998C66.6662 44.1555 65.6621 38.5462 63.8192 33.3333H63.8135C60.6773 24.4632 55.1107 16.7418 47.913 10.9705C47.9005 10.9606 47.8881 10.9506 47.8757 10.9407C47.1735 10.3788 46.4557 9.83565 45.7234 9.31157C45.6925 9.28948 45.6615 9.26766 45.6306 9.24571C45.278 8.99465 44.9226 8.74757 44.5633 8.50556C44.5553 8.50007 44.5473 8.49458 44.5393 8.48923C44.1731 8.24283 43.8029 8.00151 43.4299 7.76471C43.3856 7.73659 43.3409 7.70887 43.2964 7.68089C42.9637 7.47098 42.6283 7.26505 42.2902 7.06283C42.2442 7.03525 42.1985 7.00727 42.1522 6.97983C41.7843 6.76128 41.4133 6.54753 41.0393 6.33831C40.9869 6.30895 40.934 6.28042 40.8813 6.25133C40.556 6.07079 40.2284 5.89422 39.8987 5.72094C39.8261 5.6828 39.754 5.64425 39.6812 5.60653C39.3086 5.41295 38.9337 5.22334 38.5557 5.03909C38.5041 5.01385 38.4519 4.9897 38.4001 4.96474C38.0703 4.80518 37.7383 4.64974 37.4045 4.49732C37.3136 4.45575 37.2227 4.41418 37.1315 4.37316C36.7516 4.20249 36.3699 4.03539 35.9851 3.87391C35.9482 3.85841 35.9109 3.84387 35.8739 3.82836C35.5229 3.68225 35.1696 3.54067 34.8147 3.40238C34.7143 3.36328 34.6137 3.32431 34.5129 3.28576C34.1222 3.1365 33.7299 2.99011 33.3347 2.85031H33.3344C13.9147 9.71382 0 28.2304 0 50.0002C0 55.8446 1.00618 61.4534 2.84909 66.6667C9.71342 47.248 28.2301 33.3337 49.9995 33.3337C59.2043 33.3333 66.6662 40.7951 66.6662 49.9998Z" fill="url(#paint0_linear)"/>
<path d="M33.3555 50.8656C33.3409 50.579 33.333 50.2905 33.333 50.0003C33.333 49.9916 33.3349 49.9835 33.3349 49.9747C33.3478 40.7826 40.8025 33.3344 49.9973 33.334C49.3004 33.334 48.6067 33.3492 47.9168 33.3774H47.9165C46.6199 33.4305 45.3363 33.5338 44.0671 33.6841C44.0575 33.6852 44.0476 33.6859 44.0376 33.6871C42.8027 33.8339 41.5828 34.0294 40.377 34.2645C40.3235 34.2751 40.2689 34.2832 40.2154 34.2938C39.0443 34.5262 37.8896 34.8037 36.7495 35.1164C36.6662 35.1393 36.5816 35.1593 36.4986 35.1826C35.3861 35.4939 34.2907 35.8469 33.2109 36.2319C33.1061 36.2692 33 36.3042 32.8955 36.3422C31.8369 36.7277 30.7967 37.1512 29.7728 37.6048C29.6561 37.6566 29.5381 37.7063 29.4217 37.759C28.4153 38.2143 27.4278 38.7047 26.4578 39.2234C26.3335 39.2899 26.2085 39.3551 26.0849 39.4226C25.1295 39.9441 24.1941 40.4975 23.2779 41.0782C23.151 41.1586 23.0237 41.2388 22.8974 41.3204C21.9922 41.9058 21.1074 42.5201 20.2435 43.1611C20.1199 43.2529 19.9966 43.3449 19.8739 43.4378C19.018 44.0851 18.1838 44.759 17.3722 45.4588C17.2545 45.5603 17.1381 45.663 17.0211 45.7656C16.2158 46.4734 15.4321 47.2057 14.6737 47.9633C14.567 48.0699 14.4618 48.1781 14.356 48.2858C13.6002 49.0547 12.8672 49.8459 12.1617 50.6622C12.0691 50.7693 11.9793 50.8785 11.8873 50.9865C11.1824 51.8164 10.5014 52.6672 9.85112 53.5424C9.77401 53.6462 9.69965 53.7523 9.62338 53.8568C8.97171 54.7483 8.34515 55.6596 7.75206 56.5945C7.69293 56.688 7.63696 56.7837 7.5781 56.8777C6.98035 57.8341 6.41031 58.8095 5.87704 59.8077C5.83739 59.8817 5.80103 59.9575 5.76166 60.0319C5.22043 61.0577 4.70966 62.102 4.23881 63.1684C4.21892 63.2134 4.2015 63.2595 4.1816 63.3045C3.69951 64.4058 3.25253 65.5259 2.84918 66.667C9.71337 86.0859 28.2302 100 49.9998 100C55.8441 100 64.5829 100 70.8328 100C51.6716 93.2265 33.8256 72.3335 33.3555 50.8656Z" fill="url(#paint1_linear)"/>
<path d="M66.6662 49.9995C66.6662 59.0694 59.4198 66.4419 50.4014 66.6559C50.431 66.6626 50.3365 66.6661 49.9997 66.6661H64.5829C75.1124 66.6661 84.4953 71.5534 90.604 79.1775C96.5152 70.9658 99.9993 60.8901 99.9993 49.9995C99.9993 49.5987 99.9935 49.1992 99.984 48.8005C99.9809 48.6653 99.9752 48.5308 99.971 48.3959C99.9626 48.1336 99.9534 47.8713 99.9411 47.6099C99.9334 47.4476 99.9241 47.2857 99.9149 47.1238C99.9017 46.8921 99.8873 46.6607 99.8708 46.4298C99.8585 46.2547 99.8455 46.0798 99.8313 45.9053C99.8139 45.6906 99.7943 45.4764 99.7743 45.2624C99.757 45.0786 99.7401 44.8949 99.7209 44.7116C99.7 44.5133 99.6763 44.316 99.6531 44.1183C99.6302 43.9232 99.6088 43.7277 99.5837 43.5335C99.5808 43.5107 99.5771 43.4882 99.5741 43.4656C99.497 42.8745 99.4075 42.2874 99.3099 41.703C99.2916 41.5943 99.2747 41.485 99.2558 41.3767C99.2104 41.1153 99.1616 40.8553 99.112 40.5955C99.0921 40.4908 99.0725 40.386 99.0519 40.2815C98.999 40.0124 98.9434 39.7445 98.8862 39.4771C98.868 39.3923 98.8496 39.3078 98.8309 39.2233C98.7678 38.9359 98.7028 38.6491 98.6347 38.3636C98.6259 38.327 98.6169 38.2905 98.608 38.254C93.324 16.3077 73.5677 0 49.9997 0C44.1553 0 38.5465 1.00618 33.3332 2.84909C52.7519 9.71328 66.6662 28.23 66.6662 49.9995Z" fill="url(#paint2_linear)"/>
<path d="M64.5827 66.6655H49.9996C41.0852 66.6655 33.8057 59.6669 33.3553 50.8646C33.7756 70.0487 48.0735 88.7649 64.7841 97.3651C65.1811 97.5696 65.5792 97.7692 65.9787 97.9623C66.1387 98.0396 66.2992 98.1139 66.4596 98.1893C66.8247 98.3612 67.1903 98.5309 67.5572 98.6929C67.8103 98.8043 68.0644 98.9094 68.3183 99.016C68.6017 99.1355 68.8846 99.2577 69.1689 99.371C69.7222 99.591 70.2767 99.8021 70.8326 99.9986H97.9157C97.9157 81.5893 82.9921 66.6655 64.5827 66.6655Z" fill="url(#paint3_linear)"/>
<defs>
<linearGradient id="paint0_linear" x1="47.0646" y1="7.84593" x2="22.9877" y2="73.9966" gradientUnits="userSpaceOnUse">
<stop stop-color="#CFCFCF"/>
<stop offset="1" stop-color="white"/>
</linearGradient>
<linearGradient id="paint1_linear" x1="22.7897" y1="40.0203" x2="47.6867" y2="108.425" gradientUnits="userSpaceOnUse">
<stop stop-color="#CFCFCF"/>
<stop offset="1" stop-color="white"/>
</linearGradient>
<linearGradient id="paint2_linear" x1="66.6662" y1="79.1775" x2="66.6662" y2="0" gradientUnits="userSpaceOnUse">
<stop stop-color="#CFCFCF"/>
<stop offset="1" stop-color="white"/>
</linearGradient>
<linearGradient id="paint3_linear" x1="33.3553" y1="75.4316" x2="97.9157" y2="75.4316" gradientUnits="userSpaceOnUse">
<stop stop-color="#CFCFCF"/>
<stop offset="1" stop-color="white"/>
</linearGradient>
</defs>
</svg>
