<svg width="342" height="100" viewBox="0 0 342 100" fill="none" xmlns="http://www.w3.org/2000/svg">
<path d="M182.731 45.3131V62.8845C182.731 64.993 181.044 66.5394 178.934 66.5394C176.685 66.5394 175.138 64.993 175.138 62.8845V46.7189C175.138 42.713 173.523 39.9714 168.953 39.9714C163.892 39.9714 161.926 42.713 161.926 46.6489V62.8847C161.926 64.9932 160.239 66.5395 158.13 66.5395C155.88 66.5395 154.333 64.9932 154.333 62.8847V46.7189C154.333 42.713 152.718 39.9714 148.148 39.9714C142.878 39.9714 141.121 43.064 141.121 47.2113V62.8848C141.121 64.9933 139.504 66.5396 137.325 66.5396C135.146 66.5396 133.529 64.9933 133.529 62.8848V37.3004C133.529 35.1919 135.215 33.505 137.325 33.505C139.434 33.505 141.121 35.1919 141.121 37.3004C142.455 35.2617 145.408 33.0832 150.117 33.0832C155.88 33.0832 158.762 34.9106 160.519 37.6522C162.768 34.6295 165.79 33.0832 170.57 33.0832C180.129 33.0834 182.731 39.1979 182.731 45.3131Z" fill="white"/>
<path d="M203.181 33.0835C215.06 33.0835 217.239 42.2208 217.239 47.0701C217.239 49.671 217.239 52.693 212.95 52.693H195.589C195.589 57.7537 199.174 60.0733 203.814 60.0733C206.906 60.0733 209.084 59.0194 210.771 57.8948C211.545 57.4024 212.107 57.1213 213.02 57.1213C214.848 57.1213 216.324 58.597 216.324 60.4251C216.324 61.5497 215.762 62.4631 215.129 63.0253C213.935 64.1499 210.209 66.8914 203.814 66.8914C194.044 66.8914 188 61.6196 188 49.8815C188 39.1281 193.622 33.0835 203.181 33.0835ZM195.8 46.3678H209.718C209.718 42.9235 207.75 39.5497 203.181 39.5497C199.104 39.5499 196.151 41.8695 195.8 46.3678Z" fill="white"/>
<path d="M271.709 45.3134V62.8848C271.709 64.9934 270.023 66.5397 267.913 66.5397C265.664 66.5397 264.117 64.9934 264.117 62.8848V46.7192C264.117 42.7133 262.502 39.9717 257.932 39.9717C252.871 39.9717 250.905 42.7133 250.905 46.6492V62.885C250.905 64.9935 249.218 66.5398 247.108 66.5398C244.859 66.5398 243.312 64.9935 243.312 62.885V46.7192C243.312 42.7133 241.697 39.9717 237.127 39.9717C231.857 39.9717 230.1 43.0644 230.1 47.2116V62.8851C230.1 64.9936 228.483 66.5399 226.304 66.5399C224.124 66.5399 222.507 64.9936 222.507 62.8851V37.3007C222.507 35.1922 224.194 33.5053 226.304 33.5053C228.413 33.5053 230.1 35.1922 230.1 37.3007C231.434 35.262 234.387 33.0835 239.096 33.0835C244.859 33.0835 247.741 34.9109 249.497 37.6525C251.747 34.6298 254.769 33.0835 259.549 33.0835C269.108 33.0837 271.709 39.1982 271.709 45.3134Z" fill="white"/>
<path d="M292.3 66.8914C282.811 66.8914 276.907 61.479 276.907 50.0228C276.907 38.4958 282.811 33.0835 292.3 33.0835C301.789 33.0835 307.693 38.4959 307.693 50.0228C307.693 61.479 301.789 66.8914 292.3 66.8914ZM292.3 39.5499C287.24 39.5499 284.568 43.0642 284.568 50.0228C284.568 56.9102 287.24 60.4251 292.3 60.4251C297.361 60.4251 300.033 56.9102 300.033 50.0228C300.033 43.0641 297.361 39.5499 292.3 39.5499Z" fill="white"/>
<path d="M311.838 49.9522C311.838 38.4958 317.39 33.0835 326.878 33.0835C335.383 33.0835 341.428 37.7924 341.428 47.1408V76.3092C341.428 78.4184 339.741 80.1054 337.632 80.1054C335.524 80.1054 333.837 78.4184 333.837 76.3092V64.0801C332.431 65.4857 329.479 66.8916 326.105 66.8916C317.25 66.8914 311.838 61.4085 311.838 49.9522ZM333.837 47.1406C333.837 42.2906 330.956 39.5497 326.879 39.5497C322.029 39.5497 319.358 43.0641 319.358 49.952C319.358 56.9101 322.099 60.4249 326.879 60.4249C331.096 60.4249 333.837 56.8401 333.837 56.8401V47.1406Z" fill="white"/>
<path d="M66.6663 49.9996C66.6663 44.1553 65.6622 38.546 63.8193 33.3331H63.8136C60.6774 24.4629 55.1108 16.7416 47.913 10.9702C47.9006 10.9604 47.8882 10.9504 47.8757 10.9405C47.1736 10.3785 46.4558 9.83538 45.7234 9.3113C45.6926 9.28921 45.6616 9.2674 45.6307 9.24545C45.2781 8.99438 44.9226 8.7473 44.5633 8.50529C44.5554 8.4998 44.5474 8.49431 44.5393 8.48896C44.1731 8.24256 43.803 8.00124 43.43 7.76444C43.3857 7.73632 43.3409 7.70861 43.2965 7.68062C42.9638 7.47071 42.6283 7.26478 42.2903 7.06256C42.2442 7.03499 42.1985 7.007 42.1523 6.97956C41.7843 6.76101 41.4134 6.54726 41.0394 6.33804C40.987 6.30868 40.934 6.28015 40.8813 6.25106C40.556 6.07052 40.2284 5.89395 39.8987 5.72067C39.8262 5.68253 39.754 5.64398 39.6813 5.60625C39.3087 5.41267 38.9337 5.22307 38.5558 5.03882C38.5042 5.01358 38.4519 4.98943 38.4002 4.96446C38.0704 4.80491 37.7384 4.64947 37.4046 4.49704C37.3136 4.45548 37.2228 4.41391 37.1316 4.37289C36.7517 4.20222 36.37 4.03511 35.9852 3.87364C35.9483 3.85813 35.9109 3.84359 35.8739 3.82809C35.523 3.68198 35.1697 3.5404 34.8148 3.4021C34.7143 3.363 34.6138 3.32404 34.5129 3.28549C34.1222 3.13622 33.73 2.98984 33.3347 2.85004H33.3344C13.9147 9.71355 0 28.2301 0 50C0 55.8444 1.00618 61.4532 2.8491 66.6665C9.71343 47.2478 28.2302 33.3335 49.9996 33.3335C59.2043 33.3331 66.6663 40.7949 66.6663 49.9996Z" fill="url(#paint0_linear)"/>
<path d="M33.3555 50.8655C33.3409 50.5789 33.333 50.2904 33.333 50.0003C33.333 49.9915 33.3349 49.9834 33.3349 49.9746C33.3478 40.7825 40.8025 33.3343 49.9973 33.3339C49.3004 33.3339 48.6067 33.3491 47.9168 33.3774H47.9165C46.6199 33.4304 45.3363 33.5338 44.0671 33.684C44.0575 33.6851 44.0476 33.6858 44.0376 33.687C42.8027 33.8338 41.5828 34.0293 40.377 34.2644C40.3235 34.275 40.2689 34.2831 40.2154 34.2937C39.0443 34.5261 37.8896 34.8036 36.7495 35.1163C36.6662 35.1392 36.5816 35.1592 36.4986 35.1825C35.3861 35.4938 34.2907 35.8468 33.2109 36.2318C33.106 36.2691 33 36.3041 32.8954 36.3421C31.8369 36.7276 30.7967 37.1511 29.7728 37.6047C29.656 37.6566 29.538 37.7062 29.4217 37.7589C28.4153 38.2142 27.4277 38.7046 26.4578 39.2233C26.3335 39.2898 26.2085 39.355 26.0849 39.4225C25.1295 39.944 24.1941 40.4974 23.2779 41.0782C23.151 41.1586 23.0237 41.2387 22.8973 41.3203C21.9921 41.9057 21.1074 42.5201 20.2435 43.161C20.1199 43.2528 19.9965 43.3449 19.8739 43.4377C19.0179 44.085 18.1838 44.7589 17.3721 45.4588C17.2544 45.5603 17.1381 45.6629 17.0211 45.7655C16.2157 46.4733 15.4321 47.2056 14.6737 47.9632C14.5669 48.0698 14.4617 48.1781 14.3559 48.2858C13.6001 49.0546 12.8671 49.8458 12.1617 50.6621C12.0691 50.7692 11.9792 50.8784 11.8873 50.9864C11.1824 51.8163 10.5014 52.6672 9.85106 53.5423C9.77395 53.6462 9.6996 53.7522 9.62332 53.8568C8.97165 54.7483 8.34508 55.6595 7.752 56.5945C7.69287 56.6879 7.63689 56.7837 7.57804 56.8776C6.98028 57.834 6.41025 58.8095 5.87697 59.8077C5.83733 59.8816 5.80097 59.9575 5.76159 60.0318C5.22037 61.0576 4.7096 62.102 4.23875 63.1684C4.21885 63.2134 4.20143 63.2595 4.18154 63.3045C3.69944 64.4057 3.25246 65.5259 2.84911 66.6669C9.71331 86.0858 28.2302 100 49.9998 100C55.8441 100 64.5829 100 70.8329 100C51.6716 93.2265 33.8256 72.3334 33.3555 50.8655Z" fill="url(#paint1_linear)"/>
<path d="M66.6662 49.9996C66.6662 59.0695 59.4198 66.442 50.4014 66.656C50.431 66.6627 50.3365 66.6662 49.9997 66.6662H64.5829C75.1124 66.6662 84.4954 71.5535 90.604 79.1777C96.5153 70.9659 99.9993 60.8902 99.9993 49.9996C99.9993 49.5987 99.9935 49.1992 99.9841 48.8005C99.9809 48.6654 99.9753 48.5308 99.971 48.396C99.9627 48.1337 99.9535 47.8713 99.9411 47.61C99.9334 47.4477 99.9241 47.2858 99.9149 47.1239C99.9018 46.8922 99.8874 46.6607 99.8709 46.4298C99.8585 46.2548 99.8455 46.0799 99.8314 45.9054C99.814 45.6906 99.7943 45.4765 99.7743 45.2625C99.757 45.0786 99.7401 44.8949 99.7209 44.7116C99.7001 44.5134 99.6763 44.3161 99.6532 44.1184C99.6303 43.9233 99.6089 43.7278 99.5837 43.5335C99.5809 43.5108 99.5772 43.4883 99.5741 43.4656C99.497 42.8746 99.4076 42.2874 99.3099 41.7031C99.2917 41.5943 99.2748 41.4851 99.2559 41.3767C99.2104 41.1154 99.1616 40.8554 99.1121 40.5956C99.0922 40.4909 99.0726 40.3861 99.052 40.2815C98.999 40.0125 98.9435 39.7445 98.8863 39.4772C98.868 39.3924 98.8496 39.3079 98.831 39.2233C98.7679 38.9359 98.7028 38.6492 98.6348 38.3637C98.626 38.3271 98.6169 38.2906 98.608 38.2541C93.324 16.3078 73.5678 0 49.9997 0C44.1553 0 38.5465 1.00618 33.3332 2.8491C52.7519 9.7133 66.6662 28.23 66.6662 49.9996Z" fill="url(#paint2_linear)"/>
<path d="M64.5829 66.666H49.9997C41.0853 66.666 33.8058 59.6673 33.3554 50.865C33.7758 70.0492 48.0737 88.7654 64.7843 97.3656C65.1813 97.57 65.5794 97.7697 65.9789 97.9628C66.1389 98.0401 66.2994 98.1144 66.4598 98.1897C66.8249 98.3616 67.1905 98.5313 67.5574 98.6934C67.8105 98.8048 68.0646 98.9099 68.3185 99.0165C68.6019 99.136 68.8848 99.2582 69.1691 99.3715C69.7224 99.5914 70.2769 99.8026 70.8329 99.999H97.9159C97.9159 81.5897 82.9923 66.666 64.5829 66.666Z" fill="url(#paint3_linear)"/>
<defs>
<linearGradient id="paint0_linear" x1="47.0646" y1="7.84566" x2="22.9877" y2="73.9964" gradientUnits="userSpaceOnUse">
<stop stop-color="#EF3F3F"/>
<stop offset="1" stop-color="#F47623"/>
</linearGradient>
<linearGradient id="paint1_linear" x1="22.7896" y1="40.0203" x2="47.6867" y2="108.425" gradientUnits="userSpaceOnUse">
<stop stop-color="#EF3F3F"/>
<stop offset="1" stop-color="#F47623"/>
</linearGradient>
<linearGradient id="paint2_linear" x1="66.6662" y1="79.1777" x2="66.6662" y2="0" gradientUnits="userSpaceOnUse">
<stop stop-color="#EF3F3F"/>
<stop offset="1" stop-color="#F47623"/>
</linearGradient>
<linearGradient id="paint3_linear" x1="33.3554" y1="75.4321" x2="97.9159" y2="75.4321" gradientUnits="userSpaceOnUse">
<stop stop-color="#EF3F3F"/>
<stop offset="1" stop-color="#F47623"/>
</linearGradient>
</defs>
</svg>
