<svg width="342" height="100" viewBox="0 0 342 100" fill="none" xmlns="http://www.w3.org/2000/svg">
<path d="M182.73 45.3123V62.8838C182.73 64.9923 181.043 66.5386 178.934 66.5386C176.685 66.5386 175.138 64.9923 175.138 62.8838V46.7182C175.138 42.7123 173.522 39.9707 168.953 39.9707C163.892 39.9707 161.925 42.7123 161.925 46.6482V62.8839C161.925 64.9924 160.238 66.5387 158.129 66.5387C155.88 66.5387 154.333 64.9924 154.333 62.8839V46.7182C154.333 42.7123 152.717 39.9707 148.148 39.9707C142.877 39.9707 141.121 43.0633 141.121 47.2105V62.884C141.121 64.9925 139.504 66.5388 137.324 66.5388C135.145 66.5388 133.528 64.9925 133.528 62.884V37.2997C133.528 35.1912 135.215 33.5043 137.324 33.5043C139.434 33.5043 141.121 35.1912 141.121 37.2997C142.455 35.261 145.408 33.0825 150.117 33.0825C155.88 33.0825 158.761 34.9099 160.518 37.6515C162.767 34.6288 165.79 33.0825 170.569 33.0825C180.128 33.0827 182.73 39.1972 182.73 45.3123Z" fill="white"/>
<path d="M203.181 33.0825C215.059 33.0825 217.238 42.2197 217.238 47.0691C217.238 49.67 217.238 52.692 212.95 52.692H195.589C195.589 57.7526 199.174 60.0723 203.813 60.0723C206.906 60.0723 209.084 59.0183 210.771 57.8938C211.544 57.4014 212.106 57.1203 213.02 57.1203C214.848 57.1203 216.324 58.5959 216.324 60.424C216.324 61.5486 215.761 62.462 215.129 63.0242C213.934 64.1488 210.208 66.8903 203.813 66.8903C194.043 66.8903 187.999 61.6186 187.999 49.8805C187.999 39.1271 193.622 33.0825 203.181 33.0825ZM195.8 46.3668H209.717C209.717 42.9224 207.749 39.5487 203.181 39.5487C199.104 39.5489 196.151 41.8685 195.8 46.3668Z" fill="white"/>
<path d="M271.709 45.3123V62.8838C271.709 64.9923 270.022 66.5386 267.912 66.5386C265.663 66.5386 264.116 64.9923 264.116 62.8838V46.7182C264.116 42.7123 262.501 39.9707 257.931 39.9707C252.87 39.9707 250.904 42.7123 250.904 46.6482V62.8839C250.904 64.9924 249.217 66.5387 247.108 66.5387C244.859 66.5387 243.312 64.9924 243.312 62.8839V46.7182C243.312 42.7123 241.696 39.9707 237.126 39.9707C231.856 39.9707 230.099 43.0633 230.099 47.2105V62.884C230.099 64.9925 228.482 66.5388 226.303 66.5388C224.124 66.5388 222.507 64.9925 222.507 62.884V37.2997C222.507 35.1912 224.194 33.5043 226.303 33.5043C228.412 33.5043 230.099 35.1912 230.099 37.2997C231.434 35.261 234.386 33.0825 239.096 33.0825C244.858 33.0825 247.74 34.9099 249.497 37.6515C251.746 34.6288 254.768 33.0825 259.548 33.0825C269.107 33.0827 271.709 39.1972 271.709 45.3123Z" fill="white"/>
<path d="M292.299 66.8903C282.811 66.8903 276.907 61.4779 276.907 50.0218C276.907 38.4948 282.811 33.0825 292.299 33.0825C301.788 33.0825 307.692 38.4949 307.692 50.0218C307.692 61.4779 301.788 66.8903 292.299 66.8903ZM292.299 39.5489C287.239 39.5489 284.567 43.0632 284.567 50.0218C284.567 56.9091 287.239 60.424 292.299 60.424C297.36 60.424 300.032 56.9091 300.032 50.0218C300.032 43.0631 297.36 39.5489 292.299 39.5489Z" fill="white"/>
<path d="M311.837 49.9511C311.837 38.4948 317.389 33.0825 326.877 33.0825C335.382 33.0825 341.427 37.7914 341.427 47.1397V76.3081C341.427 78.4173 339.74 80.1042 337.631 80.1042C335.523 80.1042 333.836 78.4173 333.836 76.3081V64.079C332.43 65.4847 329.478 66.8905 326.104 66.8905C317.249 66.8903 311.837 61.4074 311.837 49.9511ZM333.836 47.1396C333.836 42.2896 330.955 39.5487 326.878 39.5487C322.028 39.5487 319.357 43.0631 319.357 49.951C319.357 56.909 322.098 60.4239 326.878 60.4239C331.095 60.4239 333.836 56.839 333.836 56.839V47.1396Z" fill="white"/>
<path d="M66.6661 49.9997C66.6661 44.1554 65.662 38.5462 63.8191 33.3332H63.8134C60.6772 24.4632 55.1106 16.7418 47.9129 10.9705C47.9004 10.9606 47.8881 10.9506 47.8756 10.9407C47.1734 10.3788 46.4556 9.83563 45.7233 9.31156C45.6924 9.28947 45.6614 9.26766 45.6306 9.2457C45.278 8.99464 44.9225 8.74756 44.5632 8.50555C44.5552 8.50006 44.5473 8.49457 44.5392 8.48922C44.173 8.24282 43.8029 8.0015 43.4298 7.7647C43.3855 7.73658 43.3408 7.70887 43.2964 7.68088C42.9637 7.47097 42.6282 7.26505 42.2902 7.06282C42.2441 7.03525 42.1984 7.00726 42.1522 6.97982C41.7842 6.76127 41.4132 6.54753 41.0393 6.33831C40.9868 6.30895 40.9339 6.28041 40.8812 6.25133C40.5559 6.07078 40.2283 5.89421 39.8986 5.72094C39.8261 5.6828 39.7539 5.64425 39.6812 5.60652C39.3086 5.41294 38.9336 5.22334 38.5556 5.03909C38.5041 5.01385 38.4518 4.9897 38.4001 4.96473C38.0703 4.80518 37.7382 4.64974 37.4045 4.49731C37.3135 4.45575 37.2227 4.41418 37.1314 4.37316C36.7516 4.20249 36.3699 4.03538 35.9851 3.87391C35.9482 3.85841 35.9108 3.84386 35.8738 3.82836C35.5229 3.68225 35.1696 3.54067 34.8147 3.40238C34.7142 3.36328 34.6137 3.32431 34.5128 3.28576C34.1221 3.1365 33.7299 2.99011 33.3346 2.85031H33.3344C13.9147 9.71381 0 28.2303 0 50.0001C0 55.8446 1.00617 61.4533 2.84909 66.6666C9.71341 47.2479 28.2301 33.3337 49.9995 33.3337C59.2042 33.3332 66.6661 40.795 66.6661 49.9997Z" fill="#F47623"/>
<path d="M33.3554 50.8657C33.3408 50.5791 33.3329 50.2906 33.3329 50.0004C33.3329 49.9916 33.3348 49.9835 33.3348 49.9747C33.3477 40.7827 40.8023 33.3345 49.9972 33.334C49.3002 33.334 48.6066 33.3493 47.9166 33.3775H47.9163C46.6197 33.4306 45.3362 33.5339 44.067 33.6842C44.0574 33.6853 44.0475 33.6859 44.0375 33.6872C42.8026 33.834 41.5827 34.0295 40.3769 34.2646C40.3234 34.2752 40.2688 34.2833 40.2153 34.2938C39.0442 34.5263 37.8895 34.8038 36.7494 35.1165C36.6661 35.1394 36.5815 35.1594 36.4984 35.1827C35.3859 35.494 34.2906 35.847 33.2108 36.232C33.1059 36.2693 32.9999 36.3043 32.8954 36.3423C31.8368 36.7278 30.7966 37.1513 29.7727 37.6049C29.6559 37.6567 29.538 37.7064 29.4216 37.7591C28.4152 38.2144 27.4277 38.7047 26.4577 39.2235C26.3334 39.29 26.2084 39.3552 26.0848 39.4227C25.1294 39.9441 24.194 40.4976 23.2778 41.0783C23.1509 41.1587 23.0236 41.2388 22.8973 41.3205C21.9921 41.9059 21.1073 42.5202 20.2434 43.1612C20.1198 43.253 19.9965 43.345 19.8738 43.4379C19.0179 44.0852 18.1837 44.7591 17.3721 45.4589C17.2544 45.5604 17.138 45.663 17.021 45.7657C16.2157 46.4734 15.432 47.2058 14.6736 47.9634C14.5669 48.07 14.4617 48.1782 14.3559 48.2859C13.6001 49.0547 12.8671 49.8459 12.1616 50.6622C12.069 50.7694 11.9792 50.8786 11.8872 50.9865C11.1824 51.8164 10.5013 52.6673 9.85103 53.5424C9.77393 53.6463 9.69957 53.7524 9.62329 53.8569C8.97162 54.7484 8.34506 55.6596 7.75197 56.5946C7.69284 56.688 7.63687 56.7838 7.57802 56.8778C6.98027 57.8341 6.41023 58.8096 5.87696 59.8078C5.83731 59.8817 5.80095 59.9576 5.76158 60.032C5.22035 61.0577 4.70958 62.1021 4.23874 63.1685C4.21884 63.2135 4.20142 63.2596 4.18153 63.3046C3.69943 64.4058 3.25245 65.526 2.84911 66.667C9.71329 86.0859 28.2301 100 49.9996 100C55.8439 100 64.5827 100 70.8327 100C51.6715 93.2265 33.8255 72.3335 33.3554 50.8657Z" fill="#EF3F3F"/>
<path d="M66.666 49.9995C66.666 59.0693 59.4196 66.4418 50.4012 66.6558C50.4308 66.6625 50.3363 66.666 49.9995 66.666H64.5827C75.1122 66.666 84.4951 71.5533 90.6037 79.1774C96.515 70.9657 99.999 60.89 99.999 49.9995C99.999 49.5986 99.9932 49.1991 99.9837 48.8004C99.9806 48.6653 99.975 48.5307 99.9707 48.3958C99.9623 48.1335 99.9532 47.8712 99.9408 47.6098C99.9331 47.4475 99.9238 47.2857 99.9146 47.1238C99.9014 46.8921 99.887 46.6606 99.8706 46.4297C99.8582 46.2546 99.8452 46.0797 99.8311 45.9052C99.8136 45.6905 99.794 45.4764 99.774 45.2623C99.7567 45.0785 99.7398 44.8948 99.7206 44.7115C99.6998 44.5133 99.676 44.316 99.6528 44.1183C99.6299 43.9232 99.6085 43.7277 99.5834 43.5334C99.5805 43.5107 99.5768 43.4882 99.5738 43.4655C99.4967 42.8745 99.4073 42.2873 99.3096 41.703C99.2913 41.5942 99.2745 41.485 99.2555 41.3766C99.2101 41.1153 99.1613 40.8553 99.1118 40.5954C99.0919 40.4908 99.0722 40.3859 99.0517 40.2814C98.9987 40.0124 98.9431 39.7444 98.8859 39.477C98.8677 39.3923 98.8493 39.3077 98.8306 39.2232C98.7675 38.9358 98.7025 38.6491 98.6345 38.3636C98.6257 38.3269 98.6166 38.2905 98.6077 38.254C93.3237 16.3077 73.5675 0 49.9995 0C44.1551 0 38.5464 1.00617 33.333 2.84909C52.7517 9.71327 66.666 28.23 66.666 49.9995Z" fill="#EF3F3F"/>
<path d="M64.5827 66.6662H49.9997C41.0853 66.6662 33.8058 59.6675 33.3554 50.8652C33.7758 70.0493 48.0736 88.7655 64.7842 97.3657C65.1812 97.5701 65.5793 97.7697 65.9788 97.9629C66.1388 98.0401 66.2993 98.1145 66.4597 98.1898C66.8248 98.3617 67.1904 98.5314 67.5572 98.6935C67.8103 98.8049 68.0644 98.91 68.3184 99.0166C68.6018 99.1361 68.8847 99.2583 69.169 99.3716C69.7223 99.5915 70.2768 99.8027 70.8327 99.9991H97.9157C97.9157 81.5899 82.9921 66.6662 64.5827 66.6662Z" fill="#F47623"/>
</svg>
