<svg width="342" height="100" viewBox="0 0 342 100" fill="none" xmlns="http://www.w3.org/2000/svg">
<path d="M182.733 45.3122V62.8839C182.733 64.9924 181.046 66.5387 178.936 66.5387C176.687 66.5387 175.14 64.9924 175.14 62.8839V46.718C175.14 42.7121 173.525 39.9705 168.955 39.9705C163.894 39.9705 161.927 42.7121 161.927 46.6481V62.884C161.927 64.9925 160.241 66.5389 158.131 66.5389C155.882 66.5389 154.335 64.9925 154.335 62.884V46.718C154.335 42.7121 152.719 39.9705 148.15 39.9705C142.879 39.9705 141.122 43.0632 141.122 47.2104V62.8841C141.122 64.9927 139.505 66.539 137.326 66.539C135.147 66.539 133.53 64.9927 133.53 62.8841V37.2995C133.53 35.1909 135.217 33.504 137.326 33.504C139.435 33.504 141.122 35.1909 141.122 37.2995C142.457 35.2607 145.41 33.0822 150.119 33.0822C155.882 33.0822 158.763 34.9097 160.52 37.6512C162.769 34.6286 165.792 33.0822 170.572 33.0822C180.131 33.0824 182.733 39.197 182.733 45.3122Z" fill="white"/>
<path d="M203.184 33.0838C215.062 33.0838 217.241 42.2211 217.241 47.0705C217.241 49.6715 217.241 52.6934 212.953 52.6934H195.591C195.591 57.7542 199.176 60.0738 203.816 60.0738C206.909 60.0738 209.087 59.0199 210.773 57.8953C211.547 57.4029 212.109 57.1218 213.023 57.1218C214.851 57.1218 216.326 58.5975 216.326 60.4256C216.326 61.5502 215.764 62.4636 215.132 63.0259C213.937 64.1505 210.211 66.892 203.816 66.892C194.046 66.892 188.002 61.6202 188.002 49.8819C188.002 39.1284 193.625 33.0838 203.184 33.0838ZM195.803 46.3682H209.72C209.72 42.9238 207.752 39.55 203.184 39.55C199.106 39.5502 196.154 41.8699 195.803 46.3682Z" fill="white"/>
<path d="M271.712 45.3122V62.8839C271.712 64.9924 270.025 66.5387 267.916 66.5387C265.667 66.5387 264.12 64.9924 264.12 62.8839V46.718C264.12 42.7121 262.504 39.9705 257.934 39.9705C252.874 39.9705 250.907 42.7121 250.907 46.6481V62.884C250.907 64.9925 249.22 66.5389 247.111 66.5389C244.862 66.5389 243.315 64.9925 243.315 62.884V46.718C243.315 42.7121 241.699 39.9705 237.129 39.9705C231.859 39.9705 230.102 43.0632 230.102 47.2104V62.8841C230.102 64.9927 228.485 66.539 226.306 66.539C224.126 66.539 222.51 64.9927 222.51 62.8841V37.2995C222.51 35.1909 224.196 33.504 226.306 33.504C228.415 33.504 230.102 35.1909 230.102 37.2995C231.436 35.2607 234.389 33.0822 239.099 33.0822C244.861 33.0822 247.743 34.9097 249.5 37.6512C251.749 34.6286 254.772 33.0822 259.551 33.0822C269.11 33.0824 271.712 39.197 271.712 45.3122Z" fill="white"/>
<path d="M292.304 66.892C282.814 66.892 276.91 61.4795 276.91 50.0232C276.91 38.4961 282.814 33.0838 292.304 33.0838C301.793 33.0838 307.697 38.4962 307.697 50.0232C307.697 61.4795 301.792 66.892 292.304 66.892ZM292.304 39.5502C287.243 39.5502 284.571 43.0646 284.571 50.0232C284.571 56.9107 287.243 60.4256 292.304 60.4256C297.364 60.4256 300.036 56.9107 300.036 50.0232C300.036 43.0644 297.364 39.5502 292.304 39.5502Z" fill="white"/>
<path d="M311.841 49.951C311.841 38.4946 317.393 33.0822 326.882 33.0822C335.386 33.0822 341.431 37.7912 341.431 47.1396V76.3084C341.431 78.4176 339.744 80.1046 337.635 80.1046C335.527 80.1046 333.84 78.4176 333.84 76.3084V64.0791C332.435 65.4848 329.482 66.8906 326.108 66.8906C317.253 66.8905 311.841 61.4075 311.841 49.951ZM333.84 47.1395C333.84 42.2894 330.959 39.5485 326.882 39.5485C322.032 39.5485 319.361 43.0629 319.361 49.9509C319.361 56.909 322.102 60.424 326.882 60.424C331.099 60.424 333.84 56.8391 333.84 56.8391V47.1395Z" fill="white"/>
<path d="M33.3555 50.8649C33.3409 50.5783 33.333 50.2897 33.333 49.9996C33.333 49.9908 33.3349 49.9827 33.3349 49.9739C33.3478 40.7817 40.8026 33.3334 49.9975 33.333C49.3006 33.333 48.6069 33.3482 47.917 33.3765H47.9167C46.6201 33.4296 45.3364 33.5329 44.0673 33.6831C44.0577 33.6842 44.0478 33.6849 44.0378 33.6861C42.8029 33.8329 41.5829 34.0284 40.3771 34.2636C40.3236 34.2741 40.269 34.2822 40.2155 34.2928C39.0444 34.5252 37.8896 34.8027 36.7496 35.1154C36.6663 35.1383 36.5816 35.1584 36.4986 35.1817C35.3861 35.493 34.2907 35.846 33.2109 36.2309C33.1061 36.2683 33 36.3032 32.8955 36.3413C31.8369 36.7268 30.7967 37.1503 29.7728 37.6039C29.656 37.6557 29.538 37.7054 29.4217 37.7581C28.4152 38.2134 27.4277 38.7038 26.4577 39.2225C26.3334 39.289 26.2085 39.3542 26.0848 39.4217C25.1294 39.9432 24.194 40.4966 23.2778 41.0774C23.1509 41.1578 23.0236 41.2379 22.8973 41.3195C21.992 41.9049 21.1073 42.5193 20.2434 43.1603C20.1197 43.252 19.9964 43.3441 19.8738 43.437C19.0178 44.0843 18.1836 44.7582 17.372 45.458C17.2543 45.5595 17.1379 45.6621 17.0209 45.7648C16.2156 46.4726 15.4319 47.2049 14.6735 47.9625C14.5668 48.0691 14.4615 48.1773 14.3558 48.285C13.6 49.0539 12.8669 49.8451 12.1615 50.6614C12.0689 50.7685 11.979 50.8777 11.8871 50.9857C11.1822 51.8156 10.5011 52.6665 9.85084 53.5417C9.77373 53.6455 9.69937 53.7516 9.62309 53.8561C8.97142 54.7476 8.34485 55.6589 7.75175 56.5938C7.69262 56.6873 7.63665 56.783 7.57779 56.877C6.98003 57.8334 6.40999 58.8088 5.87671 59.8071C5.83706 59.881 5.8007 59.9569 5.76133 60.0313C5.22009 61.0571 4.70932 62.1014 4.23847 63.1678C4.21857 63.2128 4.20115 63.2589 4.18125 63.3039C3.69915 64.4052 3.25217 65.5254 2.84882 66.6664C9.71309 86.0855 28.2302 99.9999 50 99.9999C55.8444 99.9999 64.5833 99.9999 70.8333 99.9999C51.6718 93.2263 33.8257 72.333 33.3555 50.8649Z" fill="white"/>
<path d="M66.6669 50.0002C66.6669 59.0701 59.4204 66.4427 50.4019 66.6567C50.4316 66.6635 50.337 66.6669 50.0002 66.6669H64.5836C75.1132 66.6669 84.4962 71.5543 90.605 79.1785C96.5163 70.9667 100 60.8908 100 50.0002C100 49.5993 99.9946 49.1998 99.9851 48.8011C99.982 48.6659 99.9764 48.5314 99.9721 48.3965C99.9637 48.1342 99.9545 47.8718 99.9422 47.6105C99.9345 47.4482 99.9252 47.2863 99.916 47.1244C99.9028 46.8927 99.8884 46.6612 99.872 46.4303C99.8596 46.2553 99.8466 46.0804 99.8324 45.9059C99.815 45.6911 99.7954 45.477 99.7754 45.263C99.7581 45.0791 99.7412 44.8954 99.722 44.7121C99.7011 44.5139 99.6774 44.3166 99.6542 44.1189C99.6313 43.9238 99.6099 43.7283 99.5848 43.534C99.5819 43.5112 99.5782 43.4887 99.5752 43.4661C99.4981 42.8751 99.4086 42.2879 99.311 41.7036C99.2927 41.5948 99.2758 41.4856 99.2569 41.3772C99.2115 41.1158 99.1627 40.8558 99.1131 40.596C99.0932 40.4913 99.0736 40.3865 99.053 40.282C99.0001 40.0129 98.9445 39.745 98.8873 39.4776C98.8691 39.3928 98.8507 39.3083 98.832 39.2238C98.7689 38.9363 98.7039 38.6496 98.6358 38.3641C98.6271 38.3275 98.618 38.291 98.6091 38.2545C93.325 16.308 73.5685 0 50.0002 0C44.1557 0 38.5469 1.00619 33.3335 2.84913C52.7525 9.7134 66.6669 28.2303 66.6669 50.0002Z" fill="white"/>
<path d="M33.3322 5.76915C33.3996 5.79466 33.4667 5.82018 33.5339 5.84584L33.819 5.95601C34.1543 6.08662 34.4878 6.22024 34.8197 6.3584L34.9242 6.40093C35.2879 6.55363 35.6487 6.71181 36.0056 6.87192L36.2653 6.99032C36.5804 7.13424 36.8938 7.2809 37.2088 7.43332L37.2917 7.47283L37.3539 7.5026C37.7108 7.67643 38.0649 7.85561 38.4143 8.03712L38.5389 8.10256L38.6223 8.14673C38.9336 8.31041 39.2428 8.47696 39.5514 8.64818L39.6303 8.69167L39.7001 8.73009C40.0535 8.92792 40.4042 9.13001 40.8051 9.36832L40.8819 9.41469C41.2012 9.60567 41.5179 9.80007 41.8334 9.99914L41.9006 10.0414L41.959 10.078C42.3118 10.3019 42.6612 10.5297 43.0302 10.7781C43.3699 11.0071 43.7061 11.2408 44.0393 11.478L45.6311 9.24292L44.1268 11.5401C44.8172 12.0342 45.5018 12.5523 46.197 13.1084C53.0694 18.619 58.2526 25.8915 61.192 34.1464C58.027 31.9051 54.1647 30.5869 50.0002 30.5869C30.3857 30.5869 12.5691 41.5043 3.49504 58.4294C2.99551 55.6606 2.7439 52.8429 2.7439 49.9975C2.7439 30.329 14.9947 12.679 33.3322 5.76915ZM33.3351 2.84731H33.3348C13.915 9.7109 0 28.2276 0 49.9977C0 55.8422 1.00619 61.4511 2.84913 66.6644C9.71354 47.2454 28.2303 33.3309 50.0002 33.3309C59.2049 33.3309 66.6669 40.793 66.6669 49.9977C66.6669 44.1533 65.6628 38.5439 63.8198 33.3309H63.814C60.6778 24.4609 55.1111 16.7393 47.9134 10.9679C47.9011 10.958 47.8885 10.948 47.8761 10.9381C47.1739 10.3763 46.4563 9.83314 45.7238 9.30891C45.6929 9.28696 45.6621 9.26501 45.6312 9.24306C45.2786 8.99199 44.9231 8.74504 44.5637 8.50276C44.5556 8.49741 44.5478 8.49192 44.5397 8.48657C44.1734 8.24003 43.8035 7.99884 43.4303 7.7619C43.386 7.73378 43.3413 7.7062 43.2968 7.67821C42.964 7.46817 42.6285 7.26224 42.2906 7.06001C42.2445 7.03258 42.1988 7.00445 42.1526 6.97701C41.7847 6.7586 41.4137 6.54471 41.0397 6.33563C40.9871 6.30613 40.9342 6.27773 40.8816 6.2485C40.5563 6.06796 40.2289 5.89139 39.899 5.71811C39.8265 5.67997 39.7543 5.64142 39.6817 5.60355C39.3091 5.40997 38.9342 5.22037 38.5562 5.03611C38.5046 5.01087 38.4523 4.98672 38.4006 4.96176C38.0708 4.8022 37.7389 4.64676 37.4051 4.49433C37.3142 4.45276 37.2232 4.41105 37.1321 4.37003C36.7521 4.19936 36.3704 4.03226 35.9856 3.87078C35.9486 3.85541 35.9113 3.84073 35.8743 3.82537C35.5232 3.67912 35.1701 3.53767 34.815 3.39938C34.7147 3.36014 34.614 3.32118 34.5132 3.28262C34.1226 3.13349 33.7303 2.98711 33.3351 2.84731Z" fill="white"/>
<path d="M39.658 66.4337C42.6567 68.3218 46.2052 69.4103 50.0002 69.4103H64.5835C80.5262 69.4103 93.6592 81.6691 95.051 97.256H71.3132C70.9361 97.1172 70.56 96.9722 70.1853 96.8232C69.9848 96.7434 69.7851 96.6585 69.5852 96.5735L69.3809 96.4871L69.239 96.4277C69.047 96.3473 68.8549 96.2671 68.6669 96.1846C68.3202 96.0314 67.9749 95.871 67.6259 95.7065L67.5142 95.6542L67.1744 95.4938C66.7955 95.3104 66.4178 95.1212 66.0406 94.9269C54.2649 88.8664 44.5999 78.0854 39.658 66.4337ZM33.3558 50.8654C33.7762 70.0498 48.0741 88.7662 64.7849 97.3665C65.1819 97.571 65.5801 97.7704 65.9796 97.9637C66.1395 98.0408 66.3001 98.1153 66.4604 98.1905C66.8255 98.3626 67.1911 98.5321 67.558 98.6943C67.811 98.8057 68.0653 98.9108 68.3191 99.0174C68.6025 99.137 68.8855 99.2593 69.1698 99.3725C69.7231 99.5925 70.2776 99.8035 70.8337 100H97.9169C97.9169 81.5905 82.9931 66.6666 64.5835 66.6666H50.0003C41.0858 66.6664 33.8061 59.6678 33.3558 50.8654Z" fill="white"/>
</svg>
