<svg width="100" height="100" viewBox="0 0 100 100" fill="none" xmlns="http://www.w3.org/2000/svg">
<path d="M66.666 49.9998C66.666 44.1555 65.6619 38.5462 63.819 33.3333H63.8134C60.6772 24.4632 55.1106 16.7418 47.9129 10.9705C47.9004 10.9606 47.888 10.9506 47.8755 10.9407C47.1734 10.3788 46.4556 9.83564 45.7233 9.31156C45.6924 9.28947 45.6614 9.26766 45.6305 9.24571C45.2779 8.99464 44.9225 8.74756 44.5632 8.50555C44.5552 8.50006 44.5472 8.49458 44.5392 8.48922C44.173 8.24283 43.8028 8.0015 43.4298 7.76471C43.3855 7.73658 43.3408 7.70887 43.2963 7.68088C42.9636 7.47098 42.6282 7.26505 42.2901 7.06283C42.2441 7.03525 42.1984 7.00726 42.1521 6.97982C41.7842 6.76128 41.4132 6.54753 41.0392 6.33831C40.9868 6.30895 40.9339 6.28041 40.8812 6.25133C40.5559 6.07078 40.2283 5.89421 39.8986 5.72094C39.826 5.6828 39.7539 5.64425 39.6811 5.60652C39.3085 5.41294 38.9336 5.22334 38.5556 5.03909C38.504 5.01385 38.4518 4.9897 38.4 4.96473C38.0702 4.80518 37.7382 4.64974 37.4044 4.49732C37.3135 4.45575 37.2227 4.41418 37.1314 4.37316C36.7515 4.20249 36.3699 4.03538 35.985 3.87391C35.9481 3.85841 35.9108 3.84386 35.8738 3.82836C35.5228 3.68225 35.1696 3.54067 34.8146 3.40238C34.7142 3.36328 34.6136 3.32431 34.5128 3.28576C34.1221 3.1365 33.7299 2.99011 33.3346 2.85031H33.3343C13.9147 9.71381 0 28.2304 0 50.0002C0 55.8446 1.00617 61.4533 2.84909 66.6667C9.7134 47.2479 28.2301 33.3337 49.9994 33.3337C59.2041 33.3333 66.666 40.7951 66.666 49.9998Z" fill="url(#paint0_linear)"/>
<path d="M33.3563 50.8657C33.3418 50.5791 33.3338 50.2905 33.3338 50.0004C33.3338 49.9916 33.3358 49.9835 33.3358 49.9747C33.3487 40.7826 40.8033 33.3344 49.9981 33.334C49.3012 33.334 48.6075 33.3492 47.9176 33.3775H47.9173C46.6207 33.4306 45.3371 33.5339 44.068 33.6841C44.0584 33.6852 44.0485 33.6859 44.0385 33.6872C42.8036 33.8339 41.5837 34.0295 40.3779 34.2646C40.3244 34.2752 40.2698 34.2833 40.2163 34.2938C39.0452 34.5262 37.8904 34.8038 36.7504 35.1164C36.6671 35.1393 36.5824 35.1594 36.4994 35.1827C35.3869 35.494 34.2916 35.847 33.2117 36.2319C33.1069 36.2693 33.0009 36.3042 32.8963 36.3422C31.8378 36.7278 30.7976 37.1513 29.7737 37.6048C29.6569 37.6567 29.539 37.7064 29.4226 37.759C28.4162 38.2144 27.4286 38.7047 26.4587 39.2234C26.3344 39.29 26.2094 39.3551 26.0858 39.4226C25.1304 39.9441 24.195 40.4976 23.2788 41.0783C23.1519 41.1587 23.0246 41.2388 22.8983 41.3204C21.9931 41.9058 21.1083 42.5202 20.2444 43.1612C20.1208 43.2529 19.9975 43.345 19.8748 43.4379C19.0189 44.0852 18.1847 44.7591 17.3731 45.4589C17.2554 45.5604 17.139 45.663 17.022 45.7656C16.2167 46.4734 15.433 47.2057 14.6746 47.9633C14.5679 48.0699 14.4627 48.1782 14.3569 48.2859C13.6011 49.0547 12.8681 49.8459 12.1626 50.6622C12.07 50.7693 11.9802 50.8785 11.8883 50.9865C11.1834 51.8164 10.5023 52.6673 9.85204 53.5424C9.77494 53.6463 9.70058 53.7523 9.6243 53.8569C8.97263 54.7484 8.34607 55.6596 7.75299 56.5946C7.69385 56.688 7.63788 56.7838 7.57903 56.8777C6.98128 57.8341 6.41124 58.8095 5.87797 59.8078C5.83832 59.8817 5.80196 59.9576 5.76259 60.0319C5.22136 61.0577 4.7106 62.102 4.23975 63.1684C4.21986 63.2134 4.20243 63.2595 4.18254 63.3045C3.70044 64.4058 3.25347 65.526 2.85012 66.667C9.7143 86.0859 28.2311 100 50.0006 100C55.8449 100 64.5837 100 70.8336 100C51.6724 93.2265 33.8265 72.3335 33.3563 50.8657Z" fill="url(#paint1_linear)"/>
<path d="M66.666 49.9995C66.666 59.0693 59.4196 66.4418 50.4012 66.6558C50.4309 66.6626 50.3363 66.666 49.9995 66.666H64.5827C75.1121 66.666 84.495 71.5533 90.6037 79.1774C96.5149 70.9658 99.9989 60.89 99.9989 49.9995C99.9989 49.5986 99.9932 49.1991 99.9837 48.8004C99.9806 48.6653 99.9749 48.5307 99.9707 48.3958C99.9623 48.1335 99.9531 47.8712 99.9408 47.6098C99.9331 47.4476 99.9238 47.2857 99.9146 47.1238C99.9014 46.8921 99.887 46.6606 99.8705 46.4297C99.8582 46.2547 99.8452 46.0797 99.831 45.9052C99.8136 45.6905 99.794 45.4764 99.7739 45.2623C99.7567 45.0785 99.7398 44.8948 99.7206 44.7115C99.6997 44.5133 99.676 44.316 99.6528 44.1183C99.6299 43.9232 99.6085 43.7277 99.5834 43.5334C99.5805 43.5107 99.5768 43.4882 99.5738 43.4655C99.4967 42.8745 99.4072 42.2873 99.3095 41.703C99.2913 41.5942 99.2744 41.485 99.2555 41.3766C99.2101 41.1153 99.1612 40.8553 99.1117 40.5954C99.0918 40.4908 99.0722 40.386 99.0516 40.2814C98.9987 40.0124 98.9431 39.7444 98.8859 39.477C98.8676 39.3923 98.8493 39.3077 98.8306 39.2232C98.7675 38.9358 98.7025 38.6491 98.6344 38.3636C98.6256 38.327 98.6166 38.2905 98.6077 38.254C93.3237 16.3077 73.5675 0 49.9995 0C44.1551 0 38.5464 1.00617 33.3331 2.84909C52.7518 9.71327 66.666 28.23 66.666 49.9995Z" fill="url(#paint2_linear)"/>
<path d="M64.5827 66.6656H49.9996C41.0852 66.6656 33.8058 59.667 33.3554 50.8647C33.7757 70.0488 48.0736 88.7649 64.7841 97.3651C65.1811 97.5696 65.5793 97.7692 65.9788 97.9623C66.1387 98.0396 66.2992 98.1139 66.4596 98.1893C66.8247 98.3612 67.1903 98.5309 67.5572 98.6929C67.8103 98.8043 68.0644 98.9094 68.3183 99.016C68.6018 99.1355 68.8846 99.2577 69.1689 99.371C69.7222 99.591 70.2767 99.8021 70.8327 99.9986H97.9156C97.9156 81.5893 82.9921 66.6656 64.5827 66.6656Z" fill="url(#paint3_linear)"/>
<defs>
<linearGradient id="paint0_linear" x1="47.0646" y1="7.84538" x2="22.9877" y2="73.996" gradientUnits="userSpaceOnUse">
<stop stop-color="#EF3F3F"/>
<stop offset="1" stop-color="#F47623"/>
</linearGradient>
<linearGradient id="paint1_linear" x1="22.7906" y1="40.0203" x2="47.6876" y2="108.424" gradientUnits="userSpaceOnUse">
<stop stop-color="#EF3F3F"/>
<stop offset="1" stop-color="#F47623"/>
</linearGradient>
<linearGradient id="paint2_linear" x1="66.6659" y1="79.1774" x2="66.6659" y2="0" gradientUnits="userSpaceOnUse">
<stop stop-color="#EF3F3F"/>
<stop offset="1" stop-color="#F47623"/>
</linearGradient>
<linearGradient id="paint3_linear" x1="33.3554" y1="75.4317" x2="97.9156" y2="75.4317" gradientUnits="userSpaceOnUse">
<stop stop-color="#EF3F3F"/>
<stop offset="1" stop-color="#F47623"/>
</linearGradient>
</defs>
</svg>
