<svg width="342" height="100" viewBox="0 0 342 100" fill="none" xmlns="http://www.w3.org/2000/svg">
<path d="M182.73 45.3123V62.8838C182.73 64.9923 181.043 66.5386 178.934 66.5386C176.685 66.5386 175.138 64.9923 175.138 62.8838V46.7182C175.138 42.7123 173.522 39.9707 168.953 39.9707C163.892 39.9707 161.925 42.7123 161.925 46.6482V62.8839C161.925 64.9924 160.238 66.5387 158.129 66.5387C155.88 66.5387 154.333 64.9924 154.333 62.8839V46.7182C154.333 42.7123 152.717 39.9707 148.148 39.9707C142.877 39.9707 141.12 43.0633 141.12 47.2105V62.884C141.12 64.9925 139.503 66.5388 137.324 66.5388C135.145 66.5388 133.528 64.9925 133.528 62.884V37.2997C133.528 35.1912 135.215 33.5043 137.324 33.5043C139.434 33.5043 141.12 35.1912 141.12 37.2997C142.455 35.261 145.408 33.0825 150.117 33.0825C155.88 33.0825 158.761 34.9099 160.518 37.6515C162.767 34.6288 165.79 33.0825 170.569 33.0825C180.128 33.0827 182.73 39.1972 182.73 45.3123Z" fill="white"/>
<path d="M203.181 33.0825C215.059 33.0825 217.238 42.2197 217.238 47.0691C217.238 49.67 217.238 52.692 212.95 52.692H195.589C195.589 57.7526 199.174 60.0723 203.813 60.0723C206.906 60.0723 209.084 59.0183 210.771 57.8938C211.544 57.4014 212.107 57.1203 213.02 57.1203C214.848 57.1203 216.324 58.5959 216.324 60.424C216.324 61.5486 215.761 62.462 215.129 63.0242C213.935 64.1488 210.208 66.8903 203.813 66.8903C194.043 66.8903 188 61.6186 188 49.8805C187.999 39.1271 193.622 33.0825 203.181 33.0825ZM195.8 46.3668H209.717C209.717 42.9224 207.749 39.5487 203.181 39.5487C199.104 39.5489 196.151 41.8685 195.8 46.3668Z" fill="white"/>
<path d="M271.709 45.3123V62.8838C271.709 64.9923 270.022 66.5386 267.913 66.5386C265.663 66.5386 264.117 64.9923 264.117 62.8838V46.7182C264.117 42.7123 262.501 39.9707 257.931 39.9707C252.871 39.9707 250.904 42.7123 250.904 46.6482V62.8839C250.904 64.9924 249.217 66.5387 247.108 66.5387C244.859 66.5387 243.312 64.9924 243.312 62.8839V46.7182C243.312 42.7123 241.696 39.9707 237.127 39.9707C231.856 39.9707 230.099 43.0633 230.099 47.2105V62.884C230.099 64.9925 228.482 66.5388 226.303 66.5388C224.124 66.5388 222.507 64.9925 222.507 62.884V37.2997C222.507 35.1912 224.194 33.5043 226.303 33.5043C228.412 33.5043 230.099 35.1912 230.099 37.2997C231.434 35.261 234.386 33.0825 239.096 33.0825C244.859 33.0825 247.74 34.9099 249.497 37.6515C251.746 34.6288 254.769 33.0825 259.548 33.0825C269.107 33.0827 271.709 39.1972 271.709 45.3123Z" fill="white"/>
<path d="M292.299 66.8903C282.811 66.8903 276.907 61.4779 276.907 50.0218C276.907 38.4948 282.811 33.0825 292.299 33.0825C301.788 33.0825 307.692 38.4949 307.692 50.0218C307.692 61.4779 301.788 66.8903 292.299 66.8903ZM292.299 39.5489C287.239 39.5489 284.567 43.0632 284.567 50.0218C284.567 56.9091 287.239 60.424 292.299 60.424C297.36 60.424 300.032 56.9091 300.032 50.0218C300.032 43.0631 297.36 39.5489 292.299 39.5489Z" fill="white"/>
<path d="M311.837 49.9511C311.837 38.4948 317.388 33.0825 326.877 33.0825C335.381 33.0825 341.427 37.7914 341.427 47.1397V76.3081C341.427 78.4173 339.74 80.1042 337.63 80.1042C335.523 80.1042 333.836 78.4173 333.836 76.3081V64.079C332.43 65.4847 329.477 66.8905 326.104 66.8905C317.248 66.8903 311.837 61.4074 311.837 49.9511ZM333.836 47.1396C333.836 42.2896 330.954 39.5487 326.877 39.5487C322.028 39.5487 319.356 43.0631 319.356 49.951C319.356 56.909 322.098 60.4239 326.877 60.4239C331.094 60.4239 333.836 56.839 333.836 56.839V47.1396Z" fill="white"/>
<path d="M33.355 50.8657C33.3405 50.5791 33.3325 50.2906 33.3325 50.0004C33.3325 49.9916 33.3345 49.9835 33.3345 49.9747C33.3474 40.7827 40.802 33.3345 49.9968 33.334C49.2999 33.334 48.6063 33.3493 47.9163 33.3775H47.916C46.6194 33.4306 45.3358 33.5339 44.0667 33.6842C44.0571 33.6853 44.0472 33.6859 44.0372 33.6872C42.8023 33.834 41.5824 34.0295 40.3766 34.2646C40.3231 34.2752 40.2685 34.2833 40.215 34.2938C39.0439 34.5263 37.8891 34.8038 36.7491 35.1165C36.6658 35.1394 36.5811 35.1594 36.4981 35.1827C35.3856 35.494 34.2903 35.847 33.2104 36.232C33.1056 36.2693 32.9996 36.3043 32.895 36.3423C31.8365 36.7278 30.7963 37.1513 29.7724 37.6049C29.6556 37.6567 29.5376 37.7064 29.4213 37.7591C28.4149 38.2144 27.4273 38.7047 26.4574 39.2235C26.3331 39.29 26.2081 39.3552 26.0845 39.4227C25.1291 39.9441 24.1937 40.4976 23.2775 41.0783C23.1506 41.1587 23.0233 41.2388 22.897 41.3205C21.9918 41.9059 21.107 42.5202 20.2431 43.1612C20.1195 43.253 19.9961 43.345 19.8735 43.4379C19.0175 44.0852 18.1834 44.7591 17.3718 45.4589C17.2541 45.5604 17.1377 45.663 17.0207 45.7657C16.2154 46.4734 15.4317 47.2058 14.6733 47.9634C14.5666 48.07 14.4614 48.1782 14.3556 48.2859C13.5998 49.0547 12.8668 49.8459 12.1613 50.6622C12.0687 50.7694 11.9789 50.8786 11.8869 50.9865C11.182 51.8164 10.501 52.6673 9.85072 53.5424C9.77361 53.6463 9.69926 53.7524 9.62298 53.8569C8.97131 54.7484 8.34475 55.6596 7.75166 56.5946C7.69253 56.688 7.63656 56.7838 7.5777 56.8778C6.97995 57.8341 6.40991 58.8096 5.87665 59.8078C5.837 59.8817 5.80064 59.9576 5.76126 60.032C5.22004 61.0577 4.70927 62.1021 4.23842 63.1685C4.21853 63.2135 4.20111 63.2596 4.18121 63.3046C3.69912 64.4058 3.25214 65.526 2.84879 66.667C9.71297 86.0859 28.2298 100 49.9993 100C55.8436 100 64.5824 100 70.8323 100C51.6711 93.2265 33.8252 72.3335 33.355 50.8657Z" fill="white"/>
<path d="M66.666 49.9995C66.666 59.0693 59.4196 66.4418 50.4012 66.6558C50.4308 66.6625 50.3363 66.666 49.9995 66.666H64.5827C75.1122 66.666 84.4951 71.5533 90.6037 79.1774C96.515 70.9657 99.999 60.89 99.999 49.9995C99.999 49.5986 99.9932 49.1991 99.9837 48.8004C99.9806 48.6653 99.975 48.5307 99.9707 48.3958C99.9623 48.1335 99.9532 47.8712 99.9408 47.6098C99.9331 47.4475 99.9238 47.2857 99.9146 47.1238C99.9014 46.8921 99.887 46.6606 99.8706 46.4297C99.8582 46.2546 99.8452 46.0797 99.8311 45.9052C99.8136 45.6905 99.794 45.4764 99.774 45.2623C99.7567 45.0785 99.7398 44.8948 99.7206 44.7115C99.6998 44.5133 99.676 44.316 99.6528 44.1183C99.6299 43.9232 99.6085 43.7277 99.5834 43.5334C99.5805 43.5107 99.5768 43.4882 99.5738 43.4655C99.4967 42.8745 99.4073 42.2873 99.3096 41.703C99.2913 41.5942 99.2745 41.485 99.2555 41.3766C99.2101 41.1153 99.1613 40.8553 99.1118 40.5954C99.0919 40.4908 99.0722 40.3859 99.0517 40.2814C98.9987 40.0124 98.9431 39.7444 98.8859 39.477C98.8677 39.3923 98.8493 39.3077 98.8306 39.2232C98.7675 38.9358 98.7025 38.6491 98.6345 38.3636C98.6257 38.3269 98.6166 38.2905 98.6077 38.254C93.3237 16.3077 73.5675 0 49.9995 0C44.1551 0 38.5464 1.00617 33.333 2.84909C52.7517 9.71327 66.666 28.23 66.666 49.9995Z" fill="white"/>
<path d="M33.3317 5.77161C33.3991 5.79713 33.4662 5.82264 33.5334 5.8483L33.8185 5.95847C34.1538 6.08907 34.4873 6.2227 34.8192 6.36085L34.9237 6.40338C35.2874 6.55608 35.6483 6.71426 36.0051 6.87437L36.2648 6.99276C36.5799 7.13668 36.8933 7.28334 37.2083 7.43576L37.2911 7.47527L37.3534 7.50504C37.7103 7.67887 38.0644 7.85804 38.4138 8.03955L38.5384 8.10499L38.6218 8.14916C38.9331 8.31284 39.2423 8.47939 39.5508 8.6506L39.6297 8.69409L39.6996 8.73251C40.053 8.93034 40.4036 9.13243 40.8045 9.37073L40.8813 9.4171C41.2006 9.60808 41.5174 9.80248 41.8328 10.0015L41.9 10.0438L41.9584 10.0804C42.3112 10.3043 42.6606 10.5321 43.0296 10.7805C43.3693 11.0095 43.7055 11.2431 44.0387 11.4803L45.6304 9.24534L44.1262 11.5425C44.8166 12.0365 45.5012 12.5547 46.1963 13.1107C53.0686 18.6212 58.2518 25.8937 61.1911 34.1485C58.0262 31.9072 54.164 30.589 49.9995 30.589C30.3853 30.589 12.5689 41.5063 3.49499 58.4311C2.99547 55.6624 2.74386 52.8447 2.74386 49.9994C2.74386 30.3311 14.9945 12.6813 33.3317 5.77161ZM33.3346 2.84981H33.3344C13.9148 9.7133 0 28.2297 0 49.9995C0 55.8439 1.00617 61.4528 2.84909 66.666C9.71341 47.2473 28.23 33.333 49.9995 33.333C59.204 33.333 66.666 40.7949 66.666 49.9995C66.666 44.1552 65.6618 38.5459 63.8189 33.333H63.8132C60.6769 24.4631 55.1103 16.7416 47.9128 10.9703C47.9004 10.9604 47.8878 10.9504 47.8754 10.9405C47.1733 10.3787 46.4556 9.83554 45.7232 9.31133C45.6923 9.28938 45.6614 9.26743 45.6306 9.24547C45.278 8.99441 44.9225 8.74746 44.5631 8.50518C44.555 8.49983 44.5471 8.49434 44.539 8.48899C44.1727 8.24245 43.8029 8.00127 43.4297 7.76434C43.3854 7.73621 43.3407 7.70864 43.2962 7.68065C42.9634 7.47061 42.628 7.26468 42.29 7.06246C42.2439 7.03502 42.1983 7.00689 42.152 6.97946C41.7841 6.76104 41.4131 6.54716 41.0391 6.33808C40.9866 6.30858 40.9336 6.28018 40.8811 6.25096C40.5558 6.07041 40.2283 5.89385 39.8985 5.72057C39.8259 5.68243 39.7538 5.64388 39.6812 5.60602C39.3086 5.41244 38.9336 5.22284 38.5556 5.03859C38.5041 5.01334 38.4518 4.9892 38.4001 4.96423C38.0703 4.80467 37.7384 4.64923 37.4046 4.49681C37.3136 4.45524 37.2227 4.41353 37.1316 4.37251C36.7516 4.20184 36.3699 4.03474 35.9851 3.87327C35.9482 3.8579 35.9108 3.84322 35.8738 3.82786C35.5227 3.68161 35.1696 3.54016 34.8145 3.40187C34.7142 3.36263 34.6135 3.32367 34.5127 3.28512C34.1221 3.13599 33.7299 2.98961 33.3346 2.84981Z" fill="white"/>
<path d="M39.6575 66.4326C42.6561 68.3206 46.2046 69.4091 49.9995 69.4091H64.5826C80.5251 69.4091 93.6579 81.6677 95.0498 97.2543H71.3122C70.9352 97.1156 70.559 96.9706 70.1843 96.8216C69.9839 96.7418 69.7841 96.6569 69.5843 96.572L69.38 96.4855L69.2381 96.4261C69.0461 96.3457 68.854 96.2655 68.666 96.183C68.3193 96.0298 67.974 95.8694 67.625 95.7049L67.5133 95.6526L67.1735 95.4922C66.7946 95.3088 66.4169 95.1196 66.0397 94.9254C54.2642 88.8649 44.5993 78.0841 39.6575 66.4326ZM33.3554 50.8644C33.7758 70.0486 48.0735 88.7647 64.784 97.3649C65.181 97.5693 65.5792 97.7688 65.9787 97.9621C66.1387 98.0392 66.2992 98.1137 66.4596 98.1889C66.8246 98.361 67.1902 98.5305 67.5571 98.6927C67.8101 98.8041 68.0644 98.9092 68.3182 99.0158C68.6015 99.1354 68.8846 99.2576 69.1688 99.3708C69.7221 99.5909 70.2767 99.8019 70.8327 99.9984H97.9156C97.9156 81.5891 82.992 66.6654 64.5826 66.6654H49.9997C41.0853 66.6652 33.8057 59.6667 33.3554 50.8644Z" fill="white"/>
</svg>
