<svg width="333" height="100" viewBox="0 0 333 100" fill="none" xmlns="http://www.w3.org/2000/svg">
<path d="M177.923 45.3137V62.8853C177.923 64.9939 176.28 66.5402 174.227 66.5402C172.037 66.5402 170.53 64.9939 170.53 62.8853V46.7196C170.53 42.7136 168.957 39.9721 164.508 39.9721C159.58 39.9721 157.665 42.7136 157.665 46.6496V62.8854C157.665 64.994 156.023 66.5403 153.969 66.5403C151.779 66.5403 150.273 64.994 150.273 62.8854V46.7196C150.273 42.7136 148.7 39.9721 144.25 39.9721C139.119 39.9721 137.408 43.0647 137.408 47.212V62.8856C137.408 64.9941 135.834 66.5404 133.712 66.5404C131.59 66.5404 130.016 64.9941 130.016 62.8856V37.301C130.016 35.1925 131.658 33.5056 133.712 33.5056C135.765 33.5056 137.408 35.1925 137.408 37.301C138.707 35.2623 141.582 33.0838 146.168 33.0838C151.779 33.0838 154.585 34.9113 156.295 37.6528C158.485 34.6302 161.428 33.0838 166.082 33.0838C175.39 33.084 177.923 39.1986 177.923 45.3137Z" fill="#3B3751"/>
<path d="M197.836 33.0849C209.401 33.0849 211.523 42.2221 211.523 47.0715C211.523 49.6725 211.523 52.6944 207.347 52.6944H190.443C190.443 57.7551 193.934 60.0748 198.451 60.0748C201.463 60.0748 203.583 59.0209 205.226 57.8963C205.979 57.4039 206.526 57.1228 207.416 57.1228C209.196 57.1228 210.632 58.5985 210.632 60.4266C210.632 61.5512 210.085 62.4646 209.469 63.0268C208.306 64.1514 204.678 66.893 198.451 66.893C188.938 66.893 183.053 61.6211 183.053 49.8829C183.053 39.1295 188.528 33.0849 197.836 33.0849ZM190.649 46.3692H204.2C204.2 42.9248 202.284 39.5511 197.836 39.5511C193.866 39.5512 190.991 41.8709 190.649 46.3692Z" fill="#3B3751"/>
<path d="M264.561 45.3148V62.8863C264.561 64.9949 262.918 66.5412 260.865 66.5412C258.675 66.5412 257.168 64.9949 257.168 62.8863V46.7206C257.168 42.7147 255.595 39.9731 251.146 39.9731C246.218 39.9731 244.303 42.7147 244.303 46.6506V62.8865C244.303 64.995 242.661 66.5413 240.607 66.5413C238.417 66.5413 236.911 64.995 236.911 62.8865V46.7206C236.911 42.7147 235.338 39.9731 230.888 39.9731C225.757 39.9731 224.046 43.0657 224.046 47.213V62.8866C224.046 64.9951 222.472 66.5415 220.35 66.5415C218.228 66.5415 216.653 64.9951 216.653 62.8866V37.3021C216.653 35.1935 218.296 33.5066 220.35 33.5066C222.403 33.5066 224.046 35.1935 224.046 37.3021C225.345 35.2634 228.22 33.0849 232.806 33.0849C238.417 33.0849 241.223 34.9123 242.933 37.6538C245.123 34.6312 248.066 33.0849 252.72 33.0849C262.028 33.085 264.561 39.1996 264.561 45.3148Z" fill="#3B3751"/>
<path d="M284.61 66.893C275.371 66.893 269.622 61.4805 269.622 50.0242C269.622 38.4972 275.371 33.0849 284.61 33.0849C293.849 33.0849 299.598 38.4973 299.598 50.0242C299.598 61.4805 293.849 66.893 284.61 66.893ZM284.61 39.5512C279.683 39.5512 277.081 43.0656 277.081 50.0242C277.081 56.9117 279.683 60.4266 284.61 60.4266C289.537 60.4266 292.139 56.9117 292.139 50.0242C292.139 43.0655 289.537 39.5512 284.61 39.5512Z" fill="#3B3751"/>
<path d="M303.633 49.9536C303.633 38.4972 309.039 33.0849 318.278 33.0849C326.559 33.0849 332.445 37.7938 332.445 47.1422V76.3108C332.445 78.42 330.802 80.107 328.749 80.107C326.696 80.107 325.054 78.42 325.054 76.3108V64.0816C323.685 65.4873 320.81 66.8931 317.525 66.8931C308.903 66.893 303.633 61.41 303.633 49.9536ZM325.054 47.1421C325.054 42.292 322.248 39.5511 318.278 39.5511C313.557 39.5511 310.955 43.0655 310.955 49.9534C310.955 56.9115 313.625 60.4264 318.278 60.4264C322.385 60.4264 325.054 56.8416 325.054 56.8416V47.1421Z" fill="#3B3751"/>
<path opacity="0.8" d="M64.9123 49.9992C64.9123 44.1548 63.9346 38.5455 62.1402 33.3325H62.1347C59.0809 24.4624 53.6608 16.7409 46.6524 10.9696C46.6403 10.9597 46.6283 10.9497 46.6161 10.9398C45.9324 10.3779 45.2335 9.83471 44.5204 9.31062C44.4904 9.28854 44.4602 9.26672 44.4301 9.24477C44.0868 8.99371 43.7407 8.74662 43.3909 8.50461C43.3831 8.49912 43.3754 8.49363 43.3675 8.48828C43.0109 8.24188 42.6505 8.00056 42.2873 7.76376C42.2442 7.73563 42.2006 7.70792 42.1573 7.67993C41.8334 7.47003 41.5068 7.2641 41.1776 7.06187C41.1328 7.0343 41.0883 7.00631 41.0432 6.97887C40.685 6.76032 40.3238 6.54657 39.9596 6.33735C39.9086 6.30799 39.857 6.27945 39.8057 6.25037C39.489 6.06982 39.17 5.89325 38.849 5.71998C38.7783 5.68184 38.7081 5.64329 38.6373 5.60556C38.2745 5.41198 37.9094 5.22237 37.5413 5.03812C37.4911 5.01288 37.4402 4.98873 37.3899 4.96376C37.0687 4.80421 36.7455 4.64876 36.4204 4.49634C36.3319 4.45477 36.2434 4.4132 36.1546 4.37218C35.7847 4.20151 35.4131 4.03441 35.0384 3.87293C35.0024 3.85743 34.9661 3.84288 34.93 3.82738C34.5883 3.68127 34.2444 3.53969 33.8988 3.40139C33.801 3.36229 33.7031 3.32333 33.6049 3.28478C33.2244 3.13551 32.8425 2.98912 32.4577 2.84932H32.4574C13.5486 9.71288 0 28.2296 0 49.9996C0 55.844 0.979704 61.4528 2.77414 66.6662C9.45787 47.2473 27.4874 33.3329 48.6841 33.3329C57.6467 33.3325 64.9123 40.7944 64.9123 49.9992Z" fill="#3B3751"/>
<path d="M32.4778 50.8651C32.4636 50.5785 32.4559 50.29 32.4559 49.9998C32.4559 49.991 32.4577 49.9829 32.4577 49.9742C32.4703 40.782 39.7288 33.3337 48.6818 33.3333C48.0032 33.3333 47.3278 33.3485 46.656 33.3768H46.6557C45.3932 33.4299 44.1434 33.5332 42.9076 33.6834C42.8982 33.6845 42.8886 33.6852 42.8789 33.6865C41.6765 33.8333 40.4887 34.0288 39.3146 34.2639C39.2625 34.2745 39.2093 34.2826 39.1572 34.2931C38.017 34.5255 36.8926 34.8031 35.7825 35.1157C35.7014 35.1387 35.619 35.1587 35.5382 35.182C34.4549 35.4933 33.3884 35.8463 32.337 36.2313C32.2349 36.2686 32.1316 36.3036 32.0299 36.3416C30.9991 36.7271 29.9863 37.1506 28.9894 37.6042C28.8757 37.656 28.7608 37.7057 28.6475 37.7584C27.6675 38.2137 26.706 38.7041 25.7616 39.2228C25.6405 39.2893 25.5188 39.3545 25.3985 39.422C24.4682 39.9435 23.5574 40.4969 22.6654 41.0777C22.5418 41.1581 22.4178 41.2382 22.2948 41.3198C21.4134 41.9052 20.5519 42.5196 19.7108 43.1605C19.5904 43.2523 19.4703 43.3444 19.3509 43.4373C18.5174 44.0845 17.7053 44.7584 16.915 45.4583C16.8004 45.5598 16.6871 45.6624 16.5731 45.765C15.789 46.4728 15.026 47.2052 14.2875 47.9628C14.1836 48.0694 14.0811 48.1776 13.9781 48.2853C13.2422 49.0541 12.5285 49.8453 11.8416 50.6616C11.7514 50.7688 11.6639 50.878 11.5744 50.986C10.8881 51.8159 10.225 52.6667 9.59177 53.5419C9.5167 53.6458 9.44429 53.7518 9.37002 53.8564C8.7355 54.7478 8.12542 55.6591 7.54794 56.5941C7.49036 56.6875 7.43586 56.7833 7.37855 56.8772C6.79653 57.8336 6.24149 58.8091 5.72225 59.8073C5.68364 59.8812 5.64824 59.9571 5.6099 60.0315C5.08291 61.0573 4.58558 62.1016 4.12712 63.168C4.10775 63.213 4.09079 63.2591 4.07142 63.3041C3.602 64.4054 3.16678 65.5255 2.77405 66.6666C9.45765 86.0856 27.4873 99.9999 48.6842 99.9999C54.3747 99.9999 62.8836 99.9999 68.9691 99.9999C50.312 93.2263 32.9356 72.3331 32.4778 50.8651Z" fill="#3B3751"/>
<path d="M64.9121 49.9999C64.9121 59.0698 57.8564 66.4424 49.0752 66.6564C49.1041 66.6631 49.012 66.6665 48.6841 66.6665H62.8837C73.1361 66.6665 82.2722 71.5539 88.2201 79.1781C93.9758 70.9663 97.3682 60.8905 97.3682 49.9999C97.3682 49.599 97.3626 49.1995 97.3534 48.8008C97.3503 48.6657 97.3448 48.5311 97.3407 48.3962C97.3325 48.1339 97.3236 47.8716 97.3116 47.6102C97.3041 47.4479 97.295 47.2861 97.286 47.1242C97.2732 46.8925 97.2592 46.661 97.2432 46.4301C97.2311 46.255 97.2185 46.0801 97.2047 45.9056C97.1877 45.6909 97.1686 45.4767 97.1491 45.2627C97.1323 45.0789 97.1159 44.8952 97.0972 44.7119C97.0769 44.5136 97.0537 44.3164 97.0312 44.1187C97.0089 43.9236 96.988 43.7281 96.9636 43.5338C96.9608 43.511 96.9572 43.4885 96.9542 43.4659C96.8792 42.8749 96.7921 42.2877 96.6969 41.7034C96.6792 41.5946 96.6627 41.4853 96.6443 41.377C96.6001 41.1156 96.5525 40.8556 96.5043 40.5958C96.4849 40.4911 96.4658 40.3863 96.4458 40.2817C96.3942 40.0127 96.3401 39.7448 96.2844 39.4774C96.2667 39.3926 96.2488 39.3081 96.2306 39.2236C96.1692 38.9361 96.1058 38.6494 96.0396 38.3639C96.031 38.3273 96.0222 38.2908 96.0135 38.2543C90.8685 16.3079 71.6321 0 48.6841 0C42.9934 0 37.5322 1.00618 32.4561 2.84911C51.3639 9.71335 64.9121 28.2302 64.9121 49.9999Z" fill="#3B3751"/>
<path opacity="0.8" d="M62.8837 66.6667H48.6843C40.0044 66.6667 32.9165 59.668 32.4779 50.8657C32.8872 70.0499 46.8089 88.7663 63.0798 97.3666C63.4664 97.571 63.8541 97.7706 64.2431 97.9638C64.3988 98.041 64.5551 98.1154 64.7113 98.1907C65.0668 98.3626 65.4228 98.5323 65.78 98.6943C66.0264 98.8057 66.2738 98.9108 66.5211 99.0174C66.7971 99.1369 67.0725 99.2592 67.3493 99.3725C67.8881 99.5924 68.428 99.8035 68.9693 100H95.3398C95.3398 81.5906 80.8088 66.6667 62.8837 66.6667Z" fill="#3B3751"/>
</svg>
