<svg width="342" height="100" viewBox="0 0 342 100" fill="none" xmlns="http://www.w3.org/2000/svg">
<path d="M182.732 45.3134V62.885C182.732 64.9936 181.045 66.5399 178.936 66.5399C176.687 66.5399 175.14 64.9936 175.14 62.885V46.7192C175.14 42.7133 173.524 39.9717 168.955 39.9717C163.894 39.9717 161.927 42.7133 161.927 46.6493V62.8852C161.927 64.9937 160.24 66.54 158.131 66.54C155.882 66.54 154.335 64.9937 154.335 62.8852V46.7192C154.335 42.7133 152.719 39.9717 148.15 39.9717C142.879 39.9717 141.122 43.0644 141.122 47.2116V62.8853C141.122 64.9939 139.505 66.5402 137.326 66.5402C135.147 66.5402 133.53 64.9939 133.53 62.8853V37.3007C133.53 35.1921 135.217 33.5052 137.326 33.5052C139.435 33.5052 141.122 35.1921 141.122 37.3007C142.457 35.262 145.409 33.0835 150.119 33.0835C155.882 33.0835 158.763 34.9109 160.52 37.6525C162.769 34.6298 165.792 33.0835 170.571 33.0835C180.131 33.0836 182.732 39.1982 182.732 45.3134Z" fill="white"/>
<path d="M203.183 33.0833C215.061 33.0833 217.241 42.2206 217.241 47.07C217.241 49.671 217.241 52.6929 212.952 52.6929H195.591C195.591 57.7536 199.176 60.0733 203.816 60.0733C206.908 60.0733 209.086 59.0194 210.773 57.8948C211.547 57.4024 212.109 57.1213 213.022 57.1213C214.85 57.1213 216.326 58.597 216.326 60.4251C216.326 61.5497 215.764 62.4631 215.131 63.0254C213.937 64.1499 210.211 66.8915 203.816 66.8915C194.045 66.8915 188.001 61.6197 188.001 49.8814C188.001 39.1279 193.624 33.0833 203.183 33.0833ZM195.802 46.3677H209.72C209.72 42.9233 207.752 39.5495 203.183 39.5495C199.106 39.5497 196.153 41.8694 195.802 46.3677Z" fill="white"/>
<path d="M271.712 45.3129V62.8846C271.712 64.9931 270.025 66.5394 267.916 66.5394C265.667 66.5394 264.12 64.9931 264.12 62.8846V46.7188C264.12 42.7128 262.504 39.9713 257.934 39.9713C252.874 39.9713 250.907 42.7128 250.907 46.6488V62.8847C250.907 64.9932 249.22 66.5396 247.111 66.5396C244.862 66.5396 243.315 64.9932 243.315 62.8847V46.7188C243.315 42.7128 241.699 39.9713 237.129 39.9713C231.859 39.9713 230.102 43.0639 230.102 47.2112V62.8848C230.102 64.9934 228.485 66.5397 226.306 66.5397C224.127 66.5397 222.51 64.9934 222.51 62.8848V37.3002C222.51 35.1917 224.197 33.5047 226.306 33.5047C228.415 33.5047 230.102 35.1917 230.102 37.3002C231.436 35.2615 234.389 33.083 239.099 33.083C244.862 33.083 247.743 34.9104 249.5 37.652C251.749 34.6293 254.772 33.083 259.551 33.083C269.11 33.0831 271.712 39.1977 271.712 45.3129Z" fill="white"/>
<path d="M292.303 66.8915C282.814 66.8915 276.91 61.479 276.91 50.0227C276.91 38.4956 282.814 33.0833 292.303 33.0833C301.792 33.0833 307.696 38.4958 307.696 50.0227C307.696 61.479 301.792 66.8915 292.303 66.8915ZM292.303 39.5497C287.243 39.5497 284.571 43.0641 284.571 50.0227C284.571 56.9102 287.243 60.4251 292.303 60.4251C297.364 60.4251 300.035 56.9102 300.035 50.0227C300.035 43.0639 297.364 39.5497 292.303 39.5497Z" fill="white"/>
<path d="M311.841 49.9518C311.841 38.4953 317.393 33.083 326.881 33.083C335.386 33.083 341.431 37.7919 341.431 47.1404V76.3091C341.431 78.4183 339.744 80.1052 337.635 80.1052C335.527 80.1052 333.84 78.4183 333.84 76.3091V64.0798C332.434 65.4855 329.482 66.8913 326.108 66.8913C317.253 66.8912 311.841 61.4082 311.841 49.9518ZM333.84 47.1402C333.84 42.2901 330.959 39.5492 326.882 39.5492C322.032 39.5492 319.361 43.0636 319.361 49.9516C319.361 56.9097 322.102 60.4247 326.882 60.4247C331.099 60.4247 333.84 56.8398 333.84 56.8398V47.1402Z" fill="white"/>
<path d="M66.6669 50.0005C66.6669 44.1561 65.6628 38.5468 63.8198 33.3338H63.8142C60.6779 24.4636 55.1113 16.7421 47.9135 10.9708C47.901 10.9609 47.8887 10.9509 47.8762 10.941C47.174 10.3791 46.4562 9.8359 45.7239 9.31182C45.693 9.28973 45.662 9.26792 45.6311 9.24596C45.2785 8.9949 44.9231 8.74781 44.5637 8.5058C44.5558 8.50031 44.5478 8.49482 44.5397 8.48947C44.1736 8.24307 43.8034 8.00175 43.4304 7.76495C43.3861 7.73682 43.3413 7.70911 43.2969 7.68112C42.9642 7.47121 42.6287 7.26528 42.2907 7.06306C42.2446 7.03548 42.1989 7.0075 42.1527 6.98006C41.7847 6.76151 41.4137 6.54776 41.0398 6.33853C40.9873 6.30917 40.9344 6.28064 40.8817 6.25155C40.5564 6.071 40.2288 5.89443 39.8991 5.72116C39.8265 5.68302 39.7544 5.64447 39.6817 5.60674C39.309 5.41316 38.9341 5.22355 38.5561 5.0393C38.5045 5.01406 38.4523 4.98991 38.4005 4.96494C38.0707 4.80538 37.7387 4.64994 37.4049 4.49752C37.314 4.45595 37.2231 4.41438 37.1319 4.37336C36.752 4.20269 36.3703 4.03558 35.9855 3.8741C35.9486 3.8586 35.9113 3.84406 35.8742 3.82856C35.5233 3.68244 35.17 3.54086 34.8151 3.40257C34.7147 3.36347 34.6141 3.3245 34.5133 3.28595C34.1225 3.13668 33.7303 2.9903 33.335 2.85049H33.3348C13.9148 9.71407 0 28.2308 0 50.0009C0 55.8454 1.00619 61.4542 2.84912 66.6676C9.71353 47.2486 28.2304 33.3342 50.0001 33.3342C59.2049 33.3338 66.6669 40.7957 66.6669 50.0005Z" fill="url(#paint0_linear)"/>
<path d="M33.3557 50.8651C33.3412 50.5785 33.3332 50.2899 33.3332 49.9998C33.3332 49.991 33.3352 49.9829 33.3352 49.9741C33.3481 40.7819 40.8028 33.3336 49.9977 33.3332C49.3008 33.3332 48.6071 33.3485 47.9172 33.3767H47.9169C46.6203 33.4298 45.3367 33.5331 44.0675 33.6833C44.0579 33.6844 44.048 33.6851 44.038 33.6864C42.8031 33.8332 41.5832 34.0287 40.3774 34.2638C40.3239 34.2744 40.2693 34.2825 40.2158 34.293C39.0447 34.5254 37.8899 34.803 36.7498 35.1157C36.6665 35.1386 36.5819 35.1586 36.4989 35.1819C35.3864 35.4932 34.291 35.8462 33.2111 36.2312C33.1063 36.2685 33.0003 36.3035 32.8957 36.3415C31.8371 36.727 30.7969 37.1505 29.773 37.6041C29.6563 37.656 29.5383 37.7056 29.422 37.7583C28.4155 38.2137 27.428 38.704 26.458 39.2227C26.3337 39.2893 26.2087 39.3544 26.0851 39.4219C25.1297 39.9434 24.1943 40.4968 23.2781 41.0776C23.1512 41.158 23.0239 41.2381 22.8975 41.3197C21.9923 41.9051 21.1075 42.5195 20.2436 43.1605C20.12 43.2523 19.9967 43.3443 19.874 43.4372C19.0181 44.0845 18.1839 44.7584 17.3723 45.4582C17.2546 45.5597 17.1382 45.6624 17.0212 45.765C16.2159 46.4728 15.4322 47.2051 14.6738 47.9627C14.5671 48.0693 14.4618 48.1776 14.3561 48.2853C13.6003 49.0541 12.8672 49.8453 12.1618 50.6616C12.0692 50.7688 11.9793 50.878 11.8874 50.9859C11.1825 51.8158 10.5014 52.6667 9.85113 53.5419C9.77403 53.6457 9.69967 53.7518 9.62339 53.8563C8.97171 54.7478 8.34514 55.6591 7.75205 56.594C7.69292 56.6875 7.63694 56.7832 7.57809 56.8772C6.98033 57.8336 6.41029 58.809 5.87701 59.8073C5.83736 59.8812 5.801 59.9571 5.76163 60.0315C5.2204 61.0573 4.70962 62.1016 4.23877 63.168C4.21888 63.213 4.20145 63.2591 4.18156 63.3041C3.69946 64.4054 3.25247 65.5256 2.84912 66.6666C9.71339 86.0857 28.2304 100 50.0002 100C55.8446 100 64.5835 100 70.8335 100C51.6721 93.2264 33.8259 72.3332 33.3557 50.8651Z" fill="url(#paint1_linear)"/>
<path d="M66.6669 50.0001C66.6669 59.07 59.4204 66.4426 50.402 66.6566C50.4316 66.6633 50.3371 66.6668 50.0002 66.6668H64.5836C75.1132 66.6668 84.4962 71.5542 90.605 79.1784C96.5163 70.9666 100 60.8907 100 50.0001C100 49.5992 99.9946 49.1997 99.9851 48.801C99.9819 48.6659 99.9763 48.5313 99.9721 48.3964C99.9637 48.1341 99.9545 47.8718 99.9421 47.6104C99.9345 47.4481 99.9251 47.2862 99.9159 47.1243C99.9028 46.8926 99.8884 46.6612 99.8719 46.4303C99.8596 46.2552 99.8465 46.0803 99.8324 45.9058C99.815 45.6911 99.7954 45.4769 99.7753 45.2629C99.758 45.079 99.7412 44.8953 99.722 44.712C99.7011 44.5138 99.6774 44.3165 99.6542 44.1188C99.6313 43.9237 99.6099 43.7282 99.5848 43.534C99.5819 43.5112 99.5782 43.4887 99.5752 43.466C99.4981 42.875 99.4086 42.2878 99.3109 41.7035C99.2927 41.5947 99.2758 41.4855 99.2569 41.3771C99.2115 41.1158 99.1626 40.8558 99.1131 40.5959C99.0932 40.4912 99.0736 40.3864 99.053 40.2819C99 40.0128 98.9445 39.7449 98.8873 39.4775C98.869 39.3927 98.8506 39.3082 98.832 39.2237C98.7689 38.9363 98.7038 38.6495 98.6358 38.364C98.627 38.3274 98.618 38.2909 98.609 38.2544C93.325 16.3079 73.5685 0 50.0002 0C44.1558 0 38.547 1.00619 33.3336 2.84912C52.7525 9.71339 66.6669 28.2303 66.6669 50.0001Z" fill="url(#paint2_linear)"/>
<path d="M64.5836 66.6665H50.0003C41.0858 66.6665 33.8062 59.6677 33.3558 50.8653C33.7762 70.0497 48.0742 88.7661 64.785 97.3664C65.182 97.5708 65.5801 97.7704 65.9796 97.9636C66.1396 98.0408 66.3001 98.1152 66.4605 98.1905C66.8256 98.3624 67.1912 98.5321 67.5581 98.6942C67.8112 98.8056 68.0653 98.9107 68.3192 99.0173C68.6027 99.1368 68.8856 99.259 69.1698 99.3723C69.7231 99.5922 70.2777 99.8034 70.8336 99.9998H97.9169C97.9169 81.5904 82.9932 66.6665 64.5836 66.6665Z" fill="url(#paint3_linear)"/>
<defs>
<linearGradient id="paint0_linear" x1="47.0651" y1="7.84617" x2="22.9879" y2="73.9975" gradientUnits="userSpaceOnUse">
<stop stop-color="#CFCFCF"/>
<stop offset="1" stop-color="white"/>
</linearGradient>
<linearGradient id="paint1_linear" x1="22.7898" y1="40.0197" x2="47.6871" y2="108.425" gradientUnits="userSpaceOnUse">
<stop stop-color="#CFCFCF"/>
<stop offset="1" stop-color="white"/>
</linearGradient>
<linearGradient id="paint2_linear" x1="66.6669" y1="79.1784" x2="66.6669" y2="0" gradientUnits="userSpaceOnUse">
<stop stop-color="#CFCFCF"/>
<stop offset="1" stop-color="white"/>
</linearGradient>
<linearGradient id="paint3_linear" x1="33.3558" y1="75.4326" x2="97.9169" y2="75.4326" gradientUnits="userSpaceOnUse">
<stop stop-color="#CFCFCF"/>
<stop offset="1" stop-color="white"/>
</linearGradient>
</defs>
</svg>
