<svg width="100" height="100" viewBox="0 0 100 100" fill="none" xmlns="http://www.w3.org/2000/svg">
<path d="M66.6658 49.9992C66.6658 44.1549 65.6617 38.5456 63.8188 33.3327H63.8131C60.6769 24.4627 55.1103 16.7413 47.9127 10.9701C47.9002 10.9602 47.8878 10.9502 47.8754 10.9403C47.1732 10.3784 46.4554 9.83521 45.7231 9.31114C45.6922 9.28905 45.6612 9.26724 45.6303 9.24529C45.2778 8.99422 44.9223 8.74714 44.563 8.50513C44.555 8.49964 44.5471 8.49416 44.539 8.48881C44.1728 8.24241 43.8027 8.00109 43.4296 7.76429C43.3853 7.73617 43.3406 7.70845 43.2962 7.68047C42.9635 7.47056 42.628 7.26463 42.29 7.06241C42.2439 7.03484 42.1982 7.00685 42.152 6.97941C41.784 6.76086 41.413 6.54712 41.0391 6.3379C40.9867 6.30854 40.9337 6.28 40.881 6.25092C40.5557 6.07037 40.2281 5.89381 39.8984 5.72053C39.8259 5.68239 39.7537 5.64384 39.681 5.60612C39.3084 5.41254 38.9334 5.22293 38.5555 5.03869C38.5039 5.01344 38.4516 4.9893 38.3999 4.96433C38.0701 4.80477 37.7381 4.64933 37.4043 4.49691C37.3133 4.45534 37.2225 4.41377 37.1313 4.37275C36.7514 4.20209 36.3697 4.03498 35.9849 3.87351C35.948 3.85801 35.9107 3.84346 35.8736 3.82796C35.5227 3.68185 35.1694 3.54027 34.8145 3.40198C34.7141 3.36288 34.6135 3.32391 34.5127 3.28536C34.122 3.1361 33.7297 2.98971 33.3345 2.84991H33.3342C13.9146 9.71339 0 28.2299 0 49.9996C0 55.844 1.00617 61.4527 2.84908 66.666C9.71336 47.2474 28.23 33.3332 49.9992 33.3332C59.2039 33.3327 66.6658 40.7945 66.6658 49.9992Z" fill="url(#paint0_linear)"/>
<path d="M33.3562 50.8658C33.3417 50.5792 33.3337 50.2907 33.3337 50.0006C33.3337 49.9918 33.3356 49.9837 33.3356 49.9749C33.3485 40.7829 40.8032 33.3347 49.9979 33.3343C49.301 33.3343 48.6073 33.3495 47.9174 33.3777H47.9171C46.6205 33.4308 45.3369 33.5341 44.0678 33.6844C44.0582 33.6855 44.0483 33.6862 44.0383 33.6874C42.8034 33.8342 41.5835 34.0297 40.3777 34.2648C40.3242 34.2754 40.2696 34.2835 40.2161 34.2941C39.045 34.5265 37.8903 34.804 36.7502 35.1167C36.6669 35.1396 36.5823 35.1596 36.4993 35.1829C35.3868 35.4942 34.2914 35.8472 33.2116 36.2322C33.1068 36.2695 33.0007 36.3045 32.8962 36.3425C31.8376 36.728 30.7974 37.1515 29.7736 37.6051C29.6568 37.6569 29.5388 37.7066 29.4225 37.7593C28.416 38.2146 27.4285 38.7049 26.4586 39.2237C26.3343 39.2902 26.2093 39.3554 26.0857 39.4229C25.1303 39.9443 24.1949 40.4978 23.2787 41.0785C23.1518 41.1589 23.0245 41.239 22.8982 41.3207C21.993 41.9061 21.1082 42.5204 20.2443 43.1614C20.1207 43.2532 19.9974 43.3452 19.8747 43.4381C19.0188 44.0854 18.1846 44.7593 17.373 45.4591C17.2553 45.5606 17.139 45.6632 17.0219 45.7658C16.2166 46.4736 15.433 47.2059 14.6746 47.9635C14.5678 48.0701 14.4626 48.1784 14.3568 48.2861C13.601 49.0549 12.868 49.8461 12.1626 50.6624C12.07 50.7695 11.9801 50.8787 11.8882 50.9867C11.1833 51.8166 10.5023 52.6674 9.85199 53.5426C9.77489 53.6464 9.70053 53.7525 9.62425 53.857C8.97258 54.7485 8.34603 55.6598 7.75294 56.5947C7.69381 56.6882 7.63784 56.7839 7.57899 56.8779C6.98124 57.8343 6.4112 58.8097 5.87794 59.8079C5.83829 59.8819 5.80193 59.9577 5.76256 60.0321C5.22133 61.0579 4.71057 62.1022 4.23972 63.1686C4.21983 63.2136 4.2024 63.2597 4.18251 63.3047C3.70042 64.4059 3.25344 65.5261 2.8501 66.6671C9.71425 86.0859 28.231 100 50.0004 100C55.8447 100 64.5834 100 70.8333 100C51.6722 93.2265 33.8264 72.3336 33.3562 50.8658Z" fill="url(#paint1_linear)"/>
<path d="M66.6658 49.9993C66.6658 59.0691 59.4194 66.4416 50.4011 66.6556C50.4307 66.6623 50.3362 66.6657 49.9994 66.6657H64.5825C75.1119 66.6657 84.4948 71.5531 90.6034 79.1771C96.5146 70.9655 99.9986 60.8898 99.9986 49.9993C99.9986 49.5984 99.9928 49.1989 99.9834 48.8002C99.9802 48.6651 99.9746 48.5305 99.9703 48.3957C99.962 48.1333 99.9528 47.871 99.9404 47.6097C99.9327 47.4474 99.9234 47.2855 99.9142 47.1236C99.901 46.8919 99.8866 46.6604 99.8702 46.4295C99.8578 46.2545 99.8448 46.0796 99.8307 45.9051C99.8132 45.6904 99.7936 45.4762 99.7736 45.2622C99.7563 45.0783 99.7394 44.8946 99.7202 44.7113C99.6994 44.5131 99.6756 44.3158 99.6524 44.1181C99.6295 43.923 99.6081 43.7275 99.583 43.5333C99.5801 43.5105 99.5765 43.488 99.5734 43.4654C99.4963 42.8743 99.4069 42.2871 99.3092 41.7028C99.2909 41.594 99.2741 41.4848 99.2551 41.3765C99.2097 41.1151 99.1609 40.8551 99.1114 40.5953C99.0915 40.4906 99.0719 40.3858 99.0513 40.2813C98.9983 40.0122 98.9428 39.7443 98.8855 39.4769C98.8673 39.3921 98.8489 39.3076 98.8303 39.2231C98.7671 38.9357 98.7021 38.6489 98.6341 38.3634C98.6253 38.3268 98.6162 38.2903 98.6073 38.2538C93.3234 16.3077 73.5672 0 49.9994 0C44.155 0 38.5463 1.00617 33.3329 2.84908C52.7516 9.71324 66.6658 28.2299 66.6658 49.9993Z" fill="url(#paint2_linear)"/>
<path d="M64.5824 66.6653H49.9994C41.0851 66.6653 33.8056 59.6667 33.3552 50.8644C33.7756 70.0485 48.0734 88.7646 64.7838 97.3648C65.1809 97.5692 65.579 97.7688 65.9785 97.962C66.1384 98.0392 66.299 98.1136 66.4593 98.1889C66.8244 98.3608 67.19 98.5305 67.5569 98.6925C67.81 98.8039 68.0641 98.909 68.318 99.0156C68.6015 99.1351 68.8844 99.2573 69.1686 99.3706C69.7219 99.5906 70.2765 99.8017 70.8324 99.9982H97.9152C97.9152 81.589 82.9917 66.6653 64.5824 66.6653Z" fill="url(#paint3_linear)"/>
<defs>
<linearGradient id="paint0_linear" x1="47.0644" y1="7.84496" x2="22.9876" y2="73.9954" gradientUnits="userSpaceOnUse">
<stop stop-color="#EF3F3F"/>
<stop offset="1" stop-color="#F47623"/>
</linearGradient>
<linearGradient id="paint1_linear" x1="22.7905" y1="40.0205" x2="47.6874" y2="108.424" gradientUnits="userSpaceOnUse">
<stop stop-color="#EF3F3F"/>
<stop offset="1" stop-color="#F47623"/>
</linearGradient>
<linearGradient id="paint2_linear" x1="66.6656" y1="79.1771" x2="66.6656" y2="0" gradientUnits="userSpaceOnUse">
<stop stop-color="#EF3F3F"/>
<stop offset="1" stop-color="#F47623"/>
</linearGradient>
<linearGradient id="paint3_linear" x1="33.3552" y1="75.4314" x2="97.9152" y2="75.4314" gradientUnits="userSpaceOnUse">
<stop stop-color="#EF3F3F"/>
<stop offset="1" stop-color="#F47623"/>
</linearGradient>
</defs>
</svg>
