<svg width="342" height="100" viewBox="0 0 342 100" fill="none" xmlns="http://www.w3.org/2000/svg">
<path d="M182.733 45.3123V62.8839C182.733 64.9925 181.046 66.5388 178.937 66.5388C176.687 66.5388 175.14 64.9925 175.14 62.8839V46.7181C175.14 42.7121 173.525 39.9706 168.955 39.9706C163.894 39.9706 161.928 42.7121 161.928 46.6481V62.8841C161.928 64.9926 160.241 66.539 158.132 66.539C155.882 66.539 154.335 64.9926 154.335 62.8841V46.7181C154.335 42.7121 152.72 39.9706 148.15 39.9706C142.88 39.9706 141.123 43.0632 141.123 47.2105V62.8842C141.123 64.9928 139.506 66.5391 137.326 66.5391C135.147 66.5391 133.53 64.9928 133.53 62.8842V37.2995C133.53 35.191 135.217 33.504 137.326 33.504C139.436 33.504 141.123 35.191 141.123 37.2995C142.457 35.2608 145.41 33.0823 150.119 33.0823C155.882 33.0823 158.764 34.9097 160.52 37.6513C162.77 34.6286 165.792 33.0823 170.572 33.0823C180.131 33.0824 182.733 39.1971 182.733 45.3123Z" fill="white"/>
<path d="M203.184 33.0838C215.062 33.0838 217.241 42.2211 217.241 47.0706C217.241 49.6715 217.241 52.6935 212.953 52.6935H195.592C195.592 57.7542 199.177 60.0739 203.816 60.0739C206.909 60.0739 209.087 59.02 210.774 57.8954C211.547 57.403 212.109 57.1219 213.023 57.1219C214.851 57.1219 216.327 58.5976 216.327 60.4257C216.327 61.5503 215.764 62.4637 215.132 63.026C213.938 64.1505 210.211 66.8921 203.816 66.8921C194.046 66.8921 188.002 61.6202 188.002 49.882C188.002 39.1285 193.625 33.0838 203.184 33.0838ZM195.803 46.3683H209.72C209.72 42.9238 207.752 39.5501 203.184 39.5501C199.107 39.5502 196.154 41.8699 195.803 46.3683Z" fill="white"/>
<path d="M271.713 45.3123V62.8839C271.713 64.9925 270.026 66.5388 267.917 66.5388C265.667 66.5388 264.12 64.9925 264.12 62.8839V46.7181C264.12 42.7121 262.505 39.9706 257.935 39.9706C252.874 39.9706 250.908 42.7121 250.908 46.6481V62.8841C250.908 64.9926 249.221 66.539 247.111 66.539C244.862 66.539 243.315 64.9926 243.315 62.8841V46.7181C243.315 42.7121 241.7 39.9706 237.13 39.9706C231.859 39.9706 230.103 43.0632 230.103 47.2105V62.8842C230.103 64.9928 228.486 66.5391 226.306 66.5391C224.127 66.5391 222.51 64.9928 222.51 62.8842V37.2995C222.51 35.191 224.197 33.504 226.306 33.504C228.416 33.504 230.103 35.191 230.103 37.2995C231.437 35.2608 234.39 33.0823 239.099 33.0823C244.862 33.0823 247.744 34.9097 249.5 37.6513C251.75 34.6286 254.772 33.0823 259.552 33.0823C269.111 33.0824 271.713 39.1971 271.713 45.3123Z" fill="white"/>
<path d="M292.304 66.8921C282.815 66.8921 276.911 61.4796 276.911 50.0233C276.911 38.4961 282.815 33.0838 292.304 33.0838C301.793 33.0838 307.697 38.4963 307.697 50.0233C307.697 61.4796 301.793 66.8921 292.304 66.8921ZM292.304 39.5502C287.243 39.5502 284.572 43.0646 284.572 50.0233C284.572 56.9108 287.243 60.4257 292.304 60.4257C297.365 60.4257 300.036 56.9108 300.036 50.0233C300.036 43.0645 297.365 39.5502 292.304 39.5502Z" fill="white"/>
<path d="M311.842 49.9511C311.842 38.4946 317.393 33.0823 326.882 33.0823C335.387 33.0823 341.432 37.7912 341.432 47.1397V76.3085C341.432 78.4177 339.745 80.1047 337.636 80.1047C335.528 80.1047 333.841 78.4177 333.841 76.3085V64.0792C332.435 65.4849 329.483 66.8907 326.109 66.8907C317.253 66.8906 311.842 61.4076 311.842 49.9511ZM333.841 47.1396C333.841 42.2894 330.96 39.5485 326.883 39.5485C322.033 39.5485 319.361 43.0629 319.361 49.951C319.361 56.9091 322.103 60.424 326.883 60.424C331.1 60.424 333.841 56.8391 333.841 56.8391V47.1396Z" fill="white"/>
<path opacity="0.8" d="M66.6671 49.998C66.6671 44.1536 65.663 38.5442 63.82 33.3312H63.8144C60.6781 24.461 55.1114 16.7395 47.9136 10.9681C47.9011 10.9582 47.8888 10.9482 47.8763 10.9384C47.1741 10.3764 46.4563 9.83325 45.724 9.30916C45.6931 9.28707 45.6621 9.26526 45.6312 9.24331C45.2787 8.99224 44.9232 8.74515 44.5639 8.50314C44.5559 8.49765 44.548 8.49216 44.5399 8.48681C44.1737 8.24041 43.8035 7.99908 43.4305 7.76228C43.3862 7.73416 43.3415 7.70645 43.297 7.67846C42.9643 7.46855 42.6289 7.26262 42.2908 7.06039C42.2447 7.03282 42.199 7.00483 42.1528 6.97739C41.7848 6.75884 41.4139 6.54509 41.0399 6.33587C40.9875 6.30651 40.9345 6.27797 40.8818 6.24888C40.5565 6.06834 40.2289 5.89176 39.8992 5.71849C39.8267 5.68035 39.7545 5.6418 39.6818 5.60407C39.3092 5.41049 38.9342 5.22088 38.5562 5.03663C38.5046 5.01138 38.4524 4.98724 38.4006 4.96227C38.0708 4.80271 37.7388 4.64727 37.405 4.49484C37.3141 4.45327 37.2232 4.4117 37.132 4.37068C36.7521 4.20001 36.3704 4.03291 35.9856 3.87143C35.9487 3.85592 35.9114 3.84138 35.8743 3.82588C35.5234 3.67977 35.1701 3.53818 34.8152 3.39989C34.7148 3.36079 34.6142 3.32182 34.5134 3.28327C34.1226 3.134 33.7304 2.98762 33.3351 2.84782H33.3349C13.9149 9.71142 0 28.2282 0 49.9984C0 55.8429 1.00619 61.4517 2.84913 66.6651C9.71355 47.2461 28.2305 33.3316 50.0002 33.3316C59.2051 33.3312 66.6671 40.7931 66.6671 49.998Z" fill="white"/>
<path d="M33.3558 50.8649C33.3412 50.5783 33.3333 50.2898 33.3333 49.9996C33.3333 49.9909 33.3352 49.9828 33.3352 49.974C33.3481 40.7818 40.8029 33.3334 49.9978 33.333C49.3009 33.333 48.6072 33.3483 47.9173 33.3765H47.917C46.6204 33.4296 45.3368 33.5329 44.0676 33.6831C44.058 33.6842 44.0481 33.6849 44.0381 33.6862C42.8032 33.833 41.5832 34.0285 40.3774 34.2636C40.3239 34.2742 40.2693 34.2823 40.2158 34.2928C39.0447 34.5253 37.8899 34.8028 36.7499 35.1155C36.6666 35.1384 36.5819 35.1584 36.4989 35.1817C35.3864 35.493 34.291 35.846 33.2112 36.231C33.1064 36.2683 33.0003 36.3033 32.8958 36.3413C31.8372 36.7268 30.797 37.1503 29.7731 37.6039C29.6563 37.6558 29.5383 37.7054 29.422 37.7581C28.4155 38.2135 27.428 38.7038 26.458 39.2225C26.3337 39.2891 26.2087 39.3542 26.0851 39.4217C25.1297 39.9432 24.1943 40.4967 23.2781 41.0774C23.1512 41.1578 23.0239 41.2379 22.8975 41.3196C21.9923 41.905 21.1075 42.5193 20.2436 43.1603C20.12 43.2521 19.9967 43.3442 19.874 43.437C19.0181 44.0843 18.1839 44.7582 17.3723 45.4581C17.2546 45.5596 17.1382 45.6622 17.0212 45.7648C16.2158 46.4726 15.4322 47.205 14.6738 47.9626C14.567 48.0692 14.4618 48.1774 14.356 48.2851C13.6002 49.054 12.8672 49.8452 12.1617 50.6615C12.0691 50.7686 11.9793 50.8778 11.8873 50.9858C11.1824 51.8157 10.5014 52.6666 9.85109 53.5417C9.77399 53.6456 9.69963 53.7516 9.62335 53.8562C8.97167 54.7477 8.3451 55.6589 7.752 56.5939C7.69287 56.6874 7.6369 56.7831 7.57804 56.8771C6.98028 57.8335 6.41024 58.8089 5.87696 59.8072C5.83731 59.8811 5.80095 59.957 5.76158 60.0313C5.22034 61.0571 4.70957 62.1015 4.23871 63.1679C4.21882 63.2129 4.20139 63.259 4.1815 63.304C3.6994 64.4053 3.25241 65.5255 2.84906 66.6665C9.71335 86.0857 28.2304 100 50.0003 100C55.8447 100 64.5836 100 70.8337 100C51.6722 93.2264 33.8259 72.3331 33.3558 50.8649Z" fill="white"/>
<path d="M66.6672 50.0002C66.6672 59.0702 59.4207 66.4428 50.4021 66.6568C50.4318 66.6635 50.3372 66.667 50.0004 66.667H64.5839C75.1134 66.667 84.4965 71.5544 90.6053 79.1786C96.5166 70.9668 100.001 60.8909 100.001 50.0002C100.001 49.5994 99.9949 49.1998 99.9854 48.8011C99.9823 48.666 99.9766 48.5314 99.9724 48.3966C99.964 48.1342 99.9548 47.8719 99.9425 47.6106C99.9348 47.4483 99.9255 47.2864 99.9163 47.1245C99.9031 46.8928 99.8887 46.6613 99.8722 46.4304C99.8599 46.2553 99.8469 46.0804 99.8327 45.9059C99.8153 45.6912 99.7957 45.477 99.7757 45.263C99.7584 45.0792 99.7415 44.8955 99.7223 44.7122C99.7014 44.5139 99.6777 44.3166 99.6545 44.1189C99.6316 43.9239 99.6102 43.7284 99.5851 43.5341C99.5822 43.5113 99.5785 43.4888 99.5755 43.4662C99.4984 42.8751 99.4089 42.2879 99.3112 41.7036C99.293 41.5948 99.2761 41.4856 99.2572 41.3772C99.2118 41.1159 99.1629 40.8559 99.1134 40.5961C99.0935 40.4914 99.0739 40.3866 99.0533 40.282C99.0004 40.013 98.9448 39.745 98.8876 39.4776C98.8693 39.3929 98.851 39.3083 98.8323 39.2238C98.7692 38.9364 98.7042 38.6497 98.6361 38.3642C98.6273 38.3275 98.6183 38.291 98.6094 38.2545C93.3253 16.308 73.5688 0 50.0004 0C44.1559 0 38.5471 1.00619 33.3337 2.84913C52.7527 9.71342 66.6672 28.2304 66.6672 50.0002Z" fill="white"/>
<path opacity="0.8" d="M64.5837 66.6656H50.0004C41.0859 66.6656 33.8063 59.6669 33.3559 50.8645C33.7763 70.0489 48.0743 88.7653 64.7851 97.3657C65.1822 97.5701 65.5803 97.7697 65.9798 97.9629C66.1398 98.0401 66.3003 98.1145 66.4607 98.1898C66.8258 98.3617 67.1914 98.5314 67.5582 98.6934C67.8114 98.8048 68.0654 98.9099 68.3194 99.0165C68.6028 99.136 68.8857 99.2583 69.17 99.3716C69.7233 99.5915 70.2779 99.8027 70.8338 99.9991H97.9172C97.9172 81.5896 82.9934 66.6656 64.5837 66.6656Z" fill="white"/>
</svg>
