<svg width="333" height="100" viewBox="0 0 333 100" fill="none" xmlns="http://www.w3.org/2000/svg">
<path d="M177.922 45.3137V62.8853C177.922 64.9938 176.28 66.5402 174.226 66.5402C172.036 66.5402 170.53 64.9938 170.53 62.8853V46.7196C170.53 42.7136 168.957 39.9721 164.507 39.9721C159.58 39.9721 157.665 42.7136 157.665 46.6496V62.8854C157.665 64.994 156.022 66.5403 153.969 66.5403C151.779 66.5403 150.272 64.994 150.272 62.8854V46.7196C150.272 42.7136 148.699 39.9721 144.25 39.9721C139.118 39.9721 137.408 43.0647 137.408 47.212V62.8856C137.408 64.9941 135.833 66.5404 133.711 66.5404C131.589 66.5404 130.015 64.9941 130.015 62.8856V37.301C130.015 35.1925 131.658 33.5056 133.711 33.5056C135.765 33.5056 137.408 35.1925 137.408 37.301C138.707 35.2623 141.582 33.0838 146.167 33.0838C151.779 33.0838 154.584 34.9113 156.295 37.6528C158.485 34.6301 161.428 33.0838 166.082 33.0838C175.389 33.084 177.922 39.1986 177.922 45.3137Z" fill="#3B3751"/>
<path d="M197.835 33.0849C209.401 33.0849 211.523 42.2221 211.523 47.0715C211.523 49.6725 211.523 52.6944 207.347 52.6944H190.443C190.443 57.7551 193.933 60.0748 198.451 60.0748C201.462 60.0748 203.583 59.0209 205.225 57.8963C205.978 57.4039 206.526 57.1228 207.415 57.1228C209.195 57.1228 210.632 58.5985 210.632 60.4266C210.632 61.5512 210.084 62.4646 209.469 63.0268C208.306 64.1514 204.678 66.893 198.451 66.893C188.938 66.893 183.053 61.6211 183.053 49.8829C183.053 39.1295 188.528 33.0849 197.835 33.0849ZM190.648 46.3692H204.2C204.2 42.9248 202.283 39.5511 197.835 39.5511C193.865 39.5512 190.99 41.8709 190.648 46.3692Z" fill="#3B3751"/>
<path d="M264.561 45.3148V62.8863C264.561 64.9949 262.918 66.5412 260.864 66.5412C258.674 66.5412 257.168 64.9949 257.168 62.8863V46.7206C257.168 42.7147 255.595 39.9731 251.146 39.9731C246.218 39.9731 244.303 42.7147 244.303 46.6506V62.8865C244.303 64.995 242.661 66.5413 240.607 66.5413C238.417 66.5413 236.911 64.995 236.911 62.8865V46.7206C236.911 42.7147 235.337 39.9731 230.888 39.9731C225.756 39.9731 224.046 43.0657 224.046 47.213V62.8866C224.046 64.9951 222.471 66.5415 220.349 66.5415C218.227 66.5415 216.653 64.9951 216.653 62.8866V37.3021C216.653 35.1935 218.296 33.5066 220.349 33.5066C222.403 33.5066 224.046 35.1935 224.046 37.3021C225.345 35.2634 228.22 33.0849 232.806 33.0849C238.417 33.0849 241.222 34.9123 242.933 37.6538C245.123 34.6312 248.066 33.0849 252.72 33.0849C262.027 33.085 264.561 39.1996 264.561 45.3148Z" fill="#3B3751"/>
<path d="M284.61 66.893C275.371 66.893 269.622 61.4805 269.622 50.0242C269.622 38.4972 275.371 33.0849 284.61 33.0849C293.849 33.0849 299.598 38.4973 299.598 50.0242C299.598 61.4805 293.849 66.893 284.61 66.893ZM284.61 39.5512C279.683 39.5512 277.081 43.0656 277.081 50.0242C277.081 56.9117 279.683 60.4266 284.61 60.4266C289.538 60.4266 292.139 56.9117 292.139 50.0242C292.139 43.0655 289.538 39.5512 284.61 39.5512Z" fill="#3B3751"/>
<path d="M303.633 49.9536C303.633 38.4972 309.039 33.0849 318.278 33.0849C326.559 33.0849 332.445 37.7938 332.445 47.1422V76.3108C332.445 78.42 330.802 80.107 328.748 80.107C326.696 80.107 325.054 78.42 325.054 76.3108V64.0816C323.685 65.4873 320.81 66.8931 317.525 66.8931C308.903 66.893 303.633 61.41 303.633 49.9536ZM325.054 47.1421C325.054 42.292 322.248 39.5511 318.278 39.5511C313.556 39.5511 310.955 43.0655 310.955 49.9534C310.955 56.9115 313.625 60.4264 318.278 60.4264C322.384 60.4264 325.054 56.8416 325.054 56.8416V47.1421Z" fill="#3B3751"/>
<path d="M32.4775 50.8651C32.4634 50.5785 32.4556 50.29 32.4556 49.9998C32.4556 49.991 32.4575 49.9829 32.4575 49.9742C32.47 40.782 39.7286 33.3337 48.6815 33.3333C48.0029 33.3333 47.3275 33.3485 46.6557 33.3768H46.6554C45.3929 33.4299 44.1431 33.5332 42.9073 33.6834C42.898 33.6845 42.8884 33.6852 42.8786 33.6865C41.6762 33.8332 40.4884 34.0288 39.3143 34.2639C39.2622 34.2745 39.2091 34.2826 39.157 34.2931C38.0167 34.5255 36.8923 34.8031 35.7823 35.1157C35.7012 35.1387 35.6187 35.1587 35.5379 35.182C34.4547 35.4933 33.3882 35.8463 32.3367 36.2313C32.2347 36.2686 32.1314 36.3036 32.0296 36.3416C30.9989 36.7271 29.986 37.1506 28.9891 37.6042C28.8754 37.656 28.7605 37.7057 28.6473 37.7584C27.6673 38.2137 26.7058 38.7041 25.7613 39.2228C25.6403 39.2893 25.5186 39.3545 25.3982 39.422C24.468 39.9435 23.5572 40.4969 22.6651 41.0777C22.5415 41.1581 22.4176 41.2382 22.2946 41.3198C21.4132 41.9052 20.5517 42.5196 19.7105 43.1605C19.5901 43.2523 19.4701 43.3444 19.3506 43.4373C18.5172 44.0845 17.705 44.7584 16.9147 45.4583C16.8001 45.5598 16.6868 45.6624 16.5729 45.765C15.7887 46.4728 15.0257 47.2052 14.2873 47.9628C14.1833 48.0694 14.0809 48.1776 13.9779 48.2853C13.242 49.0541 12.5282 49.8453 11.8413 50.6616C11.7512 50.7688 11.6637 50.878 11.5742 50.986C10.8878 51.8159 10.2247 52.6667 9.59153 53.5419C9.51645 53.6458 9.44405 53.7518 9.36978 53.8563C8.73525 54.7478 8.12517 55.6591 7.54769 56.5941C7.49012 56.6875 7.43562 56.7833 7.37831 56.8772C6.79628 57.8336 6.24124 58.8091 5.722 59.8073C5.6834 59.8812 5.64799 59.9571 5.60966 60.0315C5.08267 61.0573 4.58534 62.1016 4.12688 63.168C4.10751 63.213 4.09054 63.2591 4.07117 63.3041C3.60176 64.4054 3.16654 65.5255 2.7738 66.6666C9.45741 86.0856 27.4871 99.9999 48.6839 99.9999C54.3745 99.9999 62.8833 99.9999 68.9689 99.9999C50.3118 93.2263 32.9353 72.3331 32.4775 50.8651Z" fill="#3B3751"/>
<path d="M64.912 49.9999C64.912 59.0698 57.8562 66.4424 49.0751 66.6564C49.104 66.6631 49.0119 66.6665 48.684 66.6665H62.8835C73.136 66.6665 82.272 71.5539 88.22 79.1781C93.9757 70.9663 97.3681 60.8905 97.3681 49.9999C97.3681 49.599 97.3625 49.1995 97.3533 48.8008C97.3502 48.6657 97.3447 48.5311 97.3406 48.3962C97.3324 48.1339 97.3235 47.8716 97.3114 47.6102C97.304 47.4479 97.2949 47.2861 97.2859 47.1242C97.2731 46.8925 97.2591 46.661 97.243 46.4301C97.231 46.255 97.2183 46.0801 97.2046 45.9056C97.1876 45.6909 97.1685 45.4767 97.149 45.2627C97.1322 45.0789 97.1157 44.8952 97.097 44.7119C97.0767 44.5136 97.0536 44.3164 97.031 44.1187C97.0087 43.9236 96.9879 43.7281 96.9635 43.5338C96.9606 43.511 96.957 43.4885 96.9541 43.4659C96.879 42.8749 96.7919 42.2877 96.6968 41.7034C96.6791 41.5946 96.6626 41.4853 96.6442 41.377C96.6 41.1156 96.5524 40.8556 96.5042 40.5958C96.4848 40.4911 96.4657 40.3863 96.4457 40.2817C96.3941 40.0127 96.34 39.7448 96.2843 39.4774C96.2665 39.3926 96.2486 39.3081 96.2305 39.2236C96.169 38.9361 96.1057 38.6494 96.0395 38.3639C96.0309 38.3273 96.0221 38.2908 96.0134 38.2543C90.8684 16.3079 71.6319 0 48.684 0C42.9933 0 37.5321 1.00618 32.4559 2.84911C51.3638 9.71335 64.912 28.2302 64.912 49.9999Z" fill="#3B3751"/>
<path d="M32.455 5.77166C32.5201 5.79691 32.585 5.82229 32.6499 5.84767L32.9284 5.95839C33.2549 6.089 33.5797 6.22262 33.9031 6.36105L34.0049 6.40358C34.359 6.55614 34.7103 6.71419 35.0594 6.87539L35.3106 6.99297C35.6175 7.13688 35.9228 7.28355 36.2264 7.43446L36.3706 7.50525C36.7181 7.67908 37.0629 7.85825 37.4031 8.03976L37.5297 8.10822L37.6052 8.1491C37.9083 8.31291 38.2095 8.47947 38.5102 8.65082L38.5865 8.6939L38.655 8.73273C38.9992 8.93056 39.3406 9.13265 39.7309 9.37096L39.8057 9.41733C40.1166 9.6083 40.425 9.80271 40.7876 10.0374L40.8544 10.0807C41.1978 10.3046 41.538 10.5323 41.8974 10.7808C42.2281 11.0097 42.5554 11.2434 42.8806 11.4811L42.965 11.5426C43.6391 12.0382 44.3055 12.5563 44.9806 13.111C51.6721 18.6214 56.7189 25.894 59.581 34.1489C56.4993 31.9076 52.7387 30.5894 48.6837 30.5894C29.5855 30.5894 12.2379 41.5068 3.40265 58.4318C2.91627 55.663 2.67128 52.8454 2.67128 49.9999C2.67154 30.3314 14.6002 12.6815 32.455 5.77166ZM32.4577 2.84984H32.4574C13.5487 9.71339 0 28.23 0 49.9999C0 55.8444 0.979705 61.4533 2.77414 66.6666C9.45787 47.2477 27.4873 33.3333 48.6841 33.3333C57.6465 33.3333 64.9122 40.7953 64.9122 49.9999C64.9122 44.1556 63.9346 38.5463 62.14 33.3333H62.1344C59.0807 24.4633 53.6607 16.7417 46.6523 10.9704C46.6403 10.9605 46.6281 10.9505 46.616 10.9406C45.9324 10.3788 45.2335 9.83563 44.5204 9.31142C44.4902 9.28946 44.4601 9.26751 44.4301 9.24556C44.0868 8.9945 43.7407 8.74755 43.3907 8.50526C43.3831 8.49991 43.3752 8.49442 43.3673 8.48907C43.0107 8.24253 42.6505 8.00134 42.2872 7.76441C42.2442 7.73629 42.2006 7.70871 42.1572 7.68072C41.8331 7.47068 41.5065 7.26475 41.1775 7.06253C41.1326 7.03509 41.0881 7.00696 41.0431 6.97952C40.6848 6.76111 40.3236 6.54722 39.9595 6.33814C39.9085 6.30864 39.8568 6.28024 39.8056 6.25102C39.4889 6.07047 39.17 5.89391 38.849 5.72063C38.7783 5.68249 38.7079 5.64394 38.6371 5.60607C38.2743 5.41249 37.9092 5.22289 37.5412 5.03864C37.491 5.01339 37.4401 4.98925 37.3899 4.96428C37.0687 4.80472 36.7455 4.64928 36.4205 4.49686C36.3319 4.45529 36.2436 4.41358 36.1546 4.37256C35.7847 4.20189 35.413 4.03479 35.0383 3.87331C35.0023 3.85794 34.966 3.84326 34.9299 3.8279C34.5883 3.68165 34.2442 3.5402 33.8987 3.40191C33.8009 3.36267 33.7028 3.32371 33.6048 3.28515C33.2245 3.13602 32.8427 2.98964 32.4577 2.84984Z" fill="#3B3751"/>
<path d="M38.6136 66.4339C41.5333 68.322 44.9885 69.4105 48.6836 69.4105H62.883C78.4061 69.4105 91.1936 81.6692 92.5488 97.256H69.4355C69.0685 97.1173 68.7022 96.9723 68.3374 96.8233C68.1422 96.7434 67.9477 96.6585 67.7531 96.5736L67.5542 96.4871L67.4191 96.429C67.2309 96.348 67.0425 96.2674 66.859 96.1845C66.5213 96.0311 66.185 95.8706 65.8453 95.7064L65.7366 95.6541L65.4057 95.4937C65.0368 95.3103 64.669 95.1211 64.3018 94.9268C52.8359 88.8664 43.4253 78.0855 38.6136 66.4339ZM32.4773 50.8657C32.8866 70.0499 46.8082 88.7663 63.0791 97.3666C63.4657 97.571 63.8533 97.7704 64.2423 97.9638C64.3981 98.0409 64.5544 98.1154 64.7106 98.1905C65.0662 98.3626 65.422 98.5322 65.7792 98.6943C66.0258 98.8057 66.2732 98.9108 66.5203 99.0174C66.7962 99.137 67.0718 99.2593 67.3486 99.3725C67.8873 99.5925 68.4273 99.8035 68.9687 100H95.3392C95.3392 81.5906 80.8081 66.6667 62.883 66.6667H48.6836C40.0037 66.6666 32.9157 59.668 32.4773 50.8657Z" fill="#3B3751"/>
</svg>
