<svg width="547" height="160" viewBox="0 0 547 160" fill="none" xmlns="http://www.w3.org/2000/svg">
<path d="M292.371 72.5007V100.615C292.371 103.989 289.672 106.463 286.297 106.463C282.698 106.463 280.223 103.989 280.223 100.615V74.7501C280.223 68.3406 277.638 63.9541 270.327 63.9541C262.23 63.9541 259.083 68.3406 259.083 74.6381V100.615C259.083 103.989 256.384 106.463 253.009 106.463C249.41 106.463 246.935 103.989 246.935 100.615V74.7501C246.935 68.3406 244.35 63.9541 237.039 63.9541C228.606 63.9541 225.795 68.9023 225.795 75.5379V100.616C225.795 103.989 223.208 106.463 219.721 106.463C216.234 106.463 213.647 103.989 213.647 100.616V59.6804C213.647 56.3067 216.346 53.6076 219.721 53.6076C223.096 53.6076 225.795 56.3067 225.795 59.6804C227.93 56.4185 232.654 52.9329 240.19 52.9329C249.41 52.9329 254.02 55.8567 256.831 60.2432C260.43 55.407 265.266 52.9329 272.913 52.9329C288.208 52.9331 292.371 62.7165 292.371 72.5007Z" fill="white"/>
<path d="M325.092 52.9329C344.097 52.9329 347.584 67.5525 347.584 75.3116C347.584 79.4731 347.584 84.3082 340.723 84.3082H312.945C312.945 92.4053 318.681 96.1168 326.104 96.1168C331.052 96.1168 334.537 94.4305 337.236 92.6312C338.473 91.8434 339.373 91.3936 340.835 91.3936C343.76 91.3936 346.121 93.7547 346.121 96.6796C346.121 98.479 345.221 99.9405 344.209 100.84C342.298 102.639 336.336 107.026 326.104 107.026C310.472 107.026 300.801 98.5909 300.801 79.8098C300.801 62.6043 309.798 52.9329 325.092 52.9329ZM313.283 74.1879H335.55C335.55 68.6768 332.402 63.2788 325.092 63.2788C318.569 63.2791 313.844 66.9906 313.283 74.1879Z" fill="white"/>
<path d="M434.738 72.5002V100.615C434.738 103.988 432.039 106.463 428.664 106.463C425.065 106.463 422.59 103.988 422.59 100.615V74.7496C422.59 68.3401 420.005 63.9536 412.694 63.9536C404.597 63.9536 401.45 68.3401 401.45 74.6376V100.615C401.45 103.989 398.751 106.463 395.376 106.463C391.777 106.463 389.302 103.989 389.302 100.615V74.7496C389.302 68.3401 386.717 63.9536 379.406 63.9536C370.973 63.9536 368.162 68.9018 368.162 75.5374V100.615C368.162 103.989 365.575 106.463 362.088 106.463C358.601 106.463 356.014 103.989 356.014 100.615V59.6799C356.014 56.3063 358.713 53.6071 362.088 53.6071C365.463 53.6071 368.162 56.3063 368.162 59.6799C370.297 56.418 375.022 52.9324 382.557 52.9324C391.777 52.9324 396.388 55.8563 399.199 60.2427C402.797 55.4065 407.633 52.9324 415.281 52.9324C430.575 52.9326 434.738 62.716 434.738 72.5002Z" fill="white"/>
<path d="M467.684 107.026C452.501 107.026 443.055 98.3659 443.055 80.0359C443.055 61.5926 452.501 52.9329 467.684 52.9329C482.866 52.9329 492.313 61.5928 492.313 80.0359C492.313 98.3659 482.866 107.026 467.684 107.026ZM467.684 63.2791C459.587 63.2791 455.312 68.9021 455.312 80.0359C455.312 91.0558 459.587 96.6796 467.684 96.6796C475.781 96.6796 480.055 91.0558 480.055 80.0359C480.055 68.9018 475.781 63.2791 467.684 63.2791Z" fill="white"/>
<path d="M498.944 79.9223C498.944 61.5921 507.827 52.9324 523.009 52.9324C536.616 52.9324 546.288 60.4666 546.288 75.4241V122.094C546.288 125.469 543.589 128.168 540.214 128.168C536.841 128.168 534.143 125.469 534.143 122.094V102.527C531.893 104.776 527.169 107.026 521.771 107.026C507.603 107.025 498.944 98.2526 498.944 79.9223ZM534.143 75.4239C534.143 67.6638 529.532 63.2784 523.009 63.2784C515.25 63.2784 510.975 68.9014 510.975 79.9221C510.975 91.0551 515.362 96.6789 523.009 96.6789C529.757 96.6789 534.143 90.9431 534.143 90.9431V75.4239Z" fill="white"/>
<path d="M106.667 80.0003C106.667 70.6494 105.06 61.6744 102.111 53.3337H102.102C97.0844 39.1414 88.1778 26.7871 76.6613 17.553C76.6414 17.5372 76.6216 17.5211 76.6016 17.5053C75.4782 16.6062 74.3297 15.7372 73.158 14.8986C73.1086 14.8633 73.059 14.8284 73.0096 14.7933C72.4454 14.3916 71.8767 13.9962 71.3018 13.609C71.289 13.6002 71.2763 13.5914 71.2633 13.5829C70.6775 13.1886 70.0852 12.8025 69.4884 12.4236C69.4175 12.3786 69.3459 12.3343 69.2748 12.2895C68.7425 11.9537 68.2058 11.6242 67.6649 11.3006C67.5912 11.2565 67.5181 11.2117 67.4441 11.1678C66.8553 10.8181 66.2618 10.4761 65.6634 10.1414C65.5796 10.0944 65.4948 10.0488 65.4105 10.0022C64.8901 9.71335 64.3659 9.43084 63.8384 9.15359C63.7223 9.09257 63.6068 9.03089 63.4905 8.97052C62.8943 8.66079 62.2943 8.35743 61.6896 8.06262C61.6071 8.02223 61.5234 7.9836 61.4407 7.94365C60.913 7.68836 60.3817 7.43965 59.8477 7.19578C59.7021 7.12926 59.5568 7.06275 59.4109 6.99712C58.803 6.72405 58.1923 6.45668 57.5766 6.19832C57.5176 6.17351 57.4579 6.15025 57.3986 6.12544C56.8371 5.89166 56.2718 5.66513 55.704 5.44386C55.5433 5.3813 55.3824 5.31896 55.221 5.25727C54.5959 5.01845 53.9683 4.78423 53.3359 4.56055H53.3355C22.2637 15.5422 0 45.169 0 80.001C0 89.3521 1.60989 98.3262 4.55858 106.668C15.5416 75.5974 45.1685 53.3343 79.9999 53.3343C94.7275 53.3337 106.667 65.2727 106.667 80.0003Z" fill="url(#paint0_linear)"/>
<path d="M53.369 81.3836C53.3458 80.9251 53.333 80.4634 53.333 79.9992C53.333 79.9851 53.3361 79.9722 53.3361 79.9581C53.3568 65.2507 65.2843 53.3334 79.9962 53.3328C78.8811 53.3328 77.7712 53.3571 76.6673 53.4023H76.6668C74.5922 53.4873 72.5385 53.6526 70.5078 53.893C70.4924 53.8947 70.4766 53.8958 70.4606 53.8978C68.4848 54.1327 66.5329 54.4455 64.6036 54.8217C64.518 54.8386 64.4306 54.8516 64.345 54.8685C62.4713 55.2403 60.6237 55.6844 58.7995 56.1847C58.6663 56.2213 58.5308 56.2534 58.398 56.2907C56.618 56.7887 54.8655 57.3535 53.1377 57.9695C52.97 58.0292 52.8003 58.0852 52.633 58.146C50.9393 58.7628 49.275 59.4404 47.6367 60.1661C47.4499 60.2491 47.2612 60.3286 47.075 60.4129C45.4647 61.1414 43.8846 61.926 42.3327 62.7559C42.1338 62.8624 41.9338 62.9667 41.7361 63.0747C40.2074 63.909 38.7108 64.7945 37.2449 65.7237C37.0418 65.8524 36.8381 65.9805 36.6359 66.1112C35.1876 67.0478 33.772 68.0308 32.3897 69.0563C32.1919 69.2032 31.9946 69.3505 31.7984 69.4991C30.4288 70.5347 29.0942 71.613 27.7956 72.7327C27.6072 72.8951 27.4211 73.0593 27.2339 73.2235C25.9453 74.356 24.6915 75.5277 23.478 76.7399C23.3072 76.9104 23.1389 77.0836 22.9696 77.256C21.7603 78.4861 20.5875 79.752 19.4588 81.0581C19.3106 81.2295 19.1668 81.4043 19.0198 81.577C17.8919 82.9048 16.8023 84.2662 15.7618 85.6665C15.6384 85.8327 15.5194 86.0024 15.3974 86.1696C14.3547 87.596 13.3522 89.054 12.4033 90.55C12.3086 90.6995 12.2191 90.8527 12.1249 91.003C11.1685 92.5333 10.2564 94.094 9.4032 95.6911C9.33976 95.8094 9.28159 95.9308 9.21859 96.0498C8.35262 97.6911 7.53538 99.362 6.78202 101.068C6.75019 101.14 6.72232 101.214 6.69049 101.286C5.91912 103.048 5.20396 104.84 4.55859 106.666C15.5414 137.736 45.1686 159.999 80.0001 159.999C89.3511 159.999 103.333 159.999 113.333 159.999C82.6751 149.162 54.1213 115.732 53.369 81.3836Z" fill="url(#paint1_linear)"/>
<path d="M106.667 79.9996C106.667 94.5115 95.0724 106.308 80.6428 106.65C80.6903 106.661 80.539 106.666 80.0001 106.666H103.333C120.181 106.666 135.194 114.486 144.967 126.685C154.426 113.546 160 97.4246 160 79.9996C160 79.3582 159.991 78.719 159.976 78.0811C159.971 77.8649 159.962 77.6496 159.955 77.4338C159.941 77.0141 159.927 76.5944 159.907 76.1762C159.895 75.9165 159.88 75.6575 159.865 75.3985C159.844 75.0277 159.821 74.6574 159.795 74.288C159.775 74.0079 159.754 73.728 159.731 73.4488C159.703 73.1052 159.672 72.7626 159.64 72.4201C159.612 72.126 159.585 71.8321 159.555 71.5388C159.521 71.2216 159.483 70.906 159.446 70.5896C159.41 70.2775 159.375 69.9647 159.335 69.6539C159.33 69.6174 159.325 69.5814 159.32 69.5452C159.196 68.5996 159.053 67.66 158.897 66.7252C158.868 66.5511 158.841 66.3764 158.81 66.2029C158.738 65.7848 158.66 65.3688 158.58 64.953C158.549 64.7856 158.517 64.6179 158.484 64.4506C158.4 64.0201 158.311 63.5914 158.219 63.1636C158.19 63.0279 158.161 62.8927 158.131 62.7575C158.03 62.2976 157.926 61.8388 157.817 61.382C157.803 61.3234 157.788 61.265 157.774 61.2066C149.319 26.0924 117.709 -0.000244141 80.0001 -0.000244141C70.649 -0.000244141 61.6749 1.60965 53.3335 4.55834C84.4037 15.5411 106.667 45.1681 106.667 79.9996Z" fill="url(#paint2_linear)"/>
<path d="M103.333 106.666H80.0002C65.737 106.666 54.0898 95.4679 53.3691 81.384C54.0417 112.079 76.9185 142.025 103.656 155.786C104.291 156.113 104.928 156.432 105.567 156.741C105.823 156.865 106.08 156.984 106.336 157.104C106.921 157.379 107.506 157.651 108.093 157.91C108.498 158.088 108.904 158.256 109.31 158.427C109.764 158.618 110.217 158.814 110.671 158.995C111.557 159.347 112.444 159.685 113.333 159.999H156.667C156.667 130.544 132.789 106.666 103.333 106.666Z" fill="url(#paint3_linear)"/>
<defs>
<linearGradient id="paint0_linear" x1="75.3039" y1="12.5536" x2="36.7806" y2="118.395" gradientUnits="userSpaceOnUse">
<stop stop-color="#CFCFCF"/>
<stop offset="1" stop-color="white"/>
</linearGradient>
<linearGradient id="paint1_linear" x1="36.4636" y1="64.0311" x2="76.2992" y2="173.479" gradientUnits="userSpaceOnUse">
<stop stop-color="#CFCFCF"/>
<stop offset="1" stop-color="white"/>
</linearGradient>
<linearGradient id="paint2_linear" x1="106.667" y1="126.685" x2="106.667" y2="-0.000244141" gradientUnits="userSpaceOnUse">
<stop stop-color="#CFCFCF"/>
<stop offset="1" stop-color="white"/>
</linearGradient>
<linearGradient id="paint3_linear" x1="53.3691" y1="120.692" x2="156.667" y2="120.692" gradientUnits="userSpaceOnUse">
<stop stop-color="#CFCFCF"/>
<stop offset="1" stop-color="white"/>
</linearGradient>
</defs>
</svg>
