<svg width="547" height="160" viewBox="0 0 547 160" fill="none" xmlns="http://www.w3.org/2000/svg">
<path d="M292.477 72.5011V100.616C292.477 103.989 289.777 106.463 286.401 106.463C282.801 106.463 280.325 103.989 280.325 100.616V74.7504C280.325 68.3409 277.739 63.9544 270.425 63.9544C262.325 63.9544 259.177 68.3409 259.177 74.6385V100.616C259.177 103.99 256.477 106.464 253.101 106.464C249.501 106.464 247.025 103.99 247.025 100.616V74.7504C247.025 68.3409 244.439 63.9544 237.125 63.9544C228.689 63.9544 225.877 68.9027 225.877 75.5383V100.616C225.877 103.99 223.289 106.464 219.801 106.464C216.313 106.464 213.725 103.99 213.725 100.616V59.6808C213.725 56.3071 216.425 53.608 219.801 53.608C223.177 53.608 225.877 56.3071 225.877 59.6808C228.013 56.4188 232.739 52.9332 240.277 52.9332C249.501 52.9332 254.113 55.8571 256.925 60.2436C260.525 55.4073 265.363 52.9332 273.013 52.9332C288.313 52.9334 292.477 62.7168 292.477 72.5011Z" fill="#3B3751"/>
<path d="M325.211 52.9327C344.223 52.9327 347.711 67.5524 347.711 75.3115C347.711 79.473 347.711 84.3081 340.847 84.3081H313.059C313.059 92.4052 318.797 96.1167 326.223 96.1167C331.173 96.1167 334.659 94.4304 337.359 92.6311C338.597 91.8433 339.497 91.3935 340.959 91.3935C343.885 91.3935 346.247 93.7546 346.247 96.6796C346.247 98.4789 345.347 99.9404 344.335 100.84C342.423 102.639 336.459 107.026 326.223 107.026C310.585 107.026 300.911 98.5908 300.911 79.8097C300.911 62.6042 309.911 52.9327 325.211 52.9327ZM313.397 74.1878H335.673C335.673 68.6767 332.523 63.2787 325.211 63.2787C318.685 63.279 313.959 66.9904 313.397 74.1878Z" fill="#3B3751"/>
<path d="M434.897 72.5006V100.615C434.897 103.989 432.196 106.463 428.82 106.463C425.22 106.463 422.744 103.989 422.744 100.615V74.75C422.744 68.3404 420.158 63.954 412.844 63.954C404.744 63.954 401.596 68.3404 401.596 74.638V100.615C401.596 103.989 398.896 106.463 395.52 106.463C391.92 106.463 389.444 103.989 389.444 100.615V74.75C389.444 68.3404 386.858 63.954 379.544 63.954C371.108 63.954 368.296 68.9022 368.296 75.5378V100.616C368.296 103.989 365.708 106.463 362.22 106.463C358.732 106.463 356.144 103.989 356.144 100.616V59.6803C356.144 56.3066 358.844 53.6075 362.22 53.6075C365.596 53.6075 368.296 56.3066 368.296 59.6803C370.432 56.4184 375.158 52.9327 382.696 52.9327C391.92 52.9327 396.532 55.8566 399.344 60.2431C402.944 55.4068 407.782 52.9327 415.432 52.9327C430.732 52.933 434.897 62.7163 434.897 72.5006Z" fill="#3B3751"/>
<path d="M467.854 107.026C452.666 107.026 443.216 98.3658 443.216 80.0358C443.216 61.5925 452.666 52.9327 467.854 52.9327C483.042 52.9327 492.492 61.5927 492.492 80.0358C492.492 98.3658 483.042 107.026 467.854 107.026ZM467.854 63.279C459.754 63.279 455.478 68.902 455.478 80.0358C455.478 91.0557 459.754 96.6796 467.854 96.6796C475.954 96.6796 480.23 91.0557 480.23 80.0358C480.23 68.9017 475.954 63.279 467.854 63.279Z" fill="#3B3751"/>
<path d="M499.126 79.9227C499.126 61.5925 508.012 52.9327 523.2 52.9327C536.812 52.9327 546.488 60.467 546.488 75.4245V122.094C546.488 125.469 543.787 128.168 540.411 128.168C537.037 128.168 534.338 125.469 534.338 122.094V102.528C532.088 104.777 527.362 107.026 521.962 107.026C507.788 107.026 499.126 98.253 499.126 79.9227ZM534.338 75.4243C534.338 67.6641 529.726 63.2787 523.2 63.2787C515.438 63.2787 511.162 68.9017 511.162 79.9225C511.162 91.0555 515.55 96.6793 523.2 96.6793C529.95 96.6793 534.338 90.9435 534.338 90.9435V75.4243Z" fill="#3B3751"/>
<path d="M106.706 80.0005C106.706 70.6495 105.098 61.6746 102.149 53.3338H102.14C97.1199 39.1415 88.21 26.7872 76.6893 17.553C76.6693 17.5372 76.6496 17.5212 76.6296 17.5054C75.5057 16.6063 74.3568 15.7372 73.1847 14.8987C73.1352 14.8634 73.0856 14.8285 73.0362 14.7933C72.4719 14.3916 71.9029 13.9963 71.3278 13.6091C71.3151 13.6003 71.3023 13.5915 71.2894 13.583C70.7033 13.1887 70.1108 12.8026 69.5138 12.4237C69.4428 12.3787 69.3712 12.3344 69.3001 12.2896C68.7676 11.9537 68.2307 11.6243 67.6896 11.3007C67.6158 11.2566 67.5427 11.2118 67.4687 11.1679C66.8798 10.8182 66.286 10.4762 65.6874 10.1415C65.6035 10.0945 65.5187 10.0488 65.4344 10.0023C64.9138 9.71341 64.3894 9.4309 63.8617 9.15366C63.7455 9.09263 63.63 9.03095 63.5136 8.97059C62.9172 8.66086 62.3171 8.35749 61.7121 8.06269C61.6295 8.0223 61.5459 7.98367 61.4631 7.94372C60.9352 7.68842 60.4038 7.43972 59.8695 7.19584C59.7239 7.12933 59.5786 7.06282 59.4325 6.99718C58.8245 6.72411 58.2136 6.45674 57.5976 6.19838C57.5386 6.17357 57.4788 6.15031 57.4195 6.1255C56.8578 5.89172 56.2924 5.66519 55.7243 5.44392C55.5636 5.38136 55.4026 5.31902 55.2412 5.25734C54.6158 5.01851 53.988 4.78429 53.3554 4.56061H53.3549C22.2718 15.5423 0 45.1691 0 80.0011C0 89.3523 1.61048 98.3263 4.56025 106.668C15.5473 75.5975 45.185 53.3345 80.0291 53.3345C94.7621 53.3338 106.706 65.2728 106.706 80.0005Z" fill="url(#paint0_linear)"/>
<path d="M53.3885 81.3836C53.3652 80.925 53.3525 80.4634 53.3525 79.9991C53.3525 79.9851 53.3556 79.9721 53.3556 79.9581C53.3762 65.2506 65.3081 53.3334 80.0253 53.3327C78.9098 53.3327 77.7996 53.3571 76.6952 53.4023H76.6948C74.6194 53.4872 72.5649 53.6525 70.5335 53.8929C70.5181 53.8946 70.5023 53.8957 70.4863 53.8977C68.5098 54.1326 66.5572 54.4454 64.6272 54.8217C64.5415 54.8386 64.4541 54.8515 64.3685 54.8684C62.4941 55.2403 60.6458 55.6843 58.821 56.1846C58.6877 56.2213 58.5522 56.2533 58.4193 56.2906C56.6387 56.7887 54.8855 57.3535 53.1571 57.9694C52.9893 58.0291 52.8195 58.0851 52.6522 58.1459C50.9578 58.7627 49.2929 59.4404 47.6541 60.1661C47.4672 60.2491 47.2784 60.3285 47.0922 60.4128C45.4812 61.1414 43.9006 61.9259 42.3481 62.7559C42.1492 62.8623 41.9491 62.9666 41.7513 63.0746C40.222 63.909 38.7249 64.7945 37.2584 65.7237C37.0553 65.8523 36.8515 65.9805 36.6493 66.1111C35.2004 67.0478 33.7843 68.0307 32.4015 69.0563C32.2037 69.2031 32.0063 69.3504 31.8099 69.499C30.4399 70.5347 29.1048 71.6129 27.8057 72.7327C27.6173 72.8951 27.4311 73.0593 27.2438 73.2235C25.9548 74.3559 24.7005 75.5277 23.4866 76.7398C23.3157 76.9104 23.1473 77.0836 22.978 77.2559C21.7683 78.4861 20.595 79.752 19.4659 81.0581C19.3176 81.2295 19.1738 81.4042 19.0267 81.577C17.8984 82.9048 16.8084 84.2662 15.7675 85.6665C15.6441 85.8326 15.5251 86.0023 15.403 86.1696C14.3599 87.596 13.3571 89.054 12.4078 90.55C12.3131 90.6994 12.2235 90.8527 12.1293 91.003C11.1726 92.5332 10.2602 94.094 9.40662 95.6911C9.34315 95.8094 9.28496 95.9308 9.22194 96.0498C8.35565 97.6911 7.53812 99.362 6.78448 101.068C6.75264 101.14 6.72475 101.214 6.69291 101.286C5.92127 103.048 5.20584 104.84 4.56024 106.666C15.547 137.737 45.185 159.999 80.0293 159.999C89.3836 159.999 103.371 159.999 113.375 159.999C82.7052 149.162 54.141 115.732 53.3885 81.3836Z" fill="url(#paint1_linear)"/>
<path d="M106.706 80C106.706 94.5119 95.107 106.308 80.6722 106.65C80.7197 106.661 80.5684 106.667 80.0293 106.667H103.371C120.225 106.667 135.243 114.487 145.02 126.685C154.482 113.546 160.058 97.425 160.058 80C160.058 79.3586 160.049 78.7194 160.034 78.0815C160.029 77.8653 160.02 77.6499 160.013 77.4342C160 77.0145 159.985 76.5947 159.965 76.1766C159.953 75.9169 159.938 75.6579 159.923 75.3989C159.902 75.0281 159.879 74.6578 159.853 74.2883C159.833 74.0082 159.812 73.7284 159.79 73.4492C159.762 73.1056 159.73 72.763 159.698 72.4205C159.671 72.1264 159.644 71.8325 159.613 71.5392C159.579 71.222 159.541 70.9063 159.504 70.59C159.468 70.2779 159.433 69.9651 159.393 69.6542C159.389 69.6178 159.383 69.5818 159.378 69.5456C159.254 68.5999 159.111 67.6604 158.955 66.7255C158.926 66.5515 158.899 66.3767 158.868 66.2033C158.796 65.7851 158.718 65.3692 158.638 64.9534C158.606 64.7859 158.575 64.6182 158.542 64.451C158.457 64.0205 158.368 63.5918 158.277 63.164C158.248 63.0283 158.218 62.8931 158.188 62.7579C158.087 62.298 157.983 61.8392 157.874 61.3824C157.86 61.3238 157.846 61.2654 157.831 61.207C149.374 26.0927 117.752 6.10352e-05 80.0293 6.10352e-05C70.6747 6.10352e-05 61.6974 1.60996 53.3529 4.55865C84.4345 15.5415 106.706 45.1684 106.706 80Z" fill="url(#paint2_linear)"/>
<path d="M103.371 106.666H80.0292C65.7608 106.666 54.1093 95.4682 53.3884 81.3843C54.0613 112.079 76.9464 142.025 103.693 155.786C104.329 156.113 104.966 156.432 105.605 156.741C105.861 156.865 106.118 156.984 106.375 157.104C106.959 157.38 107.545 157.651 108.132 157.91C108.537 158.089 108.944 158.257 109.35 158.427C109.804 158.618 110.257 158.814 110.712 158.995C111.597 159.347 112.485 159.685 113.375 159.999H156.724C156.724 130.544 132.837 106.666 103.371 106.666Z" fill="url(#paint3_linear)"/>
<defs>
<linearGradient id="paint0_linear" x1="75.3316" y1="12.5528" x2="36.819" y2="118.404" gradientUnits="userSpaceOnUse">
<stop stop-color="#EF3F3F"/>
<stop offset="1" stop-color="#F47623"/>
</linearGradient>
<linearGradient id="paint1_linear" x1="36.4769" y1="64.0308" x2="76.3014" y2="173.488" gradientUnits="userSpaceOnUse">
<stop stop-color="#EF3F3F"/>
<stop offset="1" stop-color="#F47623"/>
</linearGradient>
<linearGradient id="paint2_linear" x1="106.705" y1="126.685" x2="106.705" y2="6.10352e-05" gradientUnits="userSpaceOnUse">
<stop stop-color="#EF3F3F"/>
<stop offset="1" stop-color="#F47623"/>
</linearGradient>
<linearGradient id="paint3_linear" x1="53.3884" y1="120.692" x2="156.724" y2="120.692" gradientUnits="userSpaceOnUse">
<stop stop-color="#EF3F3F"/>
<stop offset="1" stop-color="#F47623"/>
</linearGradient>
</defs>
</svg>
