<svg width="110" height="32" fill="none" xmlns="http://www.w3.org/2000/svg"><g clip-path="url(#clip0)"><path d="M58.474 14.5v5.623c0 .675-.54 1.17-1.215 1.17-.72 0-1.214-.495-1.214-1.17V14.95c0-1.282-.517-2.159-1.98-2.159-1.62 0-2.248.877-2.248 2.137v5.195c0 .675-.54 1.17-1.215 1.17-.72 0-1.215-.495-1.215-1.17V14.95c0-1.282-.517-2.159-1.98-2.159-1.686 0-2.248.99-2.248 2.317v5.015c0 .675-.517 1.17-1.215 1.17-.697 0-1.215-.495-1.215-1.17v-8.187c0-.675.54-1.214 1.215-1.214s1.215.54 1.215 1.214c.427-.652 1.372-1.35 2.879-1.35 1.844 0 2.766.585 3.328 1.463.72-.967 1.687-1.462 3.217-1.462 3.059 0 3.891 1.957 3.891 3.913zM65.019 10.587c3.8 0 4.498 2.924 4.498 4.476 0 .832 0 1.799-1.373 1.799H62.59c0 1.62 1.147 2.362 2.632 2.362.99 0 1.686-.338 2.226-.698.248-.157.428-.247.72-.247.585 0 1.057.472 1.057 1.057 0 .36-.18.652-.382.832-.382.36-1.575 1.237-3.621 1.237-3.127 0-5.06-1.687-5.06-5.443 0-3.44 1.799-5.375 4.858-5.375zm-2.363 4.25h4.454c0-1.101-.63-2.181-2.091-2.181-1.305 0-2.25.742-2.363 2.182zM86.948 14.5v5.623c0 .675-.54 1.17-1.215 1.17-.72 0-1.215-.495-1.215-1.17V14.95c0-1.282-.517-2.159-1.98-2.159-1.619 0-2.248.877-2.248 2.137v5.195c0 .675-.54 1.17-1.215 1.17-.72 0-1.215-.495-1.215-1.17V14.95c0-1.282-.516-2.159-1.979-2.159-1.686 0-2.249.99-2.249 2.317v5.015c0 .675-.517 1.17-1.214 1.17-.698 0-1.215-.495-1.215-1.17v-8.187c0-.675.54-1.214 1.215-1.214s1.214.54 1.214 1.214c.427-.652 1.372-1.35 2.88-1.35 1.844 0 2.766.585 3.328 1.463.72-.967 1.687-1.462 3.216-1.462 3.06 0 3.892 1.957 3.892 3.913zM93.537 21.405c-3.037 0-4.926-1.732-4.926-5.398 0-3.688 1.89-5.42 4.926-5.42 3.036 0 4.926 1.732 4.926 5.42 0 3.666-1.89 5.398-4.926 5.398zm0-8.749c-1.62 0-2.475 1.125-2.475 3.351 0 2.204.855 3.33 2.475 3.33s2.474-1.126 2.474-3.33c0-2.226-.855-3.351-2.474-3.351zM99.789 15.985c0-3.666 1.776-5.398 4.813-5.398 2.721 0 4.656 1.507 4.656 4.498v9.334a1.21 1.21 0 01-1.215 1.215c-.675 0-1.214-.54-1.214-1.215v-3.913c-.45.45-1.395.9-2.475.9-2.833 0-4.565-1.755-4.565-5.421zm7.04-.9c0-1.552-.922-2.429-2.227-2.429-1.552 0-2.407 1.125-2.407 3.329 0 2.226.877 3.351 2.407 3.351 1.349 0 2.227-1.147 2.227-1.147v-3.104z" fill="#fff"/><path d="M21.333 16c0-1.87-.321-3.665-.91-5.333h-.002a16.036 16.036 0 00-5.089-7.157l-.012-.01c-.224-.179-.454-.353-.688-.52l-.03-.022c-.113-.08-.227-.159-.342-.236l-.007-.006a16.08 16.08 0 00-.355-.231c-.014-.01-.029-.018-.043-.027a15.988 15.988 0 00-.322-.198l-.044-.027c-.118-.07-.237-.138-.356-.205L13.083 2a15.722 15.722 0 00-.315-.17l-.07-.036c-.12-.062-.24-.123-.36-.182l-.05-.023c-.105-.051-.212-.101-.319-.15l-.087-.04a16.01 16.01 0 00-.367-.16l-.035-.014a15.808 15.808 0 00-.813-.313C4.453 3.108 0 9.034 0 16c0 1.87.322 3.665.912 5.333C3.108 15.12 9.034 10.667 16 10.667A5.333 5.333 0 0121.333 16z" fill="url(#paint0_linear)"/><path d="M10.674 16.277a5.528 5.528 0 01-.007-.277v-.008A5.333 5.333 0 0116 10.667a16.112 16.112 0 00-1.898.112h-.009c-.395.048-.785.11-1.171.185l-.052.01a15.89 15.89 0 00-1.11.263l-.08.021c-.355.1-.706.213-1.051.336l-.101.035c-.34.124-.672.26-1 .404l-.112.05c-.322.145-.638.302-.948.468l-.12.064c-.306.167-.605.344-.898.53l-.122.077a16.075 16.075 0 00-1.768 1.325l-.112.098c-.258.226-.509.46-.751.703l-.102.103c-.242.246-.476.5-.702.76l-.088.105a16.06 16.06 0 00-.652.817l-.073.101c-.208.285-.409.577-.598.876-.02.03-.037.06-.056.09a15.92 15.92 0 00-.544.938l-.037.072c-.173.328-.337.662-.488 1.004l-.018.043c-.154.353-.297.711-.426 1.076C3.108 27.547 9.034 32 16 32h6.667c-6.132-2.168-11.843-8.853-11.993-15.723z" fill="url(#paint1_linear)"/><path d="M21.333 16A5.332 5.332 0 0116 21.333h4.667c3.37 0 6.372 1.564 8.326 4.004a15.927 15.927 0 003.002-9.72c0-.044-.003-.087-.004-.13a16.113 16.113 0 00-.01-.252l-.008-.155a14.867 14.867 0 00-.045-.596c-.006-.059-.01-.117-.017-.176l-.022-.19-.022-.187-.003-.022c-.025-.189-.053-.377-.085-.564-.006-.035-.01-.07-.017-.104a15.72 15.72 0 00-.046-.25l-.02-.1a15.428 15.428 0 00-.133-.614l-.008-.036C29.864 5.22 23.542 0 16 0c-1.87 0-3.665.322-5.333.912C16.88 3.108 21.333 9.034 21.333 16z" fill="url(#paint2_linear)"/><path d="M20.667 21.333H16a5.334 5.334 0 01-5.326-5.056c.134 6.139 4.71 12.128 10.057 14.88.127.066.254.13.382.191l.154.073c.117.055.234.11.352.161.08.036.162.07.243.104.09.038.181.077.272.113.177.07.355.138.533.2h8.666c0-5.89-4.775-10.666-10.666-10.666z" fill="url(#paint3_linear)"/></g><defs><linearGradient id="paint0_linear" x1="15.061" y1="2.511" x2="7.356" y2="23.679" gradientUnits="userSpaceOnUse"><stop stop-color="#EF3F3F"/><stop offset="1" stop-color="#F47623"/></linearGradient><linearGradient id="paint1_linear" x1="7.293" y1="12.806" x2="15.26" y2="34.696" gradientUnits="userSpaceOnUse"><stop stop-color="#EF3F3F"/><stop offset="1" stop-color="#F47623"/></linearGradient><linearGradient id="paint2_linear" x1="21.333" y1="25.337" x2="21.333" y2="0" gradientUnits="userSpaceOnUse"><stop stop-color="#EF3F3F"/><stop offset="1" stop-color="#F47623"/></linearGradient><linearGradient id="paint3_linear" x1="10.674" y1="24.138" x2="31.333" y2="24.138" gradientUnits="userSpaceOnUse"><stop stop-color="#EF3F3F"/><stop offset="1" stop-color="#F47623"/></linearGradient><clipPath id="clip0"><path fill="#fff" d="M0 0h110v32H0z"/></clipPath></defs></svg>