<svg width="164" height="48" viewBox="0 0 164 48" fill="none" xmlns="http://www.w3.org/2000/svg">
<path d="M87.7112 21.7501V30.1845C87.7112 31.1966 86.9015 31.9388 85.8891 31.9388C84.8095 31.9388 84.0669 31.1966 84.0669 30.1845V22.4249C84.0669 20.5021 83.2914 19.1861 81.098 19.1861C78.6689 19.1861 77.7249 20.5021 77.7249 22.3913V30.1845C77.7249 31.1966 76.9151 31.9389 75.9027 31.9389C74.8231 31.9389 74.0805 31.1966 74.0805 30.1845V22.4249C74.0805 20.5021 73.305 19.1861 71.1116 19.1861C68.5818 19.1861 67.7385 20.6706 67.7385 22.6613V30.1846C67.7385 31.1967 66.9623 31.9389 65.9163 31.9389C64.8703 31.9389 64.0941 31.1967 64.0941 30.1846V17.904C64.0941 16.8919 64.9039 16.0822 65.9163 16.0822C66.9287 16.0822 67.7385 16.8919 67.7385 17.904C68.379 16.9254 69.7963 15.8798 72.0569 15.8798C74.823 15.8798 76.2061 16.7569 77.0494 18.0729C78.129 16.622 79.5799 15.8798 81.874 15.8798C86.4625 15.8798 87.7112 18.8148 87.7112 21.7501Z" fill="white"/>
<path d="M97.5278 15.8798C103.229 15.8798 104.275 20.2657 104.275 22.5934C104.275 23.8418 104.275 25.2924 102.217 25.2924H93.8835C93.8835 27.7215 95.6043 28.8349 97.8313 28.8349C99.3158 28.8349 100.361 28.3291 101.171 27.7893C101.542 27.5529 101.812 27.418 102.25 27.418C103.128 27.418 103.836 28.1263 103.836 29.0038C103.836 29.5436 103.566 29.982 103.263 30.2519C102.689 30.7917 100.901 32.1077 97.8313 32.1077C93.1416 32.1077 90.2405 29.5772 90.2405 23.9428C90.2404 18.7812 92.9394 15.8798 97.5278 15.8798ZM93.9849 22.2563H100.665C100.665 20.603 99.7206 18.9836 97.5278 18.9836C95.5707 18.9836 94.1534 20.0971 93.9849 22.2563Z" fill="white"/>
<path d="M130.421 21.7501V30.1845C130.421 31.1966 129.612 31.9388 128.599 31.9388C127.52 31.9388 126.777 31.1966 126.777 30.1845V22.4249C126.777 20.5021 126.002 19.1861 123.808 19.1861C121.379 19.1861 120.435 20.5021 120.435 22.3913V30.1845C120.435 31.1966 119.625 31.9389 118.613 31.9389C117.533 31.9389 116.791 31.1966 116.791 30.1845V22.4249C116.791 20.5021 116.015 19.1861 113.822 19.1861C111.292 19.1861 110.449 20.6706 110.449 22.6613V30.1846C110.449 31.1967 109.672 31.9389 108.626 31.9389C107.58 31.9389 106.804 31.1967 106.804 30.1846V17.904C106.804 16.8919 107.614 16.0822 108.626 16.0822C109.639 16.0822 110.449 16.8919 110.449 17.904C111.089 16.9254 112.506 15.8798 114.767 15.8798C117.533 15.8798 118.916 16.7569 119.759 18.0729C120.839 16.622 122.29 15.8798 124.584 15.8798C129.173 15.8798 130.421 18.8148 130.421 21.7501Z" fill="white"/>
<path d="M140.305 32.1077C135.75 32.1077 132.916 29.5097 132.916 24.0107C132.916 18.4777 135.75 15.8798 140.305 15.8798C144.86 15.8798 147.694 18.4777 147.694 24.0107C147.694 29.5097 144.86 32.1077 140.305 32.1077ZM140.305 18.9836C137.876 18.9836 136.594 20.6705 136.594 24.0107C136.594 27.3166 137.876 29.0038 140.305 29.0038C142.734 29.0038 144.016 27.3166 144.016 24.0107C144.016 20.6705 142.734 18.9836 140.305 18.9836Z" fill="white"/>
<path d="M149.683 23.9768C149.683 18.4777 152.348 15.8798 156.903 15.8798C160.985 15.8798 163.886 18.14 163.886 22.6273V36.6282C163.886 37.6407 163.077 38.4504 162.064 38.4504C161.052 38.4504 160.243 37.6407 160.243 36.6282V30.7582C159.568 31.4329 158.151 32.1077 156.531 32.1077C152.281 32.1077 149.683 29.4758 149.683 23.9768ZM160.243 22.6272C160.243 20.2992 158.86 18.9836 156.903 18.9836C154.575 18.9836 153.293 20.6705 153.293 23.9767C153.293 27.3166 154.609 29.0037 156.903 29.0037C158.927 29.0037 160.243 27.283 160.243 27.283V22.6272Z" fill="white"/>
<path d="M32 24.0001C32 21.1948 31.518 18.5023 30.6334 16.0001H30.6307C29.1253 11.7424 26.4533 8.03614 22.9984 5.26589C22.9924 5.26115 22.9865 5.25634 22.9805 5.2516C22.6435 4.98186 22.2989 4.72115 21.9474 4.46959C21.9326 4.45899 21.9177 4.44852 21.9029 4.43798C21.7336 4.31747 21.563 4.19887 21.3905 4.0827C21.3867 4.08007 21.3829 4.07743 21.379 4.07487C21.2032 3.95659 21.0256 3.84076 20.8465 3.72709C20.8252 3.71359 20.8038 3.70029 20.7824 3.68686C20.6227 3.5861 20.4617 3.48726 20.2995 3.39019C20.2773 3.37695 20.2554 3.36352 20.2332 3.35035C20.0566 3.24544 19.8785 3.14284 19.699 3.04242C19.6739 3.02833 19.6484 3.01463 19.6232 3.00067C19.467 2.914 19.3098 2.82925 19.1515 2.74608C19.1167 2.72777 19.082 2.70927 19.0471 2.69116C18.8683 2.59824 18.6883 2.50723 18.5069 2.41879C18.4821 2.40667 18.457 2.39508 18.4322 2.3831C18.2739 2.30651 18.1145 2.2319 17.9543 2.15873C17.9106 2.13878 17.8671 2.11883 17.8233 2.09914C17.6409 2.01721 17.4577 1.937 17.273 1.8595C17.2553 1.85205 17.2374 1.84507 17.2196 1.83763C17.0511 1.7675 16.8816 1.69954 16.7112 1.63316C16.663 1.61439 16.6147 1.59569 16.5663 1.57718C16.3788 1.50553 16.1905 1.43527 16.0008 1.36816H16.0006C6.6791 4.66267 0 13.5507 0 24.0003C0 26.8056 0.482968 29.4979 1.36758 32.0003C4.66248 22.6792 13.5506 16.0003 24 16.0003C28.4183 16.0001 32 19.5818 32 24.0001Z" fill="#F47623"/>
<path d="M16.0107 24.4157C16.0037 24.2782 15.9999 24.1397 15.9999 24.0004C15.9999 23.9962 16.0008 23.9923 16.0008 23.9881C16.007 19.5759 19.5853 16.0007 23.9989 16.0005C23.6643 16.0005 23.3314 16.0078 23.0002 16.0214H23.0001C22.3777 16.0468 21.7616 16.0964 21.1523 16.1685C21.1477 16.1691 21.143 16.1694 21.1382 16.17C20.5454 16.2405 19.9599 16.3343 19.3811 16.4472C19.3554 16.4522 19.3292 16.4561 19.3035 16.4612C18.7414 16.5728 18.1871 16.706 17.6399 16.8561C17.5999 16.8671 17.5593 16.8767 17.5194 16.8879C16.9854 17.0373 16.4596 17.2067 15.9413 17.3915C15.891 17.4094 15.8401 17.4262 15.7899 17.4445C15.2818 17.6295 14.7825 17.8328 14.291 18.0505C14.235 18.0754 14.1784 18.0992 14.1225 18.1245C13.6394 18.3431 13.1654 18.5784 12.6998 18.8274C12.6402 18.8594 12.5802 18.8907 12.5208 18.9231C12.0622 19.1734 11.6132 19.439 11.1735 19.7178C11.1126 19.7564 11.0514 19.7948 10.9908 19.834C10.5563 20.115 10.1316 20.4099 9.71692 20.7176C9.65759 20.7616 9.59839 20.8058 9.53952 20.8504C9.12866 21.1611 8.72827 21.4846 8.33868 21.8205C8.28218 21.8692 8.22634 21.9185 8.17016 21.9677C7.7836 22.3075 7.40745 22.659 7.04341 23.0226C6.99218 23.0738 6.94167 23.1257 6.8909 23.1774C6.52811 23.5465 6.17626 23.9263 5.83764 24.3181C5.79319 24.3695 5.75005 24.4219 5.70593 24.4738C5.36758 24.8721 5.04068 25.2805 4.72854 25.7006C4.69153 25.7505 4.65584 25.8014 4.61922 25.8515C4.30642 26.2795 4.00567 26.7169 3.72098 27.1657C3.6926 27.2105 3.66573 27.2565 3.63748 27.3016C3.35056 27.7606 3.07694 28.2288 2.82097 28.708C2.80193 28.7435 2.78448 28.7799 2.76558 28.8156C2.50579 29.308 2.26062 29.8093 2.03461 30.3211C2.02506 30.3427 2.0167 30.3649 2.00715 30.3865C1.77574 30.9151 1.56119 31.4528 1.36758 32.0005C4.66242 41.3216 13.5506 48.0004 24 48.0004C26.8053 48.0004 31 48.0004 34 48.0004C24.8025 44.7491 16.2364 34.7204 16.0107 24.4157Z" fill="#EF3F3F"/>
<path d="M32 24C32 28.3535 28.5217 31.8924 24.1928 31.9951C24.207 31.9983 24.1617 32 24 32H31C36.0542 32 40.558 34.3459 43.4902 38.0055C46.3276 34.0639 48 29.2275 48 24C48 23.8075 47.9972 23.6158 47.9926 23.4244C47.9911 23.3595 47.9884 23.2949 47.9864 23.2302C47.9824 23.1043 47.978 22.9784 47.972 22.8529C47.9683 22.775 47.9639 22.6973 47.9595 22.6196C47.9531 22.5084 47.9462 22.3973 47.9383 22.2865C47.9324 22.2024 47.9261 22.1185 47.9194 22.0347C47.911 21.9317 47.9016 21.8288 47.892 21.7261C47.8837 21.6379 47.8756 21.5497 47.8663 21.4617C47.8563 21.3666 47.8449 21.2719 47.8338 21.177C47.8228 21.0833 47.8125 20.9895 47.8005 20.8962C47.7991 20.8853 47.7973 20.8745 47.7959 20.8636C47.7589 20.5799 47.7159 20.2981 47.669 20.0176C47.6603 19.9654 47.6522 19.913 47.6431 19.861C47.6213 19.7355 47.5979 19.6107 47.5741 19.486C47.5645 19.4357 47.5551 19.3854 47.5452 19.3352C47.5198 19.2061 47.4931 19.0775 47.4657 18.9492C47.4569 18.9085 47.4481 18.8679 47.4391 18.8273C47.4089 18.6894 47.3776 18.5517 47.345 18.4147C47.3408 18.3971 47.3364 18.3796 47.3321 18.3621C44.7958 7.82778 35.3127 0 24 0C21.1946 0 18.5024 0.482968 16 1.36758C25.3211 4.66241 32 13.5505 32 24Z" fill="#EF3F3F"/>
<path d="M31 32H24.0001C19.7211 32 16.2269 28.6407 16.0107 24.4155C16.2125 33.624 23.0755 42.6078 31.0967 46.736C31.2873 46.8341 31.4784 46.9299 31.6701 47.0226C31.7469 47.0597 31.824 47.0954 31.9009 47.1316C32.0762 47.2141 32.2517 47.2955 32.4278 47.3733C32.5493 47.4268 32.6712 47.4772 32.7931 47.5284C32.9292 47.5857 33.065 47.6444 33.2014 47.6988C33.467 47.8044 33.7332 47.9057 34 48H47C47 39.1635 39.8366 32 31 32Z" fill="#F47623"/>
</svg>
