<svg width="547" height="160" viewBox="0 0 547 160" fill="none" xmlns="http://www.w3.org/2000/svg">
<path d="M292.37 72.501V100.615C292.37 103.989 289.671 106.463 286.296 106.463C282.697 106.463 280.222 103.989 280.222 100.615V74.7504C280.222 68.3409 277.637 63.9544 270.326 63.9544C262.229 63.9544 259.082 68.3409 259.082 74.6384V100.616C259.082 103.989 256.383 106.463 253.008 106.463C249.41 106.463 246.934 103.989 246.934 100.616V74.7504C246.934 68.3409 244.349 63.9544 237.038 63.9544C228.605 63.9544 225.794 68.9026 225.794 75.5382V100.616C225.794 103.99 223.207 106.464 219.72 106.464C216.234 106.464 213.646 103.99 213.646 100.616V59.6808C213.646 56.3071 216.346 53.608 219.72 53.608C223.095 53.608 225.794 56.3071 225.794 59.6808C227.929 56.4188 232.654 52.9332 240.189 52.9332C249.409 52.9332 254.019 55.8571 256.831 60.2436C260.429 55.4073 265.265 52.9332 272.913 52.9332C288.207 52.9334 292.37 62.7168 292.37 72.501Z" fill="white"/>
<path d="M325.091 52.9337C344.096 52.9337 347.583 67.5533 347.583 75.3124C347.583 79.4738 347.583 84.309 340.722 84.309H312.944C312.944 92.4061 318.68 96.1175 326.103 96.1175C331.051 96.1175 334.536 94.4313 337.235 92.632C338.473 91.8441 339.372 91.3944 340.834 91.3944C343.759 91.3944 346.12 93.7554 346.12 96.6804C346.12 98.4797 345.22 99.9412 344.208 100.841C342.297 102.64 336.335 107.027 326.103 107.027C310.471 107.027 300.801 98.5917 300.801 79.8106C300.8 62.6051 309.797 52.9337 325.091 52.9337ZM313.282 74.1887H335.55C335.55 68.6777 332.401 63.2797 325.091 63.2797C318.568 63.2799 313.844 66.9914 313.282 74.1887Z" fill="white"/>
<path d="M434.737 72.5015V100.616C434.737 103.99 432.038 106.464 428.663 106.464C425.064 106.464 422.589 103.99 422.589 100.616V74.7508C422.589 68.3414 420.004 63.9549 412.693 63.9549C404.595 63.9549 401.449 68.3414 401.449 74.6389V100.616C401.449 103.99 398.75 106.464 395.375 106.464C391.776 106.464 389.301 103.99 389.301 100.616V74.7508C389.301 68.3414 386.716 63.9549 379.405 63.9549C370.972 63.9549 368.161 68.9031 368.161 75.5387V100.616C368.161 103.99 365.574 106.464 362.087 106.464C358.6 106.464 356.013 103.99 356.013 100.616V59.6812C356.013 56.3076 358.712 53.6085 362.087 53.6085C365.462 53.6085 368.161 56.3076 368.161 59.6812C370.296 56.4193 375.02 52.9337 382.556 52.9337C391.776 52.9337 396.386 55.8576 399.197 60.2441C402.796 55.4078 407.632 52.9337 415.279 52.9337C430.574 52.9339 434.737 62.7173 434.737 72.5015Z" fill="white"/>
<path d="M467.682 107.027C452.5 107.027 443.054 98.3667 443.054 80.0367C443.054 61.5934 452.5 52.9337 467.682 52.9337C482.865 52.9337 492.311 61.5936 492.311 80.0367C492.311 98.3667 482.865 107.027 467.682 107.027ZM467.682 63.2799C459.585 63.2799 455.311 68.9029 455.311 80.0367C455.311 91.0565 459.586 96.6804 467.682 96.6804C475.779 96.6804 480.054 91.0565 480.054 80.0367C480.054 68.9027 475.779 63.2799 467.682 63.2799Z" fill="white"/>
<path d="M498.942 79.9236C498.942 61.5934 507.825 52.9337 523.007 52.9337C536.614 52.9337 546.287 60.468 546.287 75.4254V122.095C546.287 125.47 543.588 128.169 540.213 128.169C536.84 128.169 534.141 125.47 534.141 122.095V102.528C531.892 104.777 527.168 107.027 521.77 107.027C507.601 107.027 498.942 98.2538 498.942 79.9236ZM534.141 75.4252C534.141 67.6651 529.531 63.2797 523.008 63.2797C515.248 63.2797 510.974 68.9027 510.974 79.9234C510.974 91.0563 515.36 96.6802 523.008 96.6802C529.755 96.6802 534.141 90.9443 534.141 90.9443V75.4252Z" fill="white"/>
<path d="M106.666 79.9995C106.666 70.6486 105.06 61.6737 102.111 53.3329H102.102C97.0842 39.1407 88.1775 26.7865 76.6611 17.5523C76.6412 17.5365 76.6214 17.5205 76.6014 17.5047C75.478 16.6056 74.3295 15.7365 73.1578 14.898C73.1084 14.8627 73.0588 14.8278 73.0094 14.7926C72.4452 14.3909 71.8765 13.9956 71.3016 13.6084C71.2888 13.5996 71.2761 13.5908 71.2632 13.5823C70.6773 13.188 70.085 12.8019 69.4882 12.423C69.4173 12.378 69.3457 12.3337 69.2746 12.2889C68.7423 11.953 68.2056 11.6236 67.6647 11.3C67.591 11.2559 67.5179 11.2111 67.4439 11.1672C66.8552 10.8175 66.2616 10.4755 65.6632 10.1408C65.5794 10.0938 65.4946 10.0481 65.4104 10.0016C64.8899 9.71272 64.3657 9.43021 63.8382 9.15297C63.7221 9.09195 63.6066 9.03027 63.4903 8.9699C62.8941 8.66017 62.2942 8.35681 61.6894 8.062C61.6069 8.02161 61.5233 7.98298 61.4405 7.94303C60.9128 7.68774 60.3816 7.43904 59.8475 7.19516C59.702 7.12865 59.5567 7.06214 59.4107 6.9965C58.8029 6.72343 58.1922 6.45607 57.5765 6.1977C57.5174 6.1729 57.4577 6.14963 57.3984 6.12483C56.8369 5.89105 56.2717 5.66451 55.7038 5.44325C55.5431 5.38069 55.3822 5.31834 55.2209 5.25666C54.5957 5.01784 53.9682 4.78362 53.3357 4.55994H53.3353C22.2636 15.5416 0 45.1683 0 80.0002C0 89.3513 1.60989 98.3253 4.55857 106.667C15.5416 75.5966 45.1684 53.3336 79.9997 53.3336C94.7273 53.3329 106.666 65.2719 106.666 79.9995Z" fill="url(#paint0_linear)"/>
<path d="M53.3689 81.385C53.3456 80.9265 53.3329 80.4648 53.3329 80.0006C53.3329 79.9865 53.336 79.9736 53.336 79.9595C53.3566 65.2521 65.2842 53.3349 79.996 53.3342C78.8808 53.3342 77.771 53.3586 76.6671 53.4038H76.6666C74.592 53.4888 72.5383 53.6541 70.5076 53.8944C70.4922 53.8962 70.4764 53.8973 70.4604 53.8992C68.4846 54.1341 66.5327 54.4469 64.6035 54.8232C64.5178 54.8401 64.4305 54.853 64.3449 54.8699C62.4711 55.2418 60.6235 55.6858 58.7994 56.1861C58.6661 56.2228 58.5307 56.2548 58.3979 56.2921C56.6179 56.7902 54.8653 57.355 53.1375 57.9709C52.9698 58.0307 52.8002 58.0866 52.6329 58.1474C50.9392 58.7643 49.2748 59.4419 47.6366 60.1676C47.4498 60.2506 47.261 60.33 47.0749 60.4143C45.4646 61.1429 43.8845 61.9274 42.3326 62.7574C42.1337 62.8638 41.9337 62.9681 41.736 63.0761C40.2073 63.9105 38.7107 64.796 37.2448 65.7252C37.0417 65.8538 36.838 65.982 36.6359 66.1126C35.1875 67.0492 33.7719 68.0322 32.3897 69.0578C32.1919 69.2046 31.9945 69.3519 31.7983 69.5005C30.4288 70.5362 29.0941 71.6144 27.7955 72.7341C27.6072 72.8966 27.421 73.0607 27.2338 73.2249C25.9453 74.3574 24.6914 75.5291 23.478 76.7413C23.3072 76.9118 23.1388 77.085 22.9696 77.2574C21.7603 78.4875 20.5875 79.7534 19.4587 81.0595C19.3106 81.2309 19.1668 81.4057 19.0197 81.5784C17.8919 82.9062 16.8022 84.2676 15.7617 85.6679C15.6384 85.8341 15.5194 86.0037 15.3974 86.171C14.3547 87.5974 13.3522 89.0554 12.4032 90.5513C12.3086 90.7008 12.2191 90.854 12.1249 91.0044C11.1685 92.5346 10.2564 94.0953 9.40319 95.6925C9.33975 95.8108 9.28158 95.9322 9.21858 96.0512C8.35261 97.6924 7.53538 99.3634 6.78202 101.07C6.75019 101.142 6.72231 101.215 6.69048 101.287C5.91912 103.049 5.20395 104.842 4.55859 106.667C15.5414 137.738 45.1684 160 79.9999 160C89.3508 160 103.333 160 113.333 160C82.6749 149.163 54.1212 115.734 53.3689 81.385Z" fill="url(#paint1_linear)"/>
<path d="M106.666 79.9996C106.666 94.5114 95.072 106.307 80.6425 106.65C80.6899 106.661 80.5387 106.666 79.9998 106.666H103.333C120.18 106.666 135.193 114.486 144.967 126.685C154.425 113.546 159.999 97.4245 159.999 79.9996C159.999 79.3581 159.99 78.7189 159.975 78.081C159.97 77.8648 159.961 77.6495 159.954 77.4337C159.941 77.014 159.926 76.5943 159.906 76.1761C159.894 75.9164 159.879 75.6574 159.864 75.3984C159.843 75.0276 159.82 74.6573 159.794 74.2879C159.774 74.0078 159.753 73.7279 159.731 73.4487C159.703 73.1052 159.672 72.7625 159.639 72.4201C159.612 72.1259 159.585 71.832 159.554 71.5387C159.521 71.2216 159.483 70.9059 159.446 70.5896C159.409 70.2774 159.375 69.9646 159.335 69.6538C159.33 69.6174 159.324 69.5814 159.319 69.5452C159.196 68.5995 159.053 67.66 158.896 66.7251C158.867 66.551 158.84 66.3763 158.81 66.2029C158.737 65.7847 158.659 65.3688 158.58 64.953C158.548 64.7855 158.517 64.6178 158.484 64.4505C158.399 64.0201 158.31 63.5914 158.219 63.1635C158.189 63.0279 158.16 62.8927 158.13 62.7575C158.029 62.2976 157.925 61.8388 157.816 61.382C157.802 61.3234 157.788 61.265 157.773 61.2066C149.319 26.0924 117.709 -0.00012207 79.9998 -0.00012207C70.6487 -0.00012207 61.6746 1.60977 53.3333 4.55845C84.4034 15.5412 106.666 45.1681 106.666 79.9996Z" fill="url(#paint2_linear)"/>
<path d="M103.333 106.666H79.9999C65.7368 106.666 54.0895 95.4679 53.3689 81.3842C54.0415 112.079 76.9182 142.025 103.655 155.785C104.29 156.113 104.927 156.432 105.567 156.741C105.823 156.865 106.079 156.984 106.336 157.104C106.92 157.379 107.505 157.651 108.092 157.91C108.497 158.088 108.904 158.256 109.31 158.427C109.764 158.618 110.216 158.814 110.671 158.995C111.556 159.347 112.444 159.685 113.333 159.999H156.666C156.666 130.544 132.788 106.666 103.333 106.666Z" fill="url(#paint3_linear)"/>
<defs>
<linearGradient id="paint0_linear" x1="75.3037" y1="12.553" x2="36.7805" y2="118.394" gradientUnits="userSpaceOnUse">
<stop stop-color="#EF3F3F"/>
<stop offset="1" stop-color="#F47623"/>
</linearGradient>
<linearGradient id="paint1_linear" x1="36.4635" y1="64.0325" x2="76.299" y2="173.48" gradientUnits="userSpaceOnUse">
<stop stop-color="#EF3F3F"/>
<stop offset="1" stop-color="#F47623"/>
</linearGradient>
<linearGradient id="paint2_linear" x1="106.666" y1="126.685" x2="106.666" y2="-0.00012207" gradientUnits="userSpaceOnUse">
<stop stop-color="#EF3F3F"/>
<stop offset="1" stop-color="#F47623"/>
</linearGradient>
<linearGradient id="paint3_linear" x1="53.3689" y1="120.692" x2="156.666" y2="120.692" gradientUnits="userSpaceOnUse">
<stop stop-color="#EF3F3F"/>
<stop offset="1" stop-color="#F47623"/>
</linearGradient>
</defs>
</svg>
