<svg width="64" height="64" viewBox="0 0 64 64" fill="none" xmlns="http://www.w3.org/2000/svg">
<path d="M42.6669 32.0003C42.6669 28.2599 42.0242 24.6699 40.8448 21.3336H40.8412C38.8339 15.6566 35.2713 10.7149 30.6647 7.02121C30.6567 7.01488 30.6488 7.00848 30.6408 7.00215C30.1914 6.64251 29.732 6.29489 29.2633 5.95947C29.2436 5.94534 29.2237 5.93138 29.204 5.91733C28.9783 5.75664 28.7508 5.59851 28.5208 5.44362C28.5157 5.44011 28.5106 5.4366 28.5055 5.43317C28.2711 5.27547 28.0342 5.12102 27.7955 4.96947C27.7671 4.95147 27.7385 4.93374 27.71 4.91582C27.4971 4.78148 27.2824 4.64969 27.0661 4.52026C27.0366 4.50261 27.0073 4.4847 26.9778 4.46714C26.7423 4.32727 26.5048 4.19047 26.2655 4.05657C26.2319 4.03778 26.198 4.01951 26.1643 4.0009C25.9561 3.88535 25.7465 3.77234 25.5355 3.66145C25.489 3.63704 25.4428 3.61236 25.3963 3.58822C25.1578 3.46432 24.9179 3.34298 24.676 3.22506C24.6429 3.2089 24.6095 3.19345 24.5764 3.17747C24.3653 3.07535 24.1528 2.97587 23.9392 2.87832C23.881 2.85171 23.8228 2.82511 23.7645 2.79885C23.5213 2.68962 23.277 2.58268 23.0308 2.47933C23.0071 2.46941 22.9833 2.4601 22.9595 2.45018C22.7349 2.35667 22.5088 2.26605 22.2817 2.17755C22.2174 2.15252 22.1531 2.12758 22.0885 2.10291C21.8385 2.00738 21.5874 1.91369 21.3345 1.82422H21.3343C8.90551 6.21692 0 18.0677 0 32.0005C0 35.741 0.64396 39.3306 1.82344 42.6672C6.21667 30.2391 18.0675 21.3338 32.0001 21.3338C37.8912 21.3336 42.6669 26.1092 42.6669 32.0003Z" fill="url(#paint0_linear)"/>
<path d="M21.3478 32.5544C21.3384 32.371 21.3334 32.1863 21.3334 32.0006C21.3334 31.995 21.3346 31.9898 21.3346 31.9842C21.3428 26.1012 26.1139 21.3342 31.9987 21.334C31.5526 21.334 31.1087 21.3437 30.6671 21.3618H30.6669C29.8371 21.3958 29.0156 21.4619 28.2033 21.5581C28.1971 21.5588 28.1908 21.5592 28.1844 21.56C27.3941 21.6539 26.6133 21.7791 25.8416 21.9296C25.8074 21.9363 25.7724 21.9415 25.7382 21.9483C24.9887 22.097 24.2496 22.2746 23.52 22.4747C23.4667 22.4894 23.4125 22.5022 23.3594 22.5172C22.6474 22.7164 21.9463 22.9423 21.2552 23.1887C21.1881 23.2126 21.1203 23.235 21.0533 23.2593C20.3758 23.506 19.7101 23.7771 19.0548 24.0673C18.9801 24.1005 18.9046 24.1323 18.8301 24.166C18.186 24.4575 17.554 24.7713 16.9332 25.1033C16.8536 25.1459 16.7737 25.1876 16.6945 25.2308C16.0831 25.5645 15.4844 25.9187 14.8981 26.2904C14.8168 26.3418 14.7354 26.3931 14.6545 26.4454C14.0751 26.82 13.5089 27.2132 12.956 27.6234C12.8769 27.6822 12.7979 27.7411 12.7194 27.8005C12.1716 28.2148 11.6378 28.6461 11.1183 29.094C11.043 29.159 10.9685 29.2246 10.8936 29.2903C10.3782 29.7433 9.87668 30.212 9.39129 30.6969C9.32298 30.7651 9.25563 30.8344 9.18794 30.9033C8.70422 31.3954 8.23508 31.9017 7.78359 32.4242C7.72432 32.4927 7.66681 32.5626 7.60798 32.6317C7.15684 33.1629 6.72097 33.7074 6.30478 34.2675C6.25543 34.334 6.20784 34.4019 6.15902 34.4688C5.74195 35.0393 5.34095 35.6225 4.96137 36.2209C4.92352 36.2807 4.8877 36.342 4.85003 36.4022C4.46746 37.0142 4.10264 37.6385 3.76134 38.2774C3.73596 38.3247 3.71269 38.3733 3.68749 38.4209C3.3411 39.0774 3.01421 39.7458 2.71286 40.4283C2.70013 40.4571 2.68898 40.4866 2.67625 40.5154C2.3677 41.2202 2.08163 41.9371 1.82349 42.6674C6.21662 55.0956 18.0675 64.0008 32.0002 64.0008C35.7406 64.0008 41.3335 64.0008 45.3336 64.0008C33.0702 59.6657 21.6487 46.294 21.3478 32.5544Z" fill="url(#paint1_linear)"/>
<path d="M42.6669 32.0001C42.6669 37.8049 38.0291 42.5233 32.2573 42.6603C32.2763 42.6646 32.2158 42.6668 32.0002 42.6668H41.3336C48.0725 42.6668 54.0777 45.7948 57.9872 50.6742C61.7705 45.4187 64.0003 38.9701 64.0003 32.0001C64.0003 31.7435 63.9966 31.4878 63.9905 31.2327C63.9885 31.1462 63.9849 31.0601 63.9822 30.9737C63.9768 30.8059 63.971 30.638 63.9631 30.4707C63.9581 30.3668 63.9522 30.2632 63.9463 30.1596C63.9379 30.0113 63.9286 29.8632 63.9181 29.7154C63.9102 29.6034 63.9019 29.4914 63.8928 29.3797C63.8817 29.2423 63.8691 29.1053 63.8563 28.9683C63.8452 28.8506 63.8344 28.7331 63.8221 28.6158C63.8088 28.4889 63.7936 28.3626 63.7788 28.2361C63.7641 28.1112 63.7504 27.9861 63.7343 27.8618C63.7325 27.8472 63.7301 27.8328 63.7282 27.8183C63.6788 27.44 63.6216 27.0642 63.5591 26.6903C63.5474 26.6206 63.5366 26.5508 63.5245 26.4814C63.4954 26.3141 63.4642 26.1477 63.4325 25.9814C63.4197 25.9144 63.4072 25.8474 63.394 25.7804C63.3601 25.6083 63.3245 25.4368 63.2879 25.2656C63.2763 25.2114 63.2645 25.1573 63.2525 25.1032C63.2122 24.9193 63.1705 24.7357 63.127 24.553C63.1214 24.5296 63.1156 24.5062 63.1099 24.4829C59.7281 10.4371 47.0839 0 32.0002 0C28.2597 0 24.6701 0.64396 21.3335 1.82344C33.7616 6.21658 42.6669 18.0674 42.6669 32.0001Z" fill="url(#paint2_linear)"/>
<path d="M41.3334 42.6665H32.0001C26.2948 42.6665 21.6359 38.1873 21.3477 32.5537C21.6167 44.8317 30.7674 56.8102 41.4623 62.3144C41.7164 62.4453 41.9712 62.573 42.2269 62.6966C42.3293 62.7461 42.432 62.7937 42.5347 62.8419C42.7683 62.9519 43.0023 63.0605 43.2371 63.1642C43.3991 63.2355 43.5617 63.3028 43.7243 63.371C43.9057 63.4475 44.0867 63.5257 44.2687 63.5982C44.6228 63.739 44.9777 63.8741 45.3335 63.9998H62.6668C62.6668 52.2178 53.1156 42.6665 41.3334 42.6665Z" fill="url(#paint3_linear)"/>
<defs>
<linearGradient id="paint0_linear" x1="30.1217" y1="5.02145" x2="14.7123" y2="47.3584" gradientUnits="userSpaceOnUse">
<stop stop-color="#CFCFCF"/>
<stop offset="1" stop-color="white"/>
</linearGradient>
<linearGradient id="paint1_linear" x1="14.5856" y1="25.6133" x2="30.5198" y2="69.3925" gradientUnits="userSpaceOnUse">
<stop stop-color="#CFCFCF"/>
<stop offset="1" stop-color="white"/>
</linearGradient>
<linearGradient id="paint2_linear" x1="42.6669" y1="50.6742" x2="42.6669" y2="0" gradientUnits="userSpaceOnUse">
<stop stop-color="#CFCFCF"/>
<stop offset="1" stop-color="white"/>
</linearGradient>
<linearGradient id="paint3_linear" x1="21.3477" y1="48.2768" x2="62.6668" y2="48.2768" gradientUnits="userSpaceOnUse">
<stop stop-color="#CFCFCF"/>
<stop offset="1" stop-color="white"/>
</linearGradient>
</defs>
</svg>
