<svg width="164" height="48" viewBox="0 0 164 48" fill="none" xmlns="http://www.w3.org/2000/svg">
<path d="M87.7112 21.7501V30.1845C87.7112 31.1966 86.9015 31.9388 85.889 31.9388C84.8095 31.9388 84.0669 31.1966 84.0669 30.1845V22.4249C84.0669 20.5021 83.2914 19.1861 81.098 19.1861C78.6688 19.1861 77.7248 20.5021 77.7248 22.3913V30.1845C77.7248 31.1966 76.9151 31.9389 75.9027 31.9389C74.8231 31.9389 74.0805 31.1966 74.0805 30.1845V22.4249C74.0805 20.5021 73.305 19.1861 71.1116 19.1861C68.5818 19.1861 67.7384 20.6706 67.7384 22.6613V30.1846C67.7384 31.1967 66.9623 31.9389 65.9163 31.9389C64.8703 31.9389 64.0941 31.1967 64.0941 30.1846V17.904C64.0941 16.8919 64.9038 16.0822 65.9163 16.0822C66.9287 16.0822 67.7384 16.8919 67.7384 17.904C68.379 16.9254 69.7963 15.8798 72.0568 15.8798C74.823 15.8798 76.2061 16.7569 77.0494 18.0729C78.129 16.622 79.5798 15.8798 81.874 15.8798C86.4624 15.8798 87.7112 18.8148 87.7112 21.7501Z" fill="white"/>
<path d="M97.5279 15.8798C103.229 15.8798 104.275 20.2657 104.275 22.5934C104.275 23.8418 104.275 25.2924 102.217 25.2924H93.8836C93.8836 27.7215 95.6044 28.8349 97.8314 28.8349C99.3158 28.8349 100.361 28.3291 101.171 27.7893C101.542 27.5529 101.812 27.418 102.251 27.418C103.128 27.418 103.836 28.1263 103.836 29.0038C103.836 29.5436 103.566 29.982 103.263 30.2519C102.69 30.7917 100.901 32.1077 97.8314 32.1077C93.1417 32.1077 90.2406 29.5772 90.2406 23.9428C90.2405 18.7812 92.9395 15.8798 97.5279 15.8798ZM93.985 22.2563H100.665C100.665 20.603 99.7206 18.9836 97.5279 18.9836C95.5708 18.9836 94.1535 20.0971 93.985 22.2563Z" fill="white"/>
<path d="M130.421 21.7501V30.1845C130.421 31.1966 129.612 31.9388 128.599 31.9388C127.52 31.9388 126.777 31.1966 126.777 30.1845V22.4249C126.777 20.5021 126.002 19.1861 123.808 19.1861C121.379 19.1861 120.435 20.5021 120.435 22.3913V30.1845C120.435 31.1966 119.625 31.9389 118.613 31.9389C117.533 31.9389 116.791 31.1966 116.791 30.1845V22.4249C116.791 20.5021 116.015 19.1861 113.822 19.1861C111.292 19.1861 110.449 20.6706 110.449 22.6613V30.1846C110.449 31.1967 109.672 31.9389 108.626 31.9389C107.58 31.9389 106.804 31.1967 106.804 30.1846V17.904C106.804 16.8919 107.614 16.0822 108.626 16.0822C109.639 16.0822 110.449 16.8919 110.449 17.904C111.089 16.9254 112.506 15.8798 114.767 15.8798C117.533 15.8798 118.916 16.7569 119.76 18.0729C120.839 16.622 122.29 15.8798 124.584 15.8798C129.173 15.8798 130.421 18.8148 130.421 21.7501Z" fill="white"/>
<path d="M140.305 32.1077C135.75 32.1077 132.916 29.5097 132.916 24.0107C132.916 18.4777 135.75 15.8798 140.305 15.8798C144.86 15.8798 147.694 18.4777 147.694 24.0107C147.694 29.5097 144.86 32.1077 140.305 32.1077ZM140.305 18.9836C137.876 18.9836 136.594 20.6705 136.594 24.0107C136.594 27.3166 137.876 29.0038 140.305 29.0038C142.734 29.0038 144.016 27.3166 144.016 24.0107C144.016 20.6705 142.734 18.9836 140.305 18.9836Z" fill="white"/>
<path d="M149.683 23.9768C149.683 18.4777 152.348 15.8798 156.902 15.8798C160.985 15.8798 163.886 18.14 163.886 22.6273V36.6282C163.886 37.6407 163.077 38.4504 162.064 38.4504C161.052 38.4504 160.243 37.6407 160.243 36.6282V30.7582C159.568 31.4329 158.151 32.1077 156.531 32.1077C152.281 32.1077 149.683 29.4758 149.683 23.9768ZM160.243 22.6272C160.243 20.2992 158.86 18.9836 156.903 18.9836C154.575 18.9836 153.292 20.6705 153.292 23.9767C153.292 27.3166 154.608 29.0037 156.903 29.0037C158.927 29.0037 160.243 27.283 160.243 27.283V22.6272Z" fill="white"/>
<path d="M16.0106 24.4157C16.0036 24.2782 15.9998 24.1397 15.9998 24.0004C15.9998 23.9962 16.0007 23.9923 16.0007 23.9881C16.0069 19.5759 19.5852 16.0007 23.9987 16.0005C23.6642 16.0005 23.3312 16.0078 23 16.0214H22.9999C22.3775 16.0468 21.7614 16.0964 21.1522 16.1685C21.1476 16.1691 21.1428 16.1694 21.138 16.17C20.5453 16.2405 19.9597 16.3343 19.3809 16.4472C19.3553 16.4522 19.329 16.4561 19.3034 16.4612C18.7412 16.5728 18.187 16.706 17.6397 16.8561C17.5997 16.8671 17.5591 16.8767 17.5193 16.8879C16.9853 17.0373 16.4595 17.2067 15.9412 17.3915C15.8908 17.4094 15.8399 17.4262 15.7898 17.4445C15.2816 17.6295 14.7823 17.8328 14.2909 18.0505C14.2348 18.0754 14.1782 18.0992 14.1224 18.1245C13.6393 18.3431 13.1652 18.5784 12.6997 18.8274C12.64 18.8594 12.58 18.8907 12.5207 18.9231C12.0621 19.1734 11.6131 19.439 11.1733 19.7178C11.1124 19.7564 11.0513 19.7948 10.9906 19.834C10.5561 20.115 10.1315 20.4099 9.71677 20.7176C9.65744 20.7616 9.59824 20.8058 9.53936 20.8504C9.1285 21.1611 8.72812 21.4846 8.33853 21.8205C8.28203 21.8692 8.22618 21.9185 8.17001 21.9677C7.78345 22.3075 7.4073 22.659 7.04326 23.0226C6.99203 23.0738 6.94152 23.1257 6.89074 23.1774C6.52796 23.5465 6.1761 23.9263 5.83749 24.3181C5.79304 24.3695 5.7499 24.4219 5.70578 24.4738C5.36743 24.8721 5.04053 25.2805 4.72839 25.7006C4.69138 25.7505 4.65568 25.8014 4.61907 25.8515C4.30627 26.2795 4.00551 26.7169 3.72083 27.1657C3.69245 27.2105 3.66558 27.2565 3.63733 27.3016C3.35041 27.7606 3.07679 28.2288 2.82081 28.708C2.80178 28.7435 2.78433 28.7799 2.76543 28.8156C2.50564 29.308 2.26047 29.8093 2.03446 30.3211C2.02491 30.3427 2.01655 30.3649 2.007 30.3865C1.77559 30.9151 1.56104 31.4528 1.36743 32.0005C4.66227 41.3216 13.5504 48.0004 23.9999 48.0004C26.8052 48.0004 30.9998 48.0004 33.9998 48.0004C24.8024 44.7491 16.2362 34.7204 16.0106 24.4157Z" fill="white"/>
<path d="M32 24C32 28.3535 28.5217 31.8924 24.1928 31.9951C24.207 31.9983 24.1617 32 24 32H31C36.0542 32 40.558 34.3459 43.4902 38.0055C46.3276 34.0639 48 29.2275 48 24C48 23.8075 47.9972 23.6158 47.9926 23.4244C47.9911 23.3595 47.9884 23.2949 47.9864 23.2302C47.9824 23.1043 47.978 22.9784 47.972 22.8529C47.9683 22.775 47.9639 22.6973 47.9595 22.6196C47.9531 22.5084 47.9462 22.3973 47.9383 22.2865C47.9324 22.2024 47.9261 22.1185 47.9194 22.0347C47.911 21.9317 47.9016 21.8288 47.892 21.7261C47.8837 21.6379 47.8756 21.5497 47.8663 21.4617C47.8563 21.3666 47.8449 21.2719 47.8338 21.177C47.8228 21.0833 47.8125 20.9895 47.8005 20.8962C47.7991 20.8853 47.7973 20.8745 47.7959 20.8636C47.7589 20.5799 47.7159 20.2981 47.669 20.0176C47.6603 19.9654 47.6522 19.913 47.6431 19.861C47.6213 19.7355 47.5979 19.6107 47.5741 19.486C47.5645 19.4357 47.5551 19.3854 47.5452 19.3352C47.5198 19.2061 47.4931 19.0775 47.4657 18.9492C47.4569 18.9085 47.4481 18.8679 47.4391 18.8273C47.4089 18.6894 47.3776 18.5517 47.345 18.4147C47.3408 18.3971 47.3364 18.3796 47.3321 18.3621C44.7958 7.82778 35.3127 0 24 0C21.1946 0 18.5024 0.482968 16 1.36758C25.3211 4.66241 32 13.5505 32 24Z" fill="white"/>
<path d="M15.9994 2.7704C16.0317 2.78265 16.0639 2.79489 16.0962 2.80721L16.233 2.86009C16.394 2.92278 16.5541 2.98692 16.7134 3.05324L16.7635 3.07365C16.9381 3.14695 17.1113 3.22288 17.2826 3.29973L17.4073 3.35656C17.5585 3.42564 17.7089 3.49603 17.8601 3.5692L17.8999 3.58816L17.9298 3.60245C18.1011 3.68589 18.2711 3.77189 18.4388 3.85902L18.4986 3.89043L18.5386 3.91163C18.688 3.9902 18.8365 4.07014 18.9846 4.15233L19.0224 4.1732L19.056 4.19164C19.2256 4.2866 19.3939 4.38361 19.5863 4.49799L19.6232 4.52025C19.7765 4.61192 19.9285 4.70523 20.0799 4.80079L20.1122 4.82107L20.1402 4.83865C20.3095 4.94612 20.4773 5.05544 20.6544 5.1747C20.8175 5.28461 20.9788 5.39676 21.1388 5.51062L21.9028 4.4378L21.1808 5.54045C21.5122 5.77759 21.8408 6.02631 22.1744 6.29322C25.4732 8.93828 27.9611 12.4291 29.372 16.3914C27.8528 15.3156 25.9989 14.6829 24 14.6829C14.5851 14.6829 6.03315 19.9232 1.67761 28.0472C1.43784 26.7182 1.31707 25.3657 1.31707 23.9999C1.31707 14.5591 7.19743 6.0871 15.9994 2.7704ZM16.0008 1.36792H16.0006C6.67917 4.66243 0 13.5504 0 24C0 26.8053 0.482968 29.4976 1.36758 32C4.66248 22.6789 13.5505 16 24 16C28.4182 16 32 19.5818 32 24C32 21.1947 31.518 18.5022 30.6334 16H30.6306C29.1252 11.7424 26.4532 8.03603 22.9983 5.26577C22.9924 5.26103 22.9864 5.25623 22.9804 5.25149C22.6434 4.98182 22.2989 4.7211 21.9473 4.46948C21.9325 4.45894 21.9177 4.44841 21.9029 4.43787C21.7336 4.31736 21.563 4.19882 21.3905 4.08252C21.3866 4.07996 21.3828 4.07732 21.3789 4.07475C21.2031 3.95641 21.0256 3.84064 20.8465 3.72692C20.8252 3.71342 20.8037 3.70018 20.7824 3.68675C20.6226 3.58592 20.4616 3.48708 20.2994 3.39001C20.2773 3.37684 20.2554 3.36334 20.2332 3.35017C20.0565 3.24533 19.8785 3.14267 19.699 3.04231C19.6737 3.02815 19.6483 3.01452 19.6231 3.00049C19.467 2.91383 19.3098 2.82907 19.1515 2.7459C19.1166 2.72759 19.082 2.70909 19.0471 2.69091C18.8683 2.59799 18.6883 2.50698 18.5069 2.41854C18.4821 2.40643 18.457 2.39484 18.4322 2.38285C18.2739 2.30626 18.1146 2.23165 17.9544 2.15849C17.9107 2.13854 17.8671 2.11852 17.8233 2.09883C17.6409 2.0169 17.4577 1.93669 17.273 1.85919C17.2553 1.85181 17.2374 1.84476 17.2196 1.83739C17.0511 1.76719 16.8816 1.69929 16.7111 1.63291C16.663 1.61408 16.6147 1.59538 16.5662 1.57687C16.3788 1.50529 16.1905 1.43502 16.0008 1.36792Z" fill="white"/>
<path d="M19.0358 31.8879C20.4751 32.7942 22.1784 33.3167 24 33.3167H30.9999C38.6524 33.3167 44.9562 39.2009 45.6243 46.6825H34.2302C34.0492 46.6159 33.8686 46.5463 33.6888 46.4748C33.5926 46.4365 33.4967 46.3957 33.4007 46.355L33.3027 46.3135L33.2346 46.285C33.1424 46.2464 33.0502 46.2079 32.96 46.1683C32.7936 46.0947 32.6278 46.0177 32.4603 45.9388L32.4067 45.9137L32.2436 45.8367C32.0617 45.7487 31.8804 45.6579 31.6994 45.5646C26.047 42.6555 21.4079 37.4807 19.0358 31.8879ZM16.0107 24.4152C16.2125 33.6236 23.0755 42.6075 31.0966 46.7356C31.2872 46.8337 31.4783 46.9295 31.6701 47.0223C31.7468 47.0593 31.8239 47.095 31.9009 47.1311C32.0761 47.2137 32.2516 47.2951 32.4277 47.3729C32.5491 47.4264 32.6712 47.4768 32.7931 47.528C32.929 47.5854 33.0649 47.6441 33.2013 47.6984C33.4669 47.8041 33.7331 47.9054 34 47.9997H46.9999C46.9999 39.1631 39.8365 31.9997 30.9999 31.9997H24.0001C19.7211 31.9996 16.2269 28.6403 16.0107 24.4152Z" fill="white"/>
</svg>
