<svg width="160" height="48" viewBox="0 0 160 48" fill="none" xmlns="http://www.w3.org/2000/svg">
<path d="M85.5608 21.7506V30.185C85.5608 31.1971 84.7724 31.9393 83.7866 31.9393C82.7354 31.9393 82.0124 31.1971 82.0124 30.185V22.4254C82.0124 20.5026 81.2573 19.1866 79.1216 19.1866C76.7563 19.1866 75.8372 20.5026 75.8372 22.3918V30.185C75.8372 31.1971 75.0488 31.9394 74.063 31.9394C73.0118 31.9394 72.2888 31.1971 72.2888 30.185V22.4254C72.2888 20.5026 71.5337 19.1866 69.398 19.1866C66.9347 19.1866 66.1136 20.6711 66.1136 22.6618V30.1851C66.1136 31.1972 65.3579 31.9394 64.3394 31.9394C63.3209 31.9394 62.5652 31.1972 62.5652 30.1851V17.9045C62.5652 16.8924 63.3536 16.0827 64.3394 16.0827C65.3252 16.0827 66.1136 16.8924 66.1136 17.9045C66.7373 16.9259 68.1173 15.8802 70.3184 15.8802C73.0117 15.8802 74.3584 16.7574 75.1795 18.0734C76.2307 16.6225 77.6434 15.8802 79.8772 15.8802C84.3449 15.8803 85.5608 18.8153 85.5608 21.7506Z" fill="#3B3751"/>
<path d="M95.1189 15.8807C100.67 15.8807 101.689 20.2666 101.689 22.5943C101.689 23.8428 101.689 25.2933 99.6846 25.2933H91.5706C91.5706 27.7225 93.246 28.8359 95.4145 28.8359C96.8599 28.8359 97.8777 28.33 98.6661 27.7902C99.0276 27.5539 99.2904 27.419 99.7173 27.419C100.572 27.419 101.261 28.1273 101.261 29.0048C101.261 29.5446 100.999 29.983 100.703 30.2529C100.145 30.7927 98.4033 32.1086 95.4145 32.1086C90.8482 32.1086 88.0234 29.5782 88.0234 23.9438C88.0234 18.7822 90.6513 15.8807 95.1189 15.8807ZM91.6693 22.2572H98.1738C98.1738 20.6039 97.254 18.9845 95.1189 18.9845C93.2133 18.9846 91.8333 20.098 91.6693 22.2572Z" fill="#3B3751"/>
<path d="M127.147 21.7511V30.1855C127.147 31.1976 126.359 31.9398 125.373 31.9398C124.322 31.9398 123.599 31.1976 123.599 30.1855V22.4259C123.599 20.503 122.844 19.1871 120.708 19.1871C118.343 19.1871 117.424 20.503 117.424 22.3923V30.1855C117.424 31.1976 116.635 31.9399 115.649 31.9399C114.598 31.9399 113.875 31.1976 113.875 30.1855V22.4259C113.875 20.503 113.12 19.1871 110.984 19.1871C108.521 19.1871 107.7 20.6716 107.7 22.6622V30.1856C107.7 31.1977 106.944 31.9399 105.926 31.9399C104.907 31.9399 104.151 31.1977 104.151 30.1856V17.905C104.151 16.8929 104.94 16.0832 105.926 16.0832C106.911 16.0832 107.7 16.8929 107.7 17.905C108.324 16.9264 109.704 15.8807 111.905 15.8807C114.598 15.8807 115.945 16.7579 116.766 18.0738C117.817 16.623 119.23 15.8807 121.463 15.8807C125.931 15.8808 127.147 18.8158 127.147 21.7511Z" fill="#3B3751"/>
<path d="M136.771 32.1086C132.336 32.1086 129.577 29.5107 129.577 24.0116C129.577 18.4786 132.336 15.8807 136.771 15.8807C141.206 15.8807 143.965 18.4787 143.965 24.0116C143.965 29.5107 141.206 32.1086 136.771 32.1086ZM136.771 18.9846C134.406 18.9846 133.157 20.6715 133.157 24.0116C133.157 27.3176 134.406 29.0048 136.771 29.0048C139.136 29.0048 140.385 27.3176 140.385 24.0116C140.385 20.6714 139.136 18.9846 136.771 18.9846Z" fill="#3B3751"/>
<path d="M145.902 23.9777C145.902 18.4787 148.497 15.8807 152.931 15.8807C156.906 15.8807 159.732 18.141 159.732 22.6283V36.6292C159.732 37.6416 158.943 38.4514 157.957 38.4514C156.972 38.4514 156.184 37.6416 156.184 36.6292V30.7592C155.527 31.4339 154.147 32.1087 152.57 32.1087C148.431 32.1086 145.902 29.4768 145.902 23.9777ZM156.184 22.6282C156.184 20.3002 154.837 18.9845 152.932 18.9845C150.665 18.9845 149.416 20.6714 149.416 23.9777C149.416 27.3175 150.698 29.0047 152.932 29.0047C154.903 29.0047 156.184 27.284 156.184 27.284V22.6282Z" fill="#3B3751"/>
<path d="M15.7472 24.4153C15.7404 24.2777 15.7367 24.1392 15.7367 23.9999C15.7367 23.9957 15.7376 23.9918 15.7376 23.9876C15.7436 19.5754 19.2277 16.0002 23.5251 16C23.1994 16 22.8752 16.0073 22.5527 16.0209H22.5526C21.9466 16.0464 21.3467 16.0959 20.7535 16.1681C20.749 16.1686 20.7444 16.1689 20.7397 16.1695C20.1626 16.24 19.5924 16.3338 19.0288 16.4467C19.0038 16.4518 18.9783 16.4556 18.9533 16.4607C18.406 16.5723 17.8663 16.7055 17.3334 16.8556C17.2945 16.8666 17.255 16.8762 17.2162 16.8874C16.6962 17.0368 16.1843 17.2062 15.6796 17.391C15.6306 17.4089 15.581 17.4257 15.5322 17.444C15.0374 17.629 14.5513 17.8323 14.0727 18.05C14.0182 18.0749 13.963 18.0987 13.9086 18.124C13.4383 18.3426 12.9767 18.578 12.5234 18.827C12.4653 18.8589 12.4069 18.8902 12.3491 18.9226C11.9026 19.1729 11.4654 19.4385 11.0372 19.7173C10.9779 19.7559 10.9184 19.7943 10.8593 19.8335C10.4363 20.1145 10.0228 20.4094 9.619 20.7171C9.56123 20.7611 9.50358 20.8053 9.44626 20.8499C9.04621 21.1606 8.65636 21.4841 8.27703 21.82C8.22201 21.8687 8.16764 21.918 8.11294 21.9672C7.73656 22.307 7.3703 22.6585 7.01585 23.0221C6.96596 23.0733 6.91678 23.1253 6.86734 23.177C6.5141 23.546 6.17151 23.9258 5.8418 24.3176C5.79852 24.369 5.75652 24.4215 5.71356 24.4733C5.38411 24.8716 5.06582 25.28 4.76189 25.7001C4.72585 25.75 4.6911 25.8009 4.65545 25.8511C4.35088 26.279 4.05804 26.7164 3.78085 27.1652C3.75321 27.21 3.72705 27.256 3.69954 27.3011C3.42017 27.7601 3.15375 28.2284 2.90452 28.7075C2.88598 28.743 2.86899 28.7794 2.85059 28.8151C2.59764 29.3075 2.35892 29.8088 2.13886 30.3207C2.12956 30.3423 2.12141 30.3644 2.11212 30.386C1.8868 30.9146 1.67789 31.4523 1.48938 32C4.69751 41.3211 13.3518 48 23.5262 48C26.2577 48 30.342 48 33.263 48C24.3076 44.7487 15.9669 34.7199 15.7472 24.4153Z" fill="#3B3751"/>
<path d="M31.3157 24C31.3157 28.3535 27.929 31.8924 23.714 31.9951C23.7279 31.9983 23.6837 32 23.5263 32H30.3421C35.2632 32 39.6486 34.3459 42.5036 38.0055C45.2663 34.0639 46.8947 29.2275 46.8947 24C46.8947 23.8075 46.892 23.6158 46.8875 23.4244C46.8861 23.3595 46.8834 23.2949 46.8815 23.2302C46.8775 23.1043 46.8732 22.9784 46.8675 22.8529C46.8639 22.775 46.8595 22.6973 46.8552 22.6196C46.8491 22.5084 46.8423 22.3973 46.8346 22.2865C46.8289 22.2024 46.8228 22.1185 46.8162 22.0347C46.808 21.9316 46.7989 21.8288 46.7895 21.7261C46.7814 21.6379 46.7735 21.5497 46.7646 21.4617C46.7548 21.3666 46.7437 21.2719 46.7329 21.177C46.7222 21.0833 46.7122 20.9895 46.7004 20.8962C46.6991 20.8853 46.6974 20.8745 46.696 20.8636C46.6599 20.5799 46.6181 20.2981 46.5725 20.0176C46.5639 19.9654 46.556 19.913 46.5472 19.861C46.526 19.7355 46.5031 19.6107 46.48 19.486C46.4707 19.4357 46.4615 19.3854 46.4519 19.3352C46.4272 19.2061 46.4012 19.0775 46.3745 18.9492C46.3659 18.9085 46.3573 18.8679 46.3486 18.8273C46.3191 18.6894 46.2887 18.5517 46.2569 18.4147C46.2528 18.3971 46.2486 18.3796 46.2444 18.3621C43.7748 7.82778 34.5413 0 23.5263 0C20.7948 0 18.1734 0.482968 15.7368 1.36758C24.8126 4.66241 31.3157 13.5505 31.3157 24Z" fill="#3B3751"/>
<path d="M15.7364 2.7704C15.7676 2.78251 15.7988 2.7947 15.8299 2.80688L15.9636 2.86002C16.1203 2.92272 16.2762 2.98686 16.4314 3.0533L16.4803 3.07372C16.6503 3.14695 16.8189 3.22281 16.9865 3.30019L17.1071 3.35662C17.2544 3.4257 17.4009 3.4961 17.5466 3.56854L17.6159 3.60252C17.7826 3.68596 17.9481 3.77196 18.1115 3.85908L18.1722 3.89194L18.2085 3.91157C18.354 3.9902 18.4985 4.07014 18.6429 4.15239L18.6795 4.17307L18.7124 4.19171C18.8776 4.28667 19.0415 4.38367 19.2288 4.49806L19.2647 4.52032C19.4139 4.61198 19.562 4.7053 19.736 4.81797L19.7681 4.83872C19.9329 4.94619 20.0962 5.05551 20.2687 5.17477C20.4275 5.28468 20.5846 5.39682 20.7406 5.51095L20.7812 5.54045C21.1047 5.77831 21.4246 6.02704 21.7487 6.29329C24.9606 8.93828 27.3831 12.4291 28.7568 16.3915C27.2776 15.3156 25.4725 14.6829 23.5262 14.6829C14.359 14.6829 6.03215 19.9233 1.79123 28.0473C1.55777 26.7183 1.44017 25.3658 1.44017 24C1.4403 14.5591 7.16605 6.0871 15.7364 2.7704ZM15.7377 1.36792H15.7375C6.66136 4.66243 0.157959 13.5504 0.157959 24C0.157959 26.8053 0.628217 29.4976 1.48955 32C4.69774 22.6789 13.3519 16 23.5264 16C27.8283 16 31.3158 19.5818 31.3158 24C31.3158 21.1947 30.8466 18.5022 29.9852 16H29.9825C28.5167 11.7424 25.9151 8.03603 22.5511 5.26577C22.5453 5.26103 22.5395 5.25623 22.5336 5.25149C22.2055 4.98182 21.8701 4.7211 21.5278 4.46948C21.5133 4.45894 21.4988 4.44841 21.4844 4.43787C21.3196 4.31736 21.1535 4.19882 20.9855 4.08252C20.9819 4.07996 20.9781 4.07732 20.9743 4.07475C20.8031 3.95641 20.6302 3.84064 20.4558 3.72692C20.4352 3.71342 20.4143 3.70018 20.3934 3.68675C20.2379 3.58592 20.0811 3.48708 19.9232 3.39001C19.9016 3.37684 19.8803 3.36334 19.8587 3.35017C19.6867 3.24533 19.5133 3.14267 19.3385 3.04231C19.314 3.02815 19.2892 3.01452 19.2647 3.00049C19.1126 2.91383 18.9596 2.82907 18.8055 2.7459C18.7716 2.72759 18.7378 2.70909 18.7038 2.69091C18.5296 2.59799 18.3544 2.50698 18.1778 2.41854C18.1536 2.40643 18.1292 2.39484 18.1051 2.38285C17.951 2.30626 17.7958 2.23165 17.6398 2.15849C17.5973 2.13854 17.5549 2.11852 17.5122 2.09883C17.3346 2.0169 17.1562 1.93669 16.9763 1.85919C16.9591 1.85181 16.9416 1.84476 16.9243 1.83739C16.7604 1.76719 16.5952 1.69929 16.4293 1.63291C16.3824 1.61408 16.3353 1.59538 16.2883 1.57687C16.1057 1.50529 15.9224 1.43502 15.7377 1.36792Z" fill="#3B3751"/>
<path d="M18.6925 31.8883C20.094 32.7946 21.7524 33.317 23.5261 33.317H30.3418C37.7929 33.317 43.9309 39.2012 44.5814 46.6829H33.487C33.3108 46.6163 33.135 46.5467 32.9599 46.4752C32.8662 46.4369 32.7729 46.3961 32.6794 46.3553L32.584 46.3138L32.5191 46.2859C32.4288 46.2471 32.3384 46.2083 32.2503 46.1686C32.0882 46.0949 31.9268 46.0179 31.7637 45.9391L31.7115 45.914L31.5527 45.837C31.3756 45.749 31.1991 45.6581 31.0228 45.5649C25.5192 42.6559 21.0021 37.4811 18.6925 31.8883ZM15.7471 24.4155C15.9435 33.624 22.6259 42.6078 30.4359 46.736C30.6215 46.8341 30.8076 46.9298 30.9943 47.0226C31.0691 47.0596 31.1441 47.0954 31.219 47.1315C31.3897 47.2141 31.5605 47.2955 31.732 47.3733C31.8504 47.4268 31.9691 47.4772 32.0877 47.5284C32.2201 47.5858 32.3524 47.6445 32.4853 47.6988C32.7439 47.8044 33.0031 47.9057 33.2629 48H45.9208C45.9208 39.1635 38.9459 32 30.3418 32H23.5261C19.3597 32 15.9575 28.6407 15.7471 24.4155Z" fill="#3B3751"/>
</svg>
