<svg width="160" height="48" viewBox="0 0 160 48" fill="none" xmlns="http://www.w3.org/2000/svg">
<path d="M85.5609 21.7506V30.185C85.5609 31.1971 84.7725 31.9393 83.7867 31.9393C82.7356 31.9393 82.0125 31.1971 82.0125 30.185V22.4254C82.0125 20.5026 81.2575 19.1866 79.1217 19.1866C76.7565 19.1866 75.8374 20.5026 75.8374 22.3918V30.185C75.8374 31.1971 75.0489 31.9394 74.0632 31.9394C73.012 31.9394 72.289 31.1971 72.289 30.185V22.4254C72.289 20.5026 71.5339 19.1866 69.3982 19.1866C66.9349 19.1866 66.1138 20.6711 66.1138 22.6618V30.1851C66.1138 31.1972 65.3581 31.9394 64.3396 31.9394C63.3211 31.9394 62.5654 31.1972 62.5654 30.1851V17.9045C62.5654 16.8924 63.3538 16.0827 64.3396 16.0827C65.3254 16.0827 66.1138 16.8924 66.1138 17.9045C66.7375 16.9259 68.1175 15.8802 70.3185 15.8802C73.0119 15.8802 74.3586 16.7574 75.1797 18.0734C76.2309 16.6225 77.6436 15.8802 79.8773 15.8802C84.345 15.8803 85.5609 18.8153 85.5609 21.7506Z" fill="#3B3751"/>
<path d="M95.119 15.8807C100.671 15.8807 101.689 20.2666 101.689 22.5943C101.689 23.8428 101.689 25.2933 99.6847 25.2933H91.5707C91.5707 27.7225 93.2462 28.8359 95.4146 28.8359C96.86 28.8359 97.8778 28.33 98.6663 27.7902C99.0278 27.5539 99.2905 27.419 99.7174 27.419C100.572 27.419 101.262 28.1273 101.262 29.0048C101.262 29.5446 100.999 29.983 100.703 30.2529C100.145 30.7927 98.4034 32.1086 95.4146 32.1086C90.8483 32.1086 88.0236 29.5782 88.0236 23.9438C88.0235 18.7822 90.6515 15.8807 95.119 15.8807ZM91.6694 22.2572H98.1739C98.1739 20.6039 97.2541 18.9845 95.119 18.9845C93.2135 18.9846 91.8335 20.098 91.6694 22.2572Z" fill="#3B3751"/>
<path d="M127.147 21.7511V30.1855C127.147 31.1976 126.359 31.9398 125.373 31.9398C124.322 31.9398 123.599 31.1976 123.599 30.1855V22.4259C123.599 20.503 122.844 19.1871 120.708 19.1871C118.343 19.1871 117.424 20.503 117.424 22.3923V30.1855C117.424 31.1976 116.635 31.9399 115.649 31.9399C114.598 31.9399 113.875 31.1976 113.875 30.1855V22.4259C113.875 20.503 113.12 19.1871 110.984 19.1871C108.521 19.1871 107.7 20.6716 107.7 22.6622V30.1856C107.7 31.1977 106.944 31.9399 105.926 31.9399C104.907 31.9399 104.152 31.1977 104.152 30.1856V17.905C104.152 16.8929 104.94 16.0832 105.926 16.0832C106.912 16.0832 107.7 16.8929 107.7 17.905C108.324 16.9264 109.704 15.8807 111.905 15.8807C114.598 15.8807 115.945 16.7579 116.766 18.0738C117.817 16.623 119.23 15.8807 121.464 15.8807C125.931 15.8808 127.147 18.8158 127.147 21.7511Z" fill="#3B3751"/>
<path d="M136.771 32.1086C132.336 32.1086 129.577 29.5107 129.577 24.0116C129.577 18.4786 132.336 15.8807 136.771 15.8807C141.206 15.8807 143.965 18.4787 143.965 24.0116C143.965 29.5107 141.206 32.1086 136.771 32.1086ZM136.771 18.9846C134.406 18.9846 133.157 20.6715 133.157 24.0116C133.157 27.3176 134.406 29.0048 136.771 29.0048C139.136 29.0048 140.385 27.3176 140.385 24.0116C140.385 20.6714 139.136 18.9846 136.771 18.9846Z" fill="#3B3751"/>
<path d="M145.902 23.9777C145.902 18.4787 148.497 15.8807 152.932 15.8807C156.906 15.8807 159.732 18.141 159.732 22.6283V36.6292C159.732 37.6416 158.943 38.4514 157.957 38.4514C156.972 38.4514 156.184 37.6416 156.184 36.6292V30.7592C155.527 31.4339 154.147 32.1087 152.57 32.1087C148.431 32.1086 145.902 29.4768 145.902 23.9777ZM156.184 22.6282C156.184 20.3002 154.837 18.9845 152.932 18.9845C150.665 18.9845 149.417 20.6714 149.417 23.9777C149.417 27.3175 150.698 29.0047 152.932 29.0047C154.903 29.0047 156.184 27.284 156.184 27.284V22.6282Z" fill="#3B3751"/>
<path opacity="0.8" d="M31.3158 23.9996C31.3158 21.1943 30.8465 18.5018 29.9852 15.9996H29.9826C28.5168 11.7419 25.9151 8.03565 22.5511 5.2654C22.5452 5.26066 22.5395 5.25585 22.5336 5.25111C22.2055 4.98137 21.87 4.72066 21.5277 4.4691C21.5133 4.4585 21.4988 4.44803 21.4844 4.43749C21.3196 4.31698 21.1534 4.19838 20.9855 4.08221C20.9818 4.07958 20.9781 4.07695 20.9743 4.07438C20.8032 3.95611 20.6302 3.84027 20.4558 3.72661C20.4351 3.71311 20.4142 3.6998 20.3934 3.68637C20.2379 3.58561 20.0812 3.48677 19.9232 3.3897C19.9016 3.37646 19.8803 3.36303 19.8587 3.34986C19.6867 3.24496 19.5133 3.14236 19.3385 3.04193C19.314 3.02784 19.2893 3.01414 19.2647 3.00018C19.1126 2.91352 18.9595 2.82876 18.8054 2.74559C18.7715 2.72728 18.7378 2.70878 18.7038 2.69067C18.5296 2.59775 18.3544 2.50674 18.1778 2.4183C18.1536 2.40618 18.1292 2.39459 18.105 2.38261C17.9509 2.30602 17.7957 2.23141 17.6397 2.15824C17.5972 2.13829 17.5548 2.11834 17.5121 2.09865C17.3346 2.01673 17.1562 1.93652 16.9763 1.85901C16.9591 1.85157 16.9416 1.84459 16.9243 1.83714C16.7603 1.76701 16.5952 1.69905 16.4293 1.63267C16.3824 1.6139 16.3354 1.5952 16.2883 1.57669C16.1056 1.50505 15.9223 1.43478 15.7376 1.36768H15.7375C6.66124 4.66218 0.157898 13.5502 0.157898 23.9998C0.157898 26.8051 0.628156 29.4974 1.48948 31.9998C4.69768 22.6787 13.3519 15.9998 23.5263 15.9998C27.8283 15.9996 31.3158 19.5813 31.3158 23.9996Z" fill="#3B3751"/>
<path d="M15.7472 24.4153C15.7404 24.2777 15.7367 24.1392 15.7367 23.9999C15.7367 23.9957 15.7376 23.9918 15.7376 23.9876C15.7436 19.5754 19.2277 16.0002 23.5252 16C23.1994 16 22.8752 16.0073 22.5528 16.0209H22.5526C21.9466 16.0464 21.3467 16.0959 20.7536 16.1681C20.7491 16.1686 20.7444 16.1689 20.7398 16.1695C20.1626 16.24 19.5925 16.3338 19.0289 16.4467C19.0039 16.4518 18.9784 16.4556 18.9534 16.4607C18.406 16.5723 17.8663 16.7055 17.3335 16.8556C17.2946 16.8666 17.255 16.8762 17.2162 16.8874C16.6963 17.0368 16.1843 17.2062 15.6796 17.391C15.6307 17.4089 15.5811 17.4257 15.5322 17.444C15.0375 17.629 14.5513 17.8323 14.0728 18.05C14.0182 18.0749 13.9631 18.0987 13.9087 18.124C13.4383 18.3426 12.9768 18.578 12.5235 18.827C12.4654 18.8589 12.4069 18.8902 12.3492 18.9226C11.9026 19.1729 11.4655 19.4385 11.0373 19.7173C10.978 19.7559 10.9185 19.7943 10.8594 19.8335C10.4363 20.1145 10.0228 20.4094 9.61906 20.7171C9.56129 20.7611 9.50364 20.8053 9.44632 20.8499C9.04627 21.1606 8.65642 21.4841 8.27709 21.82C8.22207 21.8687 8.1677 21.918 8.113 21.9672C7.73662 22.307 7.37036 22.6585 7.01591 23.0221C6.96602 23.0733 6.91684 23.1253 6.8674 23.177C6.51416 23.546 6.17157 23.9258 5.84186 24.3176C5.79858 24.369 5.75658 24.4215 5.71362 24.4733C5.38417 24.8716 5.06588 25.28 4.76195 25.7001C4.72591 25.75 4.69116 25.8009 4.65551 25.8511C4.35094 26.279 4.0581 26.7164 3.78091 27.1652C3.75327 27.21 3.72711 27.256 3.6996 27.3011C3.42023 27.7601 3.15381 28.2284 2.90458 28.7075C2.88605 28.743 2.86905 28.7794 2.85065 28.8151C2.5977 29.3075 2.35898 29.8088 2.13892 30.3207C2.12962 30.3423 2.12148 30.3644 2.11218 30.386C1.88686 30.9146 1.67795 31.4523 1.48944 32C4.69757 41.3211 13.3518 48 23.5263 48C26.2578 48 30.342 48 33.2631 48C24.3077 44.7487 15.967 34.7199 15.7472 24.4153Z" fill="#3B3751"/>
<path d="M31.3157 24C31.3157 28.3535 27.929 31.8924 23.714 31.9951C23.7279 31.9983 23.6837 32 23.5263 32H30.3421C35.2632 32 39.6486 34.3459 42.5036 38.0055C45.2663 34.0639 46.8947 29.2275 46.8947 24C46.8947 23.8075 46.892 23.6158 46.8875 23.4244C46.8861 23.3595 46.8834 23.2949 46.8815 23.2302C46.8775 23.1043 46.8732 22.9784 46.8675 22.8529C46.8639 22.775 46.8595 22.6973 46.8552 22.6196C46.8491 22.5084 46.8423 22.3973 46.8346 22.2865C46.8289 22.2024 46.8228 22.1185 46.8162 22.0347C46.808 21.9316 46.7989 21.8288 46.7895 21.7261C46.7814 21.6379 46.7735 21.5497 46.7646 21.4617C46.7548 21.3666 46.7437 21.2719 46.7329 21.177C46.7222 21.0833 46.7122 20.9895 46.7004 20.8962C46.6991 20.8853 46.6974 20.8745 46.696 20.8636C46.6599 20.5799 46.6181 20.2981 46.5725 20.0176C46.5639 19.9654 46.556 19.913 46.5472 19.861C46.526 19.7355 46.5031 19.6107 46.48 19.486C46.4707 19.4357 46.4615 19.3854 46.4519 19.3352C46.4272 19.2061 46.4012 19.0775 46.3745 18.9492C46.3659 18.9085 46.3573 18.8679 46.3486 18.8273C46.3191 18.6894 46.2887 18.5517 46.2569 18.4147C46.2528 18.3971 46.2486 18.3796 46.2444 18.3621C43.7748 7.82778 34.5413 0 23.5263 0C20.7948 0 18.1734 0.482968 15.7368 1.36758C24.8126 4.66241 31.3157 13.5505 31.3157 24Z" fill="#3B3751"/>
<path opacity="0.8" d="M30.3421 32H23.5264C19.36 32 15.9578 28.6407 15.7473 24.4155C15.9438 33.624 22.6262 42.6078 30.4363 46.736C30.6218 46.8341 30.8079 46.9299 30.9946 47.0226C31.0694 47.0597 31.1444 47.0954 31.2194 47.1316C31.39 47.2141 31.5609 47.2955 31.7323 47.3733C31.8506 47.4268 31.9694 47.4772 32.0881 47.5284C32.2205 47.5857 32.3527 47.6444 32.4856 47.6988C32.7442 47.8044 33.0034 47.9057 33.2632 48H45.921C45.921 39.1635 38.9462 32 30.3421 32Z" fill="#3B3751"/>
</svg>
