<svg width="164" height="48" viewBox="0 0 164 48" fill="none" xmlns="http://www.w3.org/2000/svg">
<path d="M87.7112 21.7498V30.1841C87.7112 31.1962 86.9015 31.9384 85.889 31.9384C84.8095 31.9384 84.0669 31.1962 84.0669 30.1841V22.4246C84.0669 20.5017 83.2914 19.1858 81.098 19.1858C78.6688 19.1858 77.7248 20.5017 77.7248 22.391V30.1842C77.7248 31.1963 76.9151 31.9385 75.9027 31.9385C74.8231 31.9385 74.0805 31.1963 74.0805 30.1842V22.4246C74.0805 20.5017 73.305 19.1858 71.1116 19.1858C68.5818 19.1858 67.7384 20.6702 67.7384 22.6609V30.1842C67.7384 31.1963 66.9623 31.9386 65.9163 31.9386C64.8703 31.9386 64.0941 31.1963 64.0941 30.1842V17.9037C64.0941 16.8916 64.9038 16.0818 65.9163 16.0818C66.9287 16.0818 67.7384 16.8916 67.7384 17.9037C68.379 16.9251 69.7963 15.8794 72.0568 15.8794C74.823 15.8794 76.2061 16.7566 77.0494 18.0725C78.129 16.6216 79.5798 15.8794 81.874 15.8794C86.4624 15.8795 87.7112 18.8145 87.7112 21.7498Z" fill="white"/>
<path d="M97.5277 15.8801C103.229 15.8801 104.275 20.266 104.275 22.5937C104.275 23.8422 104.275 25.2927 102.217 25.2927H93.8835C93.8835 27.7219 95.6042 28.8353 97.8313 28.8353C99.3157 28.8353 100.361 28.3294 101.171 27.7896C101.542 27.5533 101.812 27.4183 102.25 27.4183C103.128 27.4183 103.836 28.1267 103.836 29.0042C103.836 29.544 103.566 29.9824 103.263 30.2523C102.689 30.7921 100.901 32.108 97.8313 32.108C93.1416 32.108 90.2405 29.5775 90.2405 23.9432C90.2404 18.7816 92.9394 15.8801 97.5277 15.8801ZM93.9848 22.2566H100.665C100.665 20.6033 99.7205 18.9839 97.5277 18.9839C95.5706 18.984 94.1533 20.0974 93.9848 22.2566Z" fill="white"/>
<path d="M130.421 21.7498V30.1841C130.421 31.1962 129.611 31.9384 128.599 31.9384C127.519 31.9384 126.777 31.1962 126.777 30.1841V22.4246C126.777 20.5017 126.001 19.1858 123.808 19.1858C121.379 19.1858 120.435 20.5017 120.435 22.391V30.1842C120.435 31.1963 119.625 31.9385 118.613 31.9385C117.533 31.9385 116.79 31.1963 116.79 30.1842V22.4246C116.79 20.5017 116.015 19.1858 113.822 19.1858C111.292 19.1858 110.448 20.6702 110.448 22.6609V30.1842C110.448 31.1963 109.672 31.9386 108.626 31.9386C107.58 31.9386 106.804 31.1963 106.804 30.1842V17.9037C106.804 16.8916 107.614 16.0818 108.626 16.0818C109.639 16.0818 110.448 16.8916 110.448 17.9037C111.089 16.9251 112.506 15.8794 114.767 15.8794C117.533 15.8794 118.916 16.7566 119.759 18.0725C120.839 16.6216 122.29 15.8794 124.584 15.8794C129.172 15.8795 130.421 18.8145 130.421 21.7498Z" fill="white"/>
<path d="M140.305 32.108C135.75 32.108 132.916 29.51 132.916 24.011C132.916 18.478 135.75 15.8801 140.305 15.8801C144.86 15.8801 147.694 18.4781 147.694 24.011C147.694 29.51 144.86 32.108 140.305 32.108ZM140.305 18.984C137.876 18.984 136.594 20.6709 136.594 24.011C136.594 27.317 137.876 29.0042 140.305 29.0042C142.734 29.0042 144.016 27.317 144.016 24.011C144.016 20.6708 142.734 18.984 140.305 18.984Z" fill="white"/>
<path d="M149.683 23.9764C149.683 18.4773 152.348 15.8794 156.902 15.8794C160.985 15.8794 163.886 18.1397 163.886 22.6269V36.6279C163.886 37.6403 163.077 38.45 162.064 38.45C161.052 38.45 160.243 37.6403 160.243 36.6279V30.7578C159.568 31.4326 158.151 32.1074 156.531 32.1074C152.281 32.1073 149.683 29.4755 149.683 23.9764ZM160.243 22.6269C160.243 20.2988 158.86 18.9832 156.903 18.9832C154.575 18.9832 153.292 20.6701 153.292 23.9763C153.292 27.3162 154.608 29.0034 156.903 29.0034C158.927 29.0034 160.243 27.2826 160.243 27.2826V22.6269Z" fill="white"/>
<path d="M16.0106 24.415C16.0036 24.2774 15.9998 24.139 15.9998 23.9997C15.9998 23.9955 16.0007 23.9916 16.0007 23.9874C16.0069 19.5751 19.5852 16 23.9987 15.9998C23.6642 15.9998 23.3312 16.0071 23 16.0206H22.9999C22.3775 16.0461 21.7614 16.0957 21.1522 16.1678C21.1476 16.1683 21.1428 16.1687 21.138 16.1693C20.5453 16.2397 19.9597 16.3336 19.3809 16.4464C19.3553 16.4515 19.329 16.4554 19.3034 16.4605C18.7412 16.572 18.187 16.7052 17.6397 16.8553C17.5997 16.8663 17.5591 16.8759 17.5193 16.8871C16.9853 17.0365 16.4595 17.206 15.9412 17.3908C15.8908 17.4087 15.8399 17.4255 15.7898 17.4437C15.2816 17.6288 14.7823 17.8321 14.2909 18.0498C14.2348 18.0747 14.1782 18.0985 14.1224 18.1238C13.6393 18.3424 13.1652 18.5777 12.6997 18.8267C12.64 18.8586 12.58 18.8899 12.5207 18.9223C12.0621 19.1726 11.6131 19.4383 11.1733 19.717C11.1124 19.7556 11.0513 19.7941 10.9906 19.8333C10.5561 20.1143 10.1315 20.4092 9.71677 20.7168C9.65744 20.7609 9.59824 20.8051 9.53936 20.8497C9.1285 21.1603 8.72812 21.4838 8.33853 21.8197C8.28203 21.8685 8.22618 21.9177 8.17001 21.967C7.78345 22.3067 7.4073 22.6582 7.04326 23.0219C6.99203 23.0731 6.94152 23.125 6.89074 23.1767C6.52796 23.5458 6.1761 23.9255 5.83749 24.3174C5.79304 24.3688 5.7499 24.4212 5.70578 24.473C5.36743 24.8714 5.04053 25.2798 4.72839 25.6999C4.69138 25.7497 4.65568 25.8006 4.61907 25.8508C4.30627 26.2787 4.00551 26.7161 3.72083 27.1649C3.69245 27.2098 3.66558 27.2557 3.63733 27.3008C3.35041 27.7599 3.07679 28.2281 2.82081 28.7073C2.80178 28.7428 2.78433 28.7792 2.76543 28.8149C2.50564 29.3073 2.26047 29.8085 2.03446 30.3204C2.02491 30.342 2.01655 30.3641 2.007 30.3857C1.77559 30.9143 1.56104 31.452 1.36743 31.9997C4.66227 41.3209 13.5504 47.9997 23.9999 47.9997C26.8052 47.9997 30.9998 47.9997 33.9998 47.9997C24.8024 44.7484 16.2362 34.7197 16.0106 24.415Z" fill="white"/>
<path d="M32 24C32 28.3535 28.5217 31.8924 24.1928 31.9951C24.207 31.9983 24.1617 32 24 32H31C36.0542 32 40.558 34.3459 43.4902 38.0055C46.3276 34.0639 48 29.2275 48 24C48 23.8075 47.9972 23.6158 47.9926 23.4244C47.9911 23.3595 47.9884 23.2949 47.9864 23.2302C47.9824 23.1043 47.978 22.9784 47.972 22.8529C47.9683 22.775 47.9639 22.6973 47.9595 22.6196C47.9531 22.5084 47.9462 22.3973 47.9383 22.2865C47.9324 22.2024 47.9261 22.1185 47.9194 22.0347C47.911 21.9317 47.9016 21.8288 47.892 21.7261C47.8837 21.6379 47.8756 21.5497 47.8663 21.4617C47.8563 21.3666 47.8449 21.2719 47.8338 21.177C47.8228 21.0833 47.8125 20.9895 47.8005 20.8962C47.7991 20.8853 47.7973 20.8745 47.7959 20.8636C47.7589 20.5799 47.7159 20.2981 47.669 20.0176C47.6603 19.9654 47.6522 19.913 47.6431 19.861C47.6213 19.7355 47.5979 19.6107 47.5741 19.486C47.5645 19.4357 47.5551 19.3854 47.5452 19.3352C47.5198 19.2061 47.4931 19.0775 47.4657 18.9492C47.4569 18.9085 47.4481 18.8679 47.4391 18.8273C47.4089 18.6894 47.3776 18.5517 47.345 18.4147C47.3408 18.3971 47.3364 18.3796 47.3321 18.3621C44.7958 7.82778 35.3127 0 24 0C21.1946 0 18.5024 0.482968 16 1.36758C25.3211 4.66241 32 13.5505 32 24Z" fill="white"/>
<path d="M15.9994 2.76918C16.0317 2.78143 16.0639 2.79367 16.0962 2.80599L16.233 2.85887C16.394 2.92156 16.5541 2.9857 16.7134 3.05202L16.7635 3.07243C16.9381 3.14573 17.1113 3.22165 17.2826 3.29851L17.4073 3.35534C17.5585 3.42442 17.7089 3.49481 17.8601 3.56798L17.8999 3.58694L17.9298 3.60123C18.1011 3.68467 18.2711 3.77067 18.4388 3.8578L18.4986 3.88921L18.5386 3.91041C18.688 3.98898 18.8365 4.06892 18.9846 4.15111L19.0224 4.17198L19.056 4.19042C19.2256 4.28538 19.3939 4.38238 19.5863 4.49677L19.6232 4.51903C19.7765 4.6107 19.9285 4.70401 20.0799 4.79957L20.1122 4.81985L20.1402 4.83743C20.3095 4.9449 20.4773 5.05422 20.6544 5.17348C20.8175 5.28339 20.9788 5.39554 21.1388 5.5094L21.9028 4.43658L21.1808 5.53923C21.5122 5.77637 21.8408 6.02509 22.1744 6.292C25.4732 8.93706 27.9611 12.4279 29.372 16.3902C27.8528 15.3144 25.9989 14.6816 24 14.6816C14.5851 14.6816 6.03315 19.922 1.67761 28.046C1.43784 26.717 1.31707 25.3645 1.31707 23.9987C1.31707 14.5578 7.19743 6.08588 15.9994 2.76918ZM16.0008 1.3667H16.0006C6.67917 4.66121 0 13.5492 0 23.9988C0 26.8041 0.482968 29.4964 1.36758 31.9988C4.66248 22.6777 13.5505 15.9988 24 15.9988C28.4182 15.9988 32 19.5805 32 23.9988C32 21.1935 31.518 18.501 30.6334 15.9988H30.6306C29.1252 11.7412 26.4532 8.0348 22.9983 5.26455C22.9924 5.25981 22.9864 5.25501 22.9804 5.25027C22.6434 4.9806 22.2989 4.71988 21.9473 4.46826C21.9325 4.45772 21.9177 4.44718 21.9029 4.43665C21.7336 4.31614 21.563 4.1976 21.3905 4.0813C21.3866 4.07874 21.3828 4.0761 21.3789 4.07353C21.2031 3.95519 21.0256 3.83942 20.8465 3.7257C20.8252 3.7122 20.8037 3.69896 20.7824 3.68553C20.6226 3.5847 20.4616 3.48586 20.2994 3.38879C20.2773 3.37562 20.2554 3.36212 20.2332 3.34895C20.0565 3.24411 19.8785 3.14145 19.699 3.04109C19.6737 3.02693 19.6483 3.01329 19.6231 2.99927C19.467 2.9126 19.3098 2.82785 19.1515 2.74468C19.1166 2.72637 19.082 2.70787 19.0471 2.68969C18.8683 2.59677 18.6883 2.50576 18.5069 2.41732C18.4821 2.40521 18.457 2.39362 18.4322 2.38163C18.2739 2.30504 18.1146 2.23043 17.9544 2.15727C17.9107 2.13731 17.8671 2.11729 17.8233 2.0976C17.6409 2.01568 17.4577 1.93547 17.273 1.85796C17.2553 1.85059 17.2374 1.84354 17.2196 1.83617C17.0511 1.76597 16.8816 1.69807 16.7111 1.63169C16.663 1.61286 16.6147 1.59416 16.5662 1.57565C16.3788 1.50407 16.1905 1.4338 16.0008 1.3667Z" fill="white"/>
<path d="M19.0358 31.888C20.4751 32.7943 22.1784 33.3168 24 33.3168H30.9999C38.6524 33.3168 44.9562 39.201 45.6243 46.6826H34.2302C34.0492 46.6161 33.8686 46.5465 33.6888 46.4749C33.5926 46.4366 33.4967 46.3959 33.4007 46.3551L33.3027 46.3136L33.2346 46.2851C33.1424 46.2465 33.0502 46.208 32.96 46.1684C32.7936 46.0948 32.6278 46.0179 32.4603 45.9389L32.4067 45.9138L32.2436 45.8368C32.0617 45.7488 31.8804 45.658 31.6994 45.5647C26.047 42.6557 21.4079 37.4808 19.0358 31.888ZM16.0107 24.4153C16.2125 33.6237 23.0755 42.6076 31.0966 46.7357C31.2872 46.8338 31.4783 46.9296 31.6701 47.0224C31.7468 47.0594 31.8239 47.0952 31.9009 47.1312C32.0761 47.2138 32.2516 47.2952 32.4277 47.3731C32.5491 47.4265 32.6712 47.477 32.7931 47.5281C32.929 47.5856 33.0649 47.6442 33.2013 47.6986C33.4669 47.8042 33.7331 47.9055 34 47.9998H46.9999C46.9999 39.1633 39.8365 31.9998 30.9999 31.9998H24.0001C19.7211 31.9997 16.2269 28.6404 16.0107 24.4153Z" fill="white"/>
</svg>
