<svg width="164" height="48" viewBox="0 0 164 48" fill="none" xmlns="http://www.w3.org/2000/svg">
<path d="M87.7535 21.7506V30.185C87.7535 31.1971 86.9434 31.9393 85.9305 31.9393C84.8504 31.9393 84.1075 31.1971 84.1075 30.185V22.4254C84.1075 20.5026 83.3316 19.1866 81.1371 19.1866C78.7068 19.1866 77.7623 20.5026 77.7623 22.3918V30.185C77.7623 31.1971 76.9522 31.9394 75.9393 31.9394C74.8592 31.9394 74.1163 31.1971 74.1163 30.185V22.4254C74.1163 20.5026 73.3404 19.1866 71.1459 19.1866C68.6149 19.1866 67.7711 20.6711 67.7711 22.6618V30.1851C67.7711 31.1972 66.9946 31.9394 65.9481 31.9394C64.9016 31.9394 64.1251 31.1972 64.1251 30.1851V17.9045C64.1251 16.8924 64.9352 16.0827 65.9481 16.0827C66.961 16.0827 67.7711 16.8924 67.7711 17.9045C68.412 16.9259 69.83 15.8802 72.0916 15.8802C74.8591 15.8802 76.2428 16.7574 77.0866 18.0734C78.1667 16.6225 79.6183 15.8802 81.9135 15.8802C86.5042 15.8803 87.7535 18.8153 87.7535 21.7506Z" fill="#3B3751"/>
<path d="M97.5748 15.8807C103.279 15.8807 104.326 20.2666 104.326 22.5943C104.326 23.8428 104.326 25.2933 102.266 25.2933H93.9288C93.9288 27.7225 95.6503 28.8359 97.8784 28.8359C99.3636 28.8359 100.409 28.33 101.22 27.7902C101.591 27.5539 101.861 27.419 102.3 27.419C103.178 27.419 103.886 28.1273 103.886 29.0048C103.886 29.5446 103.616 29.983 103.313 30.2529C102.739 30.7927 100.95 32.1086 97.8784 32.1086C93.1865 32.1086 90.284 29.5782 90.284 23.9438C90.2839 18.7822 92.9842 15.8807 97.5748 15.8807ZM94.0302 22.2572H100.714C100.714 20.6039 99.7686 18.9845 97.5748 18.9845C95.6167 18.9846 94.1987 20.098 94.0302 22.2572Z" fill="#3B3751"/>
<path d="M130.484 21.7511V30.1855C130.484 31.1976 129.674 31.9398 128.661 31.9398C127.581 31.9398 126.838 31.1976 126.838 30.1855V22.4259C126.838 20.503 126.062 19.1871 123.868 19.1871C121.438 19.1871 120.493 20.503 120.493 22.3923V30.1855C120.493 31.1976 119.683 31.9399 118.67 31.9399C117.59 31.9399 116.847 31.1976 116.847 30.1855V22.4259C116.847 20.503 116.071 19.1871 113.877 19.1871C111.346 19.1871 110.502 20.6716 110.502 22.6622V30.1856C110.502 31.1977 109.725 31.9399 108.679 31.9399C107.632 31.9399 106.856 31.1977 106.856 30.1856V17.905C106.856 16.8929 107.666 16.0832 108.679 16.0832C109.692 16.0832 110.502 16.8929 110.502 17.905C111.143 16.9264 112.561 15.8807 114.822 15.8807C117.59 15.8807 118.974 16.7579 119.817 18.0738C120.897 16.623 122.349 15.8807 124.644 15.8807C129.235 15.8808 130.484 18.8158 130.484 21.7511Z" fill="#3B3751"/>
<path d="M140.373 32.1086C135.816 32.1086 132.981 29.5107 132.981 24.0116C132.981 18.4786 135.816 15.8807 140.373 15.8807C144.93 15.8807 147.765 18.4787 147.765 24.0116C147.765 29.5107 144.93 32.1086 140.373 32.1086ZM140.373 18.9846C137.942 18.9846 136.66 20.6715 136.66 24.0116C136.66 27.3176 137.943 29.0048 140.373 29.0048C142.803 29.0048 144.086 27.3176 144.086 24.0116C144.086 20.6714 142.803 18.9846 140.373 18.9846Z" fill="#3B3751"/>
<path d="M149.755 23.9777C149.755 18.4787 152.422 15.8807 156.978 15.8807C161.062 15.8807 163.966 18.141 163.966 22.6283V36.6292C163.966 37.6416 163.155 38.4514 162.143 38.4514C161.13 38.4514 160.32 37.6416 160.32 36.6292V30.7592C159.645 31.4339 158.227 32.1087 156.607 32.1087C152.354 32.1086 149.755 29.4768 149.755 23.9777ZM160.32 22.6282C160.32 20.3002 158.936 18.9845 156.978 18.9845C154.65 18.9845 153.367 20.6714 153.367 23.9777C153.367 27.3175 154.683 29.0047 156.978 29.0047C159.004 29.0047 160.32 27.284 160.32 27.284V22.6282Z" fill="#3B3751"/>
<path d="M32.0155 23.9996C32.0155 21.1943 31.5332 18.5018 30.6482 15.9996H30.6455C29.1394 11.7419 26.4661 8.03565 23.0095 5.2654C23.0035 5.26066 22.9976 5.25585 22.9916 5.25111C22.6544 4.98137 22.3097 4.72066 21.958 4.4691C21.9431 4.4585 21.9283 4.44803 21.9134 4.43749C21.7441 4.31698 21.5734 4.19838 21.4008 4.08221C21.397 4.07958 21.3932 4.07695 21.3893 4.07438C21.2135 3.95611 21.0357 3.84027 20.8566 3.72661C20.8353 3.71311 20.8138 3.6998 20.7925 3.68637C20.6327 3.58561 20.4716 3.48677 20.3093 3.3897C20.2871 3.37646 20.2652 3.36303 20.243 3.34986C20.0663 3.24496 19.8881 3.14236 19.7085 3.04193C19.6834 3.02784 19.6579 3.01414 19.6326 3.00018C19.4764 2.91352 19.3191 2.82876 19.1608 2.74559C19.1259 2.72728 19.0912 2.70878 19.0563 2.69067C18.8774 2.59775 18.6973 2.50674 18.5158 2.4183C18.491 2.40618 18.4659 2.39459 18.4411 2.38261C18.2827 2.30602 18.1233 2.23141 17.963 2.15824C17.9193 2.13829 17.8757 2.11834 17.8319 2.09865C17.6494 2.01673 17.4661 1.93652 17.2813 1.85901C17.2636 1.85157 17.2457 1.84459 17.2279 1.83714C17.0594 1.76701 16.8897 1.69905 16.7193 1.63267C16.671 1.6139 16.6227 1.5952 16.5743 1.57669C16.3867 1.50505 16.1983 1.43478 16.0085 1.36768H16.0084C6.68233 4.66218 0 13.5502 0 23.9998C0 26.8051 0.483201 29.4974 1.36823 31.9998C4.66473 22.6787 13.5571 15.9998 24.0115 15.9998C28.432 15.9996 32.0155 19.5813 32.0155 23.9996Z" fill="#F47623"/>
<path d="M16.0184 24.4153C16.0114 24.2777 16.0076 24.1392 16.0076 23.9999C16.0076 23.9957 16.0085 23.9918 16.0085 23.9876C16.0147 19.5754 19.5947 16.0002 24.0104 16C23.6757 16 23.3426 16.0073 23.0113 16.0209H23.0111C22.3885 16.0464 21.772 16.0959 21.1625 16.1681C21.1579 16.1686 21.1532 16.1689 21.1484 16.1695C20.5553 16.24 19.9695 16.3338 19.3904 16.4467C19.3647 16.4518 19.3385 16.4556 19.3128 16.4607C18.7504 16.5723 18.1959 16.7055 17.6484 16.8556C17.6084 16.8666 17.5677 16.8762 17.5279 16.8874C16.9936 17.0368 16.4676 17.2062 15.949 17.391C15.8986 17.4089 15.8477 17.4257 15.7975 17.444C15.2891 17.629 14.7896 17.8323 14.2979 18.05C14.2418 18.0749 14.1852 18.0987 14.1293 18.124C13.646 18.3426 13.1717 18.578 12.7059 18.827C12.6462 18.8589 12.5862 18.8902 12.5268 18.9226C12.068 19.1729 11.6188 19.4385 11.1788 19.7173C11.1179 19.7559 11.0568 19.7943 10.9961 19.8335C10.5614 20.1145 10.1365 20.4094 9.72159 20.7171C9.66223 20.7611 9.603 20.8053 9.5441 20.8499C9.13304 21.1606 8.73246 21.4841 8.34269 21.82C8.28616 21.8687 8.23029 21.918 8.17409 21.9672C7.78734 22.307 7.41101 22.6585 7.04679 23.0221C6.99554 23.0733 6.945 23.1253 6.8942 23.177C6.53124 23.546 6.17922 23.9258 5.84044 24.3176C5.79597 24.369 5.75281 24.4214 5.70867 24.4733C5.37015 24.8716 5.0431 25.28 4.7308 25.7001C4.69377 25.75 4.65806 25.8009 4.62143 25.8511C4.30848 26.279 4.00758 26.7164 3.72276 27.1652C3.69436 27.21 3.66748 27.256 3.63922 27.3011C3.35216 27.7601 3.0784 28.2284 2.82231 28.7075C2.80327 28.743 2.78581 28.7794 2.7669 28.8151C2.50698 29.3075 2.26169 29.8088 2.03558 30.3207C2.02602 30.3423 2.01765 30.3644 2.0081 30.386C1.77658 30.9146 1.56193 31.4523 1.36823 32C4.66465 41.3211 13.5571 48 24.0116 48C26.8182 48 31.0149 48 34.0164 48C24.8145 44.7486 16.2442 34.7199 16.0184 24.4153Z" fill="#EF3F3F"/>
<path d="M32.0155 24C32.0155 28.3535 28.5355 31.8924 24.2046 31.9951C24.2188 31.9983 24.1734 32 24.0117 32H31.015C36.0717 32 40.5777 34.3459 43.5113 38.0055C46.3501 34.0639 48.0232 29.2275 48.0232 24C48.0232 23.8075 48.0204 23.6158 48.0159 23.4244C48.0144 23.3595 48.0117 23.2949 48.0096 23.2302C48.0056 23.1043 48.0012 22.9784 47.9953 22.8529C47.9916 22.775 47.9871 22.6973 47.9827 22.6196C47.9764 22.5084 47.9694 22.3973 47.9615 22.2865C47.9556 22.2024 47.9494 22.1185 47.9426 22.0347C47.9342 21.9316 47.9248 21.8288 47.9152 21.7261C47.9069 21.6379 47.8987 21.5497 47.8895 21.4617C47.8795 21.3666 47.8681 21.2719 47.857 21.177C47.846 21.0833 47.8357 20.9895 47.8236 20.8962C47.8223 20.8853 47.8205 20.8745 47.819 20.8636C47.782 20.5799 47.739 20.2981 47.6921 20.0176C47.6834 19.9654 47.6753 19.913 47.6662 19.861C47.6444 19.7355 47.6209 19.6107 47.5971 19.486C47.5876 19.4357 47.5782 19.3854 47.5683 19.3352C47.5428 19.2061 47.5162 19.0775 47.4887 18.9492C47.4799 18.9085 47.4711 18.8679 47.4621 18.8273C47.4318 18.6894 47.4006 18.5517 47.3679 18.4147C47.3637 18.3971 47.3593 18.3796 47.3551 18.3621C44.8175 7.82778 35.3299 0 24.0117 0C21.205 0 18.5114 0.482968 16.0078 1.36758C25.3334 4.66241 32.0155 13.5505 32.0155 24Z" fill="#EF3F3F"/>
<path d="M31.0149 32H24.0116C19.7306 32 16.2347 28.6407 16.0184 24.4155C16.2203 33.624 23.0867 42.6078 31.1116 46.736C31.3023 46.8341 31.4935 46.9299 31.6854 47.0226C31.7622 47.0597 31.8393 47.0954 31.9163 47.1315C32.0916 47.2141 32.2672 47.2955 32.4434 47.3733C32.5649 47.4268 32.687 47.4772 32.8089 47.5284C32.945 47.5857 33.0809 47.6444 33.2174 47.6988C33.4831 47.8044 33.7494 47.9057 34.0164 48H47.0226C47.0226 39.1635 39.8558 32 31.0149 32Z" fill="#F47623"/>
</svg>
