<svg width="64" height="64" viewBox="0 0 64 64" fill="none" xmlns="http://www.w3.org/2000/svg">
<path d="M42.6667 32.0002C42.6667 28.2598 42.0241 24.6698 40.8446 21.3335H40.841C38.8338 15.6566 35.2711 10.7149 30.6645 7.02119C30.6566 7.01487 30.6487 7.00846 30.6407 7.00214C30.1913 6.64249 29.7319 6.29487 29.2632 5.95946C29.2434 5.94532 29.2236 5.93136 29.2038 5.91731C28.9782 5.75663 28.7507 5.5985 28.5207 5.44361C28.5156 5.4401 28.5105 5.43658 28.5053 5.43316C28.271 5.27546 28.0341 5.12101 27.7954 4.96946C27.767 4.95146 27.7384 4.93373 27.7099 4.91582C27.497 4.78147 27.2823 4.64968 27.066 4.52026C27.0365 4.50261 27.0072 4.4847 26.9776 4.46713C26.7421 4.32726 26.5047 4.19046 26.2654 4.05656C26.2318 4.03777 26.1979 4.01951 26.1642 4.00089C25.956 3.88534 25.7464 3.77234 25.5354 3.66144C25.4889 3.63703 25.4427 3.61236 25.3962 3.58821C25.1577 3.46432 24.9177 3.34297 24.6758 3.22505C24.6428 3.2089 24.6094 3.19344 24.5763 3.17746C24.3652 3.07535 24.1527 2.97586 23.9391 2.87831C23.8809 2.85171 23.8227 2.8251 23.7644 2.79885C23.5212 2.68962 23.2769 2.58267 23.0307 2.47933C23.007 2.46941 22.9832 2.4601 22.9594 2.45018C22.7348 2.35667 22.5087 2.26605 22.2816 2.17754C22.2173 2.15252 22.153 2.12758 22.0884 2.10291C21.8384 2.00738 21.5873 1.91369 21.3344 1.82422H21.3342C8.90548 6.2169 0 18.0676 0 32.0004C0 35.7409 0.643958 39.3305 1.82343 42.6671C6.21664 30.239 18.0674 21.3338 32 21.3338C37.891 21.3335 42.6667 26.1091 42.6667 32.0002Z" fill="url(#paint0_linear)"/>
<path d="M21.3483 32.5543C21.339 32.3709 21.3339 32.1863 21.3339 32.0006C21.3339 31.9949 21.3351 31.9898 21.3351 31.9841C21.3434 26.1012 26.1144 21.3342 31.9991 21.334C31.5531 21.334 31.1091 21.3437 30.6676 21.3618H30.6674C29.8376 21.3958 29.0161 21.4619 28.2038 21.5581C28.1976 21.5588 28.1913 21.5592 28.1849 21.56C27.3946 21.6539 26.6138 21.7791 25.8421 21.9296C25.8079 21.9363 25.7729 21.9415 25.7387 21.9483C24.9892 22.097 24.2501 22.2746 23.5205 22.4747C23.4672 22.4894 23.413 22.5022 23.3599 22.5171C22.6479 22.7164 21.9468 22.9423 21.2557 23.1887C21.1887 23.2126 21.1208 23.235 21.0539 23.2593C20.3764 23.506 19.7106 23.7771 19.0554 24.0673C18.9806 24.1005 18.9051 24.1323 18.8307 24.166C18.1865 24.4575 17.5545 24.7713 16.9337 25.1033C16.8542 25.1458 16.7742 25.1875 16.6951 25.2307C16.0836 25.5645 15.485 25.9187 14.8986 26.2904C14.8174 26.3418 14.7359 26.3931 14.655 26.4453C14.0757 26.82 13.5095 27.2132 12.9566 27.6234C12.8774 27.6822 12.7985 27.7411 12.72 27.8005C12.1722 28.2148 11.6383 28.6461 11.1189 29.094C11.0436 29.1589 10.9691 29.2246 10.8942 29.2903C10.3788 29.7433 9.87725 30.212 9.39187 30.6968C9.32356 30.7651 9.25621 30.8343 9.18851 30.9033C8.7048 31.3953 8.23566 31.9017 7.78417 32.4241C7.7249 32.4927 7.66739 32.5626 7.60856 32.6317C7.15742 33.1628 6.72156 33.7074 6.30537 34.2675C6.25602 34.334 6.20843 34.4018 6.15961 34.4687C5.74254 35.0393 5.34154 35.6225 4.96196 36.2209C4.92412 36.2807 4.8883 36.342 4.85063 36.4021C4.46806 37.0142 4.10324 37.6385 3.76194 38.2774C3.73656 38.3247 3.7133 38.3732 3.6881 38.4208C3.34171 39.0773 3.01481 39.7457 2.71347 40.4282C2.70074 40.457 2.68959 40.4865 2.67685 40.5153C2.36831 41.2201 2.08224 41.937 1.8241 42.6673C6.21721 55.0955 18.0681 64.0007 32.0007 64.0007C35.7411 64.0007 41.334 64.0007 45.334 64.0007C33.0707 59.6656 21.6492 46.2939 21.3483 32.5543Z" fill="url(#paint1_linear)"/>
<path d="M42.6667 32C42.6667 37.8048 38.0289 42.5232 32.2571 42.6602C32.2761 42.6645 32.2156 42.6667 32 42.6667H41.3334C48.0723 42.6667 54.0774 45.7946 57.987 50.6741C61.7702 45.4185 64 38.97 64 32C64 31.7434 63.9963 31.4877 63.9902 31.2326C63.9882 31.1461 63.9846 31.06 63.9819 30.9737C63.9765 30.8058 63.9707 30.6379 63.9628 30.4706C63.9578 30.3667 63.9519 30.2631 63.946 30.1595C63.9376 30.0112 63.9283 29.8631 63.9178 29.7153C63.9099 29.6033 63.9016 29.4913 63.8925 29.3797C63.8814 29.2422 63.8688 29.1052 63.856 28.9682C63.8449 28.8505 63.8341 28.733 63.8218 28.6157C63.8085 28.4888 63.7933 28.3625 63.7785 28.236C63.7638 28.1111 63.7501 27.986 63.734 27.8617C63.7322 27.8471 63.7298 27.8327 63.7279 27.8182C63.6785 27.44 63.6213 27.0642 63.5588 26.6902C63.5471 26.6206 63.5363 26.5507 63.5242 26.4813C63.4951 26.314 63.4639 26.1477 63.4322 25.9814C63.4194 25.9144 63.4069 25.8473 63.3937 25.7804C63.3598 25.6082 63.3242 25.4367 63.2876 25.2656C63.2759 25.2113 63.2642 25.1572 63.2522 25.1031C63.2119 24.9192 63.1702 24.7357 63.1267 24.5529C63.1211 24.5295 63.1153 24.5061 63.1096 24.4828C59.7278 10.4371 47.0837 0 32 0C28.2596 0 24.6699 0.643958 21.3334 1.82344C33.7615 6.21656 42.6667 18.0674 42.6667 32Z" fill="url(#paint2_linear)"/>
<path d="M41.3333 42.6664H32.0001C26.2948 42.6664 21.6359 38.1872 21.3477 32.5537C21.6167 44.8317 30.7674 56.8101 41.4622 62.3143C41.7163 62.4452 41.9711 62.5729 42.2268 62.6965C42.3292 62.746 42.4319 62.7936 42.5346 62.8418C42.7682 62.9518 43.0022 63.0604 43.237 63.1641C43.399 63.2354 43.5616 63.3027 43.7242 63.3709C43.9056 63.4474 44.0866 63.5256 44.2686 63.5981C44.6227 63.7389 44.9776 63.874 45.3334 63.9997H62.6666C62.6666 52.2177 53.1155 42.6664 41.3333 42.6664Z" fill="url(#paint3_linear)"/>
<defs>
<linearGradient id="paint0_linear" x1="30.1217" y1="5.02109" x2="14.7123" y2="47.358" gradientUnits="userSpaceOnUse">
<stop stop-color="#EF3F3F"/>
<stop offset="1" stop-color="#F47623"/>
</linearGradient>
<linearGradient id="paint1_linear" x1="14.5861" y1="25.6132" x2="30.5204" y2="69.3923" gradientUnits="userSpaceOnUse">
<stop stop-color="#EF3F3F"/>
<stop offset="1" stop-color="#F47623"/>
</linearGradient>
<linearGradient id="paint2_linear" x1="42.6666" y1="50.6741" x2="42.6666" y2="0" gradientUnits="userSpaceOnUse">
<stop stop-color="#EF3F3F"/>
<stop offset="1" stop-color="#F47623"/>
</linearGradient>
<linearGradient id="paint3_linear" x1="21.3477" y1="48.2768" x2="62.6666" y2="48.2768" gradientUnits="userSpaceOnUse">
<stop stop-color="#EF3F3F"/>
<stop offset="1" stop-color="#F47623"/>
</linearGradient>
</defs>
</svg>
