<svg width="64" height="65" viewBox="0 0 64 65" fill="none" xmlns="http://www.w3.org/2000/svg">
<path d="M42.6667 32.0002C42.6667 28.2598 42.0241 24.6698 40.8446 21.3335H40.841C38.8338 15.6566 35.2711 10.7149 30.6645 7.02119C30.6566 7.01487 30.6487 7.00846 30.6407 7.00214C30.1913 6.64249 29.7319 6.29487 29.2632 5.95946C29.2434 5.94532 29.2236 5.93136 29.2038 5.91731C28.9782 5.75663 28.7507 5.5985 28.5207 5.44361C28.5156 5.4401 28.5105 5.43658 28.5053 5.43316C28.271 5.27546 28.0341 5.12101 27.7954 4.96946C27.767 4.95146 27.7384 4.93373 27.7099 4.91582C27.497 4.78147 27.2823 4.64968 27.066 4.52026C27.0365 4.50261 27.0072 4.4847 26.9776 4.46713C26.7421 4.32726 26.5047 4.19046 26.2654 4.05656C26.2318 4.03777 26.1979 4.01951 26.1642 4.00089C25.956 3.88534 25.7464 3.77234 25.5354 3.66144C25.4889 3.63703 25.4427 3.61236 25.3962 3.58821C25.1577 3.46432 24.9177 3.34297 24.6758 3.22505C24.6428 3.2089 24.6094 3.19344 24.5763 3.17746C24.3652 3.07535 24.1527 2.97586 23.9391 2.87831C23.8809 2.85171 23.8227 2.8251 23.7644 2.79885C23.5212 2.68962 23.2769 2.58267 23.0307 2.47933C23.007 2.46941 22.9832 2.4601 22.9594 2.45018C22.7348 2.35667 22.5087 2.26605 22.2816 2.17754C22.2173 2.15252 22.153 2.12758 22.0884 2.10291C21.8384 2.00738 21.5873 1.91369 21.3344 1.82422H21.3342C8.90548 6.2169 0 18.0676 0 32.0004C0 35.7409 0.643958 39.3305 1.82343 42.6671C6.21664 30.239 18.0674 21.3338 32 21.3338C37.891 21.3335 42.6667 26.1091 42.6667 32.0002Z" fill="url(#paint0_linear)"/>
<path d="M21.3483 32.5548C21.339 32.3714 21.3339 32.1868 21.3339 32.0011C21.3339 31.9954 21.3351 31.9903 21.3351 31.9846C21.3434 26.1016 26.1144 21.3347 31.9991 21.3345C31.5531 21.3345 31.1091 21.3442 30.6676 21.3623H30.6674C29.8376 21.3963 29.0161 21.4624 28.2038 21.5585C28.1976 21.5593 28.1913 21.5597 28.1849 21.5605C27.3946 21.6544 26.6138 21.7796 25.8421 21.9301C25.8079 21.9368 25.7729 21.942 25.7387 21.9488C24.9892 22.0975 24.2501 22.2751 23.5205 22.4752C23.4672 22.4899 23.413 22.5027 23.3599 22.5176C22.6479 22.7169 21.9468 22.9428 21.2557 23.1892C21.1887 23.2131 21.1208 23.2354 21.0539 23.2598C20.3764 23.5065 19.7106 23.7775 19.0554 24.0678C18.9806 24.101 18.9051 24.1328 18.8307 24.1665C18.1865 24.4579 17.5545 24.7718 16.9337 25.1037C16.8542 25.1463 16.7742 25.188 16.6951 25.2312C16.0836 25.565 15.485 25.9192 14.8986 26.2909C14.8174 26.3423 14.7359 26.3936 14.655 26.4458C14.0757 26.8205 13.5095 27.2137 12.9566 27.6239C12.8774 27.6827 12.7985 27.7416 12.72 27.801C12.1722 28.2153 11.6383 28.6466 11.1189 29.0945C11.0436 29.1594 10.9691 29.2251 10.8942 29.2908C10.3788 29.7438 9.87725 30.2125 9.39187 30.6973C9.32356 30.7656 9.25621 30.8348 9.18851 30.9038C8.7048 31.3958 8.23566 31.9022 7.78417 32.4246C7.7249 32.4932 7.66739 32.5631 7.60856 32.6322C7.15742 33.1633 6.72156 33.7079 6.30537 34.268C6.25602 34.3345 6.20843 34.4023 6.15961 34.4692C5.74254 35.0398 5.34154 35.623 4.96196 36.2214C4.92412 36.2812 4.8883 36.3425 4.85063 36.4026C4.46806 37.0147 4.10324 37.639 3.76194 38.2778C3.73656 38.3252 3.7133 38.3737 3.6881 38.4213C3.34171 39.0778 3.01481 39.7462 2.71347 40.4287C2.70074 40.4575 2.68959 40.487 2.67685 40.5158C2.36831 41.2206 2.08224 41.9375 1.8241 42.6678C6.21721 55.096 18.0681 64.0011 32.0007 64.0011C35.7411 64.0011 41.334 64.0011 45.334 64.0011C33.0707 59.6661 21.6492 46.2944 21.3483 32.5548Z" fill="url(#paint1_linear)"/>
<path d="M42.6667 32.0002C42.6667 37.805 38.0289 42.5234 32.2571 42.6604C32.2761 42.6647 32.2156 42.6669 32 42.6669H41.3334C48.0723 42.6669 54.0774 45.7949 57.987 50.6743C61.7702 45.4188 64 38.9703 64 32.0002C64 31.7437 63.9963 31.488 63.9902 31.2328C63.9882 31.1463 63.9846 31.0602 63.9819 30.9739C63.9765 30.806 63.9707 30.6381 63.9628 30.4709C63.9578 30.367 63.9519 30.2634 63.946 30.1598C63.9376 30.0115 63.9283 29.8633 63.9178 29.7156C63.9099 29.6035 63.9016 29.4916 63.8925 29.3799C63.8814 29.2425 63.8688 29.1054 63.856 28.9684C63.8449 28.8508 63.8341 28.7332 63.8218 28.6159C63.8085 28.489 63.7933 28.3628 63.7785 28.2362C63.7638 28.1114 63.7501 27.9863 63.734 27.8619C63.7322 27.8474 63.7298 27.833 63.7279 27.8185C63.6785 27.4402 63.6213 27.0644 63.5588 26.6904C63.5471 26.6208 63.5363 26.5509 63.5242 26.4816C63.4951 26.3143 63.4639 26.1479 63.4322 25.9816C63.4194 25.9146 63.4069 25.8475 63.3937 25.7806C63.3598 25.6084 63.3242 25.4369 63.2876 25.2658C63.2759 25.2115 63.2642 25.1575 63.2522 25.1034C63.2119 24.9194 63.1702 24.7359 63.1267 24.5532C63.1211 24.5297 63.1153 24.5064 63.1096 24.483C59.7278 10.4373 47.0837 0.000244141 32 0.000244141C28.2596 0.000244141 24.6699 0.644203 21.3334 1.82368C33.7615 6.2168 42.6667 18.0676 42.6667 32.0002Z" fill="url(#paint2_linear)"/>
<path d="M41.3333 42.6667H32.0001C26.2948 42.6667 21.6359 38.1875 21.3477 32.554C21.6167 44.8319 30.7674 56.8104 41.4622 62.3146C41.7163 62.4454 41.9711 62.5732 42.2268 62.6968C42.3292 62.7462 42.4319 62.7938 42.5346 62.842C42.7682 62.952 43.0022 63.0606 43.237 63.1643C43.399 63.2356 43.5616 63.3029 43.7242 63.3711C43.9056 63.4476 44.0866 63.5258 44.2686 63.5984C44.6227 63.7391 44.9776 63.8742 45.3334 64H62.6666C62.6666 52.2179 53.1155 42.6667 41.3333 42.6667Z" fill="url(#paint3_linear)"/>
<defs>
<linearGradient id="paint0_linear" x1="30.1217" y1="5.02109" x2="14.7123" y2="47.358" gradientUnits="userSpaceOnUse">
<stop stop-color="#EF3F3F"/>
<stop offset="1" stop-color="#F47623"/>
</linearGradient>
<linearGradient id="paint1_linear" x1="14.5861" y1="25.6137" x2="30.5204" y2="69.3928" gradientUnits="userSpaceOnUse">
<stop stop-color="#EF3F3F"/>
<stop offset="1" stop-color="#F47623"/>
</linearGradient>
<linearGradient id="paint2_linear" x1="42.6666" y1="50.6743" x2="42.6666" y2="0.000244141" gradientUnits="userSpaceOnUse">
<stop stop-color="#EF3F3F"/>
<stop offset="1" stop-color="#F47623"/>
</linearGradient>
<linearGradient id="paint3_linear" x1="21.3477" y1="48.277" x2="62.6666" y2="48.277" gradientUnits="userSpaceOnUse">
<stop stop-color="#EF3F3F"/>
<stop offset="1" stop-color="#F47623"/>
</linearGradient>
</defs>
</svg>
