<svg width="164" height="48" viewBox="0 0 164 48" fill="none" xmlns="http://www.w3.org/2000/svg">
<path d="M87.7112 21.7498V30.1841C87.7112 31.1962 86.9015 31.9384 85.8891 31.9384C84.8095 31.9384 84.0669 31.1962 84.0669 30.1841V22.4246C84.0669 20.5017 83.2914 19.1858 81.098 19.1858C78.6689 19.1858 77.7249 20.5017 77.7249 22.391V30.1842C77.7249 31.1963 76.9151 31.9385 75.9027 31.9385C74.8231 31.9385 74.0805 31.1963 74.0805 30.1842V22.4246C74.0805 20.5017 73.305 19.1858 71.1116 19.1858C68.5818 19.1858 67.7385 20.6702 67.7385 22.6609V30.1842C67.7385 31.1963 66.9623 31.9386 65.9163 31.9386C64.8703 31.9386 64.0941 31.1963 64.0941 30.1842V17.9037C64.0941 16.8916 64.9039 16.0818 65.9163 16.0818C66.9287 16.0818 67.7385 16.8916 67.7385 17.9037C68.379 16.9251 69.7963 15.8794 72.0569 15.8794C74.823 15.8794 76.2061 16.7566 77.0494 18.0725C78.129 16.6216 79.5799 15.8794 81.874 15.8794C86.4625 15.8795 87.7112 18.8145 87.7112 21.7498Z" fill="white"/>
<path d="M97.5277 15.8801C103.229 15.8801 104.275 20.266 104.275 22.5937C104.275 23.8422 104.275 25.2927 102.217 25.2927H93.8835C93.8835 27.7219 95.6042 28.8353 97.8313 28.8353C99.3157 28.8353 100.361 28.3294 101.171 27.7896C101.542 27.5533 101.812 27.4183 102.25 27.4183C103.128 27.4183 103.836 28.1267 103.836 29.0042C103.836 29.544 103.566 29.9824 103.263 30.2523C102.689 30.7921 100.901 32.108 97.8313 32.108C93.1416 32.108 90.2405 29.5775 90.2405 23.9432C90.2404 18.7816 92.9394 15.8801 97.5277 15.8801ZM93.9848 22.2566H100.665C100.665 20.6033 99.7205 18.9839 97.5277 18.9839C95.5706 18.984 94.1533 20.0974 93.9848 22.2566Z" fill="white"/>
<path d="M130.421 21.7498V30.1841C130.421 31.1962 129.612 31.9384 128.599 31.9384C127.52 31.9384 126.777 31.1962 126.777 30.1841V22.4246C126.777 20.5017 126.002 19.1858 123.808 19.1858C121.379 19.1858 120.435 20.5017 120.435 22.391V30.1842C120.435 31.1963 119.625 31.9385 118.613 31.9385C117.533 31.9385 116.791 31.1963 116.791 30.1842V22.4246C116.791 20.5017 116.015 19.1858 113.822 19.1858C111.292 19.1858 110.449 20.6702 110.449 22.6609V30.1842C110.449 31.1963 109.672 31.9386 108.626 31.9386C107.58 31.9386 106.804 31.1963 106.804 30.1842V17.9037C106.804 16.8916 107.614 16.0818 108.626 16.0818C109.639 16.0818 110.449 16.8916 110.449 17.9037C111.089 16.9251 112.506 15.8794 114.767 15.8794C117.533 15.8794 118.916 16.7566 119.759 18.0725C120.839 16.6216 122.29 15.8794 124.584 15.8794C129.173 15.8795 130.421 18.8145 130.421 21.7498Z" fill="white"/>
<path d="M140.305 32.108C135.75 32.108 132.916 29.51 132.916 24.011C132.916 18.478 135.75 15.8801 140.305 15.8801C144.86 15.8801 147.694 18.4781 147.694 24.011C147.694 29.51 144.86 32.108 140.305 32.108ZM140.305 18.984C137.876 18.984 136.594 20.6709 136.594 24.011C136.594 27.317 137.876 29.0042 140.305 29.0042C142.734 29.0042 144.017 27.317 144.017 24.011C144.017 20.6708 142.734 18.984 140.305 18.984Z" fill="white"/>
<path d="M149.683 23.9764C149.683 18.4773 152.348 15.8794 156.903 15.8794C160.985 15.8794 163.886 18.1397 163.886 22.6269V36.6279C163.886 37.6403 163.077 38.45 162.064 38.45C161.052 38.45 160.243 37.6403 160.243 36.6279V30.7578C159.568 31.4326 158.151 32.1074 156.531 32.1074C152.281 32.1073 149.683 29.4755 149.683 23.9764ZM160.243 22.6269C160.243 20.2988 158.86 18.9832 156.903 18.9832C154.575 18.9832 153.293 20.6701 153.293 23.9763C153.293 27.3162 154.609 29.0034 156.903 29.0034C158.927 29.0034 160.243 27.2826 160.243 27.2826V22.6269Z" fill="white"/>
<path opacity="0.8" d="M32 23.9998C32 21.1946 31.518 18.5021 30.6334 15.9999H30.6307C29.1253 11.7422 26.4533 8.03589 22.9984 5.26564C22.9924 5.2609 22.9865 5.2561 22.9805 5.25135C22.6435 4.98162 22.2989 4.72091 21.9474 4.46935C21.9326 4.45874 21.9177 4.44827 21.9029 4.43774C21.7336 4.31722 21.563 4.19862 21.3905 4.08246C21.3867 4.07982 21.3829 4.07719 21.379 4.07462C21.2032 3.95635 21.0256 3.84051 20.8465 3.72685C20.8252 3.71335 20.8038 3.70005 20.7824 3.68661C20.6227 3.58586 20.4617 3.48701 20.2995 3.38994C20.2773 3.37671 20.2554 3.36327 20.2332 3.3501C20.0566 3.2452 19.8785 3.1426 19.699 3.04217C19.6739 3.02808 19.6484 3.01438 19.6232 3.00042C19.467 2.91376 19.3098 2.82901 19.1515 2.74583C19.1167 2.72753 19.082 2.70902 19.0471 2.69091C18.8683 2.59799 18.6883 2.50698 18.5069 2.41854C18.4821 2.40643 18.457 2.39484 18.4322 2.38285C18.2739 2.30626 18.1145 2.23165 17.9543 2.15849C17.9106 2.13854 17.8671 2.11858 17.8233 2.09889C17.6409 2.01697 17.4577 1.93676 17.273 1.85925C17.2553 1.85181 17.2374 1.84483 17.2196 1.83739C17.0511 1.76725 16.8816 1.69929 16.7112 1.63291C16.663 1.61415 16.6147 1.59544 16.5663 1.57694C16.3788 1.50529 16.1905 1.43502 16.0008 1.36792H16.0006C6.6791 4.66243 0 13.5504 0 24C0 26.8054 0.482968 29.4976 1.36758 32C4.66248 22.679 13.5506 16.0001 24 16.0001C28.4183 15.9999 32 19.5816 32 23.9998Z" fill="white"/>
<path d="M16.0107 24.415C16.0037 24.2774 15.9999 24.139 15.9999 23.9997C15.9999 23.9955 16.0008 23.9916 16.0008 23.9874C16.007 19.5751 19.5853 16 23.9989 15.9998C23.6643 15.9998 23.3314 16.0071 23.0002 16.0206H23.0001C22.3777 16.0461 21.7616 16.0957 21.1523 16.1678C21.1477 16.1683 21.143 16.1687 21.1382 16.1693C20.5454 16.2397 19.9599 16.3336 19.3811 16.4464C19.3554 16.4515 19.3292 16.4554 19.3035 16.4605C18.7414 16.572 18.1871 16.7052 17.6399 16.8553C17.5999 16.8663 17.5593 16.8759 17.5194 16.8871C16.9854 17.0365 16.4596 17.206 15.9413 17.3908C15.891 17.4087 15.8401 17.4255 15.7899 17.4437C15.2818 17.6288 14.7825 17.8321 14.291 18.0498C14.235 18.0747 14.1784 18.0985 14.1225 18.1238C13.6394 18.3424 13.1654 18.5777 12.6998 18.8267C12.6402 18.8586 12.5802 18.8899 12.5208 18.9223C12.0622 19.1726 11.6132 19.4383 11.1735 19.717C11.1126 19.7556 11.0514 19.7941 10.9908 19.8333C10.5563 20.1143 10.1316 20.4092 9.71692 20.7168C9.65759 20.7609 9.59839 20.8051 9.53952 20.8497C9.12866 21.1603 8.72827 21.4838 8.33868 21.8197C8.28218 21.8685 8.22634 21.9177 8.17016 21.967C7.7836 22.3067 7.40745 22.6582 7.04341 23.0219C6.99218 23.0731 6.94167 23.125 6.8909 23.1767C6.52811 23.5458 6.17626 23.9255 5.83764 24.3174C5.79319 24.3688 5.75005 24.4212 5.70593 24.473C5.36758 24.8714 5.04068 25.2798 4.72854 25.6999C4.69153 25.7497 4.65584 25.8006 4.61922 25.8508C4.30642 26.2787 4.00567 26.7161 3.72098 27.1649C3.6926 27.2098 3.66573 27.2557 3.63748 27.3008C3.35056 27.7599 3.07694 28.2281 2.82097 28.7073C2.80193 28.7428 2.78448 28.7792 2.76558 28.8149C2.50579 29.3073 2.26062 29.8085 2.03461 30.3204C2.02506 30.342 2.0167 30.3641 2.00715 30.3857C1.77574 30.9143 1.56119 31.452 1.36758 31.9997C4.66242 41.3209 13.5506 47.9997 24 47.9997C26.8053 47.9997 31 47.9997 34 47.9997C24.8025 44.7484 16.2364 34.7197 16.0107 24.415Z" fill="white"/>
<path d="M32 24C32 28.3535 28.5217 31.8924 24.1928 31.9951C24.2071 31.9983 24.1617 32 24 32H31C36.0542 32 40.558 34.3459 43.4902 38.0055C46.3276 34.0639 48 29.2275 48 24C48 23.8075 47.9972 23.6158 47.9927 23.4244C47.9912 23.3595 47.9885 23.2949 47.9864 23.2302C47.9824 23.1043 47.978 22.9784 47.9721 22.8529C47.9684 22.775 47.9639 22.6973 47.9595 22.6196C47.9532 22.5084 47.9463 22.3973 47.9383 22.2865C47.9324 22.2024 47.9262 22.1185 47.9194 22.0347C47.911 21.9317 47.9016 21.8288 47.892 21.7261C47.8837 21.6379 47.8756 21.5497 47.8664 21.4617C47.8564 21.3666 47.845 21.2719 47.8338 21.177C47.8228 21.0833 47.8126 20.9895 47.8005 20.8962C47.7991 20.8853 47.7974 20.8745 47.7959 20.8636C47.7589 20.5799 47.716 20.2981 47.6691 20.0176C47.6603 19.9654 47.6522 19.913 47.6431 19.861C47.6213 19.7355 47.5979 19.6107 47.5741 19.486C47.5646 19.4357 47.5551 19.3854 47.5453 19.3352C47.5199 19.2061 47.4932 19.0775 47.4657 18.9492C47.457 18.9085 47.4481 18.8679 47.4392 18.8273C47.4089 18.6894 47.3777 18.5517 47.345 18.4147C47.3408 18.3971 47.3364 18.3796 47.3322 18.3621C44.7958 7.82778 35.3128 0 24 0C21.1947 0 18.5025 0.482968 16 1.36758C25.3211 4.66241 32 13.5505 32 24Z" fill="white"/>
<path opacity="0.8" d="M31 31.9993H24.0001C19.7211 31.9993 16.2269 28.6399 16.0107 24.4148C16.2125 33.6233 23.0755 42.6071 31.0967 46.7352C31.2873 46.8334 31.4784 46.9292 31.6701 47.0219C31.7469 47.059 31.824 47.0947 31.9009 47.1308C32.0762 47.2133 32.2517 47.2948 32.4278 47.3726C32.5493 47.426 32.6712 47.4765 32.7931 47.5277C32.9292 47.585 33.065 47.6437 33.2014 47.6981C33.467 47.8036 33.7332 47.905 34 47.9993H47C47 39.1628 39.8366 31.9993 31 31.9993Z" fill="white"/>
</svg>
